<?xml version="1.0" standalone="no"?>
<!DOCTYPE svg PUBLIC "-//W3C//DTD SVG 20010904//EN"
 "http://www.w3.org/TR/2001/REC-SVG-20010904/DTD/svg10.dtd">
<svg version="1.0" xmlns="http://www.w3.org/2000/svg"
 width="700.000000pt" height="700.000000pt" viewBox="0 0 700.000000 700.000000"
 preserveAspectRatio="xMidYMid meet">
<metadata>
Created by potrace 1.14, written by Peter Selinger 2001-2017
</metadata>
<g transform="translate(0.000000,700.000000) scale(0.100000,-0.100000)"
fill="#000000" stroke="none">
<path d="M3400 6847 c-83 -10 -180 -44 -267 -93 -63 -35 -179 -139 -230 -208
-26 -34 -92 -165 -98 -193 -2 -10 -10 -45 -18 -78 -81 -346 133 -723 478 -840
375 -127 791 73 920 443 53 152 57 313 10 459 -111 346 -437 556 -795 510z"/>
<path d="M2035 5525 c-263 -59 -481 -263 -550 -515 -113 -418 149 -837 575
-916 52 -9 188 -11 234 -3 175 31 290 91 411 213 106 108 171 230 201 376 21
106 6 284 -32 376 -45 109 -80 168 -143 239 -93 106 -246 197 -382 228 -84 18
-237 20 -314 2z"/>
<path d="M4695 5534 c-87 -21 -117 -30 -169 -51 -107 -44 -222 -135 -302 -238
-87 -113 -144 -300 -138 -455 2 -47 5 -92 7 -100 2 -8 7 -33 12 -54 29 -144
145 -316 275 -411 249 -181 586 -188 840 -17 138 93 237 228 292 398 30 93 32
307 4 399 -75 248 -253 429 -499 507 -60 19 -273 34 -322 22z"/>
<path d="M760 4220 c-19 -4 -50 -10 -67 -14 -233 -46 -481 -296 -525 -531 -24
-127 -28 -201 -15 -281 28 -173 127 -351 245 -445 24 -19 53 -42 64 -52 38
-31 165 -87 245 -106 146 -35 338 -16 478 49 238 111 408 365 418 628 15 356
-226 663 -587 749 -37 8 -220 11 -256 3z"/>
<path d="M3380 4220 c-74 -14 -82 -17 -153 -45 -224 -90 -390 -288 -442 -529
-13 -59 -14 -243 -1 -295 83 -355 380 -586 741 -576 318 9 575 207 675 520 28
89 35 261 14 353 -67 288 -287 507 -569 566 -73 15 -201 18 -265 6z"/>
<path d="M5985 4216 c-92 -18 -180 -55 -263 -110 -84 -58 -107 -78 -165 -150
-231 -283 -210 -701 48 -962 109 -110 219 -172 375 -210 52 -13 232 -12 293 2
342 77 578 367 581 714 1 179 -78 372 -208 504 -76 78 -115 106 -202 148 -152
74 -298 94 -459 64z"/>
<path d="M2095 2912 c-224 -24 -449 -182 -555 -390 -62 -122 -80 -208 -76
-357 3 -95 9 -136 30 -200 73 -227 250 -401 482 -476 90 -28 268 -35 369 -13
239 50 449 237 531 472 146 421 -129 886 -568 958 -47 8 -165 11 -213 6z"/>
<path d="M4665 2900 c-44 -9 -89 -21 -100 -27 -11 -6 -22 -11 -25 -10 -12 2
-114 -55 -162 -91 -189 -140 -298 -362 -293 -597 3 -101 10 -141 39 -227 78
-223 260 -395 491 -463 91 -27 279 -29 375 -4 115 30 229 91 312 167 157 146
236 327 236 542 0 243 -117 463 -323 603 -154 106 -360 146 -550 107z"/>
<path d="M3415 1599 c-258 -34 -475 -195 -583 -430 -80 -175 -78 -415 4 -595
91 -201 285 -359 499 -409 81 -19 236 -22 310 -5 353 79 591 376 580 727 -4
115 -6 130 -30 203 -73 222 -247 403 -460 475 -57 19 -62 21 -130 30 -76 10
-135 12 -190 4z"/>
</g>
</svg>
