<svg xmlns="http://www.w3.org/2000/svg" viewBox="0 0 40 40" fill="none"><path fill="currentColor" fill-rule="evenodd" d="M4.524 15.33C5.707 7.569 13.019 2.634 20 2.634c6.98 0 14.293 4.935 15.476 12.698a5.617 5.617 0 0 1-.2 11.042 16.25 16.25 0 0 1-30.552 0 5.617 5.617 0 0 1-.2-11.042ZM20 5.134c-6.247 0-12.565 4.623-13.104 11.432a1.25 1.25 0 0 1-1.246 1.152 3.117 3.117 0 0 0 0 6.233c.55 0 1.036.36 1.196.886a13.75 13.75 0 0 0 26.308 0 1.25 1.25 0 0 1 1.196-.886 3.117 3.117 0 0 0 0-6.233 1.25 1.25 0 0 1-1.246-1.152C32.565 9.756 26.247 5.133 20 5.133Z" clip-rule="evenodd"/><path fill="currentColor" fill-rule="evenodd" d="M21.3 5.497a2.5 2.5 0 0 0-1.3-.364 1.25 1.25 0 1 1 0-2.5A5 5 0 1 1 15.287 9.3a1.25 1.25 0 0 1 2.357-.833 2.5 2.5 0 1 0 3.655-2.97ZM15.735 27.5a1.25 1.25 0 0 1 1.765-.098 3.75 3.75 0 0 0 5 0 1.25 1.25 0 1 1 1.666 1.863 6.25 6.25 0 0 1-8.333 0 1.25 1.25 0 0 1-.098-1.765ZM23.75 17.083c.69 0 1.25.56 1.25 1.25a1.25 1.25 0 0 0 2.5 0 1.25 1.25 0 1 1 2.5 0 3.75 3.75 0 0 1-7.5 0c0-.69.56-1.25 1.25-1.25ZM11.25 17.083c.69 0 1.25.56 1.25 1.25a1.25 1.25 0 0 0 2.5 0 1.25 1.25 0 1 1 2.5 0 3.75 3.75 0 0 1-7.5 0c0-.69.56-1.25 1.25-1.25Z" clip-rule="evenodd"/></svg>