<svg xmlns="http://www.w3.org/2000/svg" viewBox="0 0 24 24" fill="none"><g fill="currentColor" fill-rule="evenodd" clip-path="url(#a)" clip-rule="evenodd"><path d="M0 7a1 1 0 0 1 1-1h22a1 1 0 0 1 1 1v12c0 2.752-2.248 5-5 5H5c-2.752 0-5-2.248-5-5V7Zm2 1v11c0 1.648 1.352 3 3 3h14c1.648 0 3-1.352 3-3V8H2Z"/><path d="M6 6c0-3.352 2.648-6 6-6s6 2.648 6 6v4a1 1 0 1 1-2 0V6c0-2.248-1.752-4-4-4S8 3.752 8 6v4a1 1 0 1 1-2 0V6ZM8 14a1 1 0 0 1 1-1h6a1 1 0 0 1 1 1v4a1 1 0 0 1-1 1H9a1 1 0 0 1-1-1v-4Zm2 1v2h4v-2h-4Z"/></g><defs><clipPath id="a"><path fill="#fff" d="M0 0h24v24H0z"/></clipPath></defs></svg>