<svg  viewBox="0 0 32 32" fill="none" xmlns="http://www.w3.org/2000/svg">
<g>
<path fill-rule="evenodd" clip-rule="evenodd" d="M11.2202 3.04753C11.3714 2.97576 11.548 2.98152 11.6943 3.063L16.0036 5.46421L20.3054 3.06318C20.4517 2.98153 20.6285 2.9757 20.7798 3.04753L31.5067 8.13864C31.6817 8.22169 31.7957 8.39545 31.8022 8.58904C31.8087 8.78262 31.7066 8.96365 31.5376 9.05826L27.7907 11.1558L31.5376 13.2533C31.7066 13.3479 31.8087 13.5289 31.8022 13.7225C31.7957 13.9161 31.6817 14.0898 31.5067 14.1729L20.7798 19.264C20.6283 19.3359 20.4512 19.33 20.3049 19.248L16.5216 17.1302V27.4176L26.2128 22.8112V18.7962C26.2128 18.5102 26.4447 18.2784 26.7307 18.2784C27.0166 18.2784 27.2485 18.5102 27.2485 18.7962V23.1384C27.2485 23.3382 27.1335 23.5203 26.953 23.6061L16.2261 28.7047C16.0854 28.7716 15.9221 28.7716 15.7815 28.7047L5.05462 23.6061C4.87412 23.5203 4.7591 23.3382 4.7591 23.1384V18.7962C4.7591 18.5102 4.99093 18.2784 5.27691 18.2784C5.56289 18.2784 5.79472 18.5102 5.79472 18.7962V22.8112L15.486 27.4176V17.1294L11.6948 19.2482C11.5485 19.33 11.3716 19.3359 11.2202 19.264L0.493321 14.1729C0.318276 14.0898 0.20426 13.916 0.197819 13.7223C0.191378 13.5287 0.29359 13.3476 0.462727 13.2531L4.21551 11.1558L0.462727 9.05844C0.29359 8.96392 0.191378 8.78287 0.197819 8.58922C0.20426 8.39557 0.318276 8.22171 0.493321 8.13864L11.2202 3.04753ZM5.29628 11.7381L1.84391 13.6676L11.4228 18.2138L14.8752 16.2844L5.29628 11.7381ZM17.1316 16.2848L26.7111 11.7382L30.1569 13.6672L20.5774 18.2137L17.1316 16.2848ZM26.7112 10.5732L30.1569 8.64434L20.577 4.09761L17.1324 6.0202L26.7112 10.5732ZM14.8744 6.02057L5.29612 10.5733L1.84391 8.64397L11.4232 4.09751L14.8744 6.02057ZM6.48384 11.1554L16.0038 15.6737L25.5237 11.1554L16.0038 6.63042L6.48384 11.1554Z" fill="currentColor"/>
<path fill-rule="evenodd" clip-rule="evenodd" d="M11.1355 2.86908C11.3444 2.76992 11.5884 2.77788 11.7904 2.89045L16.0035 5.23804L20.2092 2.89069C20.4112 2.7779 20.6554 2.76985 20.8645 2.86908L31.5914 7.96018C31.8331 8.07492 31.9906 8.31497 31.9996 8.5824C32.0086 8.84983 31.8676 9.09992 31.6341 9.23062L28.1951 11.1558L31.6341 13.0809C31.8676 13.2116 32.0086 13.4617 31.9996 13.7291C31.9906 13.9966 31.8331 14.2366 31.5914 14.3513L20.8645 19.4425C20.6551 19.5418 20.4106 19.5336 20.2084 19.4204L16.7191 17.4671V27.105L26.0153 22.6864V18.7962C26.0153 18.4011 26.3356 18.0809 26.7307 18.0809C27.1257 18.0809 27.446 18.4011 27.446 18.7962V23.1384C27.446 23.4145 27.2871 23.6659 27.0377 23.7845L16.3109 28.8831C16.1166 28.9755 15.891 28.9755 15.6967 28.8831L4.96982 23.7845C4.72046 23.6659 4.56157 23.4145 4.56157 23.1384V18.7962C4.56157 18.4011 4.88184 18.0809 5.27691 18.0809C5.67198 18.0809 5.99225 18.4011 5.99225 18.7962V22.6864L15.2884 27.105V17.4661L11.7912 19.4206C11.589 19.5336 11.3447 19.5417 11.1355 19.4425L0.408625 14.3513C0.166806 14.2366 0.00929525 13.9964 0.000397135 13.7289C-0.00850106 13.4614 0.132703 13.2112 0.366361 13.0807L3.81061 11.1558L0.366361 9.23087C0.132702 9.10029 -0.00850104 8.85018 0.000397135 8.58265C0.00929527 8.31513 0.166806 8.07495 0.408625 7.96018L11.1355 2.86908ZM11.5981 3.23555C11.5077 3.18515 11.3984 3.18159 11.3049 3.22598L0.578016 8.31709C0.469747 8.36847 0.399224 8.47601 0.395241 8.59579C0.391257 8.71556 0.454478 8.82755 0.559093 8.88601L4.31187 10.9833C4.37434 11.0182 4.41304 11.0842 4.41304 11.1558C4.41304 11.2273 4.37434 11.2933 4.31187 11.3282L0.559093 13.4255C0.454477 13.484 0.391257 13.596 0.395241 13.7157C0.399224 13.8355 0.469747 13.9431 0.578016 13.9944L11.3049 19.0855C11.3986 19.13 11.508 19.1264 11.5985 19.0758L15.3896 16.957C15.4508 16.9228 15.5255 16.9236 15.5859 16.9591C15.6464 16.9945 15.6835 17.0594 15.6835 17.1294V27.4176C15.6835 27.4854 15.6488 27.5484 15.5915 27.5846C15.5342 27.6208 15.4624 27.6251 15.4012 27.596L5.70992 22.9896C5.64106 22.9569 5.59719 22.8874 5.59719 22.8112V18.7962C5.59719 18.6193 5.4538 18.4759 5.27691 18.4759C5.10003 18.4759 4.95663 18.6193 4.95663 18.7962V23.1384C4.95663 23.262 5.02777 23.3746 5.13942 23.4277L15.8663 28.5263C15.9533 28.5677 16.0543 28.5677 16.1413 28.5263L26.8681 23.4277C26.9798 23.3746 27.0509 23.262 27.0509 23.1384V18.7962C27.0509 18.6193 26.9075 18.4759 26.7307 18.4759C26.5538 18.4759 26.4104 18.6193 26.4104 18.7962V22.8112C26.4104 22.8874 26.3665 22.9569 26.2976 22.9896L16.6064 27.596C16.5452 27.6251 16.4734 27.6208 16.4161 27.5846C16.3588 27.5484 16.3241 27.4854 16.3241 27.4176V17.1302C16.3241 17.0601 16.3612 16.9952 16.4217 16.9598C16.4822 16.9243 16.5569 16.9236 16.6181 16.9578L20.4013 19.0757C20.4919 19.1264 20.6014 19.13 20.6951 19.0855L31.422 13.9944C31.5302 13.9431 31.6007 13.8356 31.6048 13.7159C31.6088 13.5961 31.5456 13.4842 31.4411 13.4256L27.6942 11.3281C27.6318 11.2932 27.5932 11.2273 27.5932 11.1558C27.5932 11.0843 27.6318 11.0183 27.6942 10.9834L31.4411 8.8859C31.5456 8.82738 31.6088 8.71541 31.6048 8.59567C31.6007 8.47594 31.5302 8.36846 31.422 8.31709L20.6951 3.22598C20.6015 3.18155 20.4922 3.18516 20.4017 3.23566L16.0998 5.63669C16.0401 5.67007 15.9672 5.67009 15.9074 5.63676L11.5981 3.23555ZM11.3385 3.91906C11.3962 3.89168 11.4636 3.89388 11.5194 3.92496L14.9706 5.84802C15.0352 5.88401 15.0742 5.95306 15.0719 6.02696C15.0695 6.10086 15.026 6.16724 14.9592 6.19898L5.38091 10.7517C5.32312 10.7792 5.25561 10.777 5.19975 10.7457L1.74755 8.8164C1.68302 8.78034 1.64403 8.71128 1.64649 8.6374C1.64895 8.56353 1.69244 8.49721 1.75922 8.46552L11.3385 3.91906ZM20.4807 3.92513C20.5365 3.89398 20.604 3.89176 20.6617 3.91916L30.2416 8.46589C30.3083 8.49757 30.3518 8.56386 30.3543 8.63771C30.3568 8.71155 30.3178 8.78061 30.2534 8.8167L26.8077 10.7456C26.7519 10.7769 26.6843 10.7791 26.6264 10.7516L17.0476 6.1986C16.9808 6.16687 16.9373 6.10053 16.9349 6.02666C16.9325 5.95278 16.9715 5.88374 17.0361 5.84772L20.4807 3.92513ZM2.27443 8.65829L5.30344 10.3511L14.4436 6.00664L11.416 4.3196L2.27443 8.65829ZM20.5843 4.31974L17.5629 6.00613L26.7038 10.351L29.7267 8.6588L20.5843 4.31974ZM15.919 6.45202C15.9726 6.42652 16.0349 6.42652 16.0886 6.45202L25.6085 10.977C25.6774 11.0098 25.7213 11.0792 25.7213 11.1555C25.7212 11.2317 25.6773 11.3012 25.6084 11.3339L16.0885 15.8522C16.0349 15.8776 15.9727 15.8776 15.9191 15.8522L6.39914 11.3339C6.33025 11.3012 6.28633 11.2317 6.28631 11.1555C6.28629 11.0792 6.33017 11.0098 6.39904 10.977L15.919 6.45202ZM6.94425 11.1553L16.0038 15.4551L25.0633 11.1553L16.0038 6.84913L6.94425 11.1553ZM5.19991 11.5657C5.25574 11.5345 5.32321 11.5323 5.38098 11.5597L14.9599 16.106C15.0267 16.1376 15.0702 16.204 15.0726 16.2778C15.0751 16.3517 15.0361 16.4208 14.9716 16.4568L11.5192 18.3863C11.4634 18.4175 11.3959 18.4197 11.3381 18.3923L1.75922 13.846C1.69244 13.8143 1.64895 13.748 1.64649 13.6741C1.64403 13.6003 1.68303 13.5312 1.74755 13.4951L5.19991 11.5657ZM26.6264 11.5598C26.6842 11.5323 26.7517 11.5346 26.8076 11.5659L30.2534 13.4948C30.3178 13.5309 30.3568 13.6 30.3543 13.6738C30.3518 13.7477 30.3083 13.814 30.2416 13.8456L20.6621 18.3922C20.6042 18.4196 20.5367 18.4174 20.4809 18.3861L17.0351 16.4571C16.9706 16.421 16.9317 16.352 16.9341 16.2781C16.9366 16.2043 16.9801 16.138 17.0469 16.1063L26.6264 11.5598ZM5.30367 11.9603L2.27443 13.6532L11.4155 17.9917L14.4447 16.2987L5.30367 11.9603ZM17.5618 16.2992L20.5848 17.9915L29.7267 13.6527L26.7036 11.9604L17.5618 16.2992Z" fill="currentColor"/>
</g>
</svg>
