<svg viewBox="0 0 32 32" fill="none" xmlns="http://www.w3.org/2000/svg">
<path d="M11.0066 21.0116L8.42085 15.9462L11.5148 11.1748L14.1006 16.2401L11.0066 21.0116ZM4.31244 21.2355L1.72665 16.1711L7.40636 16.465L9.99127 21.5303L4.31244 21.2355ZM4.87988 10.2612L10.5587 10.5551L7.46479 15.3265L1.78596 15.0326L4.87988 10.2612ZM11.9317 9.48483L4.28145 9.08913L0.113735 15.5169L3.59628 22.3403L11.2465 22.736L15.4143 16.3083L11.9317 9.48483Z" fill="currentColor"/>
<path d="M24.5995 6.76979L20.7912 2.5463L26.3541 1.36096L30.1615 5.58445L24.5995 6.76979ZM28.646 12.1087L23.084 13.2949L24.8368 7.8852L29.9411 6.79723L30.3988 6.69897L28.646 12.1087ZM21.9996 12.9435L18.1922 8.71998L19.9449 3.31026L23.7532 7.53375L21.9996 12.9435ZM19.2668 1.70709L16.9041 8.9944L22.0341 14.6839L29.5259 13.086L31.8886 5.79779L26.7586 0.108344L19.2668 1.70709Z" fill="currentColor"/>
<path d="M22.5413 23.9621L20.6089 18.6134L26.2071 19.6138L28.1396 24.9624L22.5413 23.9621ZM24.2746 30.4314L18.6764 29.4311L22.3413 25.0837L27.9396 26.084L24.2746 30.4314ZM15.8719 23.3486L19.5368 19.0003L21.4693 24.3489L17.8044 28.6964L15.8719 23.3486ZM19.5147 17.2599L14.5768 23.1167L17.1803 30.3217L24.7217 31.6699L29.6587 25.8131L27.0552 18.6081L19.5147 17.2599Z" fill="currentColor"/>
<path fill-rule="evenodd" clip-rule="evenodd" d="M26.7938 0L32 5.77404L29.6022 13.1706L21.999 14.7922L16.7927 9.01816L19.1906 1.62251L26.7938 0ZM19.3431 1.79167L17.0155 8.97065L22.0692 14.5755L29.4496 13.0014L31.7772 5.82155L26.7235 0.216687L19.3431 1.79167ZM26.3892 1.25263L30.3492 5.64531L24.5644 6.87812L20.6035 2.48545L26.3892 1.25263ZM20.9789 2.60715L24.6347 6.66146L29.9739 5.5236L26.319 1.46929L20.9789 2.60715ZM19.9038 3.11733L23.8646 7.51L22.0407 13.1364L18.0808 8.74374L19.9038 3.11733ZM19.9861 3.5032L18.3035 8.69622L21.9584 12.7505L23.6419 7.55751L19.9861 3.5032ZM30.5453 6.56663L28.7222 12.1933L22.9375 13.427L24.7605 7.80061L29.9204 6.7008L30.5453 6.56663ZM30.2522 6.83131L29.9618 6.89367L24.913 7.96978L23.2305 13.1628L28.5697 12.0241L30.2522 6.83131ZM4.22968 8.98769L11.9937 9.38927L15.528 16.3142L11.2983 22.8375L3.53431 22.4359L0 15.511L4.22968 8.98769ZM4.33323 9.19056L0.227469 15.5228L3.65824 22.2448L11.1948 22.6346L15.3005 16.3024L11.8698 9.58039L4.33323 9.19056ZM4.82811 10.1597L10.7344 10.4654L7.51656 15.428L1.61026 15.1223L4.82811 10.1597ZM4.93165 10.3626L1.96165 14.943L7.41301 15.2251L10.383 10.6448L4.93165 10.3626ZM11.5249 10.9778L14.2143 16.246L10.9965 21.2086L8.30711 15.9403L11.5249 10.9778ZM8.53459 15.9521L11.0168 20.8146L13.9868 16.2342L11.5046 11.3717L8.53459 15.9521ZM1.56111 16.0637L7.46833 16.3694L10.1568 21.6377L4.25048 21.3311L1.56111 16.0637ZM1.89219 16.2784L4.3744 21.14L9.82575 21.423L7.34439 16.5605L1.89219 16.2784ZM19.476 17.1528L27.1286 18.5211L29.7708 25.8332L24.7604 31.777L17.1069 30.4087L14.4647 23.0966L19.476 17.1528ZM19.5534 17.367L14.6889 23.1367L17.2537 30.2346L24.683 31.5628L29.5466 25.7931L26.9818 18.6952L19.5534 17.367ZM20.4581 18.4863L26.2805 19.5267L28.2904 25.0895L22.4679 24.0492L20.4581 18.4863ZM20.7597 18.7406L22.6148 23.875L27.9888 24.8353L26.1337 19.7008L20.7597 18.7406ZM19.5715 18.8061L21.5814 24.369L17.7697 28.8905L15.7598 23.3286L19.5715 18.8061ZM15.984 23.3686L17.8391 28.5022L21.3572 24.3289L19.5021 19.1945L15.984 23.3686ZM22.3026 24.9766L28.1251 26.017L24.3134 30.5385L18.4909 29.4981L22.3026 24.9766ZM22.38 25.1908L18.8619 29.3641L24.2359 30.3243L27.754 26.151L22.38 25.1908Z" fill="currentColor"/>
</svg>
