<svg xmlns="http://www.w3.org/2000/svg" viewBox="0 0 24 24" fill="none"><path fill="currentColor" fill-rule="evenodd" d="M4 12a1 1 0 0 1 1-1h2a1 1 0 0 1 1 1v1a1 1 0 0 1-1 1H5a1 1 0 0 1-1-1v-1ZM10 12a1 1 0 0 1 1-1h2a1 1 0 0 1 1 1v1a1 1 0 0 1-1 1h-2a1 1 0 0 1-1-1v-1ZM4 17a1 1 0 0 1 1-1h2a1 1 0 0 1 1 1v1a1 1 0 0 1-1 1H5a1 1 0 0 1-1-1v-1ZM10 17a1 1 0 0 1 1-1h2a1 1 0 0 1 1 1v1a1 1 0 0 1-1 1h-2a1 1 0 0 1-1-1v-1ZM16 12a1 1 0 0 1 1-1h2a1 1 0 0 1 1 1v1a1 1 0 0 1-1 1h-2a1 1 0 0 1-1-1v-1Z" clip-rule="evenodd"/><path fill="currentColor" d="M7 12H5v1h2v-1ZM13 12h-2v1h2v-1ZM7 17H5v1h2v-1ZM13 17h-2v1h2v-1ZM19 12h-2v1h2v-1Z"/><path fill="currentColor" fill-rule="evenodd" d="M3 4a1 1 0 0 0-1 1v15a1 1 0 0 0 1 1h18a1 1 0 0 0 1-1V5a1 1 0 0 0-1-1H3ZM0 5a3 3 0 0 1 3-3h18a3 3 0 0 1 3 3v15a3 3 0 0 1-3 3H3a3 3 0 0 1-3-3V5Z" clip-rule="evenodd"/><path fill="currentColor" fill-rule="evenodd" d="M6 0a1 1 0 0 1 1 1v3a1 1 0 0 1-2 0V1a1 1 0 0 1 1-1ZM18 0a1 1 0 0 1 1 1v3a1 1 0 1 1-2 0V1a1 1 0 0 1 1-1ZM0 8a1 1 0 0 1 1-1h22a1 1 0 1 1 0 2H1a1 1 0 0 1-1-1Z" clip-rule="evenodd"/></svg>