<svg viewBox="0 0 21 21" fill="none" xmlns="http://www.w3.org/2000/svg">
    <path d="M18.3009 9.71326L16.8843 5.46909C16.7737 5.13764 16.5617 4.84933 16.2783 4.64492C15.995 4.4405 15.6545 4.33031 15.3051 4.32993H6.50676C6.15663 4.32943 5.81525 4.43922 5.53104 4.6437C5.24683 4.84818 5.03424 5.13697 4.92342 5.46909L3.50676 9.71326L2.22759 10.9966C1.91593 11.3097 1.74044 11.7332 1.73926 12.1749V16.8299C1.73926 17.0509 1.82706 17.2629 1.98334 17.4192C2.13962 17.5755 2.35158 17.6633 2.57259 17.6633H5.07259C5.2936 17.6633 5.50557 17.5755 5.66185 17.4192C5.81813 17.2629 5.90592 17.0509 5.90592 16.8299V15.9966H15.9059V16.8299C15.9059 17.0509 15.9937 17.2629 16.15 17.4192C16.3063 17.5755 16.5182 17.6633 16.7393 17.6633H19.2393C19.4603 17.6633 19.6722 17.5755 19.8285 17.4192C19.9848 17.2629 20.0726 17.0509 20.0726 16.8299V12.1749C20.0714 11.7332 19.8959 11.3097 19.5843 10.9966L18.3009 9.71326ZM15.3051 5.99659L16.4159 9.32993H5.39592L6.50676 5.99659H15.3051ZM3.40592 12.1749L4.58426 10.9966H17.2276L18.4059 12.1749V14.3299H3.40592V12.1749Z" fill="currentColor"/>
    <path d="M5.90592 13.4966C6.36616 13.4966 6.73926 13.1235 6.73926 12.6633C6.73926 12.203 6.36616 11.8299 5.90592 11.8299C5.44569 11.8299 5.07259 12.203 5.07259 12.6633C5.07259 13.1235 5.44569 13.4966 5.90592 13.4966Z" fill="currentColor"/>
    <path d="M15.9059 13.4966C16.3662 13.4966 16.7393 13.1235 16.7393 12.6633C16.7393 12.203 16.3662 11.8299 15.9059 11.8299C15.4457 11.8299 15.0726 12.203 15.0726 12.6633C15.0726 13.1235 15.4457 13.4966 15.9059 13.4966Z" fill="currentColor"/>
</svg>
