<svg viewBox="0 0 16 16" fill="none" xmlns="http://www.w3.org/2000/svg">
<path d="M14.8355 4.35C14.8155 4.32395 14.7905 4.30211 14.762 4.28572C14.7335 4.26934 14.7021 4.25872 14.6695 4.2545C14.6039 4.24661 14.5377 4.26454 14.485 4.3045L8.00001 9.2905L1.51501 4.3C1.46246 4.25978 1.39611 4.24205 1.3305 4.25067C1.2649 4.25929 1.20538 4.29357 1.16501 4.346L0.25001 5.537C0.209797 5.58955 0.192057 5.6559 0.20068 5.7215C0.209303 5.78711 0.243584 5.84662 0.29601 5.887L7.85001 11.7C7.89372 11.7336 7.94734 11.7519 8.00251 11.7519C8.05768 11.7519 8.11129 11.7336 8.15501 11.7L15.705 5.8895C15.7574 5.84912 15.7917 5.78961 15.8003 5.724C15.809 5.6584 15.7912 5.59205 15.751 5.5395L14.8355 4.35Z" fill="currentColor"/>
</svg>
