<svg xmlns="http://www.w3.org/2000/svg" viewBox="0 0 24 24" fill="none"><g fill="currentColor" fill-rule="evenodd" clip-path="url(#a)" clip-rule="evenodd"><path d="M12 0a1 1 0 0 1 1 1v4a1 1 0 1 1-2 0V1a1 1 0 0 1 1-1ZM18 12a1 1 0 0 1 1-1h4a1 1 0 1 1 0 2h-4a1 1 0 0 1-1-1ZM12 18a1 1 0 0 1 1 1v4a1 1 0 1 1-2 0v-4a1 1 0 0 1 1-1ZM0 12a1 1 0 0 1 1-1h4a1 1 0 1 1 0 2H1a1 1 0 0 1-1-1Z"/><path d="M12 2C6.477 2 2 6.477 2 12s4.477 10 10 10 10-4.477 10-10S17.523 2 12 2ZM0 12C0 5.373 5.373 0 12 0s12 5.373 12 12c0 6.628-5.373 12-12 12S0 18.628 0 12Z"/><path d="M7.445 5.168a1 1 0 0 1 1.387.277L12.535 11H16a1 1 0 1 1 0 2h-4a1 1 0 0 1-.832-.445l-4-6a1 1 0 0 1 .277-1.387Z"/></g><defs><clipPath id="a"><path fill="#fff" d="M0 0h24v24H0z"/></clipPath></defs></svg>