<svg viewBox="0 0 24 24" fill="none" xmlns="http://www.w3.org/2000/svg">
<path fill-rule="evenodd" clip-rule="evenodd" d="M23.6742 0.324784C23.9085 0.559098 23.9085 0.938997 23.6742 1.17331L1.17417 23.6733C0.939852 23.9076 0.559953 23.9076 0.325638 23.6733C0.0913237 23.439 0.0913237 23.0591 0.325638 22.8248L22.8256 0.324784C23.06 0.0904692 23.4399 0.0904692 23.6742 0.324784Z" fill="currentColor"/>
<path fill-rule="evenodd" clip-rule="evenodd" d="M0.325638 0.324784C0.559953 0.0904692 0.939852 0.0904692 1.17417 0.324784L23.6742 22.8248C23.9085 23.0591 23.9085 23.439 23.6742 23.6733C23.4399 23.9076 23.06 23.9076 22.8256 23.6733L0.325638 1.17331C0.0913237 0.938997 0.0913237 0.559098 0.325638 0.324784Z" fill="currentColor"/>
</svg>
