<svg viewBox="0 0 32 32" fill="none" xmlns="http://www.w3.org/2000/svg">
<path fill-rule="evenodd" clip-rule="evenodd" d="M21.6476 3.37064C18.1428 1.28062 13.7742 1.28062 10.2693 3.37064C6.76444 5.46065 4.68774 9.30413 4.86042 13.3812C4.87912 13.8226 4.441 13.3151 3.99957 13.3338C3.55814 13.3525 3.28055 13.8903 3.26186 13.4489C3.0643 8.78457 5.44013 4.38748 9.44983 1.99642C13.4595 -0.39464 18.4574 -0.39464 22.4671 1.99642C26.4768 4.38748 28.8526 8.78457 28.6551 13.4489C28.6364 13.8903 28.2634 14.233 27.822 14.2143C27.3805 14.1956 27.0378 13.8226 27.0565 13.3812C27.2292 9.30413 25.1525 5.46065 21.6476 3.37064Z" fill="currentColor"/>
<path fill-rule="evenodd" clip-rule="evenodd" d="M26.5822 23.7125C26.9422 23.9686 27.0265 24.4681 26.7704 24.8281C24.8054 27.5903 21.8168 29.4515 18.4711 29.9966C18.0351 30.0677 17.6239 29.7718 17.5529 29.3357C17.4818 28.8996 17.7777 28.4885 18.2138 28.4174C21.1377 27.941 23.7494 26.3146 25.4666 23.9006C25.7227 23.5406 26.2222 23.4564 26.5822 23.7125Z" fill="currentColor"/>
<path fill-rule="evenodd" clip-rule="evenodd" d="M27.1055 12.7257C28.5918 12.3541 30.1552 12.9195 31.0601 14.1559C31.6569 14.97 31.9067 15.9876 31.7548 16.9856L30.9739 22.1546C30.7548 23.6688 29.6421 24.9005 28.1576 25.2716C26.6722 25.6429 25.1097 25.0788 24.2041 23.8442C23.6079 23.0298 23.3577 22.0121 23.5088 21.0142L24.2897 15.8452C24.5074 14.33 25.6202 13.097 27.1055 12.7257ZM29.7689 15.1008C29.2483 14.3894 28.3487 14.0641 27.4935 14.2779C26.6383 14.4917 25.9977 15.2021 25.8731 16.0748L25.8722 16.0812L25.0908 21.2532C25.0029 21.8332 25.148 22.4247 25.4944 22.8981C26.0156 23.6085 26.9147 23.9331 27.7695 23.7194C28.6245 23.5056 29.2651 22.796 29.3906 21.9238L29.3914 21.9182L30.1728 16.7462C30.2612 16.1665 30.1157 15.5737 29.7689 15.1008Z" fill="currentColor"/>
<path fill-rule="evenodd" clip-rule="evenodd" d="M12.6785 28.515C12.6785 26.6986 14.1409 25.215 15.9585 25.215C17.776 25.215 19.2385 26.6986 19.2385 28.515C19.2385 30.3315 17.776 31.815 15.9585 31.815C14.1409 31.815 12.6785 30.3315 12.6785 28.515ZM15.9585 26.815C15.0367 26.815 14.2785 27.5701 14.2785 28.515C14.2785 29.46 15.0367 30.215 15.9585 30.215C16.8803 30.215 17.6385 29.46 17.6385 28.515C17.6385 27.5701 16.8803 26.815 15.9585 26.815Z" fill="currentColor"/>
<path fill-rule="evenodd" clip-rule="evenodd" d="M4.69267 12.1132C3.20629 11.7416 1.64291 12.307 0.738078 13.5434C0.14122 14.3575 -0.108598 15.3751 0.0433606 16.373L0.824249 21.5421C1.04335 23.0563 2.15607 24.2879 3.64053 24.6591C5.12597 25.0304 6.68845 24.4663 7.59406 23.2317C8.19023 22.4173 8.44047 21.3996 8.28936 20.4017L7.50848 15.2327C7.29075 13.7175 6.17793 12.4845 4.69267 12.1132ZM2.02925 14.4883C2.54987 13.7769 3.44939 13.4516 4.30461 13.6654C5.15983 13.8792 5.80044 14.5896 5.92503 15.4623L5.92595 15.4687L6.70731 20.6407C6.79519 21.2207 6.65015 21.8122 6.30377 22.2856C5.78254 22.996 4.8834 23.3205 4.02859 23.1068C3.17369 22.8931 2.53302 22.1835 2.40751 21.3112L2.40671 21.3057L1.62536 16.1337C1.53698 15.554 1.68244 14.9612 2.02925 14.4883Z" fill="currentColor"/>
</svg>
