<svg viewBox="0 0 32 32" fill="none" xmlns="http://www.w3.org/2000/svg">
<path fill-rule="evenodd" clip-rule="evenodd" d="M10.6667 7.99984C10.6667 7.26346 11.2636 6.6665 12 6.6665H24C24.6118 6.6665 25.1452 7.0829 25.2935 7.67646L26.4781 12.4149L31.263 14.8073C31.7147 15.0331 32 15.4948 32 15.9998V23.9998C32 24.7362 31.4031 25.3332 30.6667 25.3332H23.772C23.0356 25.3332 22.4387 24.7362 22.4387 23.9998C22.4387 23.2635 23.0356 22.6665 23.772 22.6665H29.3334V16.8239L24.7371 14.5257C24.3889 14.3517 24.1342 14.0342 24.0398 13.6566L22.959 9.33317H12C11.2636 9.33317 10.6667 8.73622 10.6667 7.99984Z" fill="currentColor"/>
<path fill-rule="evenodd" clip-rule="evenodd" d="M0 2.66659C0 1.93021 0.596954 1.33325 1.33333 1.33325H12C12.7364 1.33325 13.3333 1.93021 13.3333 2.66659V23.9999C13.3333 24.7363 12.7364 25.3333 12 25.3333H1.33333C0.596954 25.3333 0 24.7363 0 23.9999V2.66659ZM2.66667 3.99992V22.6666H10.6667V3.99992H2.66667Z" fill="currentColor"/>
<path fill-rule="evenodd" clip-rule="evenodd" d="M20 22.6667C18.5273 22.6667 17.3334 23.8606 17.3334 25.3333C17.3334 26.8061 18.5273 28 20 28C21.4728 28 22.6667 26.8061 22.6667 25.3333C22.6667 23.8606 21.4728 22.6667 20 22.6667ZM14.6667 25.3333C14.6667 22.3878 17.0545 20 20 20C22.9455 20 25.3334 22.3878 25.3334 25.3333C25.3334 28.2789 22.9455 30.6667 20 30.6667C17.0545 30.6667 14.6667 28.2789 14.6667 25.3333Z" fill="currentColor"/>
<path fill-rule="evenodd" clip-rule="evenodd" d="M18.6666 10.6665C19.403 10.6665 20 11.2635 20 11.9998V13.3332H21.3333C22.0697 13.3332 22.6666 13.9301 22.6666 14.6665C22.6666 15.4029 22.0697 15.9998 21.3333 15.9998H18.6666C17.9303 15.9998 17.3333 15.4029 17.3333 14.6665V11.9998C17.3333 11.2635 17.9303 10.6665 18.6666 10.6665Z" fill="currentColor"/>
</svg>
