<svg viewBox="0 0 24 24" fill="none" xmlns="http://www.w3.org/2000/svg">
<path fill-rule="evenodd" clip-rule="evenodd" d="M11.3554 14.1931V3.01494H12.6267V14.1931L16.4405 10.3793L17.3394 11.2782L11.9911 16.6266L6.6427 11.2782L7.54162 10.3793L11.3554 14.1931Z" fill="currentColor"/>
<path fill-rule="evenodd" clip-rule="evenodd" d="M11.1554 2.81494H12.8267V13.7102L16.4405 10.0964L17.6223 11.2782L11.9911 16.9094L6.35986 11.2782L7.54162 10.0964L11.1554 13.7102V2.81494ZM11.5554 3.21494V14.6759L7.54162 10.6621L6.92554 11.2782L11.9911 16.3437L17.0566 11.2782L16.4405 10.6621L12.4267 14.6759V3.21494H11.5554Z" fill="currentColor"/>
<path d="M3.90649 19.9319H20.0936V21.9319H3.90649V19.9319Z" fill="currentColor"/>
<path fill-rule="evenodd" clip-rule="evenodd" d="M19.6936 20.3319H4.30649V21.5319H19.6936V20.3319ZM3.90649 19.9319V21.9319H20.0936V19.9319H3.90649Z" fill="currentColor"/>
</svg>
