<svg xmlns="http://www.w3.org/2000/svg" viewBox="0 0 26 24" fill="none"><path fill="currentColor" fill-rule="evenodd" d="M13 4.5c4.345-.066 8.7 2.934 11.38 5.88l.002.003a2.413 2.413 0 0 1 0 3.23l-.003.002c-2.618 2.882-6.962 5.951-11.379 5.883-4.416.068-8.76-3-11.376-5.883l-.002-.002a2.413 2.413 0 0 1 0-3.23l.002-.002C4.301 7.434 8.656 4.434 13 4.5ZM2.736 11.389a.913.913 0 0 0 0 1.22c2.508 2.763 6.473 5.454 10.252 5.39a.53.53 0 0 1 .025 0c3.779.064 7.744-2.628 10.255-5.39a.913.913 0 0 0 0-1.22c-2.566-2.82-6.542-5.45-10.255-5.387h-.025c-3.713-.063-7.69 2.567-10.252 5.387Z" clip-rule="evenodd"/><path fill="currentColor" fill-rule="evenodd" d="M14.149 9.227a2.999 2.999 0 0 0-4.091 3.357 3 3 0 1 0 4.09-3.357ZM13 7.5A4.498 4.498 0 0 1 17.5 12M13 7.5A4.5 4.5 0 1 0 17.5 12" clip-rule="evenodd"/><path stroke="currentColor" stroke-linecap="round" stroke-linejoin="round" stroke-width=".5" d="M13 7.499A4.498 4.498 0 0 1 17.5 12M13 7.5 17.5 12M13 7.5A4.5 4.5 0 1 0 17.5 12m6.88-1.62C21.7 7.434 17.344 4.434 13 4.5c-4.344-.066-8.699 2.934-11.376 5.88l-.002.003a2.413 2.413 0 0 0 0 3.23l.002.002c2.617 2.882 6.96 5.951 11.376 5.883 4.417.068 8.76-3 11.38-5.883l.002-.002a2.413 2.413 0 0 0 0-3.23l-.003-.003ZM2.501 11.998c0-.225.083-.442.234-.61 2.562-2.82 6.539-5.45 10.252-5.387h.025c3.713-.063 7.69 2.567 10.255 5.387a.913.913 0 0 1 0 1.22c-2.51 2.762-6.476 5.454-10.255 5.39a.53.53 0 0 0-.025 0c-3.78.064-7.744-2.627-10.252-5.39a.913.913 0 0 1-.234-.61ZM13 8.999a2.999 2.999 0 1 1-.585 5.942A3 3 0 0 1 13 9Z"/></svg>