<svg viewBox="0 0 24 26" fill="none" xmlns="http://www.w3.org/2000/svg">
<path fill-rule="evenodd" clip-rule="evenodd" d="M8.90739 2.90576C9.788 1.62634 11.2784 0.740234 13.5399 0.740234H17.8699C18.4222 0.740234 18.8699 1.18795 18.8699 1.74023V5.74023C18.8699 6.29252 18.4222 6.74023 17.8699 6.74023H14.8699L14.8649 6.74022C14.8682 6.77345 14.8699 6.80683 14.8699 6.84023V7.75023H18.1299C18.4128 7.75023 18.6825 7.87011 18.8722 8.08015C19.0618 8.29018 19.1535 8.57071 19.1247 8.8522L18.7147 12.8522C18.6624 13.3623 18.2327 13.7502 17.7199 13.7502H14.8699V24.2502C14.8699 24.8025 14.4222 25.2502 13.8699 25.2502H8.86987C8.31759 25.2502 7.86987 24.8025 7.86987 24.2502V13.7502H5.86987C5.31759 13.7502 4.86987 13.3025 4.86987 12.7502V8.75023C4.86987 8.19795 5.31759 7.75023 5.86987 7.75023H7.86987V6.60023C7.86987 5.56791 8.0703 4.12193 8.90739 2.90576ZM10.5549 4.03971C10.0394 4.78854 9.86987 5.77256 9.86987 6.60023V8.75023C9.86987 9.30252 9.42216 9.75023 8.86987 9.75023H6.86987V11.7502H8.86987C9.42216 11.7502 9.86987 12.1979 9.86987 12.7502V23.2502H12.8699V12.7502C12.8699 12.1979 13.3176 11.7502 13.8699 11.7502H16.8171L17.0221 9.75023H13.8699C13.3176 9.75023 12.8699 9.30252 12.8699 8.75023V6.88177C12.8312 6.33745 13.0168 5.79991 13.385 5.39488C13.7657 4.97607 14.306 4.73823 14.8719 4.74023L14.8749 4.74025L14.8699 5.74014V4.74023H14.8719H16.8699V2.74023H13.5399C11.8713 2.74023 11.0267 3.35413 10.5549 4.03971Z" fill="currentColor"/>
</svg>
