<svg xmlns="http://www.w3.org/2000/svg" viewBox="0 0 40 40" fill="none"><path fill="currentColor" fill-rule="evenodd" d="M20 17.5a19.189 19.189 0 0 1 18.57 12.573 3.831 3.831 0 0 1-.493 3.345A3.639 3.639 0 0 1 35.093 35H4.911a3.635 3.635 0 0 1-2.982-1.582 3.82 3.82 0 0 1-.476-3.397A19.188 19.188 0 0 1 20 17.5Zm9.879 5.338a16.688 16.688 0 0 0-9.84-2.839h-.077A16.688 16.688 0 0 0 3.808 30.86a1.322 1.322 0 0 0 .178 1.138l.005.007a1.136 1.136 0 0 0 .93.495h30.163a1.138 1.138 0 0 0 .931-.496l.003-.004a1.33 1.33 0 0 0 .18-1.14 16.688 16.688 0 0 0-6.32-8.022Z" clip-rule="evenodd"/><path fill="currentColor" fill-rule="evenodd" d="M19.025 5.096A5 5 0 0 1 25.001 10a1.25 1.25 0 0 1-2.5 0 2.5 2.5 0 1 0-2.5 2.5c.69 0 1.25.56 1.25 1.25v5a1.25 1.25 0 0 1-2.5 0v-3.909a4.997 4.997 0 0 1-3.655-5.816 5.001 5.001 0 0 1 3.929-3.929Z" clip-rule="evenodd"/></svg>