<svg xmlns="http://www.w3.org/2000/svg" viewBox="0 0 26 24" fill="none"><path stroke="currentColor" stroke-linecap="round" stroke-linejoin="round" stroke-width="2" d="m21.29 14.19-5.54 1.1M4.68 14.2h2.45l3.51 3.94a1.41 1.41 0 0 0 1 .46 46.184 46.184 0 0 0 5.74-4.89c.11-.31-.1-.62-.29-.88l-2.51-3.24m-3-2.51-.35-.3a2.16 2.16 0 0 0-1.23-.4c-.267 0-.532.05-.78.15L4.75 8.31m-3-1.71h2a1 1 0 0 1 1 .92v6.42a1 1 0 0 1-1 .91h-2m22.5 0h-2a1 1 0 0 1-1-.91V7.52a1 1 0 0 1 1-.92h2m-8.5 2.6-3.45 1.14a1.61 1.61 0 0 1-2-.86 1.63 1.63 0 0 1 .74-2.14l3.36-1.69a2.3 2.3 0 0 1 1.06-.25c.273.002.543.05.8.14l5 1.82"/></svg>