<svg xmlns="http://www.w3.org/2000/svg" viewBox="0 0 24 26" fill="none"><path fill="currentColor" fill-rule="evenodd" d="M7.53 4h8.94a2.25 2.25 0 0 1 2.233 2.592l-.002.014c-.3 1.727-.982 3.214-2.079 4.422-1.094 1.206-2.567 2.096-4.392 2.686a.75.75 0 0 1-.46 0c-1.825-.59-3.298-1.48-4.392-2.686C6.28 9.82 5.598 8.333 5.299 6.606l-.002-.014A2.25 2.25 0 0 1 7.53 4Zm-.005 1.5a.75.75 0 0 0-.747.858c.258 1.479.83 2.692 1.71 3.662.843.928 1.998 1.667 3.512 2.19 1.514-.523 2.67-1.262 3.512-2.19.88-.97 1.452-2.183 1.71-3.662a.75.75 0 0 0-.747-.858h-8.95ZM3 1.75A.75.75 0 0 1 3.75 1h16.5a.75.75 0 0 1 0 1.5H3.75A.75.75 0 0 1 3 1.75Z" clip-rule="evenodd"/><path fill="currentColor" fill-rule="evenodd" d="M11.77 12.286a.75.75 0 0 1 .46 0c1.825.59 3.298 1.48 4.392 2.687 1.097 1.208 1.78 2.695 2.079 4.422l.002.015A2.251 2.251 0 0 1 16.47 22H7.531a2.25 2.25 0 0 1-2.234-2.59l.002-.015c.3-1.727.982-3.214 2.079-4.422 1.094-1.206 2.567-2.097 4.391-2.687Zm-4.992 7.357a.75.75 0 0 0 .747.857h8.95a.75.75 0 0 0 .747-.857c-.258-1.479-.83-2.692-1.71-3.662-.843-.928-1.998-1.667-3.512-2.19-1.514.523-2.67 1.262-3.512 2.19-.88.97-1.452 2.183-1.71 3.662ZM3 24.25a.75.75 0 0 1 .75-.75h16.5a.75.75 0 0 1 0 1.5H3.75a.75.75 0 0 1-.75-.75Z" clip-rule="evenodd"/><path stroke="currentColor" stroke-linecap="round" stroke-linejoin="round" stroke-width=".5" d="M7.53 4h8.94a2.25 2.25 0 0 1 2.233 2.592l-.002.014c-.3 1.727-.982 3.214-2.079 4.422-1.094 1.206-2.567 2.096-4.392 2.686a.75.75 0 0 1-.46 0c-1.825-.59-3.298-1.48-4.392-2.686C6.28 9.82 5.598 8.333 5.299 6.606l-.002-.014A2.25 2.25 0 0 1 7.53 4Zm-.005 1.5a.75.75 0 0 0-.747.858c.258 1.479.83 2.692 1.71 3.662.843.928 1.998 1.667 3.512 2.19 1.514-.523 2.67-1.262 3.512-2.19.88-.97 1.452-2.183 1.71-3.662a.75.75 0 0 0-.747-.858h-8.95ZM3 1.75A.75.75 0 0 1 3.75 1h16.5a.75.75 0 0 1 0 1.5H3.75A.75.75 0 0 1 3 1.75Z" clip-rule="evenodd"/><path stroke="currentColor" stroke-linecap="round" stroke-linejoin="round" stroke-width=".5" d="M11.77 12.286a.75.75 0 0 1 .46 0c1.825.59 3.298 1.48 4.392 2.687 1.097 1.208 1.78 2.695 2.079 4.422l.002.015A2.251 2.251 0 0 1 16.47 22H7.531a2.25 2.25 0 0 1-2.234-2.59l.002-.015c.3-1.727.982-3.214 2.079-4.422 1.094-1.206 2.567-2.097 4.391-2.687Zm-4.992 7.357a.75.75 0 0 0 .747.857h8.95a.75.75 0 0 0 .747-.857c-.258-1.479-.83-2.692-1.71-3.662-.843-.928-1.998-1.667-3.512-2.19-1.514.523-2.67 1.262-3.512 2.19-.88.97-1.452 2.183-1.71 3.662ZM3 24.25a.75.75 0 0 1 .75-.75h16.5a.75.75 0 0 1 0 1.5H3.75a.75.75 0 0 1-.75-.75Z" clip-rule="evenodd"/></svg>