<svg viewBox="0 0 24 24" fill="none" xmlns="http://www.w3.org/2000/svg">
	<path fill-rule="evenodd" clip-rule="evenodd" d="M11.8058 1.47236C11.8056 1.47272 11.8055 1.47309 11.8053 1.47346L8.46593 8.09518C8.37347 8.27852 8.19368 8.40184 7.98935 8.42209L1.53989 9.06102C1.46017 9.06765 1.39158 9.11997 1.36422 9.19514C1.33687 9.27032 1.35574 9.35454 1.41256 9.41085L6.71641 14.6637C6.87049 14.8163 6.93024 15.0402 6.87268 15.2493L4.9091 22.382C4.90894 22.3826 4.90879 22.3832 4.90863 22.3838C4.888 22.4643 4.91608 22.5495 4.98067 22.602C5.04574 22.6549 5.13576 22.6646 5.21065 22.627L5.21392 22.6253L11.7339 19.3963C11.9017 19.3132 12.0987 19.3132 12.2664 19.3963L18.7954 22.6293L18.7987 22.631C18.8736 22.6686 18.9637 22.6588 19.0287 22.606C19.0933 22.5535 19.1214 22.4683 19.1008 22.3878C19.1006 22.3872 19.1005 22.3866 19.1003 22.386L17.1367 15.2533C17.0792 15.0443 17.1389 14.8205 17.2928 14.6679L22.5928 9.41486C22.6496 9.35855 22.6685 9.27432 22.6412 9.19914C22.6138 9.12397 22.5452 9.07157 22.4655 9.06495L22.456 9.06416L16.016 8.42609C15.8118 8.40585 15.6321 8.28261 15.5396 8.09937L12.1951 1.47346C12.195 1.47312 12.1948 1.47278 12.1946 1.47245C12.157 1.39987 12.082 1.35427 12.0002 1.35427C11.9184 1.35427 11.8435 1.39983 11.8058 1.47236ZM10.7371 0.926563C10.9799 0.452497 11.4676 0.154266 12.0002 0.154266C12.5328 0.154266 13.0205 0.452497 13.2633 0.926563L13.2648 0.929643L16.4623 7.26442L22.5703 7.86953C23.1144 7.91684 23.582 8.27527 23.7688 8.78879C23.9563 9.304 23.827 9.88121 23.4376 10.2672C23.4376 10.2672 23.4376 10.2672 23.4376 10.2672L18.3868 15.2731L20.2601 22.078C20.4029 22.6155 20.217 23.1868 19.7853 23.5374C19.3542 23.8877 18.7578 23.9527 18.2613 23.7039C18.2607 23.7036 18.2602 23.7033 18.2597 23.7031L12.0002 20.6035L5.74974 23.6991C5.74909 23.6994 5.74845 23.6997 5.7478 23.7C5.25133 23.9487 4.65513 23.8836 4.22405 23.5334C3.79239 23.1828 3.60656 22.6115 3.7493 22.074L3.75069 22.0688L5.62253 15.2693L0.567989 10.2633C0.178568 9.87737 0.0490772 9.30001 0.236566 8.78479C0.423437 8.27127 0.891024 7.91284 1.43511 7.86553L7.54293 7.26044L10.7355 0.92984L10.7371 0.926563Z" fill="currentColor" />
</svg>
