<svg viewBox="0 0 24 24" fill="none" xmlns="http://www.w3.org/2000/svg">
	<path fill-rule="evenodd" clip-rule="evenodd" d="M9.93111 0.531795C10.021 0.301557 10.2429 0.149994 10.49 0.149994C14.7067 0.149994 17.5516 3.84896 18.1183 7.40559C18.4049 9.20456 18.1325 11.0661 17.0905 12.4943C16.0334 13.9431 14.2546 14.85 11.738 14.85C9.96867 14.85 8.61178 14.2302 7.67658 13.2602C6.75115 12.3004 6.27535 11.0367 6.18016 9.79589C6.08525 8.55889 6.36484 7.29571 7.01284 6.32348C7.67109 5.33586 8.71466 4.64999 10.074 4.64999C10.2554 4.64999 10.427 4.732 10.5409 4.87309C10.6548 5.01418 10.6988 5.19922 10.6605 5.37648C10.4568 6.32146 10.7249 6.79098 10.952 7.03103C11.0437 7.12794 11.142 7.20088 11.2305 7.25441C11.2939 7.19709 11.3658 7.12786 11.4415 7.04714C11.7055 6.76593 12.0014 6.36203 12.1673 5.85186C12.33 5.352 12.3763 4.72693 12.114 3.96988C11.8483 3.20322 11.2549 2.27037 10.0835 1.19129C9.90172 1.02383 9.84123 0.762034 9.93111 0.531795ZM11.322 7.94999C11.1709 8.53065 11.1705 8.53056 11.1702 8.53046L11.1694 8.53025L11.1677 8.5298L11.1638 8.52875L11.154 8.52604C11.1466 8.52396 11.1376 8.52132 11.1269 8.51806C11.1057 8.51156 11.0781 8.50258 11.0452 8.49073C10.9796 8.4671 10.8918 8.43167 10.7906 8.38107C10.5896 8.2806 10.3261 8.11549 10.0803 7.85571C9.67899 7.43152 9.37504 6.80772 9.38901 5.94215C8.81254 6.10557 8.35216 6.47771 8.01137 6.98901C7.53465 7.70428 7.29893 8.6911 7.37664 9.7041C7.45408 10.7133 7.83885 11.6996 8.54044 12.4273C9.23227 13.1448 10.2689 13.65 11.738 13.65C13.9475 13.65 15.3314 12.8694 16.1211 11.787C16.9259 10.6839 17.1844 9.17043 16.9333 7.5944C16.508 4.92569 14.6886 2.35639 12.1007 1.58417C12.6597 2.28132 13.0293 2.94626 13.2478 3.57699C13.5995 4.59181 13.5485 5.48549 13.3085 6.22313C13.0718 6.95046 12.6597 7.50281 12.3164 7.86847C12.1436 8.0526 11.9842 8.1936 11.8659 8.29013C11.8066 8.33851 11.7572 8.37605 11.7209 8.40258C11.7028 8.41586 11.688 8.4264 11.6768 8.4342L11.6628 8.44383L11.658 8.4471L11.6562 8.44835L11.6554 8.44888C11.655 8.44911 11.6547 8.44934 11.322 7.94999ZM11.322 7.94999L11.6547 8.44934C11.5124 8.54414 11.3364 8.57372 11.1709 8.53065L11.322 7.94999Z" fill="currentColor" />
	<path fill-rule="evenodd" clip-rule="evenodd" d="M6.25067 13.9172C6.36195 13.7503 6.54929 13.65 6.7499 13.65H17.2499C17.4505 13.65 17.6379 13.7503 17.7491 13.9172C17.8604 14.0841 17.8809 14.2956 17.8037 14.4808L14.6308 22.0957C14.6308 22.0957 14.6308 22.0956 14.6308 22.0957C14.1884 23.1579 13.1506 23.85 11.9999 23.85C10.8493 23.85 9.81147 23.158 9.36906 22.0958C9.36905 22.0957 9.36908 22.0958 9.36906 22.0958L6.19606 14.4808C6.1189 14.2956 6.13939 14.0841 6.25067 13.9172ZM11.9999 22.65C12.6661 22.65 13.2669 22.2493 13.523 21.6343L16.3499 14.85H7.64991L10.4767 21.6342C10.7329 22.2492 11.3337 22.65 11.9999 22.65Z" fill="currentColor" />
	<path fill-rule="evenodd" clip-rule="evenodd" d="M4.6499 14.25C4.6499 13.9186 4.91853 13.65 5.2499 13.65H18.7499C19.0813 13.65 19.3499 13.9186 19.3499 14.25C19.3499 14.5814 19.0813 14.85 18.7499 14.85H5.2499C4.91853 14.85 4.6499 14.5814 4.6499 14.25Z" fill="currentColor" />
</svg>
