<svg viewBox="0 0 24 24" fill="none" xmlns="http://www.w3.org/2000/svg">
	<path fill-rule="evenodd" clip-rule="evenodd" d="M0.377174 1.74686C0.636839 1.54099 1.01423 1.58461 1.22009 1.84427L2.72009 3.73627C2.80417 3.84232 2.84993 3.97369 2.84993 4.10903V8.57603L2.84976 8.59024C2.83543 9.19491 3.18014 9.84607 3.86599 10.599C4.44656 11.2363 5.19177 11.8636 5.98002 12.5271C6.11455 12.6404 6.25033 12.7546 6.38676 12.8702C6.6396 13.0844 6.67093 13.463 6.45673 13.7159C6.24254 13.9687 5.86393 14 5.61109 13.7858C5.48178 13.6763 5.35054 13.5659 5.21837 13.4547C4.43451 12.7954 3.61795 12.1087 2.97887 11.4071C2.23993 10.5959 1.62727 9.64954 1.64993 8.56935V4.31801L0.279761 2.58978C0.0738952 2.33011 0.117508 1.95273 0.377174 1.74686Z" fill="currentColor" />
	<path fill-rule="evenodd" clip-rule="evenodd" d="M4.68151 0.251863C4.95664 0.06717 5.32939 0.140481 5.51409 0.415609C6.05702 1.22438 6.42217 2.13914 6.58544 3.09946C6.59109 3.13269 6.59393 3.16633 6.59393 3.20003V4.41803L9.1747 7.05134C9.62795 7.51659 9.79857 8.18832 9.62228 8.81348C9.44598 9.43864 8.94956 9.92226 8.32001 10.0822C7.69045 10.2421 7.02341 10.054 6.57016 9.58871L4.8016 7.77716C4.57011 7.54005 4.57468 7.16018 4.81179 6.9287C5.0489 6.69721 5.42877 6.70177 5.66025 6.93889L7.42925 8.75089C7.58335 8.90906 7.81056 8.97346 8.02459 8.9191C8.23862 8.86474 8.40738 8.70032 8.46732 8.48778C8.52718 8.2755 8.46939 8.04743 8.31571 7.88928L5.56541 5.08299C5.45549 4.97084 5.39393 4.82006 5.39393 4.66303V3.25194C5.25519 2.47673 4.9569 1.7386 4.51776 1.08444C4.33307 0.809315 4.40638 0.436557 4.68151 0.251863Z" fill="currentColor" />
	<path fill-rule="evenodd" clip-rule="evenodd" d="M5.99993 7.53802C6.3313 7.53802 6.59993 7.80665 6.59993 8.13802V20.25C6.59993 20.7471 7.00287 21.15 7.49993 21.15H14.2499C14.5813 21.15 14.8499 21.4187 14.8499 21.75C14.8499 22.0814 14.5813 22.35 14.2499 22.35H7.49993C6.34013 22.35 5.39993 21.4098 5.39993 20.25V8.13802C5.39993 7.80665 5.66856 7.53802 5.99993 7.53802Z" fill="currentColor" />
	<path fill-rule="evenodd" clip-rule="evenodd" d="M18.2916 10.9168C18.5054 10.6637 18.884 10.6318 19.1371 10.8457C19.9236 11.5101 20.723 12.208 21.3196 12.9372C21.9123 13.6618 22.3698 14.4946 22.3499 15.4308V19.681L23.7201 21.4093C23.926 21.6689 23.8823 22.0463 23.6227 22.2522C23.363 22.4581 22.9856 22.4144 22.7798 22.1548L21.2798 20.2628C21.1957 20.1567 21.1499 20.0254 21.1499 19.89V15.424L21.1501 15.4096C21.1626 14.89 20.9105 14.3323 20.3908 13.6971C19.8734 13.0646 19.1552 12.4319 18.3627 11.7624C18.1096 11.5485 18.0777 11.1699 18.2916 10.9168Z" fill="currentColor" />
	<path fill-rule="evenodd" clip-rule="evenodd" d="M9.14993 3.75003C9.14993 3.41865 9.41856 3.15003 9.74993 3.15003H17.2499C18.4097 3.15003 19.3499 4.09023 19.3499 5.25003V16.62C19.3499 16.8639 19.2023 17.0836 18.9764 17.1756C18.7505 17.2677 18.4914 17.2139 18.3209 17.0395L16.5702 15.2487C16.3319 15.0042 15.9406 14.9991 15.6961 15.2373C15.4518 15.4753 15.4465 15.8662 15.6841 16.1108L18.4382 18.9178C18.5483 19.03 18.6099 19.1809 18.6099 19.338V20.7478C18.7493 21.5216 19.0476 22.2584 19.4861 22.9116C19.6708 23.1867 19.5975 23.5595 19.3224 23.7442C19.0472 23.9289 18.6745 23.8556 18.4898 23.5805C17.9477 22.773 17.5826 21.8599 17.4185 20.9012C17.4128 20.8678 17.4099 20.8339 17.4099 20.8V19.5832L14.8266 16.9502L14.8252 16.9487C14.1245 16.2295 14.1395 15.0784 14.8587 14.3778C15.5779 13.6771 16.7289 13.6921 17.4296 14.4113L18.1499 15.148V5.25003C18.1499 4.75297 17.747 4.35003 17.2499 4.35003H9.74993C9.41856 4.35003 9.14993 4.0814 9.14993 3.75003Z" fill="currentColor" />
</svg>
