<svg viewBox="0 0 24 24" fill="none" xmlns="http://www.w3.org/2000/svg">
	<path fill-rule="evenodd" clip-rule="evenodd" d="M12.8994 13.013C12.8994 12.1294 13.6158 11.413 14.4994 11.413H21.4994C22.3831 11.413 23.0994 12.1294 23.0994 13.013V20.013C23.0994 20.8967 22.3831 21.613 21.4994 21.613H14.4994C13.6158 21.613 12.8994 20.8967 12.8994 20.013V13.013ZM14.4994 12.613C14.2785 12.613 14.0994 12.7921 14.0994 13.013V20.013C14.0994 20.2339 14.2785 20.413 14.4994 20.413H21.4994C21.7203 20.413 21.8994 20.2339 21.8994 20.013V13.013C21.8994 12.7921 21.7203 12.613 21.4994 12.613H14.4994Z" fill="currentColor" />
	<path fill-rule="evenodd" clip-rule="evenodd" d="M12.8994 18.013C12.8994 17.6817 13.168 17.413 13.4994 17.413H22.4994C22.8308 17.413 23.0994 17.6817 23.0994 18.013C23.0994 18.3444 22.8308 18.613 22.4994 18.613H13.4994C13.168 18.613 12.8994 18.3444 12.8994 18.013Z" fill="currentColor" />
	<path fill-rule="evenodd" clip-rule="evenodd" d="M15.4237 20.5888C15.658 20.8231 15.658 21.203 15.4237 21.4373L13.1737 23.6873C12.9394 23.9216 12.5595 23.9216 12.3252 23.6873C12.0908 23.453 12.0908 23.0731 12.3252 22.8388L14.5751 20.5888C14.8095 20.3544 15.1894 20.3544 15.4237 20.5888Z" fill="currentColor" />
	<path fill-rule="evenodd" clip-rule="evenodd" d="M20.5751 20.5888C20.8095 20.3544 21.1894 20.3544 21.4237 20.5888L23.6737 22.8388C23.908 23.0731 23.908 23.453 23.6737 23.6873C23.4394 23.9216 23.0595 23.9216 22.8251 23.6873L20.5751 21.4373C20.3408 21.203 20.3408 20.8231 20.5751 20.5888Z" fill="currentColor" />
	<path fill-rule="evenodd" clip-rule="evenodd" d="M16.8251 6.33876C17.0595 6.10445 17.4394 6.10445 17.6737 6.33876L19.4994 8.1645L21.3251 6.33876C21.5595 6.10445 21.9394 6.10445 22.1737 6.33876C22.408 6.57308 22.408 6.95297 22.1737 7.18729L19.9237 9.43729C19.6894 9.6716 19.3095 9.6716 19.0751 9.43729L16.8251 7.18729C16.5908 6.95297 16.5908 6.57308 16.8251 6.33876Z" fill="currentColor" />
	<path fill-rule="evenodd" clip-rule="evenodd" d="M13.6494 3.01302C13.6494 2.68165 13.918 2.41302 14.2494 2.41302H16.4994C18.4876 2.41302 20.0994 4.0248 20.0994 6.01302V9.01303C20.0994 9.3444 19.8308 9.61302 19.4994 9.61302C19.168 9.61302 18.8994 9.3444 18.8994 9.01303V6.01302C18.8994 4.68754 17.8249 3.61302 16.4994 3.61302H14.2494C13.918 3.61302 13.6494 3.3444 13.6494 3.01302Z" fill="currentColor" />
	<path fill-rule="evenodd" clip-rule="evenodd" d="M4.07515 14.5888C4.30946 14.3544 4.68936 14.3544 4.92368 14.5888L7.17368 16.8388C7.40799 17.0731 7.40799 17.453 7.17368 17.6873C6.93936 17.9216 6.55946 17.9216 6.32515 17.6873L4.49941 15.8616L2.67368 17.6873C2.43936 17.9216 2.05946 17.9216 1.82515 17.6873C1.59084 17.453 1.59084 17.0731 1.82515 16.8388L4.07515 14.5888Z" fill="currentColor" />
	<path fill-rule="evenodd" clip-rule="evenodd" d="M4.49941 14.413C4.83078 14.413 5.09941 14.6817 5.09941 15.013V18.013C5.09941 19.3385 6.17393 20.413 7.49941 20.413H9.74941C10.0808 20.413 10.3494 20.6817 10.3494 21.013C10.3494 21.3444 10.0808 21.613 9.74941 21.613H7.49941C5.51119 21.613 3.89941 20.0013 3.89941 18.013V15.013C3.89941 14.6817 4.16804 14.413 4.49941 14.413Z" fill="currentColor" />
	<path fill-rule="evenodd" clip-rule="evenodd" d="M0.149414 1.76302C0.149414 0.879369 0.865759 0.163025 1.74941 0.163025H9.49941C10.3831 0.163025 11.0994 0.879369 11.0994 1.76302V9.51303C11.0994 10.3967 10.3831 11.113 9.49941 11.113H1.74941C0.865758 11.113 0.149414 10.3967 0.149414 9.51303V1.76302ZM1.74941 1.36302C1.5285 1.36302 1.34941 1.54211 1.34941 1.76302V9.51303C1.34941 9.73394 1.5285 9.91302 1.74941 9.91302H9.49941C9.72033 9.91302 9.89941 9.73394 9.89941 9.51303V1.76302C9.89941 1.54211 9.72033 1.36302 9.49941 1.36302H1.74941Z" fill="currentColor" />
	<path fill-rule="evenodd" clip-rule="evenodd" d="M2.24941 9.91302C2.58078 9.91302 2.84941 10.1817 2.84941 10.513V12.013C2.84941 12.3444 2.58078 12.613 2.24941 12.613C1.91804 12.613 1.64941 12.3444 1.64941 12.013V10.513C1.64941 10.1817 1.91804 9.91302 2.24941 9.91302Z" fill="currentColor" />
	<path fill-rule="evenodd" clip-rule="evenodd" d="M8.99941 9.91302C9.33079 9.91302 9.59941 10.1817 9.59941 10.513V12.013C9.59941 12.3444 9.33079 12.613 8.99941 12.613C8.66804 12.613 8.39941 12.3444 8.39941 12.013V10.513C8.39941 10.1817 8.66804 9.91302 8.99941 9.91302Z" fill="currentColor" />
	<path fill-rule="evenodd" clip-rule="evenodd" d="M0.149414 5.26302C0.149414 4.93165 0.418043 4.66302 0.749414 4.66302H10.4994C10.8308 4.66302 11.0994 4.93165 11.0994 5.26302C11.0994 5.5944 10.8308 5.86302 10.4994 5.86302H0.749414C0.418043 5.86302 0.149414 5.5944 0.149414 5.26302Z" fill="currentColor" />
	<path fill-rule="evenodd" clip-rule="evenodd" d="M2.77441 7.51302C2.77441 7.18165 3.04304 6.91302 3.37441 6.91302C3.91289 6.91302 4.34941 7.34955 4.34941 7.88802C4.34941 8.2194 4.08078 8.48802 3.74941 8.48802C3.48564 8.48802 3.26162 8.31781 3.1812 8.08124C2.94462 8.00082 2.77441 7.7768 2.77441 7.51302Z" fill="currentColor" />
	<path fill-rule="evenodd" clip-rule="evenodd" d="M3.56763 8.08124C3.8042 8.00082 3.97441 7.7768 3.97441 7.51302C3.97441 7.18165 3.70578 6.91302 3.37441 6.91302C2.83594 6.91302 2.39941 7.34955 2.39941 7.88802C2.39941 8.2194 2.66804 8.48802 2.99941 8.48802C3.26319 8.48802 3.48721 8.31781 3.56763 8.08124Z" fill="currentColor" />
	<path fill-rule="evenodd" clip-rule="evenodd" d="M3.56763 7.69481C3.48721 7.45824 3.26319 7.28802 2.99941 7.28802C2.66804 7.28802 2.39941 7.55665 2.39941 7.88802C2.39941 8.4265 2.83594 8.86302 3.37441 8.86302C3.70578 8.86302 3.97441 8.5944 3.97441 8.26303C3.97441 7.99925 3.8042 7.77523 3.56763 7.69481Z" fill="currentColor" />
	<path fill-rule="evenodd" clip-rule="evenodd" d="M3.74941 7.28802C4.08078 7.28802 4.34941 7.55665 4.34941 7.88802C4.34941 8.4265 3.91289 8.86302 3.37441 8.86302C3.04304 8.86302 2.77441 8.5944 2.77441 8.26303C2.77441 7.99925 2.94462 7.77523 3.1812 7.69481C3.26162 7.45824 3.48564 7.28802 3.74941 7.28802Z" fill="currentColor" />
	<path fill-rule="evenodd" clip-rule="evenodd" d="M7.27441 7.51302C7.27441 7.18165 7.54304 6.91302 7.87441 6.91302C8.41289 6.91302 8.84941 7.34955 8.84941 7.88802C8.84941 8.2194 8.58079 8.48802 8.24941 8.48802C7.98564 8.48802 7.76162 8.31781 7.6812 8.08124C7.44462 8.00082 7.27441 7.7768 7.27441 7.51302Z" fill="currentColor" />
	<path fill-rule="evenodd" clip-rule="evenodd" d="M8.06763 8.08124C8.3042 8.00082 8.47441 7.7768 8.47441 7.51302C8.47441 7.18165 8.20578 6.91302 7.87441 6.91302C7.33594 6.91302 6.89941 7.34955 6.89941 7.88802C6.89941 8.2194 7.16804 8.48802 7.49941 8.48802C7.76319 8.48802 7.98721 8.31781 8.06763 8.08124Z" fill="currentColor" />
	<path fill-rule="evenodd" clip-rule="evenodd" d="M8.06763 7.69481C7.98721 7.45824 7.76319 7.28802 7.49941 7.28802C7.16804 7.28802 6.89941 7.55665 6.89941 7.88802C6.89941 8.4265 7.33594 8.86302 7.87441 8.86302C8.20578 8.86302 8.47441 8.5944 8.47441 8.26303C8.47441 7.99925 8.3042 7.77523 8.06763 7.69481Z" fill="currentColor" />
	<path fill-rule="evenodd" clip-rule="evenodd" d="M8.24941 7.28802C8.58079 7.28802 8.84941 7.55665 8.84941 7.88802C8.84941 8.4265 8.41289 8.86302 7.87441 8.86302C7.54304 8.86302 7.27441 8.5944 7.27441 8.26303C7.27441 7.99925 7.44462 7.77523 7.6812 7.69481C7.76162 7.45824 7.98564 7.28802 8.24941 7.28802Z" fill="currentColor" />
</svg>
