<svg viewBox="0 0 24 24" fill="none" xmlns="http://www.w3.org/2000/svg">
	<path fill-rule="evenodd" clip-rule="evenodd" d="M12.8999 13.0131C12.8999 12.1294 13.6162 11.4131 14.4999 11.4131H21.4999C22.3836 11.4131 23.0999 12.1294 23.0999 13.0131V20.0131C23.0999 20.8967 22.3836 21.6131 21.4999 21.6131H14.4999C13.6162 21.6131 12.8999 20.8967 12.8999 20.0131V13.0131ZM14.4999 12.6131C14.279 12.6131 14.0999 12.7922 14.0999 13.0131V20.0131C14.0999 20.234 14.279 20.4131 14.4999 20.4131H21.4999C21.7208 20.4131 21.8999 20.234 21.8999 20.0131V13.0131C21.8999 12.7922 21.7208 12.6131 21.4999 12.6131H14.4999Z" fill="currentColor" />
	<path fill-rule="evenodd" clip-rule="evenodd" d="M12.8999 18.0131C12.8999 17.6817 13.1685 17.4131 13.4999 17.4131H22.4999C22.8313 17.4131 23.0999 17.6817 23.0999 18.0131C23.0999 18.3445 22.8313 18.6131 22.4999 18.6131H13.4999C13.1685 18.6131 12.8999 18.3445 12.8999 18.0131Z" fill="currentColor" />
	<path fill-rule="evenodd" clip-rule="evenodd" d="M15.4242 20.5888C15.6585 20.8231 15.6585 21.203 15.4242 21.4373L13.1742 23.6874C12.9399 23.9217 12.56 23.9217 12.3256 23.6874C12.0913 23.453 12.0913 23.0731 12.3256 22.8388L14.5756 20.5888C14.81 20.3545 15.1899 20.3545 15.4242 20.5888Z" fill="currentColor" />
	<path fill-rule="evenodd" clip-rule="evenodd" d="M20.5756 20.5888C20.81 20.3545 21.1899 20.3545 21.4242 20.5888L23.6742 22.8388C23.9085 23.0731 23.9085 23.453 23.6742 23.6874C23.4399 23.9217 23.06 23.9217 22.8256 23.6874L20.5756 21.4373C20.3413 21.203 20.3413 20.8231 20.5756 20.5888Z" fill="currentColor" />
	<path fill-rule="evenodd" clip-rule="evenodd" d="M17.5756 6.33882C17.81 6.10451 18.1899 6.10451 18.4242 6.33882L20.2499 8.16456L22.0756 6.33882C22.31 6.10451 22.6899 6.10451 22.9242 6.33882C23.1585 6.57314 23.1585 6.95304 22.9242 7.18735L20.6742 9.43735C20.4399 9.67167 20.06 9.67167 19.8256 9.43735L17.5756 7.18735C17.3413 6.95304 17.3413 6.57314 17.5756 6.33882Z" fill="currentColor" />
	<path fill-rule="evenodd" clip-rule="evenodd" d="M16.6499 3.01309C16.6499 2.68172 16.9185 2.41309 17.2499 2.41309C19.2381 2.41309 20.8499 4.02486 20.8499 6.01309V9.01309C20.8499 9.34446 20.5813 9.61309 20.2499 9.61309C19.9185 9.61309 19.6499 9.34446 19.6499 9.01309V6.01309C19.6499 4.6876 18.5754 3.61309 17.2499 3.61309C16.9185 3.61309 16.6499 3.34446 16.6499 3.01309Z" fill="currentColor" />
	<path fill-rule="evenodd" clip-rule="evenodd" d="M4.07564 14.5888C4.30996 14.3545 4.68985 14.3545 4.92417 14.5888L7.17417 16.8388C7.40848 17.0731 7.40848 17.453 7.17417 17.6874C6.93985 17.9217 6.55995 17.9217 6.32564 17.6874L4.4999 15.8616L2.67417 17.6874C2.43985 17.9217 2.05996 17.9217 1.82564 17.6874C1.59133 17.453 1.59133 17.0731 1.82564 16.8388L4.07564 14.5888Z" fill="currentColor" />
	<path fill-rule="evenodd" clip-rule="evenodd" d="M4.4999 14.4131C4.83128 14.4131 5.0999 14.6817 5.0999 15.0131V18.0131C5.0999 19.3386 6.17442 20.4131 7.4999 20.4131C7.83128 20.4131 8.09991 20.6817 8.0999 21.0131C8.0999 21.3445 7.83128 21.6131 7.4999 21.6131C5.51168 21.6131 3.8999 20.0013 3.8999 18.0131V15.0131C3.8999 14.6817 4.16853 14.4131 4.4999 14.4131Z" fill="currentColor" />
	<path fill-rule="evenodd" clip-rule="evenodd" d="M0.227779 4.96748C0.334281 4.77937 0.533738 4.66309 0.749905 4.66309H14.2499C14.4661 4.66309 14.6655 4.77937 14.772 4.96748C14.8785 5.15559 14.8756 5.38645 14.7644 5.5718L12.4374 9.4498C12.2669 9.73394 11.8983 9.82607 11.6142 9.65557C11.33 9.48507 11.2379 9.11651 11.4084 8.83237L13.1901 5.86309H1.80967L3.59139 8.83237C3.76189 9.11651 3.66976 9.48507 3.38562 9.65557C3.10148 9.82607 2.73292 9.73394 2.56242 9.4498L0.235421 5.5718C0.124197 5.38645 0.121278 5.15559 0.227779 4.96748Z" fill="currentColor" />
	<path fill-rule="evenodd" clip-rule="evenodd" d="M3.91782 2.11756C3.98459 1.85046 4.22458 1.66309 4.4999 1.66309H10.4999C10.7752 1.66309 11.0152 1.85046 11.082 2.11756L11.832 5.11756L11.2499 5.26309V5.86309H3.7499C3.56514 5.86309 3.39069 5.77796 3.27698 5.63233C3.16328 5.4867 3.12301 5.29681 3.16782 5.11756L3.91782 2.11756ZM10.4814 4.66309L10.0314 2.86309H4.96837L4.51837 4.66309H10.4814Z" fill="currentColor" />
	<path fill-rule="evenodd" clip-rule="evenodd" d="M8.9999 0.163086C9.33128 0.163086 9.5999 0.431715 9.5999 0.763086V2.26309C9.5999 2.59446 9.33128 2.86309 8.9999 2.86309C8.66853 2.86309 8.3999 2.59446 8.3999 2.26309V0.763086C8.3999 0.431715 8.66853 0.163086 8.9999 0.163086Z" fill="currentColor" />
	<path fill-rule="evenodd" clip-rule="evenodd" d="M4.1249 7.66309C4.29893 7.66309 4.46438 7.73864 4.57834 7.87015C5.30786 8.71201 6.37398 9.18584 7.48772 9.16321C7.49584 9.16304 7.50397 9.16304 7.51209 9.16321C8.62583 9.18584 9.69195 8.71201 10.4215 7.87015C10.5354 7.73864 10.7009 7.66309 10.8749 7.66309C11.0489 7.66309 11.2144 7.73864 11.3283 7.87015C12.0579 8.71201 13.124 9.18584 14.2377 9.16321C14.569 9.15648 14.843 9.41959 14.8498 9.7509C14.8565 10.0822 14.5934 10.3562 14.2621 10.363C13.0085 10.3884 11.8006 9.93744 10.8749 9.11509C9.95219 9.93478 8.74913 10.3855 7.4999 10.3632C6.25068 10.3855 5.04762 9.93478 4.1249 9.1151C3.19919 9.93744 1.9913 10.3884 0.737717 10.363C0.406414 10.3562 0.143297 10.0822 0.150029 9.7509C0.15676 9.41959 0.43079 9.15648 0.762093 9.16321C1.87583 9.18584 2.94195 8.71201 3.67147 7.87015C3.78543 7.73864 3.95088 7.66309 4.1249 7.66309Z" fill="currentColor" />
</svg>
