<svg viewBox="0 0 24 24" fill="none" xmlns="http://www.w3.org/2000/svg">
	<path fill-rule="evenodd" clip-rule="evenodd" d="M17.9617 17.1251C17.9085 17.1075 17.8499 17.1218 17.8109 17.162C17.0476 17.947 16.0439 18.9131 15.0367 19.6868C14.5332 20.0734 14.0157 20.4224 13.5164 20.6771C13.0268 20.9267 12.5028 21.113 11.9998 21.1131C10.9262 21.1143 9.91304 20.6739 9.18492 19.9171C8.45546 20.6713 7.44332 21.1102 6.37092 21.1102C5.29851 21.1102 4.28638 20.6713 3.55691 19.9171C2.83233 20.6702 1.82532 21.1102 0.757044 21.1131C0.425674 21.114 0.156317 20.8461 0.155418 20.5147C0.154519 20.1833 0.422419 19.914 0.753788 19.9131C1.68794 19.9105 2.55441 19.4253 3.0447 18.6302C3.15375 18.4533 3.34656 18.3454 3.55435 18.3451C3.76213 18.3447 3.95532 18.4519 4.06501 18.6283C4.56043 19.4254 5.43239 19.9102 6.37092 19.9102C7.30944 19.9102 8.1814 19.4254 8.67682 18.6283C8.78651 18.4519 8.9797 18.3447 9.18748 18.3451C9.39527 18.3454 9.58808 18.4533 9.69713 18.6302C10.1894 19.4285 11.0607 19.9142 11.9987 19.9131C12.2256 19.9131 12.551 19.8223 12.9712 19.608C13.3817 19.3987 13.8351 19.0966 14.3057 18.7351C15.2464 18.0125 16.2036 17.0937 16.9502 16.3258C17.3099 15.9556 17.8496 15.8236 18.3395 15.9861C18.8296 16.1487 19.1835 16.5774 19.2504 17.0894L19.2521 17.1027C19.2974 17.5227 19.3999 17.8655 19.5595 18.0898C19.6929 18.2772 19.8816 18.4096 20.2325 18.413C21.3471 18.3531 22.315 17.6236 22.6792 16.5675C22.7872 16.2542 23.1287 16.0878 23.442 16.1958C23.7553 16.3039 23.9217 16.6454 23.8136 16.9587C23.2878 18.4835 21.8865 19.5345 20.2754 19.6124C20.2657 19.6128 20.2561 19.6131 20.2464 19.6131C19.4923 19.6131 18.9386 19.2869 18.5818 18.7856C18.2515 18.3215 18.1153 17.7456 18.0599 17.2409C18.0514 17.1871 18.0136 17.1423 17.9617 17.1251Z" fill="currentColor" />
	<path fill-rule="evenodd" clip-rule="evenodd" d="M0.266168 6.65744C0.404286 6.46975 0.638583 6.37901 0.867086 6.42472L23.3671 10.9247C23.692 10.9897 23.9028 11.3058 23.8378 11.6307C23.7728 11.9557 23.4567 12.1664 23.1317 12.1014L1.89118 7.8533L4.51614 12.6657C4.51614 12.6657 4.51614 12.6657 4.51614 12.6657C5.23852 13.9899 6.48187 14.9517 7.94514 15.318L11.395 16.181C11.7165 16.2614 11.9119 16.5872 11.8315 16.9087C11.7511 17.2301 11.4253 17.4255 11.1038 17.3451L7.65382 16.4821C5.86536 16.0344 4.3456 14.8589 3.46269 13.2404L0.222679 7.30037C0.111093 7.0958 0.128049 6.84512 0.266168 6.65744Z" fill="currentColor" />
	<path fill-rule="evenodd" clip-rule="evenodd" d="M10.9811 4.97639C11.0922 4.92084 11.2179 4.90115 11.3406 4.92004L21.0906 6.42004C21.4182 6.47043 21.6428 6.77678 21.5924 7.1043C21.5421 7.43182 21.2357 7.65647 20.9082 7.60609L11.3469 6.13512L6.3747 8.62074C6.0783 8.76891 5.71791 8.64875 5.56974 8.35235C5.42157 8.05595 5.54173 7.69556 5.83813 7.54739L10.9811 4.97639Z" fill="currentColor" />
	<path fill-rule="evenodd" clip-rule="evenodd" d="M21.9238 2.66406C22.4107 2.66322 22.8603 2.92481 23.1001 3.34856C23.34 3.7723 23.3328 4.29238 23.0815 4.70937C23.0814 4.70961 23.0817 4.70914 23.0815 4.70937L21.5386 7.28055L20.0565 10.9859C19.9334 11.2936 19.5843 11.4432 19.2766 11.3202C18.9689 11.1971 18.8193 10.8479 18.9423 10.5402L20.4423 6.79023C20.4542 6.76051 20.4685 6.73179 20.4849 6.70434L22.0529 4.09134L22.0537 4.09005C22.0815 4.04398 22.0823 3.9865 22.0558 3.93967C22.0293 3.89284 21.9796 3.86394 21.9258 3.86406L21.9244 3.86406H19.7098L16.1842 6.68365C15.9254 6.89061 15.5478 6.8486 15.3408 6.5898C15.1339 6.33101 15.1759 5.95344 15.4347 5.74648L19.1247 2.79548C19.2311 2.71041 19.3632 2.66406 19.4994 2.66406H21.9238Z" fill="currentColor" />
</svg>
