<svg viewBox="0 0 24 24" fill="none" xmlns="http://www.w3.org/2000/svg">
	<path fill-rule="evenodd" clip-rule="evenodd" d="M6.90005 8.25002C6.90005 5.43337 9.18339 3.15002 12 3.15002C14.8167 3.15002 17.1 5.43337 17.1 8.25002C17.1 11.0667 14.8167 13.35 12 13.35C9.18339 13.35 6.90005 11.0667 6.90005 8.25002ZM12 4.35002C9.84614 4.35002 8.10005 6.09611 8.10005 8.25002C8.10005 10.4039 9.84614 12.15 12 12.15C14.154 12.15 15.9 10.4039 15.9 8.25002C15.9 6.09611 14.154 4.35002 12 4.35002Z" fill="currentColor" />
	<path fill-rule="evenodd" clip-rule="evenodd" d="M9.90005 6.75002C9.90005 6.41865 10.1687 6.15002 10.5 6.15002H13.5C13.8314 6.15002 14.1 6.41865 14.1 6.75002C14.1 7.0814 13.8314 7.35002 13.5 7.35002H10.5C10.1687 7.35002 9.90005 7.0814 9.90005 6.75002Z" fill="currentColor" />
	<path fill-rule="evenodd" clip-rule="evenodd" d="M12 0.150024C12.3314 0.150024 12.6 0.418654 12.6 0.750024V3.75002C12.6 4.0814 12.3314 4.35002 12 4.35002C11.6687 4.35002 11.4 4.0814 11.4 3.75002V0.750024C11.4 0.418654 11.6687 0.150024 12 0.150024Z" fill="currentColor" />
	<path fill-rule="evenodd" clip-rule="evenodd" d="M0.150047 8.25002C0.150047 7.91865 0.418676 7.65002 0.750047 7.65002H7.50005C7.83142 7.65002 8.10005 7.91865 8.10005 8.25002C8.10005 8.5814 7.83142 8.85002 7.50005 8.85002H0.750047C0.418676 8.85002 0.150047 8.5814 0.150047 8.25002Z" fill="currentColor" />
	<path fill-rule="evenodd" clip-rule="evenodd" d="M4.50005 7.65002C4.83142 7.65002 5.10005 7.91865 5.10005 8.25002V9.75002C5.10005 10.0814 4.83142 10.35 4.50005 10.35C4.16868 10.35 3.90005 10.0814 3.90005 9.75002V8.25002C3.90005 7.91865 4.16868 7.65002 4.50005 7.65002Z" fill="currentColor" />
	<path fill-rule="evenodd" clip-rule="evenodd" d="M15.9 8.25002C15.9 7.91865 16.1687 7.65002 16.5 7.65002H23.25C23.5814 7.65002 23.85 7.91865 23.85 8.25002C23.85 8.5814 23.5814 8.85002 23.25 8.85002H16.5C16.1687 8.85002 15.9 8.5814 15.9 8.25002Z" fill="currentColor" />
	<path fill-rule="evenodd" clip-rule="evenodd" d="M19.5 7.65002C19.8314 7.65002 20.1 7.91865 20.1 8.25002V9.75002C20.1 10.0814 19.8314 10.35 19.5 10.35C19.1687 10.35 18.9 10.0814 18.9 9.75002V8.25002C18.9 7.91865 19.1687 7.65002 19.5 7.65002Z" fill="currentColor" />
	<path fill-rule="evenodd" clip-rule="evenodd" d="M5.50148 12.9552C5.80235 13.0941 5.93369 13.4506 5.79482 13.7515L1.29482 23.5015C1.15596 23.8023 0.799483 23.9337 0.498612 23.7948C0.197741 23.6559 0.0664077 23.2995 0.205271 22.9986L4.70527 13.2486C4.84413 12.9477 5.20061 12.8164 5.50148 12.9552Z" fill="currentColor" />
	<path fill-rule="evenodd" clip-rule="evenodd" d="M18.4986 12.9552C18.7995 12.8164 19.156 12.9477 19.2948 13.2486L23.7948 22.9986C23.9337 23.2995 23.8024 23.6559 23.5015 23.7948C23.2006 23.9337 22.8441 23.8023 22.7053 23.5015L18.2053 13.7515C18.0664 13.4506 18.1977 13.0941 18.4986 12.9552Z" fill="currentColor" />
	<path fill-rule="evenodd" clip-rule="evenodd" d="M12 19.65C12.3314 19.65 12.6 19.9187 12.6 20.25V23.25C12.6 23.5814 12.3314 23.85 12 23.85C11.6687 23.85 11.4 23.5814 11.4 23.25V20.25C11.4 19.9187 11.6687 19.65 12 19.65Z" fill="currentColor" />
	<path fill-rule="evenodd" clip-rule="evenodd" d="M12 14.4C12.3314 14.4 12.6 14.6687 12.6 15V17.25C12.6 17.5814 12.3314 17.85 12 17.85C11.6687 17.85 11.4 17.5814 11.4 17.25V15C11.4 14.6687 11.6687 14.4 12 14.4Z" fill="currentColor" />
</svg>
