<svg viewBox="0 0 24 24" fill="none" xmlns="http://www.w3.org/2000/svg">
	<g>
		<path fill-rule="evenodd" clip-rule="evenodd" d="M5.4996 1.35642L6.74424 3.80484C6.84658 4.00615 7.05328 4.13295 7.2791 4.13295H9.37611L7.45158 6.02398C7.27431 6.19816 7.22277 6.46361 7.32199 6.69148L8.38758 9.13878L5.79473 7.67727C5.61184 7.57418 5.38837 7.57418 5.20548 7.67727L2.61263 9.13878L3.67822 6.69148C3.77737 6.46377 3.72598 6.19851 3.54896 6.02431L1.62405 4.12995H3.7211C3.94689 4.12995 4.15357 4.00319 4.25592 3.80193L5.4996 1.35642ZM4.87339 0.326564C5.06167 0.210583 5.27846 0.14917 5.4996 0.14917C5.72074 0.14917 5.93754 0.210583 6.12582 0.326564C6.31372 0.442306 6.46586 0.607855 6.56535 0.80482L6.56596 0.806034L7.64717 2.93295H9.40113C9.63584 2.92964 9.86629 2.99624 10.0631 3.12435C10.2619 3.25374 10.4172 3.4399 10.5089 3.65867C10.6006 3.87743 10.6243 4.1187 10.5772 4.35116C10.5301 4.58316 10.4144 4.79569 10.2453 4.96127L10.2443 4.96223L8.58694 6.59073L9.50753 8.70503C9.60381 8.93478 9.62544 9.18899 9.56948 9.43172C9.51351 9.67446 9.38272 9.89349 9.19557 10.0579C9.00842 10.2223 8.77435 10.3238 8.52643 10.348C8.27998 10.372 8.0322 10.3186 7.81767 10.195L5.5001 8.8887L3.18253 10.1951C2.968 10.3186 2.72023 10.372 2.47378 10.348C2.22585 10.3238 1.99179 10.2223 1.80464 10.0579C1.61749 9.89349 1.48669 9.67446 1.43073 9.43172C1.37476 9.18898 1.39645 8.9348 1.49273 8.70505L1.49594 8.6974L2.41341 6.59042L0.755916 4.95923L0.754922 4.95826C0.585758 4.79268 0.470147 4.58016 0.423056 4.34816C0.375873 4.1157 0.399657 3.87443 0.491321 3.65567C0.582984 3.4369 0.738294 3.25074 0.93709 3.12135C1.13391 2.99324 1.36436 2.92665 1.59906 2.92995H3.35311L4.43385 0.804839C4.53334 0.607866 4.68548 0.44231 4.87339 0.326564Z" fill="currentColor" />
		<path fill-rule="evenodd" clip-rule="evenodd" d="M18.2488 5.10192L19.4942 7.55184C19.5966 7.75315 19.8033 7.87995 20.0291 7.87995H22.1261L20.2015 9.77209C20.0245 9.94609 19.9729 10.2111 20.0717 10.4388L21.1337 12.8858L18.5446 11.4272C18.3619 11.3243 18.1387 11.3242 17.9559 11.427L15.3626 12.8858L16.4282 10.4396C16.5274 10.2119 16.476 9.94665 16.2991 9.77242L14.374 7.87695H16.4711C16.697 7.87695 16.9038 7.75007 17.0061 7.54867L18.2488 5.10192ZM17.6255 4.07029C17.8141 3.95484 18.0311 3.89404 18.2522 3.89467C18.4734 3.89529 18.69 3.95732 18.8779 4.07384C19.0652 4.18993 19.2167 4.35559 19.3157 4.55245L20.3972 6.67995H22.1511C22.3858 6.67664 22.6163 6.74324 22.8131 6.87135C23.0119 7.00074 23.1672 7.18689 23.2589 7.40567C23.3506 7.62443 23.3743 7.8657 23.3272 8.09816C23.28 8.33024 23.1644 8.54283 22.9951 8.70843L22.9943 8.70923L21.3365 10.339L22.2535 12.452C22.3498 12.6818 22.3714 12.936 22.3155 13.1787C22.2595 13.4215 22.1287 13.6405 21.9416 13.8049C21.7544 13.9693 21.5204 14.0708 21.2724 14.095C21.026 14.119 20.7783 14.0656 20.5638 13.9421L18.2499 12.6385L15.9323 13.9422C15.7178 14.0656 15.4701 14.119 15.2238 14.095C14.9759 14.0708 14.7418 13.9693 14.5546 13.8049C14.3675 13.6405 14.2367 13.4215 14.1807 13.1787C14.1248 12.936 14.1465 12.6818 14.2427 12.4521L14.246 12.4443L15.1634 10.3383L13.5059 8.70623L13.5049 8.70524C13.3358 8.53967 13.2201 8.32715 13.1731 8.09516C13.1259 7.8627 13.1497 7.62143 13.2413 7.40267C13.333 7.1839 13.4883 6.99774 13.6871 6.86835C13.8839 6.74024 14.1144 6.67364 14.3491 6.67695H16.1029L17.184 4.54852C17.2841 4.35143 17.437 4.18569 17.6255 4.07029Z" fill="currentColor" />
		<path fill-rule="evenodd" clip-rule="evenodd" d="M5.89906 10.7634C6.1678 10.5695 6.54282 10.6302 6.7367 10.8989C9.32931 14.4926 10.685 18.831 10.6 23.2615C10.5936 23.5928 10.3199 23.8562 9.98859 23.8498C9.65728 23.8435 9.39386 23.5697 9.40022 23.2384C9.48027 19.0678 8.20406 14.9839 5.76351 11.601C5.56964 11.3323 5.63033 10.9572 5.89906 10.7634Z" fill="currentColor" />
		<path fill-rule="evenodd" clip-rule="evenodd" d="M17.7294 14.4455C18.0356 14.5721 18.1812 14.923 18.0546 15.2292C17.0069 17.7627 16.5109 20.4904 16.5998 23.2305C16.6105 23.5617 16.3508 23.8389 16.0196 23.8496C15.6884 23.8604 15.4112 23.6006 15.4004 23.2694C15.306 20.3589 15.8328 17.4617 16.9456 14.7707C17.0723 14.4644 17.4232 14.3189 17.7294 14.4455Z" fill="currentColor" />
	</g>
	<defs>
		<clipPath id="clip0_360_7687">
			<rect fill="white" />
		</clipPath>
	</defs>
</svg>
