<svg viewBox="0 0 24 24" fill="none" xmlns="http://www.w3.org/2000/svg">
	<path fill-rule="evenodd" clip-rule="evenodd" d="M4.44012 17.75C4.44012 16.6135 5.33061 15.65 6.48012 15.65C7.62963 15.65 8.52012 16.6135 8.52012 17.75C8.52012 18.8865 7.62963 19.85 6.48012 19.85C5.33061 19.85 4.44012 18.8865 4.44012 17.75ZM6.48012 16.85C6.03905 16.85 5.64012 17.2296 5.64012 17.75C5.64012 18.2704 6.03905 18.65 6.48012 18.65C6.92119 18.65 7.32012 18.2704 7.32012 17.75C7.32012 17.2296 6.92119 16.85 6.48012 16.85Z" fill="currentColor" />
	<path fill-rule="evenodd" clip-rule="evenodd" d="M15.9601 17.75C15.9601 16.6135 16.8506 15.65 18.0001 15.65C19.1496 15.65 20.0401 16.6135 20.0401 17.75C20.0401 18.8865 19.1496 19.85 18.0001 19.85C16.8506 19.85 15.9601 18.8865 15.9601 17.75ZM18.0001 16.85C17.559 16.85 17.1601 17.2296 17.1601 17.75C17.1601 18.2704 17.559 18.65 18.0001 18.65C18.4412 18.65 18.8401 18.2704 18.8401 17.75C18.8401 17.2296 18.4412 16.85 18.0001 16.85Z" fill="currentColor" />
	<path fill-rule="evenodd" clip-rule="evenodd" d="M7.32012 17.75C7.32012 17.4187 7.58875 17.15 7.92012 17.15H16.5601C16.8915 17.15 17.1601 17.4187 17.1601 17.75C17.1601 18.0814 16.8915 18.35 16.5601 18.35H7.92012C7.58875 18.35 7.32012 18.0814 7.32012 17.75Z" fill="currentColor" />
	<path fill-rule="evenodd" clip-rule="evenodd" d="M8.0042 7.41665C8.653 6.47072 9.70809 5.90002 10.8424 5.90002H22.3201C22.6515 5.90002 22.9201 6.16865 22.9201 6.50002C22.9201 6.8314 22.6515 7.10002 22.3201 7.10002H10.8424C10.1167 7.10002 9.42625 7.46489 8.9938 8.0954L6.25495 12.0894C6.14306 12.2525 5.95795 12.35 5.76012 12.35H3.87952C3.87951 12.35 3.87954 12.35 3.87952 12.35C2.78411 12.3501 1.81896 13.1785 1.63131 14.3518C1.63131 14.3518 1.63131 14.3518 1.63131 14.3518L1.321 16.2922C1.34186 16.7908 1.73105 17.15 2.16012 17.15H5.04012C5.37149 17.15 5.64012 17.4187 5.64012 17.75C5.64012 18.0814 5.37149 18.35 5.04012 18.35H2.16012C1.01061 18.35 0.120117 17.3865 0.120117 16.25C0.120117 16.2183 0.122634 16.1866 0.127645 16.1553L0.446365 14.1623C0.721433 12.4424 2.15916 11.1502 3.87943 11.15H5.44404L8.0042 7.41665Z" fill="currentColor" />
	<path fill-rule="evenodd" clip-rule="evenodd" d="M18.8401 17.75C18.8401 17.4187 19.1087 17.15 19.4401 17.15H22.3201C22.6515 17.15 22.9201 17.4187 22.9201 17.75C22.9201 18.0814 22.6515 18.35 22.3201 18.35H19.4401C19.1087 18.35 18.8401 18.0814 18.8401 17.75Z" fill="currentColor" />
	<path fill-rule="evenodd" clip-rule="evenodd" d="M5.16012 11.75C5.16012 11.4187 5.42875 11.15 5.76012 11.15H22.3201C22.6515 11.15 22.9201 11.4187 22.9201 11.75C22.9201 12.0814 22.6515 12.35 22.3201 12.35H5.76012C5.42875 12.35 5.16012 12.0814 5.16012 11.75Z" fill="currentColor" />
	<path fill-rule="evenodd" clip-rule="evenodd" d="M12.2401 5.90002C12.5715 5.90002 12.8401 6.16865 12.8401 6.50002V17.75C12.8401 18.0814 12.5715 18.35 12.2401 18.35C11.9087 18.35 11.6401 18.0814 11.6401 17.75V6.50002C11.6401 6.16865 11.9087 5.90002 12.2401 5.90002Z" fill="currentColor" />
	<path fill-rule="evenodd" clip-rule="evenodd" d="M17.2801 5.90002C17.6115 5.90002 17.8801 6.16865 17.8801 6.50002V11.75C17.8801 12.0814 17.6115 12.35 17.2801 12.35C16.9487 12.35 16.6801 12.0814 16.6801 11.75V6.50002C16.6801 6.16865 16.9487 5.90002 17.2801 5.90002Z" fill="currentColor" />
	<path fill-rule="evenodd" clip-rule="evenodd" d="M22.3201 5.90002C22.6515 5.90002 22.9201 6.16865 22.9201 6.50002L22.9201 11.75C22.9201 12.0814 22.6515 12.35 22.3201 12.35C21.9887 12.35 21.7201 12.0814 21.7201 11.75V6.50002C21.7201 6.16865 21.9887 5.90002 22.3201 5.90002Z" fill="currentColor" />
</svg>
