<svg viewBox="0 0 24 24" fill="none" xmlns="http://www.w3.org/2000/svg">
	<path fill-rule="evenodd" clip-rule="evenodd" d="M16.2358 2.52767C13.6072 0.960161 10.3307 0.960161 7.70206 2.52767C5.07342 4.09518 3.5159 6.97779 3.64541 10.0356C3.65943 10.3667 3.33084 9.98604 2.99977 10.0001C2.66869 10.0141 2.46051 10.4174 2.44648 10.0864C2.29832 6.58812 4.08019 3.29031 7.08746 1.49701C10.0947 -0.296285 13.8432 -0.296285 16.8504 1.49701C19.8577 3.29031 21.6396 6.58812 21.4914 10.0864C21.4774 10.4174 21.1976 10.6745 20.8666 10.6604C20.5355 10.6464 20.2785 10.3667 20.2925 10.0356C20.422 6.97779 18.8645 4.09518 16.2358 2.52767Z" fill="currentColor" />
	<path fill-rule="evenodd" clip-rule="evenodd" d="M19.9367 17.7841C20.2068 17.9761 20.2699 18.3508 20.0779 18.6208C18.6041 20.6924 16.3627 22.0883 13.8534 22.4972C13.5264 22.5505 13.218 22.3285 13.1648 22.0015C13.1115 21.6744 13.3334 21.3661 13.6605 21.3128C15.8533 20.9555 17.8121 19.7356 19.1 17.9252C19.2921 17.6551 19.6667 17.592 19.9367 17.7841Z" fill="currentColor" />
	<path fill-rule="evenodd" clip-rule="evenodd" d="M20.3292 9.54397C21.444 9.26527 22.6165 9.68933 23.2951 10.6166C23.7428 11.2272 23.9301 11.9904 23.8162 12.7389L23.2305 16.6157C23.0662 17.7513 22.2316 18.675 21.1183 18.9534C20.0042 19.2319 18.8324 18.8088 18.1531 17.8828C17.706 17.2721 17.5183 16.5088 17.6317 15.7603L18.2173 11.8836C18.3806 10.7472 19.2152 9.82245 20.3292 9.54397ZM22.3268 11.3253C21.9363 10.7918 21.2617 10.5478 20.6202 10.7081C19.9788 10.8685 19.4984 11.4013 19.4049 12.0558L19.4042 12.0606L18.8182 15.9396C18.7523 16.3746 18.8611 16.8182 19.1209 17.1733C19.5118 17.7061 20.1861 17.9495 20.8273 17.7892C21.4684 17.6289 21.9489 17.0967 22.0431 16.4425L22.0437 16.4383L22.6297 12.5593C22.696 12.1246 22.5869 11.6799 22.3268 11.3253Z" fill="currentColor" />
	<path fill-rule="evenodd" clip-rule="evenodd" d="M9.50895 21.386C9.50895 20.0236 10.6058 18.911 11.9689 18.911C13.3321 18.911 14.4289 20.0236 14.4289 21.386C14.4289 22.7483 13.3321 23.861 11.9689 23.861C10.6058 23.861 9.50895 22.7483 9.50895 21.386ZM11.9689 20.111C11.2776 20.111 10.7089 20.6773 10.7089 21.386C10.7089 22.0947 11.2776 22.661 11.9689 22.661C12.6603 22.661 13.2289 22.0947 13.2289 21.386C13.2289 20.6773 12.6603 20.111 11.9689 20.111Z" fill="currentColor" />
	<path fill-rule="evenodd" clip-rule="evenodd" d="M3.51959 9.08458C2.40481 8.80588 1.23227 9.22994 0.55365 10.1572C0.106006 10.7678 -0.0813573 11.531 0.032612 12.2795L0.618279 16.1563C0.782607 17.2919 1.61714 18.2157 2.73049 18.494C3.84457 18.7725 5.01643 18.3494 5.69564 17.4235C6.14276 16.8127 6.33044 16.0494 6.21711 15.301L5.63145 11.4242C5.46816 10.2878 4.63354 9.36307 3.51959 9.08458ZM1.52203 10.8659C1.91249 10.3324 2.58714 10.0884 3.22855 10.2487C3.86996 10.4091 4.35042 10.9419 4.44386 11.5964L4.44455 11.6012L5.03057 15.4802C5.09648 15.9152 4.98771 16.3588 4.72792 16.7139C4.337 17.2467 3.66264 17.4901 3.02153 17.3298C2.38036 17.1695 1.89986 16.6373 1.80573 15.9831L1.80512 15.979L1.21911 12.1C1.15282 11.6652 1.26192 11.2206 1.52203 10.8659Z" fill="currentColor" />
</svg>
