<svg viewBox="0 0 24 24" fill="none" xmlns="http://www.w3.org/2000/svg">
	<path fill-rule="evenodd" clip-rule="evenodd" d="M8.3999 12.0001C8.3999 10.0119 10.0117 8.40009 11.9999 8.40009C13.9881 8.40009 15.5999 10.0119 15.5999 12.0001C15.5999 13.9883 13.9881 15.6001 11.9999 15.6001C10.0117 15.6001 8.3999 13.9883 8.3999 12.0001ZM11.9999 9.60009C10.6744 9.60009 9.5999 10.6746 9.5999 12.0001C9.5999 13.3256 10.6744 14.4001 11.9999 14.4001C13.3254 14.4001 14.3999 13.3256 14.3999 12.0001C14.3999 10.6746 13.3254 9.60009 11.9999 9.60009Z" fill="currentColor" />
	<path fill-rule="evenodd" clip-rule="evenodd" d="M16.6499 3.75009C16.6499 1.76186 18.2617 0.150085 20.2499 0.150085C22.2381 0.150085 23.8499 1.76186 23.8499 3.75009C23.8499 5.73831 22.2381 7.35009 20.2499 7.35009C18.2617 7.35009 16.6499 5.73831 16.6499 3.75009ZM20.2499 1.35009C18.9244 1.35009 17.8499 2.4246 17.8499 3.75009C17.8499 5.07557 18.9244 6.15009 20.2499 6.15009C21.5754 6.15009 22.6499 5.07557 22.6499 3.75009C22.6499 2.4246 21.5754 1.35009 20.2499 1.35009Z" fill="currentColor" />
	<path fill-rule="evenodd" clip-rule="evenodd" d="M0.149902 3.75009C0.149902 1.76186 1.76168 0.150085 3.7499 0.150085C5.73813 0.150085 7.3499 1.76186 7.3499 3.75009C7.3499 5.73831 5.73813 7.35009 3.7499 7.35009C1.76168 7.35009 0.149902 5.73831 0.149902 3.75009ZM3.7499 1.35009C2.42442 1.35009 1.3499 2.4246 1.3499 3.75009C1.3499 5.07557 2.42442 6.15009 3.7499 6.15009C5.07539 6.15009 6.1499 5.07557 6.1499 3.75009C6.1499 2.4246 5.07539 1.35009 3.7499 1.35009Z" fill="currentColor" />
	<path fill-rule="evenodd" clip-rule="evenodd" d="M0.149902 20.2501C0.149902 18.2619 1.76168 16.6501 3.7499 16.6501C5.73813 16.6501 7.3499 18.2619 7.3499 20.2501C7.3499 22.2383 5.73813 23.8501 3.7499 23.8501C1.76168 23.8501 0.149902 22.2383 0.149902 20.2501ZM3.7499 17.8501C2.42442 17.8501 1.3499 18.9246 1.3499 20.2501C1.3499 21.5756 2.42442 22.6501 3.7499 22.6501C5.07539 22.6501 6.1499 21.5756 6.1499 20.2501C6.1499 18.9246 5.07539 17.8501 3.7499 17.8501Z" fill="currentColor" />
	<path fill-rule="evenodd" clip-rule="evenodd" d="M9.32564 1.07582C9.55995 0.841507 9.93985 0.841507 10.1742 1.07582L14.6742 5.57582C14.9085 5.81014 14.9085 6.19003 14.6742 6.42435C14.4399 6.65866 14.06 6.65866 13.8256 6.42435L9.32564 1.92435C9.09132 1.69003 9.09132 1.31014 9.32564 1.07582Z" fill="currentColor" />
	<path fill-rule="evenodd" clip-rule="evenodd" d="M14.6742 1.07582C14.9085 1.31014 14.9085 1.69003 14.6742 1.92435L10.1742 6.42435C9.93985 6.65866 9.55995 6.65866 9.32564 6.42435C9.09132 6.19003 9.09132 5.81014 9.32564 5.57582L13.8256 1.07582C14.06 0.841507 14.4399 0.841507 14.6742 1.07582Z" fill="currentColor" />
	<path fill-rule="evenodd" clip-rule="evenodd" d="M1.07564 9.32582C1.30995 9.09151 1.68985 9.09151 1.92417 9.32582L6.42417 13.8258C6.65848 14.0601 6.65848 14.44 6.42417 14.6743C6.18985 14.9087 5.80995 14.9087 5.57564 14.6743L1.07564 10.1743C0.841324 9.94003 0.841324 9.56014 1.07564 9.32582Z" fill="currentColor" />
	<path fill-rule="evenodd" clip-rule="evenodd" d="M6.42417 9.32582C6.65848 9.56014 6.65848 9.94003 6.42417 10.1743L1.92417 14.6743C1.68985 14.9087 1.30995 14.9087 1.07564 14.6743C0.841324 14.44 0.841324 14.0601 1.07564 13.8258L5.57564 9.32582C5.80995 9.09151 6.18985 9.09151 6.42417 9.32582Z" fill="currentColor" />
	<path fill-rule="evenodd" clip-rule="evenodd" d="M17.5756 17.5758C17.81 17.3415 18.1899 17.3415 18.4242 17.5758L22.9242 22.0758C23.1585 22.3101 23.1585 22.69 22.9242 22.9243C22.6899 23.1587 22.31 23.1587 22.0756 22.9243L17.5756 18.4243C17.3413 18.19 17.3413 17.8101 17.5756 17.5758Z" fill="currentColor" />
	<path fill-rule="evenodd" clip-rule="evenodd" d="M22.9242 17.5758C23.1585 17.8101 23.1585 18.19 22.9242 18.4243L18.4242 22.9243C18.1899 23.1587 17.81 23.1587 17.5756 22.9243C17.3413 22.69 17.3413 22.3101 17.5756 22.0758L22.0756 17.5758C22.31 17.3415 22.6899 17.3415 22.9242 17.5758Z" fill="currentColor" />
	<path fill-rule="evenodd" clip-rule="evenodd" d="M22.7952 1.20482C23.0295 1.43914 23.0295 1.81903 22.7952 2.05335L2.05317 22.7954C1.81885 23.0297 1.43895 23.0297 1.20464 22.7954C0.970324 22.561 0.970324 22.1811 1.20464 21.9468L21.9466 1.20482C22.181 0.970507 22.5609 0.970507 22.7952 1.20482Z" fill="currentColor" />
</svg>
