<svg viewBox="0 0 24 24" fill="none" xmlns="http://www.w3.org/2000/svg">
	<path fill-rule="evenodd" clip-rule="evenodd" d="M11.996 12.597C6.11416 12.597 1.346 17.3651 1.346 23.247C1.346 23.5783 1.07737 23.847 0.745996 23.847C0.414625 23.847 0.145996 23.5783 0.145996 23.247C0.145996 16.7024 5.45142 11.397 11.996 11.397C18.5406 11.397 23.846 16.7024 23.846 23.247C23.846 23.5783 23.5774 23.847 23.246 23.847C22.9146 23.847 22.646 23.5783 22.646 23.247C22.646 17.3651 17.8778 12.597 11.996 12.597Z" fill="currentColor" />
	<path fill-rule="evenodd" clip-rule="evenodd" d="M6.325 20.4C7.28756 20.3998 8.12699 21.0541 8.36186 21.9876L8.63996 23.096C8.7206 23.4174 8.52542 23.7433 8.20401 23.8239C7.8826 23.9046 7.55668 23.7094 7.47603 23.388L7.19813 22.2804C7.09747 21.8803 6.73768 21.5999 6.32513 21.6H0.971996C0.640625 21.6 0.371996 21.3313 0.371996 21C0.371996 20.6686 0.640625 20.4 0.971996 20.4H6.325C6.32504 20.4 6.32495 20.4 6.325 20.4Z" fill="currentColor" />
	<path fill-rule="evenodd" clip-rule="evenodd" d="M16.9182 15.9H20.981C21.3124 15.9 21.581 16.1686 21.581 16.5C21.581 16.8313 21.3124 17.1 20.981 17.1H16.918C16.5047 17.0998 16.1442 17.3812 16.0442 17.7822L15.2942 20.7822C15.2271 21.0511 15.2876 21.3358 15.4583 21.5542C15.6289 21.7725 15.8906 21.9001 16.1678 21.9H17.746C18.0392 21.9 18.2894 22.1118 18.3378 22.401L18.4638 23.154C18.5185 23.4808 18.2978 23.7901 17.971 23.8447C17.6442 23.8994 17.3349 23.6788 17.2802 23.352L17.2381 23.1H16.1682C16.1682 23.1 16.1683 23.1 16.1682 23.1C15.5217 23.1002 14.9109 22.8025 14.5128 22.2931C14.1146 21.7837 13.9734 21.1192 14.1298 20.4918L14.8798 17.4918C15.1133 16.5563 15.9541 15.8997 16.9182 15.9Z" fill="currentColor" />
	<path fill-rule="evenodd" clip-rule="evenodd" d="M11.996 0.146973C12.3274 0.146973 12.596 0.415602 12.596 0.746973V3.74697C12.596 4.07834 12.3274 4.34697 11.996 4.34697C11.6646 4.34697 11.396 4.07834 11.396 3.74697V0.746973C11.396 0.415602 11.6646 0.146973 11.996 0.146973Z" fill="currentColor" />
	<path fill-rule="evenodd" clip-rule="evenodd" d="M7.07173 3.32271C7.18425 3.21019 7.33687 3.14697 7.496 3.14697H17.246C17.5774 3.14697 17.846 3.4156 17.846 3.74697V8.24697C17.846 8.57835 17.5774 8.84697 17.246 8.84697H7.496C7.33687 8.84697 7.18425 8.78376 7.07173 8.67124L4.82173 6.42124C4.58742 6.18692 4.58742 5.80702 4.82173 5.57271L7.07173 3.32271ZM7.74452 4.34697L6.09452 5.99697L7.74452 7.64697H16.646V4.34697H7.74452Z" fill="currentColor" />
	<path fill-rule="evenodd" clip-rule="evenodd" d="M11.996 7.64697C12.3274 7.64697 12.596 7.9156 12.596 8.24697V11.997C12.596 12.3283 12.3274 12.597 11.996 12.597C11.6646 12.597 11.396 12.3283 11.396 11.997V8.24697C11.396 7.9156 11.6646 7.64697 11.996 7.64697Z" fill="currentColor" />
</svg>
