<svg viewBox="0 0 24 24" fill="none" xmlns="http://www.w3.org/2000/svg">
	<path fill-rule="evenodd" clip-rule="evenodd" d="M2.25088 11.986C1.75382 11.986 1.35088 12.389 1.35088 12.886V18.058C1.35088 18.9409 1.65045 19.7976 2.20047 20.488L4.20898 22.8625C4.42298 23.1155 4.39137 23.4941 4.13837 23.7081C3.88537 23.9221 3.50679 23.8905 3.29278 23.6375L1.27878 21.2565L1.26835 21.2438C0.544976 20.3396 0.150883 19.216 0.150879 18.058V12.886C0.150879 11.7262 1.09108 10.786 2.25088 10.786C3.41068 10.786 4.35088 11.7262 4.35088 12.886V16.636C4.35088 16.9674 4.08225 17.236 3.75088 17.236C3.41951 17.236 3.15088 16.9674 3.15088 16.636V12.886C3.15088 12.389 2.74794 11.986 2.25088 11.986Z" fill="currentColor" />
	<path fill-rule="evenodd" clip-rule="evenodd" d="M4.04058 15.1011C4.49478 14.7974 5.05349 14.6927 5.58686 14.8114C6.11547 14.929 6.57356 15.2559 6.8567 15.7171L7.99271 17.4166C8.55207 18.2555 8.85092 19.2418 8.85088 20.25C8.85088 20.25 8.85088 20.25 8.85088 20.25V23.25C8.85088 23.5814 8.58225 23.85 8.25088 23.85C7.91951 23.85 7.65088 23.5814 7.65088 23.25V20.25C7.65091 19.4788 7.42263 18.7248 6.99482 18.0831C6.99477 18.083 6.99486 18.0832 6.99482 18.0831L5.85205 16.3735C5.84694 16.3658 5.84199 16.358 5.83723 16.3501C5.72424 16.163 5.53957 16.0302 5.32617 15.9827C5.11286 15.9352 4.88942 15.9771 4.70776 16.0985C4.37984 16.3186 4.26233 16.7442 4.4282 17.1003L5.76617 19.327C5.93685 19.611 5.84495 19.9796 5.56091 20.1503C5.27688 20.321 4.90826 20.2291 4.73759 19.9451L3.38559 17.6951C3.37737 17.6814 3.3697 17.6674 3.3626 17.6531C2.9153 16.7533 3.20512 15.6613 4.03974 15.1017C4.03975 15.1017 4.04058 15.1011 4.04058 15.1011Z" fill="currentColor" />
	<path fill-rule="evenodd" clip-rule="evenodd" d="M19.6509 12.886C19.6509 11.7262 20.5911 10.786 21.7509 10.786C22.9107 10.786 23.8509 11.7262 23.8509 12.886V18.058C23.8509 19.216 23.4568 20.3396 22.7334 21.2438L22.723 21.2565L20.709 23.6375C20.495 23.8905 20.1164 23.9221 19.8634 23.7081C19.6104 23.4941 19.5788 23.1155 19.7928 22.8625L21.8013 20.488C22.3513 19.7976 22.6509 18.9409 22.6509 18.058V12.886C22.6509 12.389 22.2479 11.986 21.7509 11.986C21.2538 11.986 20.8509 12.389 20.8509 12.886V16.636C20.8509 16.9674 20.5823 17.236 20.2509 17.236C19.9195 17.236 19.6509 16.9674 19.6509 16.636V12.886Z" fill="currentColor" />
	<path fill-rule="evenodd" clip-rule="evenodd" d="M19.2942 16.0943C19.1121 15.973 18.8883 15.9315 18.6749 15.9796C18.4614 16.0276 18.277 16.161 18.1644 16.3486C18.1594 16.3569 18.1542 16.3652 18.1488 16.3732L17.0069 18.0831C17.0069 18.0831 17.007 18.083 17.0069 18.0831C16.5789 18.7245 16.3505 19.4786 16.3509 20.2498V23.25C16.3509 23.5814 16.0823 23.85 15.7509 23.85C15.4195 23.85 15.1509 23.5814 15.1509 23.25V20.2503C15.1509 20.2502 15.1509 20.2504 15.1509 20.2503C15.1505 19.2419 15.449 18.2557 16.0088 17.417L17.1435 15.7179C17.4256 15.2559 17.8829 14.9278 18.4113 14.8089C18.9449 14.6888 19.5044 14.7924 19.9596 15.0957M19.2942 16.0943C19.6244 16.3143 19.7427 16.7423 19.5749 17.0997L18.2366 19.327C18.0659 19.611 18.1578 19.9796 18.4418 20.1503C18.7259 20.321 19.0945 20.2291 19.2652 19.9451L20.6172 17.6951C20.6252 17.6818 20.6326 17.6682 20.6396 17.6543C21.0906 16.752 20.799 15.655 19.9596 15.0957" fill="currentColor" />
	<path fill-rule="evenodd" clip-rule="evenodd" d="M10.0331 3.78615C9.01939 5.34563 8.13788 7.2981 8.13788 9.03702V9.04601C8.11702 10.4397 8.84855 11.7366 10.0522 12.4396C11.2559 13.1426 12.7449 13.1426 13.9485 12.4396C15.1522 11.7366 15.8838 10.4397 15.8629 9.04601L15.8628 9.03702C15.8628 7.29814 14.9812 5.34569 13.9672 3.7862C13.4664 3.01594 12.9499 2.36708 12.5283 1.91738C12.3163 1.69128 12.1378 1.52575 12.0049 1.42187C12.0032 1.42055 12.0016 1.41924 11.9999 1.41794C11.9982 1.41923 11.9966 1.42053 11.9949 1.42184C11.8621 1.52571 11.6836 1.69124 11.4717 1.91733C11.0501 2.36703 10.5337 3.01588 10.0331 3.78615ZM11.5624 0.271695C11.6506 0.224611 11.8097 0.150024 11.9999 0.150024C12.1901 0.150024 12.3491 0.224605 12.4374 0.271682C12.5418 0.327388 12.6456 0.39955 12.7441 0.476572C12.9425 0.631653 13.1674 0.844597 13.4037 1.09658C13.8785 1.60303 14.438 2.30874 14.9733 3.1321C16.0309 4.75871 17.0614 6.94781 17.0629 9.0326C17.0886 10.8576 16.13 12.5553 14.5537 13.4758C12.9762 14.3972 11.0246 14.3972 9.44703 13.4758C7.87077 12.5553 6.91218 10.8575 6.93788 9.03256C6.93935 6.94783 7.96963 4.75876 9.02694 3.13215C9.56214 2.30879 10.1215 1.60308 10.5962 1.09663C10.8324 0.844641 11.0573 0.63169 11.2556 0.476602C11.3541 0.399576 11.4579 0.327408 11.5624 0.271695Z" fill="currentColor" />
	<path fill-rule="evenodd" clip-rule="evenodd" d="M10.4999 8.40002C10.8313 8.40002 11.0999 8.66865 11.0999 9.00002C11.0999 9.49708 11.5028 9.90002 11.9999 9.90002C12.3313 9.90002 12.5999 10.1687 12.5999 10.5C12.5999 10.8314 12.3313 11.1 11.9999 11.1C10.8401 11.1 9.89988 10.1598 9.89988 9.00002C9.89988 8.66865 10.1685 8.40002 10.4999 8.40002Z" fill="currentColor" />
</svg>
