<svg viewBox="0 0 24 24" fill="none" xmlns="http://www.w3.org/2000/svg">
	<g>
		<path fill-rule="evenodd" clip-rule="evenodd" d="M8.41514 2.28566C8.52857 2.23183 8.66102 2.23615 8.77069 2.29727L12.0027 4.09817L15.2291 2.2974C15.3388 2.23616 15.4713 2.23179 15.5849 2.28566L23.63 6.10399C23.7612 6.16628 23.8468 6.2966 23.8516 6.44179C23.8565 6.58698 23.78 6.72275 23.6532 6.79371L20.843 8.36684L23.6532 9.93997C23.78 10.0109 23.8565 10.1467 23.8516 10.2919C23.8468 10.4371 23.7612 10.5674 23.63 10.6297L15.5849 14.448C15.4712 14.502 15.3384 14.4975 15.2286 14.436L12.3912 12.8476V20.5632L19.6596 17.1084V14.0972C19.6596 13.8827 19.8335 13.7088 20.048 13.7088C20.2625 13.7088 20.4363 13.8827 20.4363 14.0972V17.3538C20.4363 17.5037 20.3501 17.6402 20.2147 17.7046L12.1696 21.5286C12.0641 21.5787 11.9416 21.5787 11.8361 21.5286L3.79097 17.7046C3.65559 17.6402 3.56933 17.5037 3.56933 17.3538V14.0972C3.56933 13.8827 3.7432 13.7088 3.95768 13.7088C4.17217 13.7088 4.34604 13.8827 4.34604 14.0972V17.1084L11.6145 20.5632V12.8471L8.77112 14.4362C8.66138 14.4975 8.52873 14.5019 8.41514 14.448L0.369991 10.6297C0.238707 10.5674 0.153195 10.437 0.148364 10.2917C0.143533 10.1465 0.220192 10.0107 0.347045 9.93983L3.16163 8.36684L0.347045 6.79385C0.220192 6.72295 0.143533 6.58717 0.148364 6.44193C0.153195 6.29669 0.238707 6.1663 0.369991 6.10399L8.41514 2.28566ZM3.97221 8.80361L1.38293 10.2507L8.56713 13.6604L11.1564 12.2133L3.97221 8.80361ZM12.8487 12.2136L20.0333 8.80369L22.6177 10.2504L15.433 13.6603L12.8487 12.2136ZM20.0334 7.92992L22.6177 6.48327L15.4327 3.07323L12.8493 4.51517L20.0334 7.92992ZM11.1558 4.51545L3.97209 7.93L1.38293 6.48299L8.56741 3.07315L11.1558 4.51545ZM4.86288 8.36658L12.0028 11.7553L19.1428 8.36658L12.0028 4.97283L4.86288 8.36658Z" fill="currentColor" />
		<path fill-rule="evenodd" clip-rule="evenodd" d="M8.35162 2.15183C8.50832 2.07746 8.69129 2.08343 8.8428 2.16785L12.0026 3.92854L15.1569 2.16804C15.3084 2.08344 15.4916 2.0774 15.6484 2.15183L23.6935 5.97015C23.8748 6.0562 23.993 6.23624 23.9997 6.43682C24.0064 6.63739 23.9007 6.82495 23.7256 6.92298L21.1463 8.36684L23.7256 9.8107C23.9007 9.90873 24.0064 10.0963 23.9997 10.2969C23.993 10.4974 23.8748 10.6775 23.6935 10.7635L15.6484 14.5819C15.4914 14.6564 15.3079 14.6502 15.1563 14.5653L12.5393 13.1004V20.3288L19.5115 17.0148V14.0972C19.5115 13.8009 19.7517 13.5607 20.048 13.5607C20.3443 13.5607 20.5845 13.8009 20.5845 14.0972V17.3538C20.5845 17.5609 20.4653 17.7495 20.2783 17.8384L12.2332 21.6624C12.0874 21.7316 11.9183 21.7316 11.7725 21.6624L3.72737 17.8384C3.54035 17.7495 3.42118 17.5609 3.42118 17.3538V14.0972C3.42118 13.8009 3.66138 13.5607 3.95768 13.5607C4.25399 13.5607 4.49419 13.8009 4.49419 14.0972V17.0148L11.4663 20.3288V13.0996L8.8434 14.5655C8.69178 14.6502 8.50853 14.6563 8.35162 14.5819L0.306469 10.7635C0.125104 10.6774 0.00697143 10.4973 0.000297851 10.2967C-0.00637579 10.096 0.099527 9.90845 0.27477 9.81051L2.85796 8.36684L0.274771 6.92317C0.0995267 6.82523 -0.00637578 6.63765 0.000297851 6.437C0.00697145 6.23636 0.125105 6.05623 0.306469 5.97015L8.35162 2.15183ZM8.69858 2.42668C8.63075 2.38888 8.54882 2.38621 8.47867 2.4195L0.433512 6.23783C0.35231 6.27637 0.299418 6.35702 0.29643 6.44685C0.293442 6.53669 0.340858 6.62067 0.41932 6.66452L3.2339 8.23752C3.28075 8.2637 3.30978 8.31317 3.30978 8.36684C3.30978 8.42051 3.28075 8.46998 3.2339 8.49616L0.41932 10.0692C0.340858 10.113 0.293442 10.197 0.29643 10.2868C0.299418 10.3767 0.35231 10.4573 0.433512 10.4958L8.47867 14.3142C8.54892 14.3475 8.63097 14.3448 8.69885 14.3069L11.5422 12.7178C11.5881 12.6921 11.6441 12.6927 11.6894 12.7193C11.7348 12.7459 11.7626 12.7945 11.7626 12.8471V20.5632C11.7626 20.614 11.7366 20.6613 11.6936 20.6885C11.6507 20.7156 11.5968 20.7188 11.5509 20.697L4.28244 17.2422C4.2308 17.2177 4.19789 17.1656 4.19789 17.1084V14.0972C4.19789 13.9645 4.09035 13.857 3.95768 13.857C3.82502 13.857 3.71747 13.9645 3.71747 14.0972V17.3538C3.71747 17.4465 3.77083 17.531 3.85456 17.5708L11.8997 21.3948C11.965 21.4258 12.0407 21.4258 12.106 21.3948L20.1511 17.5708C20.2348 17.531 20.2882 17.4465 20.2882 17.3538V14.0972C20.2882 13.9645 20.1807 13.857 20.048 13.857C19.9153 13.857 19.8078 13.9645 19.8078 14.0972V17.1084C19.8078 17.1656 19.7749 17.2177 19.7232 17.2422L12.4548 20.697C12.4089 20.7188 12.355 20.7156 12.3121 20.6885C12.2691 20.6613 12.243 20.614 12.243 20.5632V12.8476C12.243 12.7951 12.2709 12.7464 12.3163 12.7198C12.3616 12.6932 12.4177 12.6927 12.4636 12.7184L15.301 14.3068C15.3689 14.3448 15.451 14.3475 15.5213 14.3142L23.5665 10.4958C23.6477 10.4573 23.7005 10.3767 23.7036 10.2869C23.7066 10.1971 23.6592 10.1131 23.5808 10.0692L20.7707 8.49611C20.7239 8.46991 20.6949 8.42047 20.6949 8.36684C20.6949 8.31321 20.7239 8.26377 20.7707 8.23757L23.5808 6.66444C23.6592 6.62055 23.7066 6.53657 23.7036 6.44677C23.7005 6.35697 23.6477 6.27636 23.5665 6.23783L15.5213 2.4195C15.4511 2.38618 15.3691 2.38889 15.3013 2.42676L12.0749 4.22754C12.03 4.25256 11.9754 4.25258 11.9306 4.22759L8.69858 2.42668ZM8.50389 2.93931C8.54716 2.91878 8.59769 2.92043 8.63952 2.94374L11.2279 4.38603C11.2764 4.41302 11.3057 4.46481 11.3039 4.52023C11.3021 4.57566 11.2695 4.62544 11.2194 4.64925L4.03569 8.0638C3.99234 8.0844 3.9417 8.08273 3.89981 8.05932L1.31066 6.61231C1.26227 6.58527 1.23303 6.53347 1.23487 6.47807C1.23671 6.42266 1.26933 6.37292 1.31941 6.34915L8.50389 2.93931ZM15.3605 2.94386C15.4024 2.9205 15.453 2.91884 15.4963 2.93939L22.6812 6.34943C22.7312 6.37319 22.7639 6.42291 22.7657 6.47829C22.7676 6.53368 22.7384 6.58547 22.69 6.61254L20.1058 8.05919C20.0639 8.08265 20.0132 8.08434 19.9698 8.06372L12.7857 4.64897C12.7356 4.62517 12.703 4.57541 12.7012 4.52001C12.6994 4.4646 12.7287 4.41282 12.7771 4.3858L15.3605 2.94386ZM1.70582 6.49373L3.97758 7.76335L10.8327 4.505L8.56198 3.23972L1.70582 6.49373ZM15.4382 3.23982L13.1722 4.50461L20.0279 7.76325L22.295 6.49412L15.4382 3.23982ZM11.9392 4.83903C11.9795 4.8199 12.0262 4.8199 12.0664 4.83903L19.2064 8.23278C19.2581 8.25733 19.291 8.30943 19.2909 8.36662C19.2909 8.42382 19.258 8.47589 19.2063 8.50042L12.0664 11.8891C12.0262 11.9082 11.9795 11.9082 11.9393 11.8891L4.79936 8.50042C4.74769 8.47589 4.71475 8.42382 4.71473 8.36662C4.71472 8.30943 4.74762 8.25733 4.79928 8.23278L11.9392 4.83903ZM5.20819 8.36648L12.0028 11.5913L18.7975 8.36648L12.0028 5.13687L5.20819 8.36648ZM3.89994 8.67429C3.9418 8.65089 3.9924 8.64921 4.03573 8.66977L11.2199 12.0795C11.27 12.1033 11.3026 12.153 11.3045 12.2084C11.3063 12.2638 11.2771 12.3156 11.2287 12.3426L8.63941 13.7897C8.59754 13.8131 8.54694 13.8148 8.50361 13.7942L1.31941 10.3845C1.26933 10.3608 1.23671 10.311 1.23487 10.2556C1.23303 10.2002 1.26227 10.1484 1.31066 10.1214L3.89994 8.67429ZM19.9698 8.66985C20.0131 8.64927 20.0638 8.65097 20.1057 8.67442L22.69 10.1211C22.7384 10.1482 22.7676 10.2 22.7657 10.2554C22.7639 10.3108 22.7312 10.3605 22.6812 10.3842L15.4965 13.7942C15.4532 13.8147 15.4025 13.813 15.3607 13.7896L12.7763 12.3429C12.728 12.3158 12.6987 12.264 12.7006 12.2086C12.7025 12.1532 12.7351 12.1035 12.7852 12.0798L19.9698 8.66985ZM3.97775 8.97023L1.70582 10.2399L8.56159 13.4938L10.8335 12.2241L3.97775 8.97023ZM13.1713 12.2244L15.4386 13.4937L22.295 10.2396L20.0277 8.97033L13.1713 12.2244Z" fill="currentColor" />
	</g>
</svg>
