<svg viewBox="0 0 24 24" fill="none" xmlns="http://www.w3.org/2000/svg">
<g>
<path fill-rule="evenodd" clip-rule="evenodd" d="M13.7506 8.22503C13.7639 7.95893 13.9836 7.75 14.25 7.75H17.25C17.5164 7.75 17.7361 7.95893 17.7494 8.22503L18.4994 23.225C18.5132 23.5008 18.3008 23.7356 18.025 23.7494C17.7492 23.7632 17.5144 23.5508 17.5006 23.275L16.7744 8.75H14.7256L13.9994 23.275C13.9856 23.5508 13.7508 23.7632 13.475 23.7494C13.1992 23.7356 12.9868 23.5008 13.0006 23.225L13.7506 8.22503Z" fill="currentColor"/>
<path fill-rule="evenodd" clip-rule="evenodd" d="M17.804 1.26927C17.804 1.26928 17.804 1.26927 17.804 1.26927L13.3041 2.16926C13.0773 2.21458 12.8733 2.33707 12.7267 2.51587C12.5801 2.69467 12.5 2.91873 12.5 3.14994V6.74997C12.5 7.01519 12.6054 7.26954 12.7929 7.45708C12.9804 7.64462 13.2348 7.74997 13.5 7.74997H18C18.2652 7.74997 18.5196 7.64462 18.7071 7.45708C18.8946 7.26954 19 7.01519 19 6.74997V2.24997C19 2.10202 18.9672 1.95589 18.9039 1.82216C18.8406 1.68843 18.7485 1.5704 18.6341 1.47659C18.5197 1.38279 18.3859 1.31553 18.2423 1.27968C18.0988 1.24384 17.9491 1.24029 17.804 1.26927ZM17.608 0.28867C17.8982 0.230675 18.1976 0.237784 18.4846 0.309485C18.7717 0.381187 19.0393 0.515694 19.2681 0.703309C19.4969 0.890923 19.6813 1.12697 19.8078 1.39443C19.9344 1.66189 20 1.95409 20 2.24997C20 2.24996 20 2.24998 20 2.24997V6.74997C20 7.28041 19.7893 7.78911 19.4142 8.16419C19.0391 8.53926 18.5304 8.74997 18 8.74997H13.5C12.9696 8.74997 12.4609 8.53926 12.0858 8.16419C11.7107 7.78911 11.5 7.28041 11.5 6.74997V3.15C11.5 3.14999 11.5 3.15001 11.5 3.15C11.5 2.6876 11.6602 2.23944 11.9534 1.88186C12.2465 1.52428 12.6545 1.27932 13.1079 1.18868C13.1079 1.18869 13.108 1.18868 13.1079 1.18868L17.608 0.28867Z" fill="currentColor"/>
<path fill-rule="evenodd" clip-rule="evenodd" d="M0.891431 3.40815C1.07749 3.30444 1.28695 3.25001 1.49995 3.25H12C12.2761 3.25 12.5 3.47386 12.5 3.75V6.75C12.5 7.02614 12.2761 7.25 12 7.25H2.24997C2.01787 7.2498 1.78998 7.18504 1.59258 7.06295C1.39519 6.94087 1.23565 6.76627 1.13181 6.5587L0.381758 5.05861C0.286617 4.86803 0.241616 4.65604 0.251286 4.44325C0.260956 4.23047 0.324839 4.02369 0.436873 3.84253C0.548908 3.66137 0.705376 3.51185 0.891431 3.40815ZM1.49997 4.25C1.45738 4.25 1.41549 4.26089 1.37828 4.28163C1.34107 4.30237 1.30978 4.33227 1.28737 4.36851C1.26497 4.40474 1.25219 4.44609 1.25025 4.48865C1.24832 4.53117 1.25728 4.57347 1.27627 4.61156C1.27625 4.61152 1.27629 4.61159 1.27627 4.61156L2.02614 6.1113C2.02612 6.11127 2.02615 6.11133 2.02614 6.1113C2.04697 6.1529 2.07901 6.18799 2.11859 6.21247C2.15814 6.23693 2.20371 6.24992 2.25021 6.25C2.25014 6.25 2.25027 6.25 2.25021 6.25H11.5V4.25H1.49997C1.49998 4.25 1.49997 4.25 1.49997 4.25Z" fill="currentColor"/>
<path fill-rule="evenodd" clip-rule="evenodd" d="M22.5 3.25C22.6899 3.24994 22.8774 3.29316 23.0481 3.37638C23.2189 3.45965 23.3685 3.58077 23.4855 3.73053C23.6025 3.88029 23.6838 4.05475 23.7232 4.24064C23.7626 4.42654 23.7592 4.61898 23.7131 4.80333L23.3381 6.30327C23.2702 6.57351 23.1139 6.81391 22.8942 6.98531C22.6745 7.15671 22.4039 7.24987 22.1252 7.25H19.5C19.2239 7.25 19 7.02614 19 6.75V3.75C19 3.47386 19.2239 3.25 19.5 3.25H22.5C22.5001 3.25 22.4999 3.25 22.5 3.25ZM22.61 4.27528C22.5758 4.25862 22.5383 4.24998 22.5003 4.25L20 4.25V6.25H22.1248C22.1807 6.24997 22.235 6.23128 22.279 6.19689C22.3231 6.16255 22.3544 6.11452 22.368 6.0604C22.368 6.06048 22.368 6.06032 22.368 6.0604L22.7429 4.56073C22.7522 4.52386 22.7529 4.48531 22.745 4.44813C22.7371 4.41095 22.7208 4.37606 22.6974 4.34611C22.674 4.31615 22.6441 4.29193 22.61 4.27528Z" fill="currentColor"/>
<path fill-rule="evenodd" clip-rule="evenodd" d="M4.5 11.75C4.15388 11.75 3.81554 11.8526 3.52775 12.0449C3.23997 12.2372 3.01567 12.5105 2.88321 12.8303C2.75076 13.1501 2.7161 13.5019 2.78363 13.8414C2.85115 14.1809 3.01782 14.4927 3.26256 14.7374C3.50731 14.9822 3.81913 15.1489 4.15859 15.2164C4.49806 15.2839 4.84993 15.2492 5.1697 15.1168C5.48947 14.9843 5.76278 14.76 5.95507 14.4722C6.14737 14.1845 6.25 13.8461 6.25 13.5C6.25 13.2239 6.47386 13 6.75 13C7.02614 13 7.25 13.2239 7.25 13.5C7.25 14.0439 7.08872 14.5756 6.78654 15.0278C6.48437 15.4801 6.05488 15.8325 5.55238 16.0407C5.04988 16.2488 4.49695 16.3033 3.9635 16.1972C3.43005 16.0911 2.94005 15.8291 2.55546 15.4445C2.17086 15.0599 1.90895 14.5699 1.80284 14.0365C1.69673 13.5031 1.75119 12.9501 1.95933 12.4476C2.16747 11.9451 2.51995 11.5156 2.97218 11.2135C3.42442 10.9113 3.9561 10.75 4.5 10.75C4.77614 10.75 5 10.9739 5 11.25C5 11.5261 4.77614 11.75 4.5 11.75Z" fill="currentColor"/>
<path fill-rule="evenodd" clip-rule="evenodd" d="M4.5 6.25C4.77614 6.25 5 6.47386 5 6.75V11.25C5 11.5261 4.77614 11.75 4.5 11.75C4.22386 11.75 4 11.5261 4 11.25V6.75C4 6.47386 4.22386 6.25 4.5 6.25Z" fill="currentColor"/>
<path fill-rule="evenodd" clip-rule="evenodd" d="M11.5 5.25C11.5 4.97386 11.7239 4.75 12 4.75H15C15.2761 4.75 15.5 4.97386 15.5 5.25C15.5 5.52614 15.2761 5.75 15 5.75H12C11.7239 5.75 11.5 5.52614 11.5 5.25Z" fill="currentColor"/>
<path fill-rule="evenodd" clip-rule="evenodd" d="M1.25 19.2612V22.7483C1.25133 22.7485 1.25269 22.7488 1.25407 22.749C1.25702 22.7495 1.25944 22.7498 1.26117 22.75H8.49826C8.49851 22.7487 8.49876 22.7473 8.49899 22.7459C8.49948 22.743 8.4998 22.7406 8.5 22.7388V19.2517C8.49867 19.2515 8.49731 19.2512 8.49593 19.251C8.49298 19.2505 8.49056 19.2502 8.48883 19.25H1.25174C1.25149 19.2513 1.25124 19.2527 1.25101 19.2541C1.25052 19.257 1.2502 19.2594 1.25 19.2612ZM8.5 18.75C8.5 18.25 8.50025 18.25 8.50049 18.25L8.50206 18.25L8.50433 18.25L8.5095 18.2501L8.52227 18.2504C8.53183 18.2507 8.54354 18.2513 8.55711 18.2522C8.58407 18.2542 8.61933 18.2578 8.66033 18.2646C8.73995 18.2779 8.85375 18.3054 8.97361 18.3653C9.09542 18.4262 9.23245 18.5254 9.3379 18.6836C9.44544 18.8449 9.5 19.0375 9.5 19.25V22.75H9C9.5 22.75 9.5 22.7498 9.5 22.75L9.5 22.7521L9.49998 22.7543L9.49992 22.7595L9.4996 22.7723C9.49928 22.7818 9.49872 22.7935 9.49775 22.8071C9.49583 22.8341 9.49222 22.8693 9.48538 22.9103C9.47211 22.9899 9.44464 23.1037 9.38471 23.2236C9.32381 23.3454 9.22459 23.4824 9.06641 23.5879C8.9051 23.6954 8.71249 23.75 8.5 23.75H1.25V23.25C1.25 23.75 1.25025 23.75 1.25 23.75L1.249 23.75L1.24794 23.75L1.24567 23.75L1.2405 23.7499L1.22773 23.7496C1.21817 23.7493 1.20646 23.7487 1.19289 23.7478C1.16593 23.7458 1.13067 23.7422 1.08968 23.7354C1.01005 23.7221 0.89625 23.6946 0.776393 23.6347C0.654578 23.5738 0.517553 23.4746 0.4121 23.3164C0.30456 23.1551 0.25 22.9625 0.25 22.75V19.25H0.75C0.25 19.25 0.25 19.2502 0.25 19.25L0.250001 19.249L0.250004 19.2479L0.250018 19.2457L0.25008 19.2405L0.2504 19.2277C0.250718 19.2182 0.251278 19.2065 0.252247 19.1929C0.254173 19.1659 0.257783 19.1307 0.264616 19.0897C0.277886 19.0101 0.305358 18.8963 0.365286 18.7764C0.426194 18.6546 0.525407 18.5176 0.683587 18.4121C0.844898 18.3046 1.03751 18.25 1.25 18.25L8.50049 18.25L8.5 18.75Z" fill="currentColor"/>
</g>

</svg>
