<svg viewBox="0 0 24 24" fill="none" xmlns="http://www.w3.org/2000/svg">
	<g>
		<path fill-rule="evenodd" clip-rule="evenodd" d="M4.77624 -0.00149536C4.92978 -0.00149536 5.07703 0.0594978 5.1856 0.168066L6.40669 1.38916L6.9488 0.880793C7.51701 0.348029 8.26755 0.0509415 9.04731 0.0509415H20.0878C21.7817 0.0509415 23.1558 1.42386 23.1558 3.11892V20.9305C23.1558 22.6246 21.7819 23.9985 20.0878 23.9985H3.66661C1.97253 23.9985 0.598633 22.6246 0.598633 20.9305V8.1647C0.598633 7.31618 0.949921 6.5062 1.5681 5.92657L2.45232 5.09738L1.3543 3.99936C1.12822 3.77328 1.12822 3.40673 1.3543 3.18065L4.36688 0.168066C4.47545 0.0594978 4.6227 -0.00149536 4.77624 -0.00149536ZM3.29734 4.30497L5.56167 2.18157L4.77624 1.39614L2.58238 3.59L3.29734 4.30497ZM7.74077 1.7254L2.36011 6.77115C1.97524 7.132 1.75647 7.63634 1.75647 8.1647V20.9305C1.75647 21.9851 2.61199 22.8407 3.66661 22.8407H20.0878C21.1424 22.8407 21.9979 21.9851 21.9979 20.9305V3.11892C21.9979 2.06358 21.1425 1.20878 20.0878 1.20878H9.04731C8.56183 1.20878 8.09443 1.39382 7.74077 1.7254ZM9.94973 3.03223C9.69011 3.03223 9.47991 3.24243 9.47991 3.50205C9.47991 3.76166 9.69011 3.97186 9.94973 3.97186H15.914C16.1736 3.97186 16.3838 3.76166 16.3838 3.50205C16.3838 3.24243 16.1736 3.03223 15.914 3.03223H9.94973ZM8.32207 3.50205C8.32207 2.60298 9.05066 1.87439 9.94973 1.87439H15.914C16.8131 1.87439 17.5416 2.60298 17.5416 3.50205C17.5416 4.40112 16.8131 5.1297 15.914 5.1297H9.94973C9.05066 5.1297 8.32207 4.40112 8.32207 3.50205ZM18.0631 7.82469C18.2892 8.05077 18.2892 8.41732 18.0631 8.6434L15.1803 11.5262V16.7072L18.0631 19.59C18.2892 19.8161 18.2892 20.1826 18.0631 20.4087C17.837 20.6348 17.4704 20.6348 17.2444 20.4087L14.3616 17.5259H9.18054L6.29777 20.4087C6.07169 20.6348 5.70513 20.6348 5.47905 20.4087C5.25297 20.1826 5.25297 19.8161 5.47905 19.59L8.36182 16.7072V11.5262L6.2563 9.42065C6.03022 9.19457 6.03022 8.82802 6.2563 8.60194C6.48238 8.37586 6.84893 8.37586 7.07502 8.60194L9.18054 10.7075H14.3616L17.2444 7.82469C17.4704 7.59861 17.837 7.59861 18.0631 7.82469ZM14.0225 11.8653H9.51966V16.3681H14.0225V11.8653Z" fill="currentColor" />
	</g>
	<defs>
		<clipPath id="clip0_360_7590">
			<rect fill="white" />
		</clipPath>
	</defs>
</svg>
