<svg viewBox="0 0 24 24" fill="none" xmlns="http://www.w3.org/2000/svg">
	<path fill-rule="evenodd" clip-rule="evenodd" d="M6.71664 10.2067C7.04432 10.1573 7.34994 10.383 7.39928 10.7107C7.72574 12.8791 9.67162 14.5199 12.003 14.5199C14.3343 14.5199 16.2802 12.8791 16.6067 10.7107C16.656 10.383 16.9616 10.1573 17.2893 10.2067C17.617 10.256 17.8426 10.5616 17.7933 10.8893C17.3731 13.6804 14.8914 15.7199 12.003 15.7199C9.11452 15.7199 6.63285 13.6804 6.21265 10.8893C6.16332 10.5616 6.38896 10.256 6.71664 10.2067Z" fill="currentColor" />
	<path fill-rule="evenodd" clip-rule="evenodd" d="M11.9905 18.2822C8.55919 18.2282 5.35144 19.8762 3.49743 22.6257C3.31217 22.9004 2.93926 22.973 2.66451 22.7877C2.38977 22.6024 2.31723 22.2295 2.5025 21.9548C4.58936 18.86 8.18063 17.0252 12 17.0822C15.8193 17.0252 19.4106 18.86 21.4974 21.9548C21.6827 22.2295 21.6102 22.6024 21.3354 22.7877C21.0607 22.973 20.6878 22.9004 20.5025 22.6257C18.6485 19.8762 15.4407 18.2282 12.0094 18.2822H11.9905Z" fill="currentColor" />
	<path fill-rule="evenodd" clip-rule="evenodd" d="M12 17.0822C12.3313 17.0822 12.6 17.3509 12.6 17.6822V22.32C12.6 22.6514 12.3313 22.92 12 22.92C11.6686 22.92 11.4 22.6514 11.4 22.32V17.6822C11.4 17.3509 11.6686 17.0822 12 17.0822Z" fill="currentColor" />
	<path fill-rule="evenodd" clip-rule="evenodd" d="M11.7403 0.179081C11.9045 0.1003 12.0955 0.1003 12.2596 0.179081L13.9934 1.01131C13.9933 1.01128 13.9935 1.01134 13.9934 1.01131C15.6534 1.80733 17.5574 2.00847 19.3602 1.57651C19.5517 1.53061 19.7536 1.58167 19.9003 1.71312C20.0471 1.84457 20.1199 2.03966 20.0952 2.2351C19.8926 3.84088 19.3546 5.38974 18.5143 6.78889C18.4059 6.9695 18.2106 7.07999 18 7.07999H5.99996C5.78916 7.07999 5.59383 6.96937 5.48541 6.78859C4.64617 5.38926 4.10824 3.8408 3.90473 2.23545C3.87995 2.03996 3.95273 1.84477 4.09946 1.71323C4.24618 1.5817 4.44814 1.53059 4.63977 1.57651C6.44251 2.00847 8.34633 1.80742 10.0063 1.0114C10.0063 1.01143 10.0064 1.01137 10.0063 1.0114L11.7403 0.179081ZM12 1.38554L10.5256 2.09323C8.88251 2.8812 7.03504 3.16159 5.23358 2.90895C5.45053 3.9447 5.82491 4.94584 6.34593 5.87999H17.6542C18.1758 4.94601 18.5502 3.94479 18.7668 2.90889C16.9652 3.16164 15.1177 2.88135 13.4745 2.09332L12 1.38554Z" fill="currentColor" />
	<path fill-rule="evenodd" clip-rule="evenodd" d="M5.59949 6.08826C5.71347 5.95603 5.87939 5.87999 6.05396 5.87999H17.946C18.1205 5.87999 18.2865 5.95603 18.4004 6.08826C18.5144 6.22049 18.5651 6.39581 18.5394 6.56848C18.3147 8.07546 17.2765 8.93502 16.0387 9.39752C14.8242 9.85131 13.34 9.95999 12 9.95999C10.6599 9.95999 9.17568 9.85131 7.96121 9.39752C6.72339 8.93502 5.68522 8.07546 5.46052 6.56848C5.43478 6.39581 5.48551 6.22049 5.59949 6.08826ZM6.86484 7.07999C7.14812 7.62663 7.66661 8.00642 8.38122 8.27343C9.38725 8.64932 10.694 8.75999 12 8.75999C13.3059 8.75999 14.6127 8.64932 15.6187 8.27343C16.3333 8.00642 16.8518 7.62663 17.1351 7.07999H6.86484Z" fill="currentColor" />
	<path fill-rule="evenodd" clip-rule="evenodd" d="M11.025 3.95999C11.025 3.40695 11.4848 2.99999 12 2.99999C12.5151 2.99999 12.975 3.40695 12.975 3.95999C12.975 4.51304 12.5151 4.91999 12 4.91999C11.4848 4.91999 11.025 4.51304 11.025 3.95999Z" fill="currentColor" />
	<path fill-rule="evenodd" clip-rule="evenodd" d="M15.15 22.32C15.15 21.9886 15.4186 21.72 15.75 21.72H17.25C17.5813 21.72 17.85 21.9886 17.85 22.32C17.85 22.6514 17.5813 22.92 17.25 22.92H15.75C15.4186 22.92 15.15 22.6514 15.15 22.32Z" fill="currentColor" />
</svg>
