<svg viewBox="0 0 24 24" fill="none" xmlns="http://www.w3.org/2000/svg">
	<path fill-rule="evenodd" clip-rule="evenodd" d="M0.157473 1.65553C0.209642 1.32829 0.517213 1.1053 0.844451 1.15747L23.3445 4.74447C23.6717 4.79664 23.8947 5.10421 23.8425 5.43145C23.7903 5.75869 23.4828 5.98168 23.1555 5.92951L0.65553 2.34251C0.328292 2.29034 0.105304 1.98277 0.157473 1.65553Z" fill="currentColor" />
	<path fill-rule="evenodd" clip-rule="evenodd" d="M2.15068 1.41711C2.47259 1.33851 2.79727 1.53576 2.87587 1.85768L3.88337 5.98408C3.94153 6.14144 4.08018 6.25593 4.24676 6.28261C4.41318 6.30926 4.5805 6.24395 4.68491 6.11286L6.92612 2.49972C7.10079 2.21812 7.47067 2.13144 7.75226 2.30612C8.03386 2.48079 8.12054 2.85067 7.94587 3.13226L5.68987 6.76926C5.68167 6.78247 5.67297 6.79535 5.66378 6.80788C5.29423 7.31165 4.67389 7.56632 4.05697 7.4675C3.44005 7.36869 2.93028 6.93302 2.73656 6.33903C2.73186 6.32462 2.72771 6.31003 2.72411 6.29531L1.71011 2.14231C1.63151 1.82039 1.82876 1.49571 2.15068 1.41711Z" fill="currentColor" />
	<path fill-rule="evenodd" clip-rule="evenodd" d="M9.35177 2.56109C9.6737 2.48254 9.99835 2.67984 10.0769 3.00177L11.0843 7.13079C11.1426 7.28781 11.2811 7.402 11.4474 7.42866C11.6136 7.45529 11.7807 7.39021 11.8852 7.25947L14.1272 3.64756C14.302 3.36602 14.6719 3.27946 14.9534 3.45422C15.235 3.62898 15.3215 3.99889 15.1468 4.28043L12.8898 7.91643C12.8815 7.92976 12.8727 7.94277 12.8634 7.95541C12.4937 8.45829 11.8738 8.71231 11.2575 8.61354C10.6412 8.51477 10.1318 8.07979 9.93773 7.48656C9.93295 7.47194 9.92873 7.45715 9.92509 7.44221L8.91109 3.28621C8.83254 2.96428 9.02984 2.63964 9.35177 2.56109Z" fill="currentColor" />
	<path fill-rule="evenodd" clip-rule="evenodd" d="M16.5518 3.70908C16.8737 3.63055 17.1984 3.82787 17.2769 4.1498L18.2844 8.28013C18.3426 8.43746 18.4812 8.55193 18.6478 8.57861C18.8142 8.60526 18.9815 8.53994 19.0859 8.40884L21.3272 4.79666C21.5019 4.51508 21.8717 4.42845 22.1533 4.60315C22.4349 4.77786 22.5215 5.14775 22.3468 5.42933L20.0908 9.06532C20.0826 9.07851 20.074 9.09137 20.0648 9.10388C19.6952 9.60765 19.0749 9.86232 18.458 9.7635C17.8411 9.66469 17.3313 9.22902 17.1376 8.63503C17.1328 8.62057 17.1287 8.60595 17.1251 8.59118L16.1111 4.43418C16.0326 4.11225 16.2299 3.78761 16.5518 3.70908Z" fill="currentColor" />
	<path fill-rule="evenodd" clip-rule="evenodd" d="M23.8096 10.8816C23.9291 11.1907 23.7754 11.5381 23.4663 11.6576L0.975345 20.3526C0.666268 20.4721 0.318845 20.3184 0.199356 20.0093C0.0798671 19.7003 0.233559 19.3528 0.542637 19.2334L23.0336 10.5384C23.3427 10.4189 23.6901 10.5726 23.8096 10.8816Z" fill="currentColor" />
	<path fill-rule="evenodd" clip-rule="evenodd" d="M7.46307 16.6102C7.7943 16.6197 8.05518 16.8958 8.04575 17.2271L7.91675 21.7581C7.9163 21.7736 7.91526 21.7892 7.9136 21.8046C7.84486 22.4489 7.42186 23.0008 6.81757 23.2346C6.21328 23.4684 5.52901 23.3449 5.04456 22.9146C5.03284 22.9042 5.02153 22.8933 5.01066 22.882L1.86766 19.616C1.63789 19.3773 1.64518 18.9974 1.88395 18.7677C2.12271 18.5379 2.50254 18.5452 2.73232 18.7839L5.85596 22.0298C6.00333 22.1515 6.20544 22.1847 6.3846 22.1154C6.5638 22.0461 6.69096 21.8854 6.71802 21.6962L6.84623 17.1929C6.85566 16.8617 7.13183 16.6008 7.46307 16.6102Z" fill="currentColor" />
	<path fill-rule="evenodd" clip-rule="evenodd" d="M14.6701 13.8222C15.0013 13.8317 15.2622 14.1078 15.2527 14.4391L15.1237 18.9701C15.1233 18.9858 15.1222 19.0015 15.1206 19.0171C15.0513 19.6611 14.6281 20.2125 14.0239 20.4459C13.4197 20.6794 12.7358 20.5557 12.2515 20.1256C12.2398 20.1152 12.2285 20.1043 12.2177 20.093L9.07466 16.827C8.84489 16.5883 8.85218 16.2084 9.09095 15.9787C9.32971 15.7489 9.70954 15.7562 9.93932 15.9949L13.063 19.2409C13.2103 19.3625 13.4123 19.3958 13.5915 19.3266C13.7706 19.2574 13.8978 19.097 13.925 18.9079L14.0532 14.4049C14.0627 14.0737 14.3388 13.8128 14.6701 13.8222Z" fill="currentColor" />
	<path fill-rule="evenodd" clip-rule="evenodd" d="M21.8741 11.0362C22.2053 11.0457 22.4662 11.3218 22.4567 11.6531L22.3277 16.1841C22.3273 16.1994 22.3263 16.2148 22.3247 16.2301C22.2566 16.8745 21.8338 17.4268 21.2294 17.6608C20.625 17.8947 19.9406 17.771 19.4563 17.3403C19.4447 17.33 19.4335 17.3193 19.4227 17.3081L16.2787 14.0421C16.0489 13.8034 16.0561 13.4235 16.2949 13.1937C16.5336 12.9639 16.9134 12.9711 17.1433 13.2099L20.2681 16.456C20.4152 16.5777 20.6172 16.611 20.7962 16.5417C20.9753 16.4724 21.1022 16.3117 21.129 16.1226L21.2572 11.6189C21.2667 11.2877 21.5428 11.0268 21.8741 11.0362Z" fill="currentColor" />
</svg>
