<svg viewBox="0 0 24 24" fill="none" xmlns="http://www.w3.org/2000/svg">
	<path fill-rule="evenodd" clip-rule="evenodd" d="M0.899902 12C0.899902 5.86966 5.86954 0.900024 11.9999 0.900024C18.1303 0.900024 23.0999 5.86966 23.0999 12C23.0999 18.1304 18.1303 23.1 11.9999 23.1C5.86954 23.1 0.899902 18.1304 0.899902 12ZM11.9999 2.10002C6.53228 2.10002 2.0999 6.53241 2.0999 12C2.0999 17.4676 6.53228 21.9 11.9999 21.9C17.4675 21.9 21.8999 17.4676 21.8999 12C21.8999 6.53241 17.4675 2.10002 11.9999 2.10002Z" fill="currentColor" />
	<path fill-rule="evenodd" clip-rule="evenodd" d="M11.9999 7.65002C12.3313 7.65002 12.5999 7.91865 12.5999 8.25002V12C12.5999 12.3314 12.3313 12.6 11.9999 12.6C11.6685 12.6 11.3999 12.3314 11.3999 12V8.25002C11.3999 7.91865 11.6685 7.65002 11.9999 7.65002Z" fill="currentColor" />
	<path fill-rule="evenodd" clip-rule="evenodd" d="M11.5757 11.5757C11.81 11.3414 12.1899 11.3415 12.4242 11.5758L17.1112 16.2638C17.3455 16.4981 17.3455 16.878 17.1111 17.1123C16.8768 17.3466 16.4969 17.3466 16.2626 17.1122L11.5756 12.4242C11.3413 12.1899 11.3413 11.81 11.5757 11.5757Z" fill="currentColor" />
</svg>
