<svg viewBox="0 0 24 24" fill="none" xmlns="http://www.w3.org/2000/svg">
	<path fill-rule="evenodd" clip-rule="evenodd" d="M0.149902 12C0.149902 11.6687 0.418532 11.4 0.749902 11.4H23.2499C23.5813 11.4 23.8499 11.6687 23.8499 12C23.8499 12.3314 23.5813 12.6 23.2499 12.6H0.749902C0.418532 12.6 0.149902 12.3314 0.149902 12Z" fill="currentColor" />
	<path fill-rule="evenodd" clip-rule="evenodd" d="M12.3256 1.07576C12.56 0.841446 12.9399 0.841446 13.1742 1.07576L23.6742 11.5758C23.9085 11.8101 23.9085 12.19 23.6742 12.4243L13.1742 22.9243C12.9399 23.1586 12.56 23.1586 12.3256 22.9243C12.0913 22.69 12.0913 22.3101 12.3256 22.0758L22.4014 12L12.3256 1.92429C12.0913 1.68997 12.0913 1.31007 12.3256 1.07576Z" fill="currentColor" />
</svg>
