<svg viewBox="0 0 24 24" fill="none" xmlns="http://www.w3.org/2000/svg">
	<path fill-rule="evenodd" clip-rule="evenodd" d="M8.9999 8.85003C8.50285 8.85003 8.0999 9.25297 8.0999 9.75002V11.25C8.0999 11.5814 7.83127 11.85 7.4999 11.85C7.16853 11.85 6.8999 11.5814 6.8999 11.25V9.75002C6.8999 8.59023 7.8401 7.65003 8.9999 7.65003C10.1597 7.65003 11.0999 8.59023 11.0999 9.75002V11.25C11.0999 11.5814 10.8313 11.85 10.4999 11.85C10.1685 11.85 9.8999 11.5814 9.8999 11.25V9.75002C9.8999 9.25297 9.49696 8.85003 8.9999 8.85003Z" fill="currentColor" />
	<path fill-rule="evenodd" clip-rule="evenodd" d="M13.4999 10.65C13.8313 10.65 14.0999 10.9187 14.0999 11.25C14.0999 12.4098 13.1597 13.35 11.9999 13.35C10.8401 13.35 9.8999 12.4098 9.8999 11.25H11.0999C11.0999 11.7471 11.5028 12.15 11.9999 12.15C12.497 12.15 12.8999 11.7471 12.8999 11.25C12.8999 10.9187 13.1685 10.65 13.4999 10.65Z" fill="currentColor" />
	<path fill-rule="evenodd" clip-rule="evenodd" d="M14.9999 8.85003C14.5028 8.85003 14.0999 9.25297 14.0999 9.75002V11.25C14.0999 11.5814 13.8313 11.85 13.4999 11.85C13.1685 11.85 12.8999 11.5814 12.8999 11.25V9.75002C12.8999 8.59023 13.8401 7.65003 14.9999 7.65003C16.1597 7.65003 17.0999 8.59023 17.0999 9.75002V11.25C17.0999 11.5814 16.8313 11.85 16.4999 11.85C16.1685 11.85 15.8999 11.5814 15.8999 11.25V9.75002C15.8999 9.25297 15.497 8.85003 14.9999 8.85003Z" fill="currentColor" />
	<path fill-rule="evenodd" clip-rule="evenodd" d="M11.9975 0.150029C11.9989 0.150024 12.0003 0.150023 12.0017 0.150027C16.4688 0.163073 20.0869 3.78115 20.0999 8.24827L20.0999 8.25003L20.0999 11.25C20.0999 12.4098 19.1597 13.35 17.9999 13.35C16.8401 13.35 15.8999 12.4098 15.8999 11.25H17.0999C17.0999 11.7471 17.5028 12.15 17.9999 12.15C18.497 12.15 18.8999 11.7471 18.8999 11.25V8.25082C18.8883 4.44473 15.8059 1.36209 11.9999 1.35003C8.19388 1.36209 5.11148 4.44478 5.0999 8.25092V11.25C5.0999 11.7471 5.50285 12.15 5.9999 12.15C6.49696 12.15 6.8999 11.7471 6.8999 11.25C6.8999 10.9187 7.16853 10.65 7.4999 10.65C7.83127 10.65 8.0999 10.9187 8.0999 11.25C8.0999 12.4098 7.1597 13.35 5.9999 13.35C4.8401 13.35 3.8999 12.4098 3.8999 11.25V8.25003L3.8999 8.24827C3.91295 3.78136 7.53069 0.163407 11.9975 0.150029Z" fill="currentColor" />
	<path fill-rule="evenodd" clip-rule="evenodd" d="M6.87194 11.7343C7.18437 11.6239 7.52717 11.7876 7.6376 12.1001L11.1769 22.1131C11.3208 22.4383 11.6433 22.6489 11.9999 22.6489C12.3565 22.6489 12.679 22.4383 12.8229 22.1131L16.3622 12.1001C16.4726 11.7876 16.8154 11.6239 17.1279 11.7343C17.4403 11.8448 17.604 12.1876 17.4936 12.5L13.9476 22.532C13.9436 22.5432 13.9393 22.5543 13.9347 22.5653C13.6064 23.3432 12.8442 23.8489 11.9999 23.8489C11.1556 23.8489 10.3934 23.3432 10.0651 22.5653C10.0605 22.5543 10.0562 22.5432 10.0522 22.532L6.5062 12.5C6.39577 12.1876 6.55952 11.8448 6.87194 11.7343Z" fill="currentColor" />
</svg>
