<svg viewBox="0 0 24 24" fill="none" xmlns="http://www.w3.org/2000/svg">
	<path fill-rule="evenodd" clip-rule="evenodd" d="M2.13135 18.33C2.13135 17.9986 2.39998 17.73 2.73135 17.73H21.2693C21.6007 17.73 21.8693 17.9986 21.8693 18.33C21.8693 18.6614 21.6007 18.93 21.2693 18.93H2.73135C2.39998 18.93 2.13135 18.6614 2.13135 18.33Z" fill="currentColor" />
	<path fill-rule="evenodd" clip-rule="evenodd" d="M10.3105 1.91124C10.2947 1.8206 10.2098 1.7584 10.1183 1.77121L10.1099 1.77238L7.78947 2.06376C7.74848 2.06811 7.71093 2.0886 7.68525 2.12085C7.66009 2.15244 7.64837 2.19262 7.65254 2.23272L9.3338 14.7642C9.37787 15.0926 9.14734 15.3946 8.81891 15.4387C8.49049 15.4827 8.18852 15.2522 8.14446 14.9238L6.46139 2.3788C6.41803 2.01897 6.52079 1.65677 6.74658 1.37326C6.971 1.09148 7.29839 0.91081 7.65625 0.871066L9.95675 0.582133C10.6981 0.480987 11.384 0.993123 11.4972 1.73329L11.4989 1.74409L13.3228 15.3201C13.3669 15.6485 13.1364 15.9505 12.808 15.9947C12.4796 16.0388 12.1776 15.8083 12.1335 15.4799L10.3105 1.91124Z" fill="currentColor" />
	<path fill-rule="evenodd" clip-rule="evenodd" d="M7.76346 3.19364C7.87745 3.50478 7.71762 3.84943 7.40647 3.96341L3.13642 5.52773C3.06624 5.55217 3.02587 5.62564 3.04297 5.69796L3.04366 5.70088L3.85166 9.19588C3.9263 9.51874 3.72508 9.84097 3.40222 9.91561C3.07937 9.99025 2.75713 9.78903 2.68249 9.46618L1.87479 5.97244C1.71759 5.30393 2.08931 4.62455 2.73656 4.39623L6.99368 2.83664C7.30483 2.72266 7.64947 2.88249 7.76346 3.19364Z" fill="currentColor" />
	<path fill-rule="evenodd" clip-rule="evenodd" d="M13.4356 0.582146L15.7351 0.871077C16.0929 0.910825 16.4203 1.09149 16.6447 1.37327C16.8705 1.65678 16.9732 2.01897 16.9299 2.3788L16.9289 2.38687L15.2378 14.9799C15.1937 15.3083 14.8917 15.5388 14.5633 15.4947C14.2349 15.4506 14.0044 15.1486 14.0485 14.8202L15.7388 2.23271C15.7429 2.19262 15.7312 2.15245 15.706 2.12086C15.6804 2.08861 15.6428 2.06801 15.6018 2.06366L15.5904 2.06244L13.274 1.77128C13.1821 1.75842 13.0969 1.82064 13.0808 1.91154L12.2949 7.79644C12.251 8.12489 11.9492 8.3556 11.6207 8.31173C11.2923 8.26787 11.0616 7.96604 11.1054 7.63759L11.894 1.73263C12.0081 0.99262 12.6943 0.480991 13.4356 0.582146Z" fill="currentColor" />
	<path fill-rule="evenodd" clip-rule="evenodd" d="M15.6246 3.19376C15.7385 2.88259 16.0831 2.72268 16.3943 2.8366L20.6545 4.3962C21.3017 4.62448 21.6735 5.30379 21.5164 5.97227L20.7097 9.46506C20.6351 9.78793 20.3129 9.98921 19.99 9.91464C19.6672 9.84007 19.4659 9.51788 19.5404 9.195L20.3474 5.701L20.3482 5.69796C20.3653 5.62564 20.3249 5.55209 20.2547 5.52765L20.2458 5.52453L20.2458 5.52446L15.9818 3.96346C15.6706 3.84954 15.5107 3.50494 15.6246 3.19376Z" fill="currentColor" />
	<path fill-rule="evenodd" clip-rule="evenodd" d="M19.4039 8.72603H22.4321C22.8569 8.72618 23.2598 8.9153 23.5312 9.24206C23.8052 9.56973 23.9115 10.0061 23.8189 10.4232L23.8162 10.4353L20.907 22.3533C20.7511 22.9908 20.1765 23.4369 19.5206 23.43H4.48168C3.82582 23.4369 3.25126 22.9911 3.09533 22.3536L0.18547 10.428C0.088985 10.01 0.194089 9.57091 0.469264 9.24186C0.740628 8.91523 1.14323 8.72618 1.56794 8.72603H4.12464C4.79295 8.71919 5.36841 9.19675 5.48472 9.85509C6.03274 12.8484 8.6994 14.9827 11.7402 14.8615C11.7562 14.8609 11.7721 14.8609 11.7881 14.8615C14.829 14.9828 17.4959 12.8487 18.0445 9.85547C18.1598 9.19683 18.7354 8.71872 19.4039 8.72603ZM19.4039 9.99869C19.3227 9.99751 19.2402 9.98289 19.2264 10.0629L19.2254 10.069C18.5717 13.6435 15.3931 16.1945 11.7641 16.0615C8.13543 16.1944 4.95716 13.6433 4.30392 10.0689L4.30307 10.0642C4.28896 9.98346 4.21831 9.92486 4.13631 9.92598L4.12814 9.92609L1.56835 9.92603M1.38994 9.92598C1.37893 9.87501 1.39695 9.95566 1.40594 9.99367L1.39211 10.0089C1.43555 9.95649 1.50027 9.92612 1.56835 9.92603M1.38994 9.92598L4.26096 22.0685C4.28452 22.1643 4.37114 22.2315 4.46983 22.2301L4.47814 22.23L19.5325 22.23C19.6311 22.2314 22.5869 10.1074 22.6105 10.0116M22.6105 10.0116L22.5831 10.1235C22.5935 10.0713 22.6448 10.0525 22.6105 10.0116L22.6082 10.0089C22.5647 9.95648 22.5002 9.92612 22.4321 9.92603L19.4039 9.99869" fill="currentColor" />
</svg>
