<svg viewBox="0 0 24 24" fill="none" xmlns="http://www.w3.org/2000/svg">
	<path fill-rule="evenodd" clip-rule="evenodd" d="M8.3999 12C8.3999 10.0117 10.0117 8.39996 11.9999 8.39996C13.9881 8.39996 15.5999 10.0117 15.5999 12C15.5999 13.9882 13.9881 15.6 11.9999 15.6C10.0117 15.6 8.3999 13.9882 8.3999 12ZM11.9999 9.59996C10.6744 9.59996 9.5999 10.6745 9.5999 12C9.5999 13.3254 10.6744 14.4 11.9999 14.4C13.3254 14.4 14.3999 13.3254 14.3999 12C14.3999 10.6745 13.3254 9.59996 11.9999 9.59996Z" fill="currentColor" />
	<path fill-rule="evenodd" clip-rule="evenodd" d="M3.8999 12C3.8999 7.52646 7.5264 3.89996 11.9999 3.89996C16.4734 3.89996 20.0999 7.52646 20.0999 12C20.0999 16.4735 16.4734 20.1 11.9999 20.1C7.5264 20.1 3.8999 16.4735 3.8999 12ZM11.9999 5.09996C8.18914 5.09996 5.0999 8.1892 5.0999 12C5.0999 15.8107 8.18914 18.9 11.9999 18.9C15.8107 18.9 18.8999 15.8107 18.8999 12C18.8999 8.1892 15.8107 5.09996 11.9999 5.09996Z" fill="currentColor" />
	<path fill-rule="evenodd" clip-rule="evenodd" d="M11.9999 0.149963C12.3313 0.149963 12.5999 0.418593 12.5999 0.749963V4.49996C12.5999 4.83133 12.3313 5.09996 11.9999 5.09996C11.6685 5.09996 11.3999 4.83133 11.3999 4.49996V0.749963C11.3999 0.418593 11.6685 0.149963 11.9999 0.149963Z" fill="currentColor" />
	<path fill-rule="evenodd" clip-rule="evenodd" d="M0.149902 12C0.149902 11.6686 0.418532 11.4 0.749902 11.4H4.4999C4.83127 11.4 5.0999 11.6686 5.0999 12C5.0999 12.3313 4.83127 12.6 4.4999 12.6H0.749902C0.418532 12.6 0.149902 12.3313 0.149902 12Z" fill="currentColor" />
	<path fill-rule="evenodd" clip-rule="evenodd" d="M11.9999 18.9C12.3313 18.9 12.5999 19.1686 12.5999 19.5V23.25C12.5999 23.5813 12.3313 23.85 11.9999 23.85C11.6685 23.85 11.3999 23.5813 11.3999 23.25V19.5C11.3999 19.1686 11.6685 18.9 11.9999 18.9Z" fill="currentColor" />
	<path fill-rule="evenodd" clip-rule="evenodd" d="M18.8999 12C18.8999 11.6686 19.1685 11.4 19.4999 11.4H23.2499C23.5813 11.4 23.8499 11.6686 23.8499 12C23.8499 12.3313 23.5813 12.6 23.2499 12.6H19.4999C19.1685 12.6 18.8999 12.3313 18.8999 12Z" fill="currentColor" />
</svg>
