<svg viewBox="0 0 24 24" fill="none" xmlns="http://www.w3.org/2000/svg">
	<path fill-rule="evenodd" clip-rule="evenodd" d="M0.149414 3.76302C0.149414 2.87937 0.865759 2.16302 1.74941 2.16302H22.2494C23.1331 2.16302 23.8494 2.87937 23.8494 3.76302V13.763C23.8494 14.6467 23.1331 15.363 22.2494 15.363H1.74941C0.865758 15.363 0.149414 14.6467 0.149414 13.763V3.76302ZM1.74941 3.36302C1.5285 3.36302 1.34941 3.54211 1.34941 3.76302V13.763C1.34941 13.9839 1.5285 14.163 1.74941 14.163H22.2494C22.4703 14.163 22.6494 13.9839 22.6494 13.763V3.76302C22.6494 3.54211 22.4703 3.36302 22.2494 3.36302H1.74941Z" fill="currentColor" />
	<path fill-rule="evenodd" clip-rule="evenodd" d="M6.74941 5.16302C7.08078 5.16302 7.34941 5.43165 7.34941 5.76302V11.763C7.34941 12.0944 7.08078 12.363 6.74941 12.363C6.41804 12.363 6.14941 12.0944 6.14941 11.763V5.76302C6.14941 5.43165 6.41804 5.16302 6.74941 5.16302Z" fill="currentColor" />
	<path fill-rule="evenodd" clip-rule="evenodd" d="M11.9994 5.16302C12.3308 5.16302 12.5994 5.43165 12.5994 5.76302V11.763C12.5994 12.0944 12.3308 12.363 11.9994 12.363C11.668 12.363 11.3994 12.0944 11.3994 11.763V5.76302C11.3994 5.43165 11.668 5.16302 11.9994 5.16302Z" fill="currentColor" />
	<path fill-rule="evenodd" clip-rule="evenodd" d="M17.2494 5.16302C17.5808 5.16302 17.8494 5.43165 17.8494 5.76302V11.763C17.8494 12.0944 17.5808 12.363 17.2494 12.363C16.918 12.363 16.6494 12.0944 16.6494 11.763V5.76302C16.6494 5.43165 16.918 5.16302 17.2494 5.16302Z" fill="currentColor" />
	<path fill-rule="evenodd" clip-rule="evenodd" d="M0.149414 19.638C0.149414 18.2711 1.25751 17.163 2.62441 17.163C3.99132 17.163 5.09941 18.2711 5.09941 19.638C5.09941 21.0049 3.99132 22.113 2.62441 22.113C1.25751 22.113 0.149414 21.0049 0.149414 19.638ZM2.62441 18.363C1.92025 18.363 1.34941 18.9339 1.34941 19.638C1.34941 20.3422 1.92025 20.913 2.62441 20.913C3.32858 20.913 3.89941 20.3422 3.89941 19.638C3.89941 18.9339 3.32858 18.363 2.62441 18.363Z" fill="currentColor" />
	<path fill-rule="evenodd" clip-rule="evenodd" d="M5.39941 19.638C5.39941 18.2711 6.50751 17.163 7.87441 17.163C9.24132 17.163 10.3494 18.2711 10.3494 19.638C10.3494 21.0049 9.24132 22.113 7.87441 22.113C6.50751 22.113 5.39941 21.0049 5.39941 19.638ZM7.87441 18.363C7.17025 18.363 6.59941 18.9339 6.59941 19.638C6.59941 20.3422 7.17025 20.913 7.87441 20.913C8.57858 20.913 9.14941 20.3422 9.14941 19.638C9.14941 18.9339 8.57858 18.363 7.87441 18.363Z" fill="currentColor" />
	<path fill-rule="evenodd" clip-rule="evenodd" d="M18.8994 19.638C18.8994 18.2711 20.0075 17.163 21.3744 17.163C22.7413 17.163 23.8494 18.2711 23.8494 19.638C23.8494 21.0049 22.7413 22.113 21.3744 22.113C20.0075 22.113 18.8994 21.0049 18.8994 19.638ZM21.3744 18.363C20.6703 18.363 20.0994 18.9339 20.0994 19.638C20.0994 20.3422 20.6703 20.913 21.3744 20.913C22.0786 20.913 22.6494 20.3422 22.6494 19.638C22.6494 18.9339 22.0786 18.363 21.3744 18.363Z" fill="currentColor" />
	<path fill-rule="evenodd" clip-rule="evenodd" d="M13.6494 19.638C13.6494 18.2711 14.7575 17.163 16.1244 17.163C17.4913 17.163 18.5994 18.2711 18.5994 19.638C18.5994 21.0049 17.4913 22.113 16.1244 22.113C14.7575 22.113 13.6494 21.0049 13.6494 19.638ZM16.1244 18.363C15.4203 18.363 14.8494 18.9339 14.8494 19.638C14.8494 20.3422 15.4203 20.913 16.1244 20.913C16.8286 20.913 17.3994 20.3422 17.3994 19.638C17.3994 18.9339 16.8286 18.363 16.1244 18.363Z" fill="currentColor" />
</svg>
