<svg viewBox="0 0 24 24" fill="none" xmlns="http://www.w3.org/2000/svg">
	<path fill-rule="evenodd" clip-rule="evenodd" d="M0.899414 1.76302C0.899414 0.879369 1.61576 0.163025 2.49941 0.163025H9.49941C10.3831 0.163025 11.0994 0.879369 11.0994 1.76302V8.76303C11.0994 9.64668 10.3831 10.363 9.49941 10.363H2.49941C1.61576 10.363 0.899414 9.64668 0.899414 8.76303V1.76302ZM2.49941 1.36302C2.2785 1.36302 2.09941 1.54211 2.09941 1.76302V8.76303C2.09941 8.98394 2.2785 9.16302 2.49941 9.16302H9.49941C9.72033 9.16302 9.89941 8.98394 9.89941 8.76303V1.76302C9.89941 1.54211 9.72033 1.36302 9.49941 1.36302H2.49941Z" fill="currentColor" />
	<path fill-rule="evenodd" clip-rule="evenodd" d="M0.899414 6.76302C0.899414 6.43165 1.16804 6.16302 1.49941 6.16302H10.4994C10.8308 6.16302 11.0994 6.43165 11.0994 6.76302C11.0994 7.0944 10.8308 7.36302 10.4994 7.36302H1.49941C1.16804 7.36302 0.899414 7.0944 0.899414 6.76302Z" fill="currentColor" />
	<path fill-rule="evenodd" clip-rule="evenodd" d="M3.42368 9.33876C3.65799 9.57308 3.65799 9.95297 3.42368 10.1873L1.17368 12.4373C0.939364 12.6716 0.559465 12.6716 0.32515 12.4373C0.0908354 12.203 0.0908354 11.8231 0.32515 11.5888L2.57515 9.33876C2.80946 9.10445 3.18936 9.10445 3.42368 9.33876Z" fill="currentColor" />
	<path fill-rule="evenodd" clip-rule="evenodd" d="M8.57515 9.33876C8.80947 9.10445 9.18936 9.10445 9.42368 9.33876L11.6737 11.5888C11.908 11.8231 11.908 12.203 11.6737 12.4373C11.4394 12.6716 11.0595 12.6716 10.8251 12.4373L8.57515 10.1873C8.34084 9.95297 8.34084 9.57308 8.57515 9.33876Z" fill="currentColor" />
	<path fill-rule="evenodd" clip-rule="evenodd" d="M12.8994 13.013C12.8994 12.1294 13.6158 11.413 14.4994 11.413H21.4994C22.3831 11.413 23.0994 12.1294 23.0994 13.013V20.013C23.0994 20.8967 22.3831 21.613 21.4994 21.613H14.4994C13.6158 21.613 12.8994 20.8967 12.8994 20.013V13.013ZM14.4994 12.613C14.2785 12.613 14.0994 12.7921 14.0994 13.013V20.013C14.0994 20.2339 14.2785 20.413 14.4994 20.413H21.4994C21.7203 20.413 21.8994 20.2339 21.8994 20.013V13.013C21.8994 12.7921 21.7203 12.613 21.4994 12.613H14.4994Z" fill="currentColor" />
	<path fill-rule="evenodd" clip-rule="evenodd" d="M12.8994 18.013C12.8994 17.6817 13.168 17.413 13.4994 17.413H22.4994C22.8308 17.413 23.0994 17.6817 23.0994 18.013C23.0994 18.3444 22.8308 18.613 22.4994 18.613H13.4994C13.168 18.613 12.8994 18.3444 12.8994 18.013Z" fill="currentColor" />
	<path fill-rule="evenodd" clip-rule="evenodd" d="M15.4237 20.5888C15.658 20.8231 15.658 21.203 15.4237 21.4373L13.1737 23.6873C12.9394 23.9216 12.5595 23.9216 12.3252 23.6873C12.0908 23.453 12.0908 23.0731 12.3252 22.8388L14.5751 20.5888C14.8095 20.3544 15.1894 20.3544 15.4237 20.5888Z" fill="currentColor" />
	<path fill-rule="evenodd" clip-rule="evenodd" d="M20.5751 20.5888C20.8095 20.3544 21.1894 20.3544 21.4237 20.5888L23.6737 22.8388C23.908 23.0731 23.908 23.453 23.6737 23.6873C23.4394 23.9216 23.0595 23.9216 22.8251 23.6873L20.5751 21.4373C20.3408 21.203 20.3408 20.8231 20.5751 20.5888Z" fill="currentColor" />
	<path fill-rule="evenodd" clip-rule="evenodd" d="M16.8251 6.33876C17.0595 6.10445 17.4394 6.10445 17.6737 6.33876L19.4994 8.1645L21.3251 6.33876C21.5595 6.10445 21.9394 6.10445 22.1737 6.33876C22.408 6.57308 22.408 6.95297 22.1737 7.18729L19.9237 9.43729C19.6894 9.6716 19.3095 9.6716 19.0751 9.43729L16.8251 7.18729C16.5908 6.95297 16.5908 6.57308 16.8251 6.33876Z" fill="currentColor" />
	<path fill-rule="evenodd" clip-rule="evenodd" d="M13.6494 3.01302C13.6494 2.68165 13.918 2.41302 14.2494 2.41302H16.4994C18.4876 2.41302 20.0994 4.0248 20.0994 6.01302V9.01303C20.0994 9.3444 19.8308 9.61302 19.4994 9.61302C19.168 9.61302 18.8994 9.3444 18.8994 9.01303V6.01302C18.8994 4.68754 17.8249 3.61302 16.4994 3.61302H14.2494C13.918 3.61302 13.6494 3.3444 13.6494 3.01302Z" fill="currentColor" />
	<path fill-rule="evenodd" clip-rule="evenodd" d="M4.07515 14.5888C4.30946 14.3544 4.68936 14.3544 4.92368 14.5888L7.17368 16.8388C7.40799 17.0731 7.40799 17.453 7.17368 17.6873C6.93936 17.9216 6.55946 17.9216 6.32515 17.6873L4.49941 15.8616L2.67368 17.6873C2.43936 17.9216 2.05946 17.9216 1.82515 17.6873C1.59084 17.453 1.59084 17.0731 1.82515 16.8388L4.07515 14.5888Z" fill="currentColor" />
	<path fill-rule="evenodd" clip-rule="evenodd" d="M4.49941 14.413C4.83078 14.413 5.09941 14.6817 5.09941 15.013V18.013C5.09941 19.3385 6.17393 20.413 7.49941 20.413H9.74941C10.0808 20.413 10.3494 20.6817 10.3494 21.013C10.3494 21.3444 10.0808 21.613 9.74941 21.613H7.49941C5.51119 21.613 3.89941 20.0013 3.89941 18.013V15.013C3.89941 14.6817 4.16804 14.413 4.49941 14.413Z" fill="currentColor" />
</svg>
