<svg viewBox="0 0 24 24" fill="none" xmlns="http://www.w3.org/2000/svg">
	<path fill-rule="evenodd" clip-rule="evenodd" d="M17.5756 6.4648C17.81 6.23048 18.1899 6.23048 18.4242 6.4648L20.2499 8.29053L22.0756 6.4648C22.31 6.23048 22.6899 6.23048 22.9242 6.4648C23.1585 6.69911 23.1585 7.07901 22.9242 7.31333L20.6742 9.56333C20.4399 9.79764 20.06 9.79764 19.8256 9.56333L17.5756 7.31333C17.3413 7.07901 17.3413 6.69911 17.5756 6.4648Z" fill="currentColor" />
	<path fill-rule="evenodd" clip-rule="evenodd" d="M16.6499 3.13906C16.6499 2.80769 16.9185 2.53906 17.2499 2.53906C19.2381 2.53906 20.8499 4.15084 20.8499 6.13906V9.13906C20.8499 9.47043 20.5813 9.73906 20.2499 9.73906C19.9185 9.73906 19.6499 9.47043 19.6499 9.13906V6.13906C19.6499 4.81358 18.5754 3.73906 17.2499 3.73906C16.9185 3.73906 16.6499 3.47043 16.6499 3.13906Z" fill="currentColor" />
	<path fill-rule="evenodd" clip-rule="evenodd" d="M3.32564 14.7148C3.55996 14.4805 3.93985 14.4805 4.17417 14.7148L6.42417 16.9648C6.65848 17.1991 6.65848 17.579 6.42417 17.8133C6.18985 18.0476 5.80995 18.0476 5.57564 17.8133L3.7499 15.9876L1.92417 17.8133C1.68985 18.0476 1.30996 18.0476 1.07564 17.8133C0.841326 17.579 0.841326 17.1991 1.07564 16.9648L3.32564 14.7148Z" fill="currentColor" />
	<path fill-rule="evenodd" clip-rule="evenodd" d="M3.7499 14.5391C4.08128 14.5391 4.3499 14.8077 4.3499 15.1391V18.1391C4.3499 19.4645 5.42442 20.5391 6.7499 20.5391C7.08128 20.5391 7.3499 20.8077 7.3499 21.1391C7.3499 21.4704 7.08128 21.7391 6.7499 21.7391C4.76168 21.7391 3.1499 20.1273 3.1499 18.1391V15.1391C3.1499 14.8077 3.41853 14.5391 3.7499 14.5391Z" fill="currentColor" />
	<path fill-rule="evenodd" clip-rule="evenodd" d="M9.28251 19.4452C9.50392 19.1986 9.88327 19.1782 10.1298 19.3997L11.4938 20.6247C11.7404 20.8461 11.7607 21.2254 11.5393 21.472C11.3179 21.7185 10.9385 21.7389 10.692 21.5175L9.328 20.2925C9.08146 20.071 9.06109 19.6917 9.28251 19.4452Z" fill="currentColor" />
	<path fill-rule="evenodd" clip-rule="evenodd" d="M14.4073 13.8287C14.6186 13.7456 14.8587 13.7889 15.0277 13.9406L18.845 17.3671L20.7447 16.6198C20.7662 16.609 20.7885 16.5995 20.8112 16.5913C21.9509 16.1824 23.2092 16.753 23.6524 17.8798C24.0956 19.0066 23.5632 20.2816 22.4503 20.7585L22.434 20.7652L14.9871 23.7022C14.9871 23.7022 14.9871 23.7022 14.9871 23.7022C14.1967 24.014 13.2979 23.8522 12.6659 23.2844L10.6921 21.5126C10.5374 21.3737 10.4656 21.1645 10.5024 20.9599C10.5392 20.7552 10.6793 20.5842 10.8727 20.5079L14.6744 19.0084L11.879 15.6724C11.7551 15.5245 11.7098 15.326 11.7575 15.139C11.8051 14.952 11.9397 14.7993 12.1193 14.7287L14.4073 13.8287ZM13.334 15.5404L16.1288 18.8757C16.2527 19.0235 16.2979 19.2219 16.2504 19.4088C16.2029 19.5957 16.0685 19.7484 15.8891 19.8192L12.2161 21.268L13.4677 22.3916C13.7615 22.6555 14.1794 22.7309 14.5467 22.5859L21.9847 19.6525C22.4965 19.4286 22.7405 18.8397 22.5357 18.319C22.3349 17.8085 21.7736 17.5438 21.2549 17.7079C21.2459 17.7119 21.2368 17.7158 21.2275 17.7194L18.9395 18.6194C18.7282 18.7025 18.4881 18.6592 18.3191 18.5076L14.5018 15.081L13.334 15.5404Z" fill="currentColor" />
	<path fill-rule="evenodd" clip-rule="evenodd" d="M0.227796 5.09342C0.334303 4.90533 0.53375 4.78906 0.749905 4.78906H14.2499C14.4661 4.78906 14.6655 4.90533 14.772 5.09342C14.8785 5.28152 14.8756 5.51236 14.7644 5.69772L12.4374 9.57672C12.267 9.86088 11.8984 9.95305 11.6142 9.78258C11.3301 9.61211 11.2379 9.24356 11.4084 8.9594L13.1903 5.98906H1.80953L3.59142 8.9594C3.76189 9.24356 3.66972 9.61211 3.38556 9.78258C3.1014 9.95305 2.73285 9.86088 2.56239 9.57672L0.235386 5.69772C0.124189 5.51236 0.12129 5.28152 0.227796 5.09342Z" fill="currentColor" />
	<path fill-rule="evenodd" clip-rule="evenodd" d="M3.91782 2.24354C3.98459 1.97644 4.22458 1.78906 4.4999 1.78906H10.4999C10.7752 1.78906 11.0152 1.97644 11.082 2.24354L11.832 5.24354L11.2499 5.38906V5.98906H3.7499C3.56514 5.98906 3.39069 5.90394 3.27698 5.75831C3.16328 5.61268 3.12301 5.42279 3.16782 5.24354L3.91782 2.24354ZM10.4814 4.78906L10.0314 2.98906H4.96837L4.51837 4.78906H10.4814Z" fill="currentColor" />
	<path fill-rule="evenodd" clip-rule="evenodd" d="M8.9999 0.289062C9.33128 0.289062 9.5999 0.557692 9.5999 0.889062V2.38906C9.5999 2.72043 9.33128 2.98906 8.9999 2.98906C8.66853 2.98906 8.3999 2.72043 8.3999 2.38906V0.889062C8.3999 0.557692 8.66853 0.289062 8.9999 0.289062Z" fill="currentColor" />
	<path fill-rule="evenodd" clip-rule="evenodd" d="M4.1249 7.78906C4.29893 7.78906 4.46438 7.86462 4.57834 7.99613C5.30786 8.83798 6.37398 9.31181 7.48772 9.28919C7.49584 9.28902 7.50397 9.28902 7.51209 9.28919C8.62583 9.31181 9.69195 8.83798 10.4215 7.99613C10.5354 7.86462 10.7009 7.78906 10.8749 7.78906C11.0489 7.78906 11.2144 7.86462 11.3283 7.99613C12.0579 8.83798 13.124 9.31181 14.2377 9.28919C14.569 9.28245 14.843 9.54557 14.8498 9.87687C14.8565 10.2082 14.5934 10.4822 14.2621 10.4889C13.0085 10.5144 11.8006 10.0634 10.8749 9.24107C9.95219 10.0608 8.74913 10.5115 7.4999 10.4892C6.25068 10.5115 5.04762 10.0608 4.1249 9.24107C3.19919 10.0634 1.9913 10.5144 0.737717 10.4889C0.406414 10.4822 0.143297 10.2082 0.150029 9.87687C0.15676 9.54557 0.43079 9.28245 0.762093 9.28919C1.87583 9.31181 2.94195 8.83798 3.67147 7.99613C3.78543 7.86462 3.95088 7.78906 4.1249 7.78906Z" fill="currentColor" />
</svg>
