<svg viewBox="0 0 24 24" fill="none" xmlns="http://www.w3.org/2000/svg">
	<path fill-rule="evenodd" clip-rule="evenodd" d="M0.149902 12C0.149902 11.6687 0.418532 11.4 0.749902 11.4H23.2499C23.5813 11.4 23.8499 11.6687 23.8499 12C23.8499 12.3314 23.5813 12.6 23.2499 12.6H0.749902C0.418532 12.6 0.149902 12.3314 0.149902 12Z" fill="currentColor" />
	<path fill-rule="evenodd" clip-rule="evenodd" d="M11.6742 1.07576C11.9085 1.31007 11.9085 1.68997 11.6742 1.92429L1.59843 12L11.6742 22.0758C11.9085 22.3101 11.9085 22.69 11.6742 22.9243C11.4399 23.1586 11.06 23.1586 10.8256 22.9243L0.325638 12.4243C0.0913237 12.19 0.0913237 11.8101 0.325638 11.5758L10.8256 1.07576C11.06 0.841446 11.4399 0.841446 11.6742 1.07576Z" fill="currentColor" />
</svg>
