<svg viewBox="0 0 24 24" fill="none" xmlns="http://www.w3.org/2000/svg">
	<path fill-rule="evenodd" clip-rule="evenodd" d="M1.6499 22.32C1.6499 21.9886 1.91853 21.72 2.2499 21.72H21.7499C22.0813 21.72 22.3499 21.9886 22.3499 22.32C22.3499 22.6514 22.0813 22.92 21.7499 22.92H2.2499C1.91853 22.92 1.6499 22.6514 1.6499 22.32Z" fill="currentColor" />
	<path fill-rule="evenodd" clip-rule="evenodd" d="M1.6499 3.59999C1.6499 3.26862 1.91853 2.99999 2.2499 2.99999H21.7499C22.0813 2.99999 22.3499 3.26862 22.3499 3.59999C22.3499 3.93137 22.0813 4.19999 21.7499 4.19999H2.2499C1.91853 4.19999 1.6499 3.93137 1.6499 3.59999Z" fill="currentColor" />
	<path fill-rule="evenodd" clip-rule="evenodd" d="M3.1499 3.59999C3.1499 3.26862 3.41853 2.99999 3.7499 2.99999H20.2499C20.5813 2.99999 20.8499 3.26862 20.8499 3.59999V22.32C20.8499 22.6514 20.5813 22.92 20.2499 22.92H3.7499C3.41853 22.92 3.1499 22.6514 3.1499 22.32V3.59999ZM4.3499 4.19999V21.72H19.6499V4.19999H4.3499Z" fill="currentColor" />
	<path fill-rule="evenodd" clip-rule="evenodd" d="M1.6499 9.35999C1.6499 9.02862 1.91853 8.75999 2.2499 8.75999H21.7499C22.0813 8.75999 22.3499 9.02862 22.3499 9.35999C22.3499 9.69137 22.0813 9.95999 21.7499 9.95999H2.2499C1.91853 9.95999 1.6499 9.69137 1.6499 9.35999Z" fill="currentColor" />
	<path fill-rule="evenodd" clip-rule="evenodd" d="M1.6499 16.56C1.6499 16.2286 1.91853 15.96 2.2499 15.96H21.7499C22.0813 15.96 22.3499 16.2286 22.3499 16.56C22.3499 16.8914 22.0813 17.16 21.7499 17.16H2.2499C1.91853 17.16 1.6499 16.8914 1.6499 16.56Z" fill="currentColor" />
	<path fill-rule="evenodd" clip-rule="evenodd" d="M15.2499 1.32C15.0057 1.32 14.8499 1.50402 14.8499 1.67999V2.99999H18.1499V1.67999C18.1499 1.50402 17.9941 1.32 17.7499 1.32H15.2499ZM13.6499 1.67999C13.6499 0.795582 14.3896 0.119995 15.2499 0.119995H17.7499C18.6102 0.119995 19.3499 0.795582 19.3499 1.67999V3.59999C19.3499 3.93137 19.0813 4.19999 18.7499 4.19999H14.2499C13.9185 4.19999 13.6499 3.93137 13.6499 3.59999V1.67999Z" fill="currentColor" />
</svg>
