<svg viewBox="0 0 24 24" fill="none" xmlns="http://www.w3.org/2000/svg">
	<path fill-rule="evenodd" clip-rule="evenodd" d="M0.303508 6.06907C0.524924 5.82253 0.904277 5.80216 1.15082 6.02358L2.51482 7.24858C2.76136 7.46999 2.78172 7.84934 2.56031 8.09588C2.33889 8.34242 1.95954 8.36279 1.713 8.14137L0.348999 6.91637C0.10246 6.69496 0.0820927 6.31561 0.303508 6.06907Z" fill="currentColor" />
	<path fill-rule="evenodd" clip-rule="evenodd" d="M5.42928 0.454619C5.64053 0.371519 5.8806 0.414767 6.04958 0.566365L9.86692 3.99105L11.7715 3.24188C11.781 3.23716 11.7907 3.2327 11.8005 3.22849C12.5509 2.90688 13.4169 3.01899 14.0606 3.52109C14.7043 4.02319 15.0239 4.83576 14.8947 5.64187C14.7661 6.44469 14.2125 7.11447 13.449 7.39231L6.01164 10.3241L6.01033 10.3246C5.22139 10.6395 4.32216 10.4805 3.68893 9.91421L1.71384 8.14713C1.55881 8.00843 1.48669 7.79932 1.52324 7.59454C1.5598 7.38976 1.69982 7.21852 1.89326 7.14202L5.69716 5.63775L2.90088 2.29817C2.77702 2.15025 2.73185 1.95179 2.77948 1.76484C2.82711 1.57789 2.96174 1.42524 3.14127 1.35462L5.42928 0.454619ZM4.35568 2.16642L7.15094 5.50478C7.27467 5.65256 7.31988 5.85077 7.27247 6.03758C7.22505 6.22439 7.09078 6.37705 6.91155 6.44793L3.23805 7.90064L4.48888 9.01974C4.78274 9.28248 5.20015 9.35618 5.56617 9.20985L5.56886 9.20877L13.0169 6.27278L13.0342 6.26624C13.391 6.13821 13.6499 5.82622 13.7099 5.45195C13.7699 5.07769 13.6215 4.70042 13.3226 4.4673C13.0321 4.24073 12.6442 4.1852 12.3027 4.31935C12.2854 4.3282 12.2677 4.3362 12.2495 4.34333L9.96154 5.24333C9.75028 5.32643 9.51021 5.28318 9.34124 5.13159L5.5239 1.7069L4.35568 2.16642Z" fill="currentColor" />
	<path fill-rule="evenodd" clip-rule="evenodd" d="M17.5756 5.83871C17.81 5.6044 18.1899 5.6044 18.4242 5.83871L20.2499 7.66445L22.0756 5.83871C22.31 5.6044 22.6899 5.6044 22.9242 5.83871C23.1585 6.07303 23.1585 6.45293 22.9242 6.68724L20.6742 8.93724C20.4399 9.17155 20.06 9.17155 19.8256 8.93724L17.5756 6.68724C17.3413 6.45293 17.3413 6.07303 17.5756 5.83871Z" fill="currentColor" />
	<path fill-rule="evenodd" clip-rule="evenodd" d="M16.6499 2.51298C16.6499 2.1816 16.9185 1.91298 17.2499 1.91298C19.2381 1.91298 20.8499 3.52475 20.8499 5.51298V8.51298C20.8499 8.84435 20.5813 9.11298 20.2499 9.11298C19.9185 9.11298 19.6499 8.84435 19.6499 8.51298V5.51298C19.6499 4.18749 18.5754 3.11298 17.2499 3.11298C16.9185 3.11298 16.6499 2.84435 16.6499 2.51298Z" fill="currentColor" />
	<path fill-rule="evenodd" clip-rule="evenodd" d="M3.32564 14.0887C3.55996 13.8544 3.93986 13.8544 4.17417 14.0887L6.42417 16.3387C6.65849 16.573 6.65849 16.9529 6.42417 17.1872C6.18986 17.4216 5.80996 17.4216 5.57564 17.1872L3.74991 15.3615L1.92417 17.1872C1.68986 17.4216 1.30996 17.4216 1.07564 17.1872C0.841329 16.9529 0.841329 16.573 1.07564 16.3387L3.32564 14.0887Z" fill="currentColor" />
	<path fill-rule="evenodd" clip-rule="evenodd" d="M3.74991 13.913C4.08128 13.913 4.34991 14.1816 4.34991 14.513V17.513C4.34991 18.8385 5.42442 19.913 6.74991 19.913C7.08128 19.913 7.34991 20.1816 7.34991 20.513C7.34991 20.8443 7.08128 21.113 6.74991 21.113C4.76168 21.113 3.14991 19.5012 3.14991 17.513V14.513C3.14991 14.1816 3.41854 13.913 3.74991 13.913Z" fill="currentColor" />
	<path fill-rule="evenodd" clip-rule="evenodd" d="M12.1499 18.263C12.1499 17.9316 12.4185 17.663 12.7499 17.663H14.2499C14.5813 17.663 14.8499 17.9316 14.8499 18.263C14.8499 18.5943 14.5813 18.863 14.2499 18.863H12.7499C12.4185 18.863 12.1499 18.5943 12.1499 18.263Z" fill="currentColor" />
	<path fill-rule="evenodd" clip-rule="evenodd" d="M18.1499 18.263C18.1499 17.9316 18.4185 17.663 18.7499 17.663H20.2499C20.5813 17.663 20.8499 17.9316 20.8499 18.263C20.8499 18.5943 20.5813 18.863 20.2499 18.863H18.7499C18.4185 18.863 18.1499 18.5943 18.1499 18.263Z" fill="currentColor" />
	<path fill-rule="evenodd" clip-rule="evenodd" d="M11.2499 20.663C11.5813 20.663 11.8499 20.9316 11.8499 21.263V22.763C11.8499 23.0943 11.5813 23.363 11.2499 23.363C10.9185 23.363 10.6499 23.0943 10.6499 22.763V21.263C10.6499 20.9316 10.9185 20.663 11.2499 20.663Z" fill="currentColor" />
	<path fill-rule="evenodd" clip-rule="evenodd" d="M21.7499 20.663C22.0813 20.663 22.3499 20.9316 22.3499 21.263V22.763C22.3499 23.0943 22.0813 23.363 21.7499 23.363C21.4185 23.363 21.1499 23.0943 21.1499 22.763V21.263C21.1499 20.9316 21.4185 20.663 21.7499 20.663Z" fill="currentColor" />
	<path fill-rule="evenodd" clip-rule="evenodd" d="M10.6499 15.263C10.6499 14.9316 10.9185 14.663 11.2499 14.663H21.7499C22.0813 14.663 22.3499 14.9316 22.3499 15.263C22.3499 15.5943 22.0813 15.863 21.7499 15.863H11.2499C10.9185 15.863 10.6499 15.5943 10.6499 15.263Z" fill="currentColor" />
	<path fill-rule="evenodd" clip-rule="evenodd" d="M11.8387 11.5992C12.1244 10.7416 12.9269 10.1631 13.8309 10.163H19.1689C20.0729 10.1631 20.8755 10.7417 21.1612 11.5994L22.2936 14.9968L23.5007 16.8045C23.7285 17.1497 23.8493 17.5544 23.8479 17.968L23.8479 17.9693L23.2479 17.967H23.8479V17.968V19.767C23.8479 20.9268 22.9077 21.867 21.7479 21.867H11.2479C10.0881 21.867 9.14791 20.9268 9.14791 19.767V17.967C9.14795 17.5524 9.27071 17.147 9.50071 16.8021L10.7062 14.9968L10.6807 15.0732L11.2499 15.263L10.7509 14.9298L10.7062 14.9968L11.8387 11.5992ZM13.8309 11.363C13.4435 11.363 13.0996 11.611 12.9772 11.9786L11.8191 15.4527C11.8022 15.5034 11.7786 15.5517 11.7489 15.5962L10.4991 17.4678C10.4006 17.6156 10.3479 17.7894 10.3479 17.967V19.767C10.3479 20.264 10.7509 20.667 11.2479 20.667H21.7479C22.245 20.667 22.6479 20.264 22.6479 19.767V17.967L22.6479 17.9646C22.6486 17.7877 22.5971 17.6145 22.4999 17.4667L22.4991 17.4654L21.2509 15.5962C21.2212 15.5517 21.1976 15.5034 21.1807 15.4527L20.0227 11.9787C19.9003 11.6111 19.5563 11.363 19.1689 11.363M19.1689 11.363H13.8309H19.1689Z" fill="currentColor" />
</svg>
