<svg viewBox="0 0 24 24" fill="none" xmlns="http://www.w3.org/2000/svg">
	<path fill-rule="evenodd" clip-rule="evenodd" d="M16.8256 5.58882C17.06 5.35451 17.4399 5.35451 17.6742 5.58882L19.4999 7.41456L21.3256 5.58882C21.56 5.35451 21.9399 5.35451 22.1742 5.58882C22.4085 5.82314 22.4085 6.20304 22.1742 6.43735L19.9242 8.68735C19.6899 8.92167 19.31 8.92167 19.0756 8.68735L16.8256 6.43735C16.5913 6.20304 16.5913 5.82314 16.8256 5.58882Z" fill="currentColor" />
	<path fill-rule="evenodd" clip-rule="evenodd" d="M15.8999 2.26309C15.8999 1.93172 16.1685 1.66309 16.4999 1.66309C18.4881 1.66309 20.0999 3.27486 20.0999 5.26309V8.26309C20.0999 8.59446 19.8313 8.86309 19.4999 8.86309C19.1685 8.86309 18.8999 8.59446 18.8999 8.26309V5.26309C18.8999 3.9376 17.8254 2.86309 16.4999 2.86309C16.1685 2.86309 15.8999 2.59446 15.8999 2.26309Z" fill="currentColor" />
	<path fill-rule="evenodd" clip-rule="evenodd" d="M3.32564 15.3388C3.55995 15.1045 3.93985 15.1045 4.17417 15.3388L6.42417 17.5888C6.65848 17.8231 6.65848 18.203 6.42417 18.4374C6.18985 18.6717 5.80995 18.6717 5.57564 18.4374L3.7499 16.6116L1.92417 18.4374C1.68985 18.6717 1.30995 18.6717 1.07564 18.4374C0.841324 18.203 0.841324 17.8231 1.07564 17.5888L3.32564 15.3388Z" fill="currentColor" />
	<path fill-rule="evenodd" clip-rule="evenodd" d="M3.7499 15.1631C4.08127 15.1631 4.3499 15.4317 4.3499 15.7631V18.7631C4.3499 20.0886 5.42442 21.1631 6.7499 21.1631C7.08127 21.1631 7.3499 21.4317 7.3499 21.7631C7.3499 22.0945 7.08127 22.3631 6.7499 22.3631C4.76168 22.3631 3.1499 20.7513 3.1499 18.7631V15.7631C3.1499 15.4317 3.41853 15.1631 3.7499 15.1631Z" fill="currentColor" />
	<path fill-rule="evenodd" clip-rule="evenodd" d="M10.7322 15.4598C10.8399 15.276 11.0369 15.1631 11.2499 15.1631H21.7499C21.9629 15.1631 22.1599 15.276 22.2676 15.4598L23.293 17.21C23.6503 17.5971 23.8498 18.1052 23.8499 18.634V20.2631C23.8499 21.4229 22.9097 22.3631 21.7499 22.3631H11.2499C10.0901 22.3631 9.1499 21.4229 9.1499 20.2631V18.6341C9.15001 18.1053 9.34953 17.5971 9.7068 17.21L10.7322 15.4598ZM11.5938 16.3631L10.7066 17.8774C10.6808 17.9215 10.6494 17.9621 10.6133 17.9982C10.4447 18.1669 10.35 18.3956 10.3499 18.6341C10.3499 18.634 10.3499 18.6341 10.3499 18.6341V20.2631C10.3499 20.7601 10.7528 21.1631 11.2499 21.1631H21.7499C22.247 21.1631 22.6499 20.7601 22.6499 20.2631V18.6342C22.6499 18.6342 22.6499 18.6343 22.6499 18.6342C22.6498 18.3957 22.5551 18.1669 22.3865 17.9982C22.3504 17.9621 22.319 17.9215 22.2932 17.8774L21.406 16.3631H11.5938Z" fill="currentColor" />
	<path fill-rule="evenodd" clip-rule="evenodd" d="M12.9592 12.2801L12.0644 15.1631H20.9354L20.0406 12.2801C19.8588 12.002 19.5407 11.8411 19.2063 11.8619C19.1938 11.8627 19.1814 11.8631 19.1689 11.8631H13.8309C13.8184 11.8631 13.806 11.8627 13.7935 11.8619C13.4591 11.8411 13.141 12.002 12.9592 12.2801ZM13.8481 10.6631C13.0446 10.6206 12.2851 11.0351 11.8865 11.7352C11.865 11.7729 11.8477 11.8128 11.8349 11.8542L10.6769 15.5852C10.6204 15.7673 10.6537 15.9654 10.7668 16.119C10.8799 16.2725 11.0592 16.3631 11.2499 16.3631H21.7499C21.9406 16.3631 22.1199 16.2725 22.233 16.119C22.3461 15.9654 22.3795 15.7673 22.3229 15.5852L21.1649 11.8542C21.1521 11.8128 21.1348 11.7729 21.1133 11.7352C20.7147 11.0351 19.9552 10.6206 19.1517 10.6631H13.8481Z" fill="currentColor" />
	<path fill-rule="evenodd" clip-rule="evenodd" d="M12.1499 18.7631C12.1499 18.4317 12.4185 18.1631 12.7499 18.1631H14.2499C14.5813 18.1631 14.8499 18.4317 14.8499 18.7631C14.8499 19.0945 14.5813 19.3631 14.2499 19.3631H12.7499C12.4185 19.3631 12.1499 19.0945 12.1499 18.7631Z" fill="currentColor" />
	<path fill-rule="evenodd" clip-rule="evenodd" d="M18.1499 18.7631C18.1499 18.4317 18.4185 18.1631 18.7499 18.1631H20.2499C20.5813 18.1631 20.8499 18.4317 20.8499 18.7631C20.8499 19.0945 20.5813 19.3631 20.2499 19.3631H18.7499C18.4185 19.3631 18.1499 19.0945 18.1499 18.7631Z" fill="currentColor" />
	<path fill-rule="evenodd" clip-rule="evenodd" d="M11.2499 21.1631C11.5813 21.1631 11.8499 21.4317 11.8499 21.7631V23.2631C11.8499 23.5945 11.5813 23.8631 11.2499 23.8631C10.9185 23.8631 10.6499 23.5945 10.6499 23.2631V21.7631C10.6499 21.4317 10.9185 21.1631 11.2499 21.1631Z" fill="currentColor" />
	<path fill-rule="evenodd" clip-rule="evenodd" d="M21.7499 21.1631C22.0813 21.1631 22.3499 21.4317 22.3499 21.7631V23.2631C22.3499 23.5945 22.0813 23.8631 21.7499 23.8631C21.4185 23.8631 21.1499 23.5945 21.1499 23.2631V21.7631C21.1499 21.4317 21.4185 21.1631 21.7499 21.1631Z" fill="currentColor" />
	<path fill-rule="evenodd" clip-rule="evenodd" d="M0.149902 1.76309C0.149902 0.87943 0.866247 0.163086 1.7499 0.163086H9.4999C10.3836 0.163086 11.0999 0.87943 11.0999 1.76309V9.51309C11.0999 10.3967 10.3836 11.1131 9.4999 11.1131H1.7499C0.866247 11.1131 0.149902 10.3967 0.149902 9.51309V1.76309ZM1.7499 1.36309C1.52899 1.36309 1.3499 1.54217 1.3499 1.76309V9.51309C1.3499 9.734 1.52899 9.91309 1.7499 9.91309H9.4999C9.72082 9.91309 9.8999 9.734 9.8999 9.51309V1.76309C9.8999 1.54217 9.72082 1.36309 9.4999 1.36309H1.7499Z" fill="currentColor" />
	<path fill-rule="evenodd" clip-rule="evenodd" d="M2.2499 9.91309C2.58127 9.91309 2.8499 10.1817 2.8499 10.5131V12.0131C2.8499 12.3445 2.58127 12.6131 2.2499 12.6131C1.91853 12.6131 1.6499 12.3445 1.6499 12.0131V10.5131C1.6499 10.1817 1.91853 9.91309 2.2499 9.91309Z" fill="currentColor" />
	<path fill-rule="evenodd" clip-rule="evenodd" d="M8.9999 9.91309C9.33127 9.91309 9.5999 10.1817 9.5999 10.5131V12.0131C9.5999 12.3445 9.33127 12.6131 8.9999 12.6131C8.66853 12.6131 8.3999 12.3445 8.3999 12.0131V10.5131C8.3999 10.1817 8.66853 9.91309 8.9999 9.91309Z" fill="currentColor" />
	<path fill-rule="evenodd" clip-rule="evenodd" d="M0.149902 5.26309C0.149902 4.93172 0.418532 4.66309 0.749902 4.66309H10.4999C10.8313 4.66309 11.0999 4.93172 11.0999 5.26309C11.0999 5.59446 10.8313 5.86309 10.4999 5.86309H0.749902C0.418532 5.86309 0.149902 5.59446 0.149902 5.26309Z" fill="currentColor" />
	<path fill-rule="evenodd" clip-rule="evenodd" d="M2.7749 7.51309C2.7749 7.18172 3.04353 6.91309 3.3749 6.91309C3.91338 6.91309 4.3499 7.34961 4.3499 7.88809C4.3499 8.21946 4.08127 8.48809 3.7499 8.48809C3.48613 8.48809 3.26211 8.31787 3.18169 8.0813C2.94511 8.00088 2.7749 7.77686 2.7749 7.51309Z" fill="currentColor" />
	<path fill-rule="evenodd" clip-rule="evenodd" d="M3.56811 8.0813C3.80469 8.00088 3.9749 7.77686 3.9749 7.51309C3.9749 7.18172 3.70627 6.91309 3.3749 6.91309C2.83642 6.91309 2.3999 7.34961 2.3999 7.88809C2.3999 8.21946 2.66853 8.48809 2.9999 8.48809C3.26368 8.48809 3.48769 8.31787 3.56811 8.0813Z" fill="currentColor" />
	<path fill-rule="evenodd" clip-rule="evenodd" d="M3.56811 7.69487C3.48769 7.4583 3.26368 7.28809 2.9999 7.28809C2.66853 7.28809 2.3999 7.55672 2.3999 7.88809C2.3999 8.42656 2.83642 8.86309 3.3749 8.86309C3.70627 8.86309 3.9749 8.59446 3.9749 8.26309C3.9749 7.99931 3.80469 7.77529 3.56811 7.69487Z" fill="currentColor" />
	<path fill-rule="evenodd" clip-rule="evenodd" d="M3.7499 7.28809C4.08127 7.28809 4.3499 7.55672 4.3499 7.88809C4.3499 8.42656 3.91338 8.86309 3.3749 8.86309C3.04353 8.86309 2.7749 8.59446 2.7749 8.26309C2.7749 7.99931 2.94511 7.77529 3.18169 7.69487C3.26211 7.4583 3.48613 7.28809 3.7499 7.28809Z" fill="currentColor" />
	<path fill-rule="evenodd" clip-rule="evenodd" d="M7.2749 7.51309C7.2749 7.18172 7.54353 6.91309 7.8749 6.91309C8.41338 6.91309 8.8499 7.34961 8.8499 7.88809C8.8499 8.21946 8.58127 8.48809 8.2499 8.48809C7.98613 8.48809 7.76211 8.31787 7.68169 8.0813C7.44511 8.00088 7.2749 7.77686 7.2749 7.51309Z" fill="currentColor" />
	<path fill-rule="evenodd" clip-rule="evenodd" d="M8.06811 8.0813C8.30469 8.00088 8.4749 7.77686 8.4749 7.51309C8.4749 7.18172 8.20627 6.91309 7.8749 6.91309C7.33642 6.91309 6.8999 7.34961 6.8999 7.88809C6.8999 8.21946 7.16853 8.48809 7.4999 8.48809C7.76368 8.48809 7.98769 8.31787 8.06811 8.0813Z" fill="currentColor" />
	<path fill-rule="evenodd" clip-rule="evenodd" d="M8.06811 7.69487C7.98769 7.4583 7.76368 7.28809 7.4999 7.28809C7.16853 7.28809 6.8999 7.55672 6.8999 7.88809C6.8999 8.42656 7.33642 8.86309 7.8749 8.86309C8.20627 8.86309 8.4749 8.59446 8.4749 8.26309C8.4749 7.99931 8.30469 7.77529 8.06811 7.69487Z" fill="currentColor" />
	<path fill-rule="evenodd" clip-rule="evenodd" d="M8.2499 7.28809C8.58127 7.28809 8.8499 7.55672 8.8499 7.88809C8.8499 8.42656 8.41338 8.86309 7.8749 8.86309C7.54353 8.86309 7.2749 8.59446 7.2749 8.26309C7.2749 7.99931 7.44511 7.77529 7.68169 7.69487C7.76211 7.4583 7.98613 7.28809 8.2499 7.28809Z" fill="currentColor" />
</svg>
