<svg viewBox="0 0 24 24" fill="none" xmlns="http://www.w3.org/2000/svg">
	<path fill-rule="evenodd" clip-rule="evenodd" d="M0.899902 1.76309C0.899902 0.87943 1.61625 0.163086 2.4999 0.163086H9.4999C10.3836 0.163086 11.0999 0.87943 11.0999 1.76309V8.76309C11.0999 9.64674 10.3836 10.3631 9.4999 10.3631H2.4999C1.61625 10.3631 0.899902 9.64674 0.899902 8.76309V1.76309ZM2.4999 1.36309C2.27899 1.36309 2.0999 1.54217 2.0999 1.76309V8.76309C2.0999 8.984 2.27899 9.16309 2.4999 9.16309H9.4999C9.72082 9.16309 9.8999 8.984 9.8999 8.76309V1.76309C9.8999 1.54217 9.72082 1.36309 9.4999 1.36309H2.4999Z" fill="currentColor" />
	<path fill-rule="evenodd" clip-rule="evenodd" d="M0.899902 6.76309C0.899902 6.43172 1.16853 6.16309 1.4999 6.16309H10.4999C10.8313 6.16309 11.0999 6.43172 11.0999 6.76309C11.0999 7.09446 10.8313 7.36309 10.4999 7.36309H1.4999C1.16853 7.36309 0.899902 7.09446 0.899902 6.76309Z" fill="currentColor" />
	<path fill-rule="evenodd" clip-rule="evenodd" d="M3.42417 9.33882C3.65848 9.57314 3.65848 9.95304 3.42417 10.1874L1.17417 12.4374C0.939852 12.6717 0.559953 12.6717 0.325638 12.4374C0.0913237 12.203 0.0913237 11.8231 0.325638 11.5888L2.57564 9.33882C2.80995 9.10451 3.18985 9.10451 3.42417 9.33882Z" fill="currentColor" />
	<path fill-rule="evenodd" clip-rule="evenodd" d="M8.57564 9.33882C8.80995 9.10451 9.18985 9.10451 9.42417 9.33882L11.6742 11.5888C11.9085 11.8231 11.9085 12.203 11.6742 12.4374C11.4399 12.6717 11.06 12.6717 10.8256 12.4374L8.57564 10.1874C8.34132 9.95304 8.34132 9.57314 8.57564 9.33882Z" fill="currentColor" />
	<path fill-rule="evenodd" clip-rule="evenodd" d="M16.8256 5.58882C17.06 5.35451 17.4398 5.35451 17.6742 5.58882L19.4999 7.41456L21.3256 5.58882C21.56 5.35451 21.9398 5.35451 22.1742 5.58882C22.4085 5.82314 22.4085 6.20304 22.1742 6.43735L19.9242 8.68735C19.6899 8.92167 19.31 8.92167 19.0756 8.68735L16.8256 6.43735C16.5913 6.20304 16.5913 5.82314 16.8256 5.58882Z" fill="currentColor" />
	<path fill-rule="evenodd" clip-rule="evenodd" d="M15.8999 2.26309C15.8999 1.93172 16.1685 1.66309 16.4999 1.66309C18.4881 1.66309 20.0999 3.27486 20.0999 5.26309V8.26309C20.0999 8.59446 19.8313 8.86309 19.4999 8.86309C19.1685 8.86309 18.8999 8.59446 18.8999 8.26309V5.26309C18.8999 3.9376 17.8254 2.86309 16.4999 2.86309C16.1685 2.86309 15.8999 2.59446 15.8999 2.26309Z" fill="currentColor" />
	<path fill-rule="evenodd" clip-rule="evenodd" d="M3.32564 15.3388C3.55995 15.1045 3.93985 15.1045 4.17417 15.3388L6.42417 17.5888C6.65848 17.8231 6.65848 18.203 6.42417 18.4374C6.18985 18.6717 5.80995 18.6717 5.57564 18.4374L3.7499 16.6116L1.92417 18.4374C1.68985 18.6717 1.30995 18.6717 1.07564 18.4374C0.841324 18.203 0.841324 17.8231 1.07564 17.5888L3.32564 15.3388Z" fill="currentColor" />
	<path fill-rule="evenodd" clip-rule="evenodd" d="M3.7499 15.1631C4.08127 15.1631 4.3499 15.4317 4.3499 15.7631V18.7631C4.3499 20.0886 5.42442 21.1631 6.7499 21.1631C7.08127 21.1631 7.3499 21.4317 7.3499 21.7631C7.3499 22.0945 7.08127 22.3631 6.7499 22.3631C4.76168 22.3631 3.1499 20.7513 3.1499 18.7631V15.7631C3.1499 15.4317 3.41853 15.1631 3.7499 15.1631Z" fill="currentColor" />
	<path fill-rule="evenodd" clip-rule="evenodd" d="M12.1499 18.7631C12.1499 18.4317 12.4185 18.1631 12.7499 18.1631H14.2499C14.5813 18.1631 14.8499 18.4317 14.8499 18.7631C14.8499 19.0945 14.5813 19.3631 14.2499 19.3631H12.7499C12.4185 19.3631 12.1499 19.0945 12.1499 18.7631Z" fill="currentColor" />
	<path fill-rule="evenodd" clip-rule="evenodd" d="M18.1499 18.7631C18.1499 18.4317 18.4185 18.1631 18.7499 18.1631H20.2499C20.5813 18.1631 20.8499 18.4317 20.8499 18.7631C20.8499 19.0945 20.5813 19.3631 20.2499 19.3631H18.7499C18.4185 19.3631 18.1499 19.0945 18.1499 18.7631Z" fill="currentColor" />
	<path fill-rule="evenodd" clip-rule="evenodd" d="M11.2499 21.1631C11.5813 21.1631 11.8499 21.4317 11.8499 21.7631V23.2631C11.8499 23.5945 11.5813 23.8631 11.2499 23.8631C10.9185 23.8631 10.6499 23.5945 10.6499 23.2631V21.7631C10.6499 21.4317 10.9185 21.1631 11.2499 21.1631Z" fill="currentColor" />
	<path fill-rule="evenodd" clip-rule="evenodd" d="M21.7499 21.1631C22.0813 21.1631 22.3499 21.4317 22.3499 21.7631V23.2631C22.3499 23.5945 22.0813 23.8631 21.7499 23.8631C21.4185 23.8631 21.1499 23.5945 21.1499 23.2631V21.7631C21.1499 21.4317 21.4185 21.1631 21.7499 21.1631Z" fill="currentColor" />
	<path fill-rule="evenodd" clip-rule="evenodd" d="M10.6499 15.7631C10.6499 15.4317 10.9185 15.1631 11.2499 15.1631H21.7499C22.0813 15.1631 22.3499 15.4317 22.3499 15.7631C22.3499 16.0945 22.0813 16.3631 21.7499 16.3631H11.2499C10.9185 16.3631 10.6499 16.0945 10.6499 15.7631Z" fill="currentColor" />
	<path fill-rule="evenodd" clip-rule="evenodd" d="M13.6499 11.2631C13.6499 10.9317 13.9185 10.6631 14.2499 10.6631H19.1689C20.0729 10.6632 20.8755 11.2418 21.1612 12.0995L22.2936 15.4969L23.5007 17.3046C23.7285 17.6498 23.8493 18.0546 23.8479 18.4681L23.8479 18.4694L23.2479 18.4671H23.8479V18.4681V20.2671C23.8479 21.4269 22.9077 22.3671 21.7479 22.3671H11.2479C10.0881 22.3671 9.1479 21.4269 9.1479 20.2671V18.4671C9.14795 18.0525 9.2707 17.6472 9.5007 17.3022L10.7062 15.4969L10.6807 15.5733L11.2499 15.7631L10.7509 15.4299L10.7062 15.4969L11.1807 14.0733C11.2855 13.759 11.6253 13.5891 11.9396 13.6939C12.254 13.7987 12.4239 14.1385 12.3191 14.4528L11.8191 15.9528C11.8022 16.0036 11.7786 16.0518 11.7489 16.0963L10.4991 17.968C10.4006 18.1157 10.3479 18.2895 10.3479 18.4671V20.2671C10.3479 20.7641 10.7508 21.1671 11.2479 21.1671H21.7479C22.245 21.1671 22.6479 20.7641 22.6479 20.2671V18.4671L22.6479 18.4647C22.6486 18.2878 22.5971 18.1146 22.4999 17.9668L22.5009 17.9683L22.9999 17.6351L22.4991 17.9655L21.2509 16.0963C21.2212 16.0518 21.1976 16.0036 21.1807 15.9528L20.0227 12.4788C19.9003 12.1113 19.5563 11.8631 19.1689 11.8631H14.2499C13.9185 11.8631 13.6499 11.5945 13.6499 11.2631Z" fill="currentColor" />
</svg>
