<svg viewBox="0 0 24 24" fill="none" xmlns="http://www.w3.org/2000/svg">
	<path fill-rule="evenodd" clip-rule="evenodd" d="M11.9883 0.0755376C12.209 0.0654057 12.4125 0.194567 12.4972 0.398633L13.8462 3.64696L17.8176 2.41066C18.0453 2.33978 18.2921 2.43126 18.4186 2.6334C18.5451 2.83555 18.5195 3.09757 18.3563 3.27138L15.1139 6.72298C18.0744 7.6401 20.2528 10.1847 20.2528 13.3712V19.6315C20.2957 19.6973 20.3503 19.7836 20.4115 19.8869C20.555 20.1291 20.7386 20.4708 20.8947 20.8649C21.1925 21.6164 21.4567 22.7271 20.8988 23.6678C20.8043 23.8272 20.6326 23.925 20.4473 23.925H3.55319C3.3679 23.925 3.19632 23.8273 3.10174 23.668C2.54336 22.7273 2.80741 21.6165 3.1051 20.8649C3.26118 20.4709 3.44477 20.1291 3.58821 19.887C3.64944 19.7836 3.70402 19.6973 3.747 19.6315V13.3712C3.747 10.5347 5.51597 8.1984 7.9835 7.0756L5.41177 2.76892C5.30051 2.58261 5.31535 2.34705 5.4491 2.17617C5.58285 2.00529 5.80796 1.93431 6.01554 1.99756L9.4095 3.0317C9.68686 3.11622 9.8432 3.40957 9.75868 3.68693C9.67417 3.96429 9.38082 4.12063 9.10346 4.03611L7.01064 3.39842L9.19849 7.06226C9.34715 7.3112 9.26585 7.63352 9.01691 7.78218C8.97833 7.80521 8.93798 7.82273 8.8968 7.83495C6.49414 8.7174 4.797 10.8334 4.797 13.3712V19.7926C4.797 19.903 4.76223 20.0105 4.69762 20.1L4.69747 20.1002L4.69579 20.1026C4.69444 20.1045 4.69245 20.1073 4.68986 20.111C4.68863 20.1128 4.68726 20.1147 4.68577 20.1169C4.67646 20.1303 4.6621 20.1513 4.64363 20.1791C4.60664 20.2348 4.55346 20.3177 4.49161 20.4221C4.3672 20.6321 4.2114 20.9232 4.08131 21.2516C3.85151 21.8318 3.74723 22.4116 3.89116 22.875H20.1091C20.2528 22.4116 20.1484 21.8318 19.9185 21.2516C19.7884 20.9232 19.6326 20.6321 19.5082 20.4221C19.4463 20.3177 19.3931 20.2348 19.3561 20.1791C19.3377 20.1513 19.3233 20.1303 19.314 20.1169C19.3117 20.1136 19.3097 20.1108 19.3081 20.1084C19.3063 20.106 19.305 20.104 19.304 20.1026L19.3023 20.1002C19.2376 20.0107 19.2028 19.9031 19.2028 19.7926V13.3712C19.2028 10.0261 16.3066 7.405 12.6597 7.405C12.6409 7.405 12.6222 7.40401 12.6039 7.40207L11.5308 7.405C11.2409 7.40579 11.0052 7.17138 11.0044 6.88144C11.0036 6.59149 11.238 6.3558 11.5279 6.355L14.0254 6.34818L16.2256 4.00594L13.7011 4.79184C13.442 4.87248 13.1642 4.74247 13.0602 4.49192L12.083 2.13896L11.1482 5.14105C11.062 5.41789 10.7677 5.57243 10.4908 5.48622C10.214 5.40002 10.0595 5.10572 10.1457 4.82888L11.5111 0.443897C11.5768 0.232926 11.7676 0.0856694 11.9883 0.0755376ZM12.4937 12.2953C12.5616 12.0134 12.8452 11.8399 13.1271 11.9078C15.1994 12.407 16.6231 14.3313 16.3086 16.4374C15.9725 18.6904 13.7893 20.2122 11.4756 19.9022C9.15844 19.5928 7.49754 17.5459 7.83553 15.286L7.83557 15.2858C7.93453 14.6264 8.19354 14.0273 8.5679 13.519L8.3912 13.391C8.22698 13.272 8.14594 13.0692 8.183 12.8698C8.22006 12.6705 8.36861 12.5103 8.5646 12.4583L9.97863 12.0834C10.1369 12.0414 10.3057 12.0757 10.435 12.1761C10.5644 12.2764 10.6395 12.4314 10.6382 12.5951L10.6267 13.986C10.6251 14.1825 10.5139 14.3616 10.3385 14.4502C10.1631 14.5389 9.95295 14.5221 9.7938 14.4068L9.41828 14.1349C9.13777 14.5136 8.94669 14.9569 8.87394 15.4416C8.63049 17.0705 9.8262 18.6227 11.6146 18.8615L11.6148 18.8615C13.411 19.1023 15.026 17.9183 15.2701 16.2825L15.2701 16.2824C15.4971 14.7622 14.4729 13.312 12.8812 12.9287C12.5993 12.8608 12.4258 12.5772 12.4937 12.2953Z" fill="currentColor" />
</svg>
