<svg viewBox="0 0 24 24" fill="none" xmlns="http://www.w3.org/2000/svg">
	<path fill-rule="evenodd" clip-rule="evenodd" d="M16.8251 6.33876C17.0595 6.10445 17.4394 6.10445 17.6737 6.33876L19.4994 8.1645L21.3251 6.33876C21.5595 6.10445 21.9394 6.10445 22.1737 6.33876C22.408 6.57308 22.408 6.95297 22.1737 7.18729L19.9237 9.43729C19.6894 9.6716 19.3095 9.6716 19.0751 9.43729L16.8251 7.18729C16.5908 6.95297 16.5908 6.57308 16.8251 6.33876Z" fill="currentColor" />
	<path fill-rule="evenodd" clip-rule="evenodd" d="M13.6494 3.01302C13.6494 2.68165 13.918 2.41302 14.2494 2.41302H16.4994C18.4876 2.41302 20.0994 4.0248 20.0994 6.01302V9.01303C20.0994 9.3444 19.8308 9.61302 19.4994 9.61302C19.168 9.61302 18.8994 9.3444 18.8994 9.01303V6.01302C18.8994 4.68754 17.8249 3.61302 16.4994 3.61302H14.2494C13.918 3.61302 13.6494 3.3444 13.6494 3.01302Z" fill="currentColor" />
	<path fill-rule="evenodd" clip-rule="evenodd" d="M4.07515 14.5888C4.30946 14.3544 4.68936 14.3544 4.92368 14.5888L7.17368 16.8388C7.40799 17.0731 7.40799 17.453 7.17368 17.6873C6.93936 17.9216 6.55946 17.9216 6.32515 17.6873L4.49941 15.8616L2.67368 17.6873C2.43936 17.9216 2.05946 17.9216 1.82515 17.6873C1.59084 17.453 1.59084 17.0731 1.82515 16.8388L4.07515 14.5888Z" fill="currentColor" />
	<path fill-rule="evenodd" clip-rule="evenodd" d="M4.49941 14.413C4.83078 14.413 5.09941 14.6817 5.09941 15.013V18.013C5.09941 19.3385 6.17393 20.413 7.49941 20.413H9.74941C10.0808 20.413 10.3494 20.6817 10.3494 21.013C10.3494 21.3444 10.0808 21.613 9.74941 21.613H7.49941C5.51119 21.613 3.89941 20.0013 3.89941 18.013V15.013C3.89941 14.6817 4.16804 14.413 4.49941 14.413Z" fill="currentColor" />
	<path fill-rule="evenodd" clip-rule="evenodd" d="M12.8994 13.013C12.8994 12.1294 13.6158 11.413 14.4994 11.413H22.2494C23.1331 11.413 23.8494 12.1294 23.8494 13.013V20.763C23.8494 21.6467 23.1331 22.363 22.2494 22.363H14.4994C13.6158 22.363 12.8994 21.6467 12.8994 20.763V13.013ZM14.4994 12.613C14.2785 12.613 14.0994 12.7921 14.0994 13.013V20.763C14.0994 20.9839 14.2785 21.163 14.4994 21.163H22.2494C22.4703 21.163 22.6494 20.9839 22.6494 20.763V13.013C22.6494 12.7921 22.4703 12.613 22.2494 12.613H14.4994Z" fill="currentColor" />
	<path fill-rule="evenodd" clip-rule="evenodd" d="M14.9994 21.163C15.3308 21.163 15.5994 21.4317 15.5994 21.763V23.263C15.5994 23.5944 15.3308 23.863 14.9994 23.863C14.668 23.863 14.3994 23.5944 14.3994 23.263V21.763C14.3994 21.4317 14.668 21.163 14.9994 21.163Z" fill="currentColor" />
	<path fill-rule="evenodd" clip-rule="evenodd" d="M21.7494 21.163C22.0808 21.163 22.3494 21.4317 22.3494 21.763V23.263C22.3494 23.5944 22.0808 23.863 21.7494 23.863C21.418 23.863 21.1494 23.5944 21.1494 23.263V21.763C21.1494 21.4317 21.418 21.163 21.7494 21.163Z" fill="currentColor" />
	<path fill-rule="evenodd" clip-rule="evenodd" d="M12.8994 16.513C12.8994 16.1817 13.168 15.913 13.4994 15.913H23.2494C23.5808 15.913 23.8494 16.1817 23.8494 16.513C23.8494 16.8444 23.5808 17.113 23.2494 17.113H13.4994C13.168 17.113 12.8994 16.8444 12.8994 16.513Z" fill="currentColor" />
	<path fill-rule="evenodd" clip-rule="evenodd" d="M15.5244 18.763C15.5244 18.4317 15.793 18.163 16.1244 18.163C16.6629 18.163 17.0994 18.5995 17.0994 19.138C17.0994 19.4694 16.8308 19.738 16.4994 19.738C16.2356 19.738 16.0116 19.5678 15.9312 19.3312C15.6946 19.2508 15.5244 19.0268 15.5244 18.763Z" fill="currentColor" />
	<path fill-rule="evenodd" clip-rule="evenodd" d="M16.3176 19.3312C16.5542 19.2508 16.7244 19.0268 16.7244 18.763C16.7244 18.4317 16.4558 18.163 16.1244 18.163C15.5859 18.163 15.1494 18.5995 15.1494 19.138C15.1494 19.4694 15.418 19.738 15.7494 19.738C16.0132 19.738 16.2372 19.5678 16.3176 19.3312Z" fill="currentColor" />
	<path fill-rule="evenodd" clip-rule="evenodd" d="M16.3176 18.9448C16.2372 18.7082 16.0132 18.538 15.7494 18.538C15.418 18.538 15.1494 18.8067 15.1494 19.138C15.1494 19.6765 15.5859 20.113 16.1244 20.113C16.4558 20.113 16.7244 19.8444 16.7244 19.513C16.7244 19.2493 16.5542 19.0252 16.3176 18.9448Z" fill="currentColor" />
	<path fill-rule="evenodd" clip-rule="evenodd" d="M16.4994 18.538C16.8308 18.538 17.0994 18.8067 17.0994 19.138C17.0994 19.6765 16.6629 20.113 16.1244 20.113C15.793 20.113 15.5244 19.8444 15.5244 19.513C15.5244 19.2493 15.6946 19.0252 15.9312 18.9448C16.0116 18.7082 16.2356 18.538 16.4994 18.538Z" fill="currentColor" />
	<path fill-rule="evenodd" clip-rule="evenodd" d="M20.0244 18.763C20.0244 18.4317 20.293 18.163 20.6244 18.163C21.1629 18.163 21.5994 18.5995 21.5994 19.138C21.5994 19.4694 21.3308 19.738 20.9994 19.738C20.7356 19.738 20.5116 19.5678 20.4312 19.3312C20.1946 19.2508 20.0244 19.0268 20.0244 18.763Z" fill="currentColor" />
	<path fill-rule="evenodd" clip-rule="evenodd" d="M20.8176 19.3312C21.0542 19.2508 21.2244 19.0268 21.2244 18.763C21.2244 18.4317 20.9558 18.163 20.6244 18.163C20.0859 18.163 19.6494 18.5995 19.6494 19.138C19.6494 19.4694 19.918 19.738 20.2494 19.738C20.5132 19.738 20.7372 19.5678 20.8176 19.3312Z" fill="currentColor" />
	<path fill-rule="evenodd" clip-rule="evenodd" d="M20.8176 18.9448C20.7372 18.7082 20.5132 18.538 20.2494 18.538C19.918 18.538 19.6494 18.8067 19.6494 19.138C19.6494 19.6765 20.0859 20.113 20.6244 20.113C20.9558 20.113 21.2244 19.8444 21.2244 19.513C21.2244 19.2493 21.0542 19.0252 20.8176 18.9448Z" fill="currentColor" />
	<path fill-rule="evenodd" clip-rule="evenodd" d="M20.9994 18.538C21.3308 18.538 21.5994 18.8067 21.5994 19.138C21.5994 19.6765 21.1629 20.113 20.6244 20.113C20.293 20.113 20.0244 19.8444 20.0244 19.513C20.0244 19.2493 20.1946 19.0252 20.4312 18.9448C20.5116 18.7082 20.7356 18.538 20.9994 18.538Z" fill="currentColor" />
	<path fill-rule="evenodd" clip-rule="evenodd" d="M0.149414 1.76302C0.149414 0.879369 0.865759 0.163025 1.74941 0.163025H9.49941C10.3831 0.163025 11.0994 0.879369 11.0994 1.76302V9.51303C11.0994 10.3967 10.3831 11.113 9.49941 11.113H1.74941C0.865758 11.113 0.149414 10.3967 0.149414 9.51303V1.76302ZM1.74941 1.36302C1.5285 1.36302 1.34941 1.54211 1.34941 1.76302V9.51303C1.34941 9.73394 1.5285 9.91302 1.74941 9.91302H9.49941C9.72033 9.91302 9.89941 9.73394 9.89941 9.51303V1.76302C9.89941 1.54211 9.72033 1.36302 9.49941 1.36302H1.74941Z" fill="currentColor" />
	<path fill-rule="evenodd" clip-rule="evenodd" d="M2.24941 9.91302C2.58078 9.91302 2.84941 10.1817 2.84941 10.513V12.013C2.84941 12.3444 2.58078 12.613 2.24941 12.613C1.91804 12.613 1.64941 12.3444 1.64941 12.013V10.513C1.64941 10.1817 1.91804 9.91302 2.24941 9.91302Z" fill="currentColor" />
	<path fill-rule="evenodd" clip-rule="evenodd" d="M8.99941 9.91302C9.33079 9.91302 9.59941 10.1817 9.59941 10.513V12.013C9.59941 12.3444 9.33079 12.613 8.99941 12.613C8.66804 12.613 8.39941 12.3444 8.39941 12.013V10.513C8.39941 10.1817 8.66804 9.91302 8.99941 9.91302Z" fill="currentColor" />
	<path fill-rule="evenodd" clip-rule="evenodd" d="M0.149414 5.26302C0.149414 4.93165 0.418043 4.66302 0.749414 4.66302H10.4994C10.8308 4.66302 11.0994 4.93165 11.0994 5.26302C11.0994 5.5944 10.8308 5.86302 10.4994 5.86302H0.749414C0.418043 5.86302 0.149414 5.5944 0.149414 5.26302Z" fill="currentColor" />
	<path fill-rule="evenodd" clip-rule="evenodd" d="M2.77441 7.51302C2.77441 7.18165 3.04304 6.91302 3.37441 6.91302C3.91289 6.91302 4.34941 7.34955 4.34941 7.88802C4.34941 8.2194 4.08078 8.48802 3.74941 8.48802C3.48564 8.48802 3.26162 8.31781 3.1812 8.08124C2.94462 8.00082 2.77441 7.7768 2.77441 7.51302Z" fill="currentColor" />
	<path fill-rule="evenodd" clip-rule="evenodd" d="M3.56763 8.08124C3.8042 8.00082 3.97441 7.7768 3.97441 7.51302C3.97441 7.18165 3.70578 6.91302 3.37441 6.91302C2.83594 6.91302 2.39941 7.34955 2.39941 7.88802C2.39941 8.2194 2.66804 8.48802 2.99941 8.48802C3.26319 8.48802 3.48721 8.31781 3.56763 8.08124Z" fill="currentColor" />
	<path fill-rule="evenodd" clip-rule="evenodd" d="M3.56763 7.69481C3.48721 7.45824 3.26319 7.28802 2.99941 7.28802C2.66804 7.28802 2.39941 7.55665 2.39941 7.88802C2.39941 8.4265 2.83594 8.86302 3.37441 8.86302C3.70578 8.86302 3.97441 8.5944 3.97441 8.26303C3.97441 7.99925 3.8042 7.77523 3.56763 7.69481Z" fill="currentColor" />
	<path fill-rule="evenodd" clip-rule="evenodd" d="M3.74941 7.28802C4.08078 7.28802 4.34941 7.55665 4.34941 7.88802C4.34941 8.4265 3.91289 8.86302 3.37441 8.86302C3.04304 8.86302 2.77441 8.5944 2.77441 8.26303C2.77441 7.99925 2.94462 7.77523 3.1812 7.69481C3.26162 7.45824 3.48564 7.28802 3.74941 7.28802Z" fill="currentColor" />
	<path fill-rule="evenodd" clip-rule="evenodd" d="M7.27441 7.51302C7.27441 7.18165 7.54304 6.91302 7.87441 6.91302C8.41289 6.91302 8.84941 7.34955 8.84941 7.88802C8.84941 8.2194 8.58079 8.48802 8.24941 8.48802C7.98564 8.48802 7.76162 8.31781 7.6812 8.08124C7.44462 8.00082 7.27441 7.7768 7.27441 7.51302Z" fill="currentColor" />
	<path fill-rule="evenodd" clip-rule="evenodd" d="M8.06763 8.08124C8.3042 8.00082 8.47441 7.7768 8.47441 7.51302C8.47441 7.18165 8.20578 6.91302 7.87441 6.91302C7.33594 6.91302 6.89941 7.34955 6.89941 7.88802C6.89941 8.2194 7.16804 8.48802 7.49941 8.48802C7.76319 8.48802 7.98721 8.31781 8.06763 8.08124Z" fill="currentColor" />
	<path fill-rule="evenodd" clip-rule="evenodd" d="M8.06763 7.69481C7.98721 7.45824 7.76319 7.28802 7.49941 7.28802C7.16804 7.28802 6.89941 7.55665 6.89941 7.88802C6.89941 8.4265 7.33594 8.86302 7.87441 8.86302C8.20578 8.86302 8.47441 8.5944 8.47441 8.26303C8.47441 7.99925 8.3042 7.77523 8.06763 7.69481Z" fill="currentColor" />
	<path fill-rule="evenodd" clip-rule="evenodd" d="M8.24941 7.28802C8.58079 7.28802 8.84941 7.55665 8.84941 7.88802C8.84941 8.4265 8.41289 8.86302 7.87441 8.86302C7.54304 8.86302 7.27441 8.5944 7.27441 8.26303C7.27441 7.99925 7.44462 7.77523 7.6812 7.69481C7.76162 7.45824 7.98564 7.28802 8.24941 7.28802Z" fill="currentColor" />
</svg>
