<svg viewBox="0 0 24 24" fill="none" xmlns="http://www.w3.org/2000/svg">
	<path fill-rule="evenodd" clip-rule="evenodd" d="M16.6499 21.713C16.6499 20.5532 17.5901 19.613 18.7499 19.613C19.9097 19.613 20.8499 20.5532 20.8499 21.713C20.8499 22.8728 19.9097 23.813 18.7499 23.813C17.5901 23.813 16.6499 22.8728 16.6499 21.713ZM18.7499 20.813C18.2528 20.813 17.8499 21.2159 17.8499 21.713C17.8499 22.21 18.2528 22.613 18.7499 22.613C19.247 22.613 19.6499 22.21 19.6499 21.713C19.6499 21.2159 19.247 20.813 18.7499 20.813Z" fill="currentColor" />
	<path fill-rule="evenodd" clip-rule="evenodd" d="M3.1499 21.713C3.1499 20.5532 4.0901 19.613 5.2499 19.613C6.4097 19.613 7.3499 20.5532 7.3499 21.713C7.3499 22.8728 6.4097 23.813 5.2499 23.813C4.0901 23.813 3.1499 22.8728 3.1499 21.713ZM5.2499 20.813C4.75285 20.813 4.3499 21.2159 4.3499 21.713C4.3499 22.21 4.75285 22.613 5.2499 22.613C5.74696 22.613 6.1499 22.21 6.1499 21.713C6.1499 21.2159 5.74696 20.813 5.2499 20.813Z" fill="currentColor" />
	<path fill-rule="evenodd" clip-rule="evenodd" d="M18.7279 10.613C19.4062 10.6128 20.0428 10.9403 20.4371 11.4922L23.4592 15.7232C23.7133 16.0794 23.8501 16.5064 23.8499 16.944C23.8499 16.9439 23.8499 16.9441 23.8499 16.944V20.213C23.8499 21.3728 22.9097 22.313 21.7499 22.313H20.2499C19.9185 22.313 19.6499 22.0443 19.6499 21.713C19.6499 21.3816 19.9185 21.113 20.2499 21.113H21.7499C22.247 21.113 22.6499 20.71 22.6499 20.213V16.944C22.65 16.7565 22.5915 16.5734 22.4827 16.4207M22.4827 16.4207L19.4607 12.1898C19.4607 12.1898 19.4607 12.1898 19.4607 12.1898C19.2917 11.9533 19.0188 11.8129 18.7281 11.813H15.7499C15.2528 11.813 14.8499 12.2159 14.8499 12.713V21.713C14.8499 22.0443 14.5813 22.313 14.2499 22.313C13.9185 22.313 13.6499 22.0443 13.6499 21.713V12.713C13.6499 11.5532 14.5901 10.613 15.7499 10.613H18.7279C18.7278 10.613 18.728 10.613 18.7279 10.613" fill="currentColor" />
	<path fill-rule="evenodd" clip-rule="evenodd" d="M13.6499 17.213C13.6499 16.8816 13.9185 16.613 14.2499 16.613H23.2499C23.5813 16.613 23.8499 16.8816 23.8499 17.213C23.8499 17.5443 23.5813 17.813 23.2499 17.813H14.2499C13.9185 17.813 13.6499 17.5443 13.6499 17.213Z" fill="currentColor" />
	<path fill-rule="evenodd" clip-rule="evenodd" d="M0.149902 12.713C0.149902 11.5532 1.0901 10.613 2.2499 10.613H9.7499C10.9097 10.613 11.8499 11.5532 11.8499 12.713V21.713C11.8499 22.0443 11.5813 22.313 11.2499 22.313C10.9185 22.313 10.6499 22.0443 10.6499 21.713V12.713C10.6499 12.2159 10.247 11.813 9.7499 11.813H2.2499C1.75285 11.813 1.3499 12.2159 1.3499 12.713V20.213C1.3499 20.71 1.75285 21.113 2.2499 21.113H3.7499C4.08127 21.113 4.3499 21.3816 4.3499 21.713C4.3499 22.0443 4.08127 22.313 3.7499 22.313H2.2499C1.0901 22.313 0.149902 21.3728 0.149902 20.213V12.713Z" fill="currentColor" />
	<path fill-rule="evenodd" clip-rule="evenodd" d="M6.1499 21.713C6.1499 21.3816 6.41853 21.113 6.7499 21.113H17.2499C17.5813 21.113 17.8499 21.3816 17.8499 21.713C17.8499 22.0443 17.5813 22.313 17.2499 22.313H6.7499C6.41853 22.313 6.1499 22.0443 6.1499 21.713Z" fill="currentColor" />
	<path fill-rule="evenodd" clip-rule="evenodd" d="M10.6499 14.213C10.6499 13.8816 10.9185 13.613 11.2499 13.613H14.2499C14.5813 13.613 14.8499 13.8816 14.8499 14.213C14.8499 14.5443 14.5813 14.813 14.2499 14.813H11.2499C10.9185 14.813 10.6499 14.5443 10.6499 14.213Z" fill="currentColor" />
	<path fill-rule="evenodd" clip-rule="evenodd" d="M23.7871 0.49567C23.9347 0.792339 23.8139 1.15251 23.5172 1.30014L2.51721 11.7501C2.22054 11.8978 1.86036 11.7769 1.71274 11.4803C1.56511 11.1836 1.68593 10.8234 1.9826 10.6758L22.9826 0.225807C23.2793 0.078179 23.6394 0.199001 23.7871 0.49567Z" fill="currentColor" />
</svg>
