<svg viewBox="0 0 24 24" fill="none" xmlns="http://www.w3.org/2000/svg">
	<path fill-rule="evenodd" clip-rule="evenodd" d="M12.9883 0.496633L22.7383 5.69661C23.4226 6.0617 23.8501 6.77435 23.8499 7.55002V21.65C23.8499 22.8098 22.9097 23.75 21.7499 23.75H17.9999C17.6685 23.75 17.3999 23.4814 17.3999 23.15C17.3999 22.8186 17.6685 22.55 17.9999 22.55H21.7499C22.247 22.55 22.6499 22.1471 22.6499 21.65V7.55002C22.65 7.21755 22.4668 6.91189 22.1735 6.75541L12.4235 1.55543C12.1588 1.41421 11.841 1.41418 11.5763 1.55541L1.8263 6.75541C1.53299 6.9119 1.34978 7.21736 1.3499 7.54981L1.3499 21.65C1.3499 22.1471 1.75285 22.55 2.2499 22.55H5.9999C6.33127 22.55 6.5999 22.8186 6.5999 23.15C6.5999 23.4814 6.33127 23.75 5.9999 23.75H2.2499C1.0901 23.75 0.149902 22.8098 0.149902 21.65V7.55023C0.149705 6.77456 0.577107 6.06172 1.2615 5.69663L11.0115 0.496633C11.6292 0.167138 12.3706 0.167138 12.9883 0.496633ZM11.7316 6.11336C11.9005 6.0289 12.0993 6.0289 12.2682 6.11336L14.002 6.98027C15.6591 7.80796 17.5575 8.01643 19.3546 7.56788C19.5462 7.52006 19.749 7.56957 19.8971 7.70027C20.0451 7.83098 20.1193 8.02614 20.0955 8.22217C19.8938 9.888 19.3578 11.496 18.5197 12.9497C18.512 12.9631 18.5038 12.976 18.4952 12.9886C18.2028 14.3812 17.2226 15.2044 16.0463 15.6624C14.8286 16.1365 13.341 16.25 11.9999 16.25C10.6588 16.25 9.17119 16.1365 7.95347 15.6624C6.77716 15.2044 5.797 14.3812 5.50459 12.9887C5.49591 12.976 5.48768 12.9629 5.47993 12.9494C4.64283 11.4955 4.10697 9.88791 3.9043 8.2225C3.88043 8.02643 3.9546 7.83117 4.10263 7.70038C4.25065 7.5696 4.45356 7.52005 4.6452 7.56788C6.44231 8.01643 8.34056 7.80806 9.99757 6.98036L11.7316 6.11336ZM6.35283 12.05H17.6472C18.1771 11.0625 18.5562 10.0022 18.7728 8.90448C16.9655 9.16916 15.1125 8.87637 13.4658 8.05377L11.9999 7.32084L10.5342 8.05368C8.88768 8.8762 7.0346 9.16911 5.22742 8.90454C5.44446 10.0021 5.82349 11.0623 6.35283 12.05ZM6.84736 13.25C7.1298 13.8524 7.66179 14.2611 8.38883 14.5441C9.39161 14.9346 10.695 15.05 11.9999 15.05C13.3048 15.05 14.6082 14.9346 15.611 14.5441C16.338 14.2611 16.87 13.8524 17.1524 13.25H6.84736ZM11.9999 9.05002C12.2585 9.04975 12.5067 9.15238 12.6896 9.3353C12.8725 9.51822 12.9752 9.76637 12.9749 10.025M11.9999 9.05002C11.4614 9.05002 11.0249 9.48654 11.0249 10.025C11.0249 10.5635 11.4614 11 11.9999 11C12.5381 11 12.9745 10.5631 12.9749 10.025M6.72008 16.5562C7.04804 16.5088 7.35233 16.7362 7.39973 17.0642C7.7304 19.3521 9.69123 21.0499 12.0029 21.0499C14.3146 21.0499 16.2754 19.3521 16.6061 17.0642C16.6535 16.7362 16.9578 16.5088 17.2857 16.5562C17.6137 16.6036 17.8411 16.9079 17.7937 17.2358C17.3777 20.114 14.911 22.2499 12.0029 22.2499C9.09479 22.2499 6.62806 20.114 6.21207 17.2358C6.16467 16.9079 6.39211 16.6036 6.72008 16.5562Z" fill="currentColor" />
</svg>
