<svg viewBox="0 0 24 24" fill="none" xmlns="http://www.w3.org/2000/svg">
	<g>
		<path fill-rule="evenodd" clip-rule="evenodd" d="M22.2379 1.57047C22.2379 1.57048 22.238 1.57046 22.2379 1.57047L2.17171 8.11489C2.17103 8.11512 2.17034 8.11535 2.16965 8.11558C1.99078 8.17605 1.83585 8.29202 1.72743 8.44665C1.6186 8.60188 1.56236 8.78789 1.56696 8.97741C1.57156 9.16693 1.63677 9.34999 1.75301 9.49975C1.86714 9.64679 2.02457 9.75412 2.20294 9.80669L11.5119 12.0396C11.7312 12.0922 11.9025 12.2633 11.9553 12.4826L14.1984 21.8017C14.2505 21.9807 14.3577 22.1387 14.5049 22.2533C14.6546 22.3699 14.8377 22.4353 15.0274 22.44C15.217 22.4446 15.4031 22.3883 15.5584 22.2793C15.7132 22.1706 15.8291 22.0152 15.8892 21.8359C15.8894 21.8354 15.8896 21.8349 15.8897 21.8343L22.4285 1.76008C22.4284 1.76038 22.4286 1.75978 22.4285 1.76008C22.4368 1.73385 22.4379 1.70498 22.4314 1.67828C22.4249 1.65127 22.4109 1.62659 22.3912 1.60698C22.3715 1.58737 22.3468 1.57359 22.3197 1.56715C22.2927 1.56071 22.2643 1.56188 22.2379 1.57047ZM21.866 0.429562C22.1025 0.352461 22.3557 0.342161 22.5977 0.399799C22.8397 0.457436 23.0611 0.580773 23.2375 0.756213C23.4139 0.931651 23.5384 1.15238 23.5973 1.39408C23.6562 1.63577 23.6472 1.88904 23.5714 2.12596L23.5705 2.12885L17.0295 22.2098L17.0282 22.2137C16.887 22.6374 16.6135 23.0046 16.248 23.2613C15.8825 23.518 15.4443 23.6506 14.9978 23.6396C14.5513 23.6286 14.1201 23.4746 13.7677 23.2002C13.4153 22.9258 13.1602 22.5456 13.0401 22.1154C13.0381 22.1085 13.0363 22.1015 13.0346 22.0944L10.8746 13.1207L1.91002 10.9705C1.90233 10.9686 1.89468 10.9666 1.88707 10.9645C1.45777 10.8434 1.07857 10.5879 0.805063 10.2355C0.53156 9.88319 0.378145 9.45247 0.367315 9.00655C0.356485 8.56063 0.488809 8.12297 0.744884 7.75774C1.00096 7.39252 1.36731 7.11895 1.79022 6.97714L1.79492 6.97557L21.866 0.429562Z" fill="currentColor" />
		<path fill-rule="evenodd" clip-rule="evenodd" d="M23.2392 0.755753C23.4735 0.990068 23.4735 1.36997 23.2392 1.60428L11.7962 13.0473C11.5619 13.2816 11.182 13.2816 10.9477 13.0473C10.7134 12.813 10.7134 12.4331 10.9477 12.1988L22.3907 0.755753C22.625 0.521439 23.0049 0.521439 23.2392 0.755753Z" fill="currentColor" />
	</g>
	<defs>
		<clipPath id="clip0_365_4442">
			<rect fill="white" />
		</clipPath>
	</defs>
</svg>
