<svg viewBox="0 0 24 24" fill="none" xmlns="http://www.w3.org/2000/svg">
	<path fill-rule="evenodd" clip-rule="evenodd" d="M0.149902 12.0001C0.149902 5.45557 5.45533 0.150146 11.9999 0.150146C18.5445 0.150146 23.8499 5.45557 23.8499 12.0001C23.8499 18.5447 18.5445 23.8501 11.9999 23.8501C5.45533 23.8501 0.149902 18.5447 0.149902 12.0001ZM11.9999 1.35015C6.11807 1.35015 1.3499 6.11831 1.3499 12.0001C1.3499 17.882 6.11807 22.6501 11.9999 22.6501C17.8817 22.6501 22.6499 17.882 22.6499 12.0001C22.6499 6.11831 17.8817 1.35015 11.9999 1.35015Z" fill="currentColor" />
	<path fill-rule="evenodd" clip-rule="evenodd" d="M8.2499 8.02515C7.71142 8.02515 7.2749 8.46167 7.2749 9.00015C7.2749 9.53862 7.71142 9.97515 8.2499 9.97515C8.78838 9.97515 9.2249 9.53862 9.2249 9.00015C9.2249 8.46167 8.78838 8.02515 8.2499 8.02515Z" fill="currentColor" />
	<path fill-rule="evenodd" clip-rule="evenodd" d="M15.7499 8.02515C15.2114 8.02515 14.7749 8.46167 14.7749 9.00015C14.7749 9.53862 15.2114 9.97515 15.7499 9.97515C16.2884 9.97515 16.7249 9.53862 16.7249 9.00015C16.7249 8.46167 16.2884 8.02515 15.7499 8.02515Z" fill="currentColor" />
	<path fill-rule="evenodd" clip-rule="evenodd" d="M5.68151 14.4625C5.97843 14.3154 6.33839 14.4368 6.48552 14.7338C7.52365 16.8288 9.65972 18.1543 11.9979 18.1543C14.3361 18.1543 16.4721 16.8288 17.5103 14.7338C17.6574 14.4368 18.0174 14.3154 18.3143 14.4625C18.6112 14.6097 18.7326 14.9696 18.5855 15.2665C17.3449 17.7703 14.7922 19.3543 11.9979 19.3543C9.20364 19.3543 6.65092 17.7703 5.41028 15.2665C5.26316 14.9696 5.38459 14.6097 5.68151 14.4625Z" fill="currentColor" />
</svg>
