<svg viewBox="0 0 24 24" fill="none" xmlns="http://www.w3.org/2000/svg">
	<path fill-rule="evenodd" clip-rule="evenodd" d="M20.6464 11.3293C21.9244 10.9346 23.2915 11.6287 23.7219 12.9036C24.1592 14.1992 23.4634 15.6041 22.1678 16.0414L19.9454 16.7882L18.0528 21.6602C17.9074 22.0326 17.6046 22.3216 17.2258 22.4495L15.8647 22.9065C15.4211 23.056 14.9315 22.965 14.5714 22.6659C14.2114 22.3668 14.0322 21.9025 14.0978 21.439L14.493 18.6207L12.7973 19.1903C11.9998 19.4599 11.1178 19.2275 10.5573 18.5995L7 14.4999L10.7832 13.2452L11.6998 14.3312M20.9139 12.5019L12.082 15.4687C11.8669 15.541 11.6295 15.4857 11.4684 15.326L10.5403 14.4057L9.12518 14.8817C9.07763 14.8976 9.04055 14.9366 9.02773 14.9851C9.01491 15.0336 9.02734 15.0853 9.0608 15.1226L11.4524 17.8003C11.6927 18.0695 12.0707 18.1693 12.4125 18.0536L12.4139 18.0532L15.0309 17.1742C15.228 17.108 15.4453 17.1485 15.6052 17.2814C15.7652 17.4142 15.845 17.6204 15.8161 17.8263L15.2859 21.6073C15.2787 21.6585 15.2985 21.7098 15.3382 21.7429C15.378 21.7759 15.4321 21.786 15.4811 21.7694L16.842 21.3125C16.8844 21.2981 16.9185 21.2656 16.9349 21.224L18.9286 16.0917C18.9931 15.9257 19.128 15.7969 19.2968 15.7402L21.784 14.9045C22.4515 14.679 22.8103 13.955 22.5849 13.2874C22.3595 12.6196 21.6355 12.2611 20.9678 12.4865C20.95 12.4925 20.932 12.4976 20.9139 12.5019Z" fill="currentColor" />
	<path fill-rule="evenodd" clip-rule="evenodd" d="M15.8493 10.3429L18.6292 12.2568C18.9021 12.4447 18.971 12.8183 18.7831 13.0912C18.5952 13.3642 18.2216 13.4331 17.9487 13.2452L15.1687 11.3312C15.13 11.3045 15.0809 11.2976 15.0364 11.3126L13.6972 11.763C13.6482 11.7794 13.6111 11.82 13.5994 11.8704C13.5876 11.9208 13.6028 11.9736 13.6395 12.0101L15.1572 13.5207C15.392 13.7545 15.3929 14.1344 15.1591 14.3692C14.9254 14.6041 14.5455 14.605 14.3106 14.3712L12.7943 12.8619C12.4622 12.5321 12.3244 12.0534 12.4308 11.5976C12.5372 11.1418 12.8723 10.7738 13.316 10.6251L14.6534 10.1754C15.056 10.0398 15.4994 10.1019 15.8493 10.3429Z" fill="currentColor" />
	<path fill-rule="evenodd" clip-rule="evenodd" d="M2.2499 6.72496C1.75285 6.72496 1.3499 7.12791 1.3499 7.62496V18.125C1.3499 18.622 1.75285 19.025 2.2499 19.025H8.2499C8.58127 19.025 8.8499 19.2936 8.8499 19.625C8.8499 19.9563 8.58127 20.225 8.2499 20.225H2.2499C1.0901 20.225 0.149902 19.2848 0.149902 18.125V7.62496C0.149902 6.46517 1.0901 5.52496 2.2499 5.52496H17.2499C18.4097 5.52496 19.3499 6.46517 19.3499 7.62496V9.12496C19.3499 9.45634 19.0813 9.72496 18.7499 9.72496C18.4185 9.72496 18.1499 9.45634 18.1499 9.12496V7.62496C18.1499 7.12791 17.747 6.72496 17.2499 6.72496H2.2499Z" fill="currentColor" />
	<path fill-rule="evenodd" clip-rule="evenodd" d="M3.55266 1.96016C3.9421 1.37595 4.59774 1.02501 5.29986 1.02496H14.2011C14.9017 1.02642 15.5554 1.3771 15.944 1.95995L18.765 6.18795C18.9489 6.4636 18.8746 6.83615 18.5989 7.02007C18.3233 7.20398 17.9507 7.12962 17.7668 6.85397L14.9458 2.62597C14.7794 2.37628 14.4993 2.22577 14.1992 2.22496H5.29995C4.99907 2.225 4.71807 2.37538 4.55117 2.62573L1.73317 6.85373C1.54939 7.12947 1.17687 7.20401 0.901137 7.02023C0.625399 6.83645 0.550854 6.46393 0.734636 6.1882L3.55266 1.96016Z" fill="currentColor" />
	<path fill-rule="evenodd" clip-rule="evenodd" d="M9.7499 1.02496C10.0813 1.02496 10.3499 1.29359 10.3499 1.62496V6.12496C10.3499 6.45633 10.0813 6.72496 9.7499 6.72496C9.41853 6.72496 9.1499 6.45633 9.1499 6.12496V1.62496C9.1499 1.29359 9.41853 1.02496 9.7499 1.02496Z" fill="currentColor" />
</svg>
