<svg viewBox="0 0 24 24" fill="none" xmlns="http://www.w3.org/2000/svg">
	<path fill-rule="evenodd" clip-rule="evenodd" d="M19.6992 5.00188C17.5073 2.80983 14.0268 2.59129 11.578 4.49197L11.2101 4.01799L11.58 4.49041C11.5458 4.51721 11.5247 4.55738 11.522 4.60077C11.5194 4.64406 11.5353 4.68641 11.5659 4.71718C11.5658 4.71711 11.5659 4.71726 11.5659 4.71718L13.5144 6.66596C13.5178 6.66917 13.5211 6.67243 13.5244 6.67573L18.0244 11.1757C18.0305 11.1818 18.0365 11.188 18.0422 11.1943L19.9827 13.135C19.9827 13.135 19.9828 13.1351 19.9827 13.135C20.0135 13.1656 20.0561 13.1818 20.0994 13.1791C20.1425 13.1765 20.1824 13.1556 20.2092 13.1217C22.1091 10.6732 21.8906 7.19353 19.6992 5.00188ZM17.5997 12.4489L19.1349 13.9842C19.4087 14.2572 19.787 14.4006 20.173 14.3769C20.5589 14.3531 20.9162 14.1653 21.1546 13.8609L21.1561 13.8589C23.4279 10.9326 23.1671 6.77309 20.5477 4.1534C17.9283 1.5337 13.7688 1.27253 10.8423 3.54401L10.8403 3.54557C10.5358 3.78394 10.348 4.14125 10.3243 4.52718C10.3006 4.91311 10.4432 5.29073 10.7162 5.56458L12.2515 7.10008L6.67656 12.675C6.67611 12.6755 6.67566 12.676 6.67521 12.6764L3.67659 15.675C3.67612 15.6755 3.67565 15.676 3.67518 15.6764L2.61488 16.7367C1.79508 17.5568 1.79502 18.8861 2.61482 19.7062L4.99388 22.0853C5.81393 22.9051 7.1433 22.9051 7.96335 22.0853L17.5997 12.4489ZM13.1 7.94866L16.7513 11.6003L15.8516 12.5H8.54868L13.1 7.94866ZM7.34868 13.7L5.54868 15.5H12.8516L14.6516 13.7H7.34868ZM11.6516 16.7H4.34868L3.46348 17.5852C3.11215 17.9366 3.11213 18.5063 3.46341 18.8577M3.46341 18.8577L5.84235 21.2367C5.84233 21.2366 5.84237 21.2367 5.84235 21.2367C6.19378 21.5879 6.76345 21.588 7.11488 21.2367C7.11486 21.2367 7.1149 21.2367 7.11488 21.2367L11.6516 16.7" fill="currentColor" />
</svg>
