<svg viewBox="0 0 24 24" fill="none" xmlns="http://www.w3.org/2000/svg">
	<path fill-rule="evenodd" clip-rule="evenodd" d="M11.1892 0.149963C11.5205 0.149963 11.7892 0.418593 11.7892 0.749963V2.24996C11.7892 2.58133 11.5205 2.84996 11.1892 2.84996C10.8578 2.84996 10.5892 2.58133 10.5892 2.24996V0.749963C10.5892 0.418593 10.8578 0.149963 11.1892 0.149963Z" fill="currentColor" />
	<path fill-rule="evenodd" clip-rule="evenodd" d="M11.1892 7.64996C11.5205 7.64996 11.7892 7.91859 11.7892 8.24996V11.25C11.7892 11.5813 11.5205 11.85 11.1892 11.85C10.8578 11.85 10.5892 11.5813 10.5892 11.25V8.24996C10.5892 7.91859 10.8578 7.64996 11.1892 7.64996Z" fill="currentColor" />
	<path fill-rule="evenodd" clip-rule="evenodd" d="M11.1892 16.65C11.5205 16.65 11.7892 16.9186 11.7892 17.25V23.25C11.7892 23.5813 11.5205 23.85 11.1892 23.85C10.8578 23.85 10.5892 23.5813 10.5892 23.25V17.25C10.5892 16.9186 10.8578 16.65 11.1892 16.65Z" fill="currentColor" />
	<path fill-rule="evenodd" clip-rule="evenodd" d="M3.08917 2.24996C3.08917 1.91859 3.3578 1.64996 3.68917 1.64996H20.1892C20.3483 1.64996 20.5008 1.71314 20.6134 1.82561L23.0833 4.29456C23.3366 4.54776 23.479 4.89129 23.479 5.24946C23.479 5.60759 23.3367 5.95104 23.0834 6.20423L20.6134 8.67423C20.5009 8.78675 20.3483 8.84996 20.1892 8.84996H3.68917C3.3578 8.84996 3.08917 8.58134 3.08917 8.24996V2.24996ZM4.28917 2.84996V7.64996H19.9406L22.2349 5.3557C22.2631 5.32756 22.279 5.28926 22.279 5.24946C22.279 5.20967 22.2632 5.1715 22.235 5.14336L19.9407 2.84996H4.28917Z" fill="currentColor" />
	<path fill-rule="evenodd" clip-rule="evenodd" d="M3.26491 10.8257C3.37743 10.7132 3.53004 10.65 3.68917 10.65H20.1892C20.5205 10.65 20.7892 10.9186 20.7892 11.25V17.25C20.7892 17.5813 20.5205 17.85 20.1892 17.85H3.68917C3.53 17.85 3.37735 17.7867 3.26482 17.6741L0 14.1432M3.26491 10.8257L0.818497 13.3115L3.26491 10.8257ZM3.9377 11.85L1.64444 14.1432C1.61629 14.1714 1.60033 14.2097 1.60033 14.2495C1.60033 14.2893 1.61615 14.3274 1.6443 14.3556L3.93777 16.65H19.5892V11.85H3.9377Z" fill="currentColor" />
</svg>
