<svg viewBox="0 0 24 24" fill="none" xmlns="http://www.w3.org/2000/svg">
	<g>
		<path d="M11.4766 14.3295C10.2868 14.6571 8.99011 14.4031 8.12786 13.494C8.0276 13.367 7.96076 13.2133 7.86049 13.0863L6.14936 13.0997C6.12262 14.129 6.10926 15.3054 6.14936 16.3214L8.05433 16.308L8.08107 15.6998C8.29496 15.8 8.50885 15.927 8.72943 16.0407C10.0462 16.5954 11.744 16.7224 13.0541 16.0407C14.0032 15.5059 14.5112 14.4833 14.3708 13.3804C14.2305 12.3042 13.2145 11.3284 12.1918 11.061L9.11711 10.1586L8.88985 10.045C8.78959 9.95812 8.72275 9.84449 8.74948 9.70412C8.99011 9.28302 9.55158 9.41002 9.96599 9.42339C10.855 9.55039 11.764 9.85117 12.2854 10.68C12.8402 10.68 13.4885 10.6934 14.0968 10.6666C14.1235 9.62391 14.0834 8.71487 14.07 7.65878C13.5019 7.64541 12.8001 7.64541 12.2319 7.67215C12.2052 7.82588 12.2586 8.03978 12.1918 8.19351L11.6103 7.87936C10.2133 7.28447 8.26154 7.21763 6.99156 8.14672C6.16941 8.75498 5.91542 9.84449 6.12931 10.807C6.29641 11.7227 7.15866 12.3911 7.98081 12.712C9.11043 13.1197 10.2868 13.4071 11.4298 13.8015C11.5434 13.855 11.6972 13.9686 11.6704 14.109C11.6771 14.2159 11.5635 14.2761 11.4766 14.3295Z" fill="currentColor" />
		<path d="M23.6349 9.82444C23.4077 9.21619 22.9398 8.66809 22.365 8.28041C20.714 7.21764 18.2074 7.13743 16.5097 8.09994C15.5873 8.5812 14.9723 9.53034 14.7852 10.5062C14.4443 12.1171 14.5312 14.0288 15.7477 15.2386C17.1647 16.5086 19.2368 16.7826 21.0749 16.2679C21.1618 16.2479 21.4426 16.181 21.6297 16.0741L21.6832 16.0474C22.2513 15.8067 22.7994 15.4124 23.2072 14.8776C24.1429 13.4873 24.2031 11.3952 23.6349 9.82444ZM20.6405 13.4406C20.5803 13.748 20.3731 14.0622 20.0589 14.1758C19.551 14.4031 18.8692 14.3429 18.3946 14.0755C18.0002 13.7948 17.9534 13.3269 17.9 12.8858C17.8599 12.0102 17.7997 11.0877 18.0403 10.2856C18.2275 9.79102 18.7489 9.66403 19.2167 9.62392C19.7114 9.62392 20.1926 9.69745 20.5001 10.1052C20.6873 10.3993 20.6806 10.7803 20.714 11.1212C20.7073 11.843 20.7675 12.7053 20.6405 13.4406Z" fill="currentColor" />
		<path d="M3.67644 6.5559C3.98391 6.12811 4.3248 5.70701 4.70579 5.29928C5.03331 4.98513 5.34078 4.67766 5.69504 4.4504C6.02256 4.66429 6.39019 4.84476 6.71103 5.04528C6.31666 5.53991 5.90893 6.03453 5.62152 6.56926C5.70841 6.60937 5.87551 6.596 6.00251 6.56926C6.31667 6.10138 6.66424 5.63349 7.06529 5.21239C7.61338 5.41291 8.14143 5.63349 8.7029 5.78054L8.75637 5.83401L8.44221 6.56926C8.58258 6.596 8.66948 6.58263 8.80984 6.56926C8.92347 6.35537 9.01036 6.11474 9.13736 5.89417C9.87262 6.06127 10.648 6.14816 11.43 6.1749C11.5303 6.26179 11.4568 6.45563 11.4902 6.56926H11.8311C11.8712 6.44227 11.8177 6.3019 11.8712 6.18827C12.6064 6.14816 13.3818 6.07464 14.0903 5.89417L14.1505 5.90754L14.4913 6.56926C14.605 6.56926 14.7587 6.596 14.8456 6.54253L14.5314 5.80727L14.5582 5.78054C15.1397 5.6268 15.6878 5.39954 16.2426 5.17228C16.6369 5.59338 17.0046 6.08801 17.3321 6.56926C17.4725 6.56926 17.6128 6.58263 17.7131 6.54253C17.5594 6.26179 17.3722 5.98775 17.165 5.74043C16.9979 5.4998 16.8241 5.28591 16.6102 5.05865V4.9985L17.4992 4.47713L17.6262 4.42366C18.4016 5.01855 19.0833 5.74043 19.6314 6.54253C19.7852 6.54253 19.9122 6.596 20.0392 6.52916C18.3414 3.94241 15.5407 2.27806 12.5062 2.03743L12.4928 2.06417L12.4661 2.03743C12.1252 1.99733 11.7041 1.98396 11.3364 2.02406C11.1961 2.01069 11.029 2.02406 10.8686 2.03743C7.82728 2.27806 5.01995 3.8622 3.27539 6.56258C3.3957 6.5559 3.54944 6.60268 3.67644 6.5559ZM8.93684 5.43965L8.88337 5.45302C8.362 5.31265 7.85401 5.14555 7.37276 4.93165L7.39949 4.85813C8.09464 4.18303 8.82989 3.62825 9.64536 3.19378C9.83251 3.26731 10.0264 3.33415 10.2135 3.42104L10.1734 3.52131C9.69883 4.12956 9.31783 4.79129 8.93684 5.43965ZM11.4634 5.78054C11.1092 5.83401 10.7883 5.76717 10.4341 5.74043C10.0932 5.68696 9.65872 5.65354 9.31783 5.53991C9.68546 4.84476 10.1199 4.16967 10.6346 3.54804L11.4434 3.66167C11.4902 4.3234 11.4634 5.08539 11.4634 5.78054ZM11.8578 5.79391C11.8311 5.11881 11.8444 4.37687 11.8578 3.67504C12.1118 3.63494 12.3925 3.60151 12.6465 3.56141C13.1412 4.1964 13.6224 4.84476 13.9499 5.53991C13.2615 5.70701 12.5663 5.79391 11.8578 5.79391ZM15.9017 4.90492C15.4071 5.11881 14.8991 5.32602 14.3577 5.43965C13.9633 4.76455 13.5355 4.09614 13.0543 3.44778C13.2347 3.34752 13.4486 3.26731 13.6358 3.16705C14.4579 3.58815 15.26 4.18303 15.9284 4.86481L15.9017 4.90492ZM14.2775 2.73926C15.3402 3.02 16.3428 3.50125 17.2586 4.1563L17.2318 4.20977L16.3562 4.70439H16.2961C15.621 4.02261 14.8389 3.42104 14.0368 2.95316C14.0636 2.86626 14.1906 2.79942 14.2775 2.73926ZM13.7695 2.61226V2.639C12.6666 3.44778 10.8752 3.52799 9.7122 2.77937C9.65204 2.7259 9.52504 2.70584 9.51167 2.61226C10.8552 2.29143 12.4393 2.27137 13.7695 2.61226ZM6.03593 4.18303C6.83803 3.58815 7.72033 3.14031 8.66279 2.83953C8.7029 2.79942 8.72295 2.766 8.77642 2.766V2.79274C8.87668 2.81947 8.95689 2.70584 9.04379 2.77937C9.11731 2.83953 9.21089 2.893 9.27105 2.95984C8.48232 3.45446 7.71365 4.03598 6.99844 4.7445C6.65755 4.6175 6.33672 4.43035 6.03593 4.20977V4.18303Z" fill="currentColor" />
		<path d="M5.61466 14.2226C5.19356 14.1958 4.72567 14.2359 4.31794 14.1825L4.33131 9.73085L4.35805 9.69074L5.61466 9.67737C5.62803 8.95549 5.6414 8.18013 5.60129 7.52509L0.822147 7.51172L0.0334206 7.52509C0.0200524 8.20018 0.0200524 8.98223 0.0334206 9.67069C0.461204 9.68406 0.868936 9.67069 1.29004 9.71079V14.0221L1.27667 14.2025L0.0200524 14.2293C-0.00668412 14.9378 -0.00668412 15.6262 0.0200524 16.3214H5.61466V14.2226Z" fill="currentColor" />
		<path d="M19.6912 17.2706C19.1565 18.0459 18.4881 18.7945 17.7528 19.3761C17.7261 19.4162 17.6526 19.4028 17.6258 19.3627C17.3117 19.1622 16.9641 18.9951 16.6633 18.7945C17.071 18.2999 17.4654 17.8053 17.7662 17.2572H17.3718C17.0577 17.7251 16.7235 18.2197 16.3091 18.6408C15.7543 18.4136 15.2463 18.213 14.6714 18.0593L14.6113 18.0058C14.6982 17.7518 14.8653 17.5112 14.9188 17.2572H14.5779L14.237 17.939C13.4884 17.7719 12.6662 17.685 11.9042 17.6315C11.8641 17.5179 11.9176 17.3508 11.8641 17.2505H11.5366C11.5099 17.4043 11.5767 17.5179 11.4965 17.6449C10.7078 17.685 9.95246 17.7719 9.2172 17.9256L8.87631 17.2505C8.74932 17.2505 8.60895 17.2238 8.52206 17.2639L8.83621 18.0125L8.7961 18.0526C8.22795 18.2197 7.66649 18.4202 7.12507 18.6475L7.0716 18.6208C6.71734 18.2264 6.37645 17.7986 6.09572 17.3641C6.03556 17.1503 5.78157 17.2773 5.6412 17.2505C5.94867 17.8053 6.34972 18.2999 6.75745 18.8079C6.41656 19.0084 6.07567 19.2424 5.71473 19.4028C4.95274 18.8213 4.24422 18.0593 3.70949 17.2572C3.55575 17.2305 3.45549 17.2438 3.30176 17.2572C4.21748 18.701 5.63452 19.971 7.11839 20.7196C7.11839 20.7196 7.11839 20.7062 7.13176 20.7062C7.14513 20.7062 7.17186 20.7329 7.14513 20.7463C8.14774 21.2409 9.21052 21.5952 10.3401 21.7489C14.2303 22.2703 17.9467 20.5792 20.1056 17.2572C19.9853 17.2572 19.8182 17.2572 19.6912 17.2706ZM14.4041 18.4136L14.4442 18.3868C14.9923 18.5138 15.507 18.6943 15.9882 18.9349C15.5805 19.4028 15.0658 19.8105 14.5779 20.1514C14.2838 20.3319 13.9963 20.519 13.6889 20.6728L13.1408 20.4322L13.1809 20.3453C13.6421 19.717 14.0498 19.082 14.4041 18.4136ZM11.9042 18.0326C12.6261 18.0459 13.348 18.1195 14.0231 18.2866L14.0365 18.3267C13.6822 19.0084 13.2344 19.6702 12.7531 20.2918C12.5392 20.3185 12.332 20.2316 12.1181 20.2183L11.9042 20.1848C11.8775 19.4362 11.8641 18.7812 11.9042 18.0326ZM9.45783 18.2598C10.1196 18.1328 10.8013 18.0326 11.5099 18.0326L11.5232 20.1782C11.2559 20.2383 10.9684 20.2383 10.7144 20.3052C10.1931 19.6835 9.7653 19.0151 9.39768 18.3133L9.45783 18.2598ZM7.41918 18.9416C7.9138 18.701 8.43516 18.5205 8.96321 18.3868L9.01668 18.4002C9.38431 19.0953 9.83883 19.7571 10.3 20.4188C10.1196 20.5191 9.90567 20.5859 9.73188 20.6862C8.89637 20.2651 8.09427 19.6835 7.42586 18.9884V18.9416H7.41918ZM9.0501 21.1139C7.98733 20.8332 6.99808 20.3519 6.08235 19.6969V19.6501C6.38982 19.463 6.69061 19.2558 7.01813 19.1154C7.74001 19.8373 8.48864 20.3854 9.29741 20.9C9.24394 20.9869 9.14368 21.0605 9.0501 21.1139ZM13.7557 21.2744C12.4122 21.5685 10.915 21.5818 9.57146 21.2476C9.54473 21.1875 9.63162 21.1741 9.67172 21.134C10.8481 20.3586 12.6929 20.3586 13.8426 21.1941C13.8827 21.2744 13.7825 21.2476 13.7557 21.2744ZM14.9722 20.9201L14.3773 21.1073C14.2771 21.0538 14.1902 20.9803 14.0966 20.9067L14.1233 20.8666C14.9321 20.3854 15.6674 19.8038 16.3692 19.102C16.7101 19.2424 17.0443 19.4295 17.3451 19.6501C16.6366 20.2249 15.8077 20.6059 14.9722 20.9201Z" fill="currentColor" />
	</g>
	<defs>
		<clipPath id="clip0_360_7585">
			<rect width="24" height="19.8425" fill="white" transform="translate(0 2)" />
		</clipPath>
	</defs>
</svg>
