<svg viewBox="0 0 24 24" fill="none" xmlns="http://www.w3.org/2000/svg">
	<path fill-rule="evenodd" clip-rule="evenodd" d="M16.6504 15.4999C16.6504 14.3401 17.5906 13.3999 18.7504 13.3999C19.9102 13.3999 20.8504 14.3401 20.8504 15.4999C20.8504 16.6597 19.9102 17.5999 18.7504 17.5999C17.5906 17.5999 16.6504 16.6597 16.6504 15.4999ZM18.7504 14.5999C18.2533 14.5999 17.8504 15.0029 17.8504 15.4999C17.8504 15.997 18.2533 16.3999 18.7504 16.3999C19.2474 16.3999 19.6504 15.997 19.6504 15.4999C19.6504 15.0029 19.2474 14.5999 18.7504 14.5999Z" fill="currentColor" />
	<path fill-rule="evenodd" clip-rule="evenodd" d="M3.15039 15.4999C3.15039 14.3401 4.09059 13.3999 5.25039 13.3999C6.41019 13.3999 7.35039 14.3401 7.35039 15.4999C7.35039 16.6597 6.41019 17.5999 5.25039 17.5999C4.09059 17.5999 3.15039 16.6597 3.15039 15.4999ZM5.25039 14.5999C4.75333 14.5999 4.35039 15.0029 4.35039 15.4999C4.35039 15.997 4.75333 16.3999 5.25039 16.3999C5.74745 16.3999 6.15039 15.997 6.15039 15.4999C6.15039 15.0029 5.74745 14.5999 5.25039 14.5999Z" fill="currentColor" />
	<path fill-rule="evenodd" clip-rule="evenodd" d="M5.25039 10.0999C3.09648 10.0999 1.35039 11.846 1.35039 13.9999C1.35039 14.497 1.75333 14.8999 2.25039 14.8999H3.75039C4.08176 14.8999 4.35039 15.1686 4.35039 15.4999C4.35039 15.8313 4.08176 16.0999 3.75039 16.0999H2.25039C1.09059 16.0999 0.150391 15.1597 0.150391 13.9999C0.150391 11.1833 2.43374 8.89994 5.25039 8.89994C6.2017 8.89994 7.00526 9.53249 7.26343 10.3999H13.5004C13.9974 10.3999 14.4004 9.99699 14.4004 9.49994C14.4004 9.16857 14.669 8.89994 15.0004 8.89994H18.7504C21.567 8.89994 23.8504 11.1833 23.8504 13.9999C23.8504 15.1597 22.9102 16.0999 21.7504 16.0999H20.2504C19.919 16.0999 19.6504 15.8313 19.6504 15.4999C19.6504 15.1686 19.919 14.8999 20.2504 14.8999H21.7504C22.2474 14.8999 22.6504 14.497 22.6504 13.9999C22.6504 11.846 20.9043 10.0999 18.7504 10.0999H15.5134C15.2553 10.9674 14.4517 11.5999 13.5004 11.5999H6.75039C6.41902 11.5999 6.15039 11.3313 6.15039 10.9999C6.15039 10.5029 5.74745 10.0999 5.25039 10.0999Z" fill="currentColor" />
	<path fill-rule="evenodd" clip-rule="evenodd" d="M6.15039 15.4999C6.15039 15.1686 6.41902 14.8999 6.75039 14.8999H17.2504C17.5818 14.8999 17.8504 15.1686 17.8504 15.4999C17.8504 15.8313 17.5818 16.0999 17.2504 16.0999H6.75039C6.41902 16.0999 6.15039 15.8313 6.15039 15.4999Z" fill="currentColor" />
	<path fill-rule="evenodd" clip-rule="evenodd" d="M12.3904 6.01994C12.6555 5.82112 13.0316 5.87484 13.2304 6.13994L15.4804 9.13994C15.6792 9.40503 15.6255 9.78112 15.3604 9.97994C15.0953 10.1788 14.7192 10.125 14.5204 9.85994L12.2704 6.85994C12.0716 6.59484 12.1253 6.21876 12.3904 6.01994Z" fill="currentColor" />
	<path fill-rule="evenodd" clip-rule="evenodd" d="M8.02756 6.69285C8.33523 6.56978 8.68441 6.71943 8.80748 7.0271L10.3075 10.7771C10.4305 11.0848 10.2809 11.434 9.97322 11.557C9.66555 11.6801 9.31637 11.5304 9.1933 11.2228L7.6933 7.47277C7.57024 7.1651 7.71989 6.81592 8.02756 6.69285Z" fill="currentColor" />
</svg>
