<svg viewBox="0 0 24 24" fill="none" xmlns="http://www.w3.org/2000/svg">
	<path fill-rule="evenodd" clip-rule="evenodd" d="M20.6925 3.57036L2.90189 10.9472C2.84103 10.9726 2.8037 11.0347 2.81013 11.1004C2.81657 11.166 2.86516 11.2198 2.92984 11.2328L11.1175 12.8707C11.355 12.9182 11.5406 13.1039 11.5882 13.3414L13.2261 21.529C13.2391 21.5937 13.2928 21.6423 13.3585 21.6488C13.4241 21.6552 13.4862 21.618 13.5116 21.5572L20.8885 3.76636C20.9117 3.71032 20.8989 3.64574 20.856 3.60286C20.8131 3.55998 20.7486 3.54718 20.6925 3.57036ZM20.2331 2.46179C20.7376 2.2527 21.3184 2.36817 21.7046 2.75433C22.0907 3.1405 22.2062 3.72128 21.9971 4.22579L14.6201 22.0169C14.3923 22.5655 13.8326 22.901 13.2414 22.843C12.6503 22.7851 12.1664 22.3475 12.0496 21.7652L10.4899 13.969L2.69412 12.4094C2.11174 12.2925 1.67381 11.8086 1.61586 11.2175C1.5579 10.6263 1.89315 10.0667 2.44174 9.83894L20.2331 2.46179Z" fill="currentColor" />
</svg>
