<svg viewBox="0 0 24 24" fill="none" xmlns="http://www.w3.org/2000/svg">
	<path fill-rule="evenodd" clip-rule="evenodd" d="M12.7498 0.150164C17.4629 0.141747 21.6675 3.11065 23.2365 7.55502C24.8056 11.9997 23.3965 16.9507 19.7221 19.903C16.1341 22.786 11.1501 23.1491 7.19095 20.8465L1.00796 23.7918C0.77862 23.9011 0.505338 23.8541 0.325695 23.6745C0.146052 23.4949 0.098986 23.2216 0.208192 22.9922L3.15262 16.8083C1.1906 13.4357 1.14333 9.26892 3.04842 5.84523C5.00717 2.3251 8.72144 0.144716 12.7498 0.150164ZM22.105 7.9545C20.7055 3.99031 16.955 1.34228 12.751 1.35016L12.7491 1.35016C9.15645 1.34498 5.84387 3.28939 4.09701 6.42872C2.35016 9.56804 2.44408 13.408 4.34233 16.4581C4.45038 16.6318 4.46256 16.8485 4.37465 17.0331L2.01868 21.9812L6.96588 19.6245C7.15049 19.5365 7.36718 19.5487 7.54082 19.6567C11.1106 21.877 15.6934 21.6007 18.9705 18.9676C22.2477 16.3344 23.5044 11.9187 22.105 7.9545Z" fill="currentColor" />
	<path fill-rule="evenodd" clip-rule="evenodd" d="M7.27492 11.2502C7.27492 10.7117 7.71144 10.2752 8.24992 10.2752C8.7884 10.2752 9.22492 10.7117 9.22492 11.2502C9.22492 11.7886 8.7884 12.2252 8.24992 12.2252C7.71144 12.2252 7.27492 11.7886 7.27492 11.2502Z" fill="currentColor" />
	<path fill-rule="evenodd" clip-rule="evenodd" d="M11.7749 11.2502C11.7749 10.7117 12.2114 10.2752 12.7499 10.2752C13.2884 10.2752 13.7249 10.7117 13.7249 11.2502C13.7249 11.7886 13.2884 12.2252 12.7499 12.2252C12.2114 12.2252 11.7749 11.7886 11.7749 11.2502Z" fill="currentColor" />
	<path fill-rule="evenodd" clip-rule="evenodd" d="M16.2749 11.2502C16.2749 10.7117 16.7114 10.2752 17.2499 10.2752C17.7884 10.2752 18.2249 10.7117 18.2249 11.2502C18.2249 11.7886 17.7884 12.2252 17.2499 12.2252C16.7114 12.2252 16.2749 11.7886 16.2749 11.2502Z" fill="currentColor" />
</svg>
