<svg viewBox="0 0 24 24" fill="none" xmlns="http://www.w3.org/2000/svg">
	<path fill-rule="evenodd" clip-rule="evenodd" d="M2.69678 13.75C2.69678 12.8664 3.41312 12.15 4.29678 12.15H19.7028C20.5864 12.15 21.3028 12.8664 21.3028 13.75V22.25C21.3028 23.1337 20.5864 23.85 19.7028 23.85H4.29678C3.41312 23.85 2.69678 23.1337 2.69678 22.25V13.75ZM4.29678 13.35C4.07586 13.35 3.89678 13.5291 3.89678 13.75V22.25C3.89678 22.4709 4.07586 22.65 4.29678 22.65H19.7028C19.9237 22.65 20.1028 22.4709 20.1028 22.25V13.75C20.1028 13.5291 19.9237 13.35 19.7028 13.35H4.29678Z" fill="currentColor" />
	<path fill-rule="evenodd" clip-rule="evenodd" d="M8.26978 15.15C8.60115 15.15 8.86978 15.4187 8.86978 15.75V20.25C8.86978 20.5814 8.60115 20.85 8.26978 20.85C7.93841 20.85 7.66978 20.5814 7.66978 20.25V15.75C7.66978 15.4187 7.93841 15.15 8.26978 15.15Z" fill="currentColor" />
	<path fill-rule="evenodd" clip-rule="evenodd" d="M11.9998 15.15C12.3312 15.15 12.5998 15.4187 12.5998 15.75V20.25C12.5998 20.5814 12.3312 20.85 11.9998 20.85C11.6684 20.85 11.3998 20.5814 11.3998 20.25V15.75C11.3998 15.4187 11.6684 15.15 11.9998 15.15Z" fill="currentColor" />
	<path fill-rule="evenodd" clip-rule="evenodd" d="M15.7298 15.15C16.0611 15.15 16.3298 15.4187 16.3298 15.75V20.25C16.3298 20.5814 16.0611 20.85 15.7298 20.85C15.3984 20.85 15.1298 20.5814 15.1298 20.25V15.75C15.1298 15.4187 15.3984 15.15 15.7298 15.15Z" fill="currentColor" />
	<path fill-rule="evenodd" clip-rule="evenodd" d="M11.9248 0.150024C12.2562 0.150024 12.5248 0.418654 12.5248 0.750024V4.12502C12.5248 4.4564 12.2562 4.72502 11.9248 4.72502C11.2206 4.72502 10.6498 5.29586 10.6498 6.00002C10.6498 6.70419 11.2206 7.27502 11.9248 7.27502C12.6289 7.27502 13.1998 6.70419 13.1998 6.00002C13.1998 5.66865 13.4684 5.40002 13.7998 5.40002C14.1312 5.40002 14.3998 5.66865 14.3998 6.00002C14.3998 7.36693 13.2917 8.47502 11.9248 8.47502C10.5579 8.47502 9.44978 7.36693 9.44978 6.00002C9.44978 4.84003 10.2478 3.86643 11.3248 3.59825V0.750024C11.3248 0.418654 11.5934 0.150024 11.9248 0.150024Z" fill="currentColor" />
	<path fill-rule="evenodd" clip-rule="evenodd" d="M9.32354 9.3334C9.55364 9.57185 9.54686 9.95169 9.30841 10.1818L6.19941 13.1818C5.96095 13.4119 5.58111 13.4051 5.35101 13.1667C5.12092 12.9282 5.12769 12.5484 5.36615 12.3183L8.47515 9.31826C8.71361 9.08816 9.09345 9.09494 9.32354 9.3334Z" fill="currentColor" />
	<path fill-rule="evenodd" clip-rule="evenodd" d="M14.676 9.3334C14.9061 9.09494 15.2859 9.08816 15.5244 9.31826L18.6334 12.3183C18.8719 12.5484 18.8786 12.9282 18.6485 13.1667C18.4184 13.4051 18.0386 13.4119 17.8002 13.1818L14.6912 10.1818C14.4527 9.95169 14.4459 9.57185 14.676 9.3334Z" fill="currentColor" />
</svg>
