<svg viewBox="0 0 24 24" fill="none" xmlns="http://www.w3.org/2000/svg">
	<path fill-rule="evenodd" clip-rule="evenodd" d="M0.149902 3.76309C0.149902 3.43172 0.418531 3.16309 0.749902 3.16309H11.7409C11.7409 3.16309 11.7409 3.16309 11.7409 3.16309C13.0228 3.16305 14.2577 3.64577 15.1998 4.51515L22.6497 11.3931C22.6496 11.393 22.6498 11.3931 22.6497 11.3931C23.7786 12.4345 24.1537 14.0617 23.5943 15.4922C23.035 16.9226 21.6558 17.8637 20.1199 17.8631C20.1198 17.8631 20.12 17.8631 20.1199 17.8631H0.749902C0.418531 17.8631 0.149902 17.5945 0.149902 17.2631C0.149902 16.9317 0.418531 16.6631 0.749902 16.6631H20.1199C21.1616 16.6636 22.0974 16.0253 22.4767 15.0551C22.8561 14.085 22.6018 12.9814 21.8361 12.2751L14.386 5.39702C13.6656 4.73219 12.7212 4.36305 11.7409 4.36309H0.749902C0.418531 4.36309 0.149902 4.09446 0.149902 3.76309Z" fill="currentColor" />
	<path fill-rule="evenodd" clip-rule="evenodd" d="M2.2499 16.6631C2.58127 16.6631 2.8499 16.9317 2.8499 17.2631C2.8499 18.5886 3.92442 19.6631 5.2499 19.6631C6.57539 19.6631 7.6499 18.5886 7.6499 17.2631C7.6499 16.9317 7.91853 16.6631 8.2499 16.6631C8.58127 16.6631 8.8499 16.9317 8.8499 17.2631C8.8499 19.2513 7.23813 20.8631 5.2499 20.8631C3.26168 20.8631 1.6499 19.2513 1.6499 17.2631C1.6499 16.9317 1.91853 16.6631 2.2499 16.6631Z" fill="currentColor" />
	<path fill-rule="evenodd" clip-rule="evenodd" d="M8.2499 16.6631C8.58127 16.6631 8.8499 16.9317 8.8499 17.2631C8.8499 18.5886 9.92442 19.6631 11.2499 19.6631C12.5754 19.6631 13.6499 18.5886 13.6499 17.2631C13.6499 16.9317 13.9185 16.6631 14.2499 16.6631C14.5813 16.6631 14.8499 16.9317 14.8499 17.2631C14.8499 19.2513 13.2381 20.8631 11.2499 20.8631C9.26168 20.8631 7.6499 19.2513 7.6499 17.2631C7.6499 16.9317 7.91853 16.6631 8.2499 16.6631Z" fill="currentColor" />
	<path fill-rule="evenodd" clip-rule="evenodd" d="M10.8049 7.36109C10.4283 7.36111 10.0915 7.59565 9.96083 7.9489C9.83019 8.30216 9.93333 8.6994 10.2193 8.94449L10.2201 8.94517L11.1263 9.72449C11.1262 9.72439 11.1264 9.72459 11.1263 9.72449C11.8333 10.3301 12.7339 10.6633 13.6648 10.6631H20.0908L16.5152 7.36109H10.8049C10.8049 7.36109 10.8049 7.36109 10.8049 7.36109ZM8.83534 7.53265C9.14018 6.70838 9.92605 6.16112 10.8049 6.16109H16.7499C16.9008 6.16109 17.0461 6.21793 17.157 6.32029L22.032 10.8223C22.2134 10.9899 22.2737 11.2516 22.1837 11.4816C22.0937 11.7117 21.8719 11.8631 21.6249 11.8631H13.665C13.665 11.8631 13.6651 11.8631 13.665 11.8631C12.4475 11.8633 11.27 11.4279 10.3455 10.6357L9.43848 9.85569C9.43835 9.85557 9.43861 9.8558 9.43848 9.85569C8.77145 9.2838 8.53056 8.35675 8.83534 7.53265Z" fill="currentColor" />
	<path fill-rule="evenodd" clip-rule="evenodd" d="M21.9053 11.7936L21.8913 11.8014C21.8775 11.8093 21.8541 11.8231 21.8225 11.8432C21.7592 11.8833 21.6633 11.9481 21.5455 12.0403C21.3096 12.2248 20.9877 12.5178 20.6636 12.9406C20.0208 13.779 19.3499 15.152 19.3499 17.2631C19.3499 17.5945 19.0813 17.8631 18.7499 17.8631C18.4185 17.8631 18.1499 17.5945 18.1499 17.2631C18.1499 14.8742 18.9165 13.2472 19.7112 12.2105C20.1058 11.6959 20.5027 11.3326 20.8059 11.0953C20.9576 10.9765 21.0863 10.889 21.1803 10.8295C21.2273 10.7997 21.2656 10.7769 21.294 10.7606C21.3081 10.7525 21.3198 10.746 21.3287 10.7411L21.3401 10.735L21.3443 10.7328L21.3459 10.7319C21.3463 10.7317 21.3474 10.7311 21.6249 11.2631L21.3474 10.7311C21.6411 10.5779 22.0036 10.6918 22.1569 10.9855C22.3096 11.2784 22.1969 11.6394 21.9053 11.7936Z" fill="currentColor" />
	<path fill-rule="evenodd" clip-rule="evenodd" d="M3.3959 13.6631C5.67893 13.6626 7.7661 14.9526 8.78662 16.9949C8.93474 17.2913 8.81453 17.6517 8.5181 17.7998C8.22168 17.9479 7.86131 17.8277 7.71318 17.5313C6.8959 15.8958 5.22439 14.8627 3.39603 14.8631H0.749902C0.418531 14.8631 0.149902 14.5945 0.149902 14.2631C0.149902 13.9317 0.418531 13.6631 0.749902 13.6631H3.3959C3.39594 13.6631 3.39586 13.6631 3.3959 13.6631Z" fill="currentColor" />
</svg>
