<svg viewBox="0 0 24 24" fill="none" xmlns="http://www.w3.org/2000/svg">
	<g>
		<path d="M11.9341 7.80383C7.93357 7.80383 4.7998 6.09004 4.7998 3.90149C4.7998 1.71293 7.93357 0 11.9341 0C15.9347 0 19.0685 1.71379 19.0685 3.90149C19.0685 6.08918 15.9347 7.80297 11.9341 7.80297V7.80383ZM11.9341 1.17958C10.2772 1.17958 8.728 1.50183 7.57255 2.08602C6.56013 2.59869 5.97938 3.26043 5.97938 3.90235C5.97938 4.54427 6.56013 5.206 7.57255 5.71868C8.728 6.30373 10.2764 6.62512 11.9341 6.62512C13.5919 6.62512 15.1403 6.30286 16.2957 5.71868C17.3082 5.206 17.8889 4.54427 17.8889 3.90235C17.8889 3.26043 17.3082 2.59869 16.2957 2.08602C15.1403 1.50097 13.5919 1.17958 11.9341 1.17958Z" fill="currentColor" />
		<path d="M11.9333 24C7.93271 24 4.7998 22.2862 4.7998 20.0985V3.90149C4.7998 3.57579 5.06347 3.31213 5.38916 3.31213C5.71486 3.31213 5.97852 3.57579 5.97852 3.90149V20.0977C5.97852 20.7396 6.55926 21.4013 7.57169 21.914C8.72714 22.499 10.2755 22.8204 11.9333 22.8204C13.5911 22.8204 15.1394 22.4982 16.2949 21.914C17.3073 21.4013 17.888 20.7396 17.888 20.0977V6.74403C17.888 6.41833 18.1517 6.15467 18.4774 6.15467C18.8031 6.15467 19.0668 6.41833 19.0668 6.74403V20.0977C19.0668 22.2853 15.933 23.9991 11.9324 23.9991L11.9333 24Z" fill="currentColor" />
		<path d="M11.9333 18.5338C7.93357 18.5338 4.7998 16.82 4.7998 14.6323C4.7998 14.3066 5.06347 14.043 5.38916 14.043C5.71486 14.043 5.97852 14.3066 5.97852 14.6323C5.97852 15.2742 6.55926 15.936 7.57169 16.4487C8.72714 17.0337 10.2755 17.3551 11.9333 17.3551C13.5911 17.3551 15.1394 17.0328 16.2949 16.4487C17.3073 15.936 17.888 15.2742 17.888 14.6323C17.888 14.3066 18.1517 14.043 18.4774 14.043C18.8031 14.043 19.0668 14.3066 19.0668 14.6323C19.0668 16.82 15.933 18.5338 11.9324 18.5338H11.9333Z" fill="currentColor" />
		<path d="M11.9333 13.432C7.93357 13.432 4.7998 11.7182 4.7998 9.53052C4.7998 9.20482 5.06347 8.94116 5.38916 8.94116C5.71486 8.94116 5.97852 9.20482 5.97852 9.53052C5.97852 10.1724 6.55926 10.8342 7.57169 11.3468C8.72714 11.9319 10.2755 12.2533 11.9333 12.2533C13.5911 12.2533 15.1394 11.931 16.2949 11.3468C17.3073 10.8342 17.888 10.1724 17.888 9.53052C17.888 9.20482 18.1517 8.94116 18.4774 8.94116C18.8031 8.94116 19.0668 9.20482 19.0668 9.53052C19.0668 11.7182 15.933 13.432 11.9324 13.432H11.9333Z" fill="currentColor" />
		<path d="M8.70019 4.49515C7.91524 4.49515 7.3457 4.08673 7.3457 3.52323C7.3457 2.95972 7.91524 2.5513 8.70019 2.5513C9.48514 2.5513 10.0547 2.95972 10.0547 3.52323C10.0547 4.08673 9.48514 4.49515 8.70019 4.49515Z" fill="currentColor" />
	</g>
	<defs>
		<clipPath id="clip0_360_7588">
			<rect width="14.2678" height="24" fill="white" transform="translate(4.7998)" />
		</clipPath>
	</defs>
</svg>
