<svg viewBox="0 0 24 24" fill="none" xmlns="http://www.w3.org/2000/svg">
	<path fill-rule="evenodd" clip-rule="evenodd" d="M5.18688 12.5777C5.44333 12.7875 5.48112 13.1655 5.27126 13.422L1.84642 17.6074L4.61758 18.1617C4.82871 18.2039 5.00103 18.356 5.06912 18.5603L6.16823 21.8576L9.43631 16.6721C9.61299 16.3918 9.98348 16.3077 10.2638 16.4844C10.5442 16.6611 10.6282 17.0316 10.4515 17.3119L6.50751 23.5699C6.38385 23.7661 6.15817 23.8735 5.9279 23.8457C5.69764 23.8178 5.50405 23.6598 5.4307 23.4397L4.04081 19.2701L0.632241 18.5884C0.42574 18.5471 0.256008 18.4005 0.185023 18.2022C0.114039 18.004 0.152194 17.783 0.285557 17.62L4.34256 12.662C4.55241 12.4056 4.93042 12.3678 5.18688 12.5777Z" fill="currentColor" />
	<path fill-rule="evenodd" clip-rule="evenodd" d="M18.8132 12.5777C19.0696 12.3678 19.4476 12.4056 19.6575 12.662L23.7145 17.62C23.8479 17.783 23.886 18.004 23.815 18.2022C23.744 18.4005 23.5743 18.5471 23.3678 18.5884L19.9592 19.2701L18.5693 23.4397C18.496 23.6598 18.3024 23.8178 18.0721 23.8457C17.8419 23.8735 17.6162 23.7661 17.4925 23.5699L13.5485 17.3119C13.3719 17.0316 13.4559 16.6611 13.7362 16.4844C14.0166 16.3077 14.3871 16.3918 14.5637 16.6721L17.8318 21.8576L18.9309 18.5603C18.999 18.356 19.1713 18.2039 19.3825 18.1617L22.1536 17.6074L18.7288 13.422C18.5189 13.1655 18.5567 12.7875 18.8132 12.5777Z" fill="currentColor" />
	<path fill-rule="evenodd" clip-rule="evenodd" d="M3.1499 9C3.1499 4.11227 7.11218 0.149994 11.9999 0.149994C16.8876 0.149994 20.8499 4.11227 20.8499 9C20.8499 13.8877 16.8876 17.85 11.9999 17.85C7.11218 17.85 3.1499 13.8877 3.1499 9ZM11.9999 1.34999C7.77492 1.34999 4.3499 4.77502 4.3499 9C4.3499 13.225 7.77492 16.65 11.9999 16.65C16.2249 16.65 19.6499 13.225 19.6499 9C19.6499 4.77502 16.2249 1.34999 11.9999 1.34999Z" fill="currentColor" />
	<path fill-rule="evenodd" clip-rule="evenodd" d="M10.6499 5.24999C10.6499 4.91862 10.9185 4.64999 11.2499 4.64999H11.9999C12.7455 4.64999 13.3499 5.25441 13.3499 5.99999V11.25C13.3499 11.5814 13.0813 11.85 12.7499 11.85C12.4185 11.85 12.1499 11.5814 12.1499 11.25V5.99999C12.1499 5.91715 12.0827 5.84999 11.9999 5.84999H11.2499C10.9185 5.84999 10.6499 5.58136 10.6499 5.24999Z" fill="currentColor" />
	<path fill-rule="evenodd" clip-rule="evenodd" d="M10.6499 11.25C10.6499 10.9186 10.9185 10.65 11.2499 10.65H14.2499C14.5813 10.65 14.8499 10.9186 14.8499 11.25C14.8499 11.5814 14.5813 11.85 14.2499 11.85H11.2499C10.9185 11.85 10.6499 11.5814 10.6499 11.25Z" fill="currentColor" />
</svg>
