<svg viewBox="0 0 24 24" fill="none" xmlns="http://www.w3.org/2000/svg">
	<path fill-rule="evenodd" clip-rule="evenodd" d="M0.750034 0.150024C1.0814 0.150024 1.35003 0.418654 1.35003 0.750024V22.65H23.25C23.5814 22.65 23.85 22.9187 23.85 23.25C23.85 23.5814 23.5814 23.85 23.25 23.85H0.750034C0.418663 23.85 0.150034 23.5814 0.150034 23.25V0.750024C0.150034 0.418654 0.418663 0.150024 0.750034 0.150024Z" fill="currentColor" />
	<path fill-rule="evenodd" clip-rule="evenodd" d="M20.8049 2.49351C21.0636 2.70052 21.1056 3.0781 20.8985 3.33685L16.4055 8.95285C16.1985 9.21161 15.821 9.25355 15.5622 9.04654C15.3035 8.83953 15.2615 8.46195 15.4685 8.2032L19.9615 2.5872C20.1685 2.32844 20.5461 2.2865 20.8049 2.49351Z" fill="currentColor" />
	<path fill-rule="evenodd" clip-rule="evenodd" d="M9.07273 7.11538C9.20729 6.81256 9.56186 6.67616 9.86468 6.81072L13.8727 8.59172C14.1755 8.72628 14.3119 9.08085 14.1773 9.38367C14.0428 9.68649 13.6882 9.82289 13.3854 9.68833L9.37739 7.90733C9.07457 7.77277 8.93817 7.4182 9.07273 7.11538Z" fill="currentColor" />
	<path fill-rule="evenodd" clip-rule="evenodd" d="M7.47855 7.21335C7.64902 7.49751 7.55686 7.86606 7.27271 8.03653L1.05871 11.7645C0.774551 11.935 0.405999 11.8429 0.235523 11.5587C0.0650479 11.2745 0.157204 10.906 0.441361 10.7355L6.65536 7.00751C6.93952 6.83704 7.30807 6.92919 7.47855 7.21335Z" fill="currentColor" />
	<path fill-rule="evenodd" clip-rule="evenodd" d="M20.8255 13.5967C20.9865 13.8863 20.8821 14.2516 20.5924 14.4125L15.8524 17.0455C15.5627 17.2064 15.1974 17.1021 15.0365 16.8124C14.8756 16.5227 14.98 16.1574 15.2697 15.9965L20.0097 13.3635C20.2994 13.2026 20.6646 13.307 20.8255 13.5967Z" fill="currentColor" />
	<path fill-rule="evenodd" clip-rule="evenodd" d="M7.65003 17.25C7.65003 16.9187 7.91866 16.65 8.25004 16.65H12.75C13.0814 16.65 13.35 16.9187 13.35 17.25C13.35 17.5814 13.0814 17.85 12.75 17.85H8.25004C7.91866 17.85 7.65003 17.5814 7.65003 17.25Z" fill="currentColor" />
	<path fill-rule="evenodd" clip-rule="evenodd" d="M5.94469 17.6527C6.09288 17.9491 5.97275 18.3095 5.67636 18.4577L1.01836 20.7867C0.721975 20.9349 0.361571 20.8147 0.213377 20.5184C0.0651839 20.222 0.185319 19.8616 0.481706 19.7134L5.13971 17.3844C5.43609 17.2362 5.7965 17.3563 5.94469 17.6527Z" fill="currentColor" />
	<path fill-rule="evenodd" clip-rule="evenodd" d="M6.15003 6.75002C6.15003 5.59023 7.09024 4.65002 8.25004 4.65002C9.40983 4.65002 10.35 5.59023 10.35 6.75002C10.35 7.90982 9.40983 8.85002 8.25004 8.85002C7.09024 8.85002 6.15003 7.90982 6.15003 6.75002ZM8.25004 5.85002C7.75298 5.85002 7.35004 6.25297 7.35004 6.75002C7.35004 7.24708 7.75298 7.65002 8.25004 7.65002C8.74709 7.65002 9.15003 7.24708 9.15003 6.75002C9.15003 6.25297 8.74709 5.85002 8.25004 5.85002Z" fill="currentColor" />
	<path fill-rule="evenodd" clip-rule="evenodd" d="M12.9 9.75002C12.9 8.59023 13.8402 7.65002 15 7.65002C16.1598 7.65002 17.1 8.59023 17.1 9.75002C17.1 10.9098 16.1598 11.85 15 11.85C13.8402 11.85 12.9 10.9098 12.9 9.75002ZM15 8.85002C14.503 8.85002 14.1 9.25297 14.1 9.75002C14.1 10.2471 14.503 10.65 15 10.65C15.4971 10.65 15.9 10.2471 15.9 9.75002C15.9 9.25297 15.4971 8.85002 15 8.85002Z" fill="currentColor" />
	<path fill-rule="evenodd" clip-rule="evenodd" d="M19.65 2.25002C19.65 1.09023 20.5902 0.150024 21.75 0.150024C22.9098 0.150024 23.85 1.09023 23.85 2.25002C23.85 3.40982 22.9098 4.35002 21.75 4.35002C20.5902 4.35002 19.65 3.40982 19.65 2.25002ZM21.75 1.35002C21.253 1.35002 20.85 1.75297 20.85 2.25002C20.85 2.74708 21.253 3.15002 21.75 3.15002C22.2471 3.15002 22.65 2.74708 22.65 2.25002C22.65 1.75297 22.2471 1.35002 21.75 1.35002Z" fill="currentColor" />
	<path fill-rule="evenodd" clip-rule="evenodd" d="M19.65 13.5C19.65 12.3402 20.5902 11.4 21.75 11.4C22.9098 11.4 23.85 12.3402 23.85 13.5C23.85 14.6598 22.9098 15.6 21.75 15.6C20.5902 15.6 19.65 14.6598 19.65 13.5ZM21.75 12.6C21.253 12.6 20.85 13.003 20.85 13.5C20.85 13.9971 21.253 14.4 21.75 14.4C22.2471 14.4 22.65 13.9971 22.65 13.5C22.65 13.003 22.2471 12.6 21.75 12.6Z" fill="currentColor" />
	<path fill-rule="evenodd" clip-rule="evenodd" d="M12.15 17.25C12.15 16.0902 13.0902 15.15 14.25 15.15C15.4098 15.15 16.35 16.0902 16.35 17.25C16.35 18.4098 15.4098 19.35 14.25 19.35C13.0902 19.35 12.15 18.4098 12.15 17.25ZM14.25 16.35C13.753 16.35 13.35 16.753 13.35 17.25C13.35 17.7471 13.753 18.15 14.25 18.15C14.7471 18.15 15.15 17.7471 15.15 17.25C15.15 16.753 14.7471 16.35 14.25 16.35Z" fill="currentColor" />
	<path fill-rule="evenodd" clip-rule="evenodd" d="M4.65003 17.25C4.65003 16.0902 5.59024 15.15 6.75003 15.15C7.90983 15.15 8.85003 16.0902 8.85003 17.25C8.85003 18.4098 7.90983 19.35 6.75003 19.35C5.59024 19.35 4.65003 18.4098 4.65003 17.25ZM6.75003 16.35C6.25298 16.35 5.85003 16.753 5.85003 17.25C5.85003 17.7471 6.25298 18.15 6.75003 18.15C7.24709 18.15 7.65003 17.7471 7.65003 17.25C7.65003 16.753 7.24709 16.35 6.75003 16.35Z" fill="currentColor" />
</svg>
