<svg viewBox="0 0 24 24" fill="none" xmlns="http://www.w3.org/2000/svg">
	<g>
		<path fill-rule="evenodd" clip-rule="evenodd" d="M19.8256 1.07576C20.06 0.841446 20.4399 0.841446 20.6742 1.07576L23.6742 4.07576C23.9085 4.31008 23.9085 4.68997 23.6742 4.92429L20.6742 7.92429C20.4399 8.1586 20.06 8.1586 19.8256 7.92429C19.5913 7.68997 19.5913 7.31008 19.8256 7.07576L22.4014 4.50003L19.8256 1.92429C19.5913 1.68997 19.5913 1.31008 19.8256 1.07576Z" fill="currentColor" />
		<path fill-rule="evenodd" clip-rule="evenodd" d="M4.17417 16.0758C4.40848 16.3101 4.40848 16.69 4.17417 16.9243L1.59843 19.5L4.17417 22.0758C4.40848 22.3101 4.40848 22.69 4.17417 22.9243C3.93985 23.1586 3.55995 23.1586 3.32564 22.9243L0.325638 19.9243C0.0913237 19.69 0.0913237 19.3101 0.325638 19.0758L3.32564 16.0758C3.55995 15.8414 3.93985 15.8414 4.17417 16.0758Z" fill="currentColor" />
		<path fill-rule="evenodd" clip-rule="evenodd" d="M7.42399 5.17411C8.23977 4.35833 9.34621 3.90002 10.4999 3.90002H23.2499C23.5813 3.90002 23.8499 4.16865 23.8499 4.50003C23.8499 4.8314 23.5813 5.10003 23.2499 5.10003H10.4999C9.66447 5.10003 8.86326 5.4319 8.27252 6.02264C7.68178 6.61338 7.3499 7.41459 7.3499 8.25003C7.3499 9.08546 7.68178 9.88667 8.27252 10.4774C8.86326 11.0682 9.66447 11.4 10.4999 11.4H13.4999C14.6536 11.4 15.76 11.8583 16.5758 12.6741C17.3916 13.4899 17.8499 14.5963 17.8499 15.75C17.8499 16.9037 17.3916 18.0102 16.5758 18.8259C15.76 19.6417 14.6536 20.1 13.4999 20.1H0.749902C0.418532 20.1 0.149902 19.8314 0.149902 19.5C0.149902 19.1687 0.418532 18.9 0.749902 18.9H13.4999C14.3353 18.9 15.1366 18.5682 15.7273 17.9774C16.318 17.3867 16.6499 16.5855 16.6499 15.75C16.6499 14.9146 16.318 14.1134 15.7273 13.5226C15.1366 12.9319 14.3353 12.6 13.4999 12.6H10.4999C9.34621 12.6 8.23977 12.1417 7.42399 11.3259C6.6082 10.5102 6.1499 9.40372 6.1499 8.25003C6.1499 7.09633 6.6082 5.98989 7.42399 5.17411Z" fill="currentColor" />
	</g>
	<defs>
		<clipPath id="clip0_360_7686">
			<rect fill="white" />
		</clipPath>
	</defs>
</svg>
