<svg viewBox="0 0 24 24" fill="none" xmlns="http://www.w3.org/2000/svg">
	<g>
		<path d="M12.1272 23.9255H0.623351C0.32007 23.9255 0.0745566 23.6792 0.0745566 23.376V20.8831C0.0745566 20.8831 0.0745566 20.8767 0.0745566 20.8735C0.075359 20.8029 0.0906033 20.7356 0.115476 20.6738C0.14115 20.6112 0.179662 20.5519 0.229407 20.5005L3.02794 17.7029C3.24216 17.4887 3.58957 17.4887 3.8046 17.7029C4.01882 17.917 4.01882 18.2643 3.8046 18.4793L1.948 20.3353H4.57804V14.9204H0.623351C0.32007 14.9188 0.0745566 14.6726 0.0745566 14.3694V11.8757C0.0745566 11.7137 0.145162 11.5677 0.257488 11.4666L12.6904 0.216504C12.7915 0.125066 12.9223 0.0745342 13.0587 0.0745342H23.3799C23.6832 0.0745342 23.9287 0.319974 23.9287 0.623163V3.11686C23.9287 3.26204 23.8709 3.4024 23.7682 3.50507L19.4236 7.84839V9.082H23.3799C23.6832 9.082 23.9287 9.32744 23.9287 9.63063V12.1243C23.9287 12.2695 23.8709 12.4091 23.7682 12.5125L12.5155 23.7642C12.5155 23.7642 12.5099 23.7699 12.5075 23.7723C12.5075 23.7723 12.5075 23.7723 12.5075 23.7731C12.4088 23.8669 12.2764 23.9239 12.1296 23.9247H12.1288L12.1272 23.9255ZM1.17215 22.8274H11.8993L22.8303 11.8973V10.1801H18.874C18.5707 10.1801 18.3252 9.93462 18.3252 9.63143V8.94885L12.5324 14.7399C12.4321 14.8506 12.2868 14.9196 12.1264 14.9196H8.17088V20.3345H11.1957C11.499 20.3345 11.7445 20.58 11.7445 20.8831C11.7445 21.1863 11.499 21.4318 11.1957 21.4318H7.62209C7.31881 21.4318 7.07329 21.1863 7.07329 20.8831V14.3702C7.07329 14.067 7.31881 13.8215 7.62209 13.8215H11.5776V12.4251H1.17215V13.8215H5.12764C5.43092 13.8215 5.67643 14.067 5.67643 14.3702V20.8831C5.67643 21.1863 5.43092 21.4318 5.12764 21.4318H1.17215V22.8282V22.8274ZM2.04749 11.327H12.1264C12.4297 11.327 12.6752 11.5725 12.6752 11.8757V13.0435L18.4568 7.26366C18.4664 7.25323 18.476 7.24201 18.4857 7.23238L22.8303 2.88907V1.17179H13.2697L2.04829 11.327H2.04749Z" fill="currentColor" />
		<path fill-rule="evenodd" clip-rule="evenodd" d="M12.7404 0.271774C12.7404 0.271777 12.7404 0.27177 12.7404 0.271774L0.307521 11.5219C0.210138 11.6095 0.149113 11.7358 0.149113 11.8757V14.3694C0.149113 14.6314 0.361287 14.8444 0.623539 14.8459C0.62347 14.8459 0.623608 14.8459 0.623539 14.8459H4.6526V20.4099H1.768L3.75178 18.4267C3.93704 18.2408 3.93693 17.9407 3.75197 17.7557C3.56599 17.5704 3.26571 17.5706 3.08066 17.7556L0.287742 20.5476L0.282956 20.5524C0.282833 20.5525 0.28271 20.5527 0.282587 20.5528C0.239651 20.5972 0.206561 20.6483 0.184568 20.7018C0.16285 20.7558 0.149852 20.8138 0.149113 20.874V23.376C0.149113 23.6382 0.361388 23.8509 0.623351 23.8509H12.1096L12.1112 23.8501H12.1292C12.256 23.8494 12.3699 23.8006 12.4552 23.72L12.4548 23.7196L23.7153 12.46C23.8042 12.3704 23.8541 12.2497 23.8541 12.1243V9.63063C23.8541 9.3686 23.642 9.15653 23.3799 9.15653H19.349V7.81751L23.7155 3.45237C23.8041 3.36377 23.8541 3.2424 23.8541 3.11686V0.623163C23.8541 0.361138 23.642 0.149068 23.3799 0.149068H13.0587C12.9408 0.149068 12.8279 0.192703 12.7404 0.271774ZM12.4919 23.7567L12.5067 23.7723H12.5075L12.4919 23.7567ZM12.548 23.8371C12.5517 23.8338 12.5553 23.8305 12.5589 23.8271L12.582 23.805V23.8031L23.8209 12.5652C23.9374 12.4479 24.0032 12.2893 24.0032 12.1243V9.63063C24.0032 9.28627 23.7243 9.00747 23.3799 9.00747H19.4981V7.87926L23.8209 3.55777C23.9377 3.44103 24.0032 3.28167 24.0032 3.11686V0.623163C24.0032 0.278809 23.7243 0 23.3799 0H13.0587C12.9037 0 12.7552 0.0574352 12.6404 0.161234L0.207612 11.4112C0.207561 11.4113 0.207664 11.4112 0.207612 11.4112C0.0804313 11.5257 0 11.6916 0 11.8757V14.3694C0 14.7137 0.278742 14.9931 0.622957 14.9949L0.623351 14.9949H4.50349V20.2608H2.128L3.85732 18.532C4.10047 18.288 4.10071 17.8935 3.85732 17.6502C3.61325 17.4071 3.21861 17.4068 2.97522 17.6502L0.176684 20.4478L0.175857 20.4487C0.119559 20.5068 0.0757922 20.5741 0.0464981 20.6455L0.0463136 20.646C0.0183778 20.7153 0.000923665 20.7918 4.81277e-06 20.8727L0 23.376C0 23.7202 0.278752 24 0.623351 24H12.1447L12.147 23.9989C12.2507 23.9956 12.3479 23.9675 12.4329 23.9199V23.9522L12.548 23.8371ZM13.241 1.09726H22.9048V2.91994L18.5384 7.28508C18.5332 7.29022 18.529 7.29496 18.5236 7.30095C18.5202 7.30474 18.5164 7.30902 18.5116 7.31422L18.5095 7.31641L12.6006 13.2235V11.8757C12.6006 11.6137 12.3885 11.4016 12.1264 11.4016H2.04749V11.3262L1.99826 11.2718L13.241 1.09726ZM2.24175 11.2525H12.1264C12.4708 11.2525 12.7497 11.5313 12.7497 11.8757V12.8636L18.4029 7.21207C18.4047 7.21016 18.4068 7.20785 18.4091 7.20529C18.4161 7.19752 18.4251 7.18749 18.4329 7.17968L22.7557 2.85819V1.24633H13.2984L2.24175 11.2525ZM18.3997 8.76891V9.63143C18.3997 9.89346 18.6119 10.1055 18.874 10.1055H22.9048V11.9282L11.9302 22.9019H1.17215V22.8282H1.09759V21.3572H5.12764C5.38974 21.3572 5.60188 21.1452 5.60188 20.8831V14.3702C5.60188 14.1081 5.38974 13.8961 5.12764 13.8961H1.09759V12.3506H11.6521V13.8961H7.62209C7.35998 13.8961 7.14785 14.1081 7.14785 14.3702V20.8831C7.14785 21.1452 7.35998 21.3572 7.62209 21.3572H11.1957C11.4578 21.3572 11.6699 21.1452 11.6699 20.8831C11.6699 20.6211 11.4578 20.409 11.1957 20.409H8.09633V14.8451H12.1264C12.2651 14.8451 12.3905 14.7855 12.4771 14.6899L12.4796 14.6872L18.3997 8.76891ZM1.2467 22.7529V21.5063H5.12764C5.4721 21.5063 5.75099 21.2275 5.75099 20.8831V14.3702C5.75099 14.0258 5.4721 13.747 5.12764 13.747H1.2467V12.4996H11.503V13.747H7.62209C7.27763 13.747 6.99874 14.0258 6.99874 14.3702V20.8831C6.99874 21.2275 7.27763 21.5063 7.62209 21.5063H11.1957C11.5401 21.5063 11.819 21.2275 11.819 20.8831C11.819 20.5388 11.5401 20.26 11.1957 20.26H8.24544V14.9941H12.1264C12.3079 14.9941 12.4724 14.9163 12.5863 14.7914L18.2506 9.12879V9.63143C18.2506 9.97578 18.5295 10.2546 18.874 10.2546H22.7557V11.8665L11.8684 22.7529H1.2467Z" fill="currentColor" />
	</g>
	<defs>
		<clipPath id="clip0_360_7589">
			<rect fill="white" />
		</clipPath>
	</defs>
</svg>
