<svg viewBox="0 0 24 24" fill="none" xmlns="http://www.w3.org/2000/svg">
	<path fill-rule="evenodd" clip-rule="evenodd" d="M11.9999 0.150024C12.3313 0.150024 12.5999 0.418654 12.5999 0.750024V23.25C12.5999 23.5814 12.3313 23.85 11.9999 23.85C11.6685 23.85 11.3999 23.5814 11.3999 23.25V0.750024C11.3999 0.418654 11.6685 0.150024 11.9999 0.150024Z" fill="currentColor" />
	<path fill-rule="evenodd" clip-rule="evenodd" d="M1.07564 12.3258C1.30995 12.0914 1.68985 12.0914 1.92417 12.3258L11.9999 22.4015L22.0756 12.3258C22.31 12.0914 22.6899 12.0914 22.9242 12.3258C23.1585 12.5601 23.1585 12.94 22.9242 13.1743L12.4242 23.6743C12.1899 23.9086 11.81 23.9086 11.5756 23.6743L1.07564 13.1743C0.841324 12.94 0.841324 12.5601 1.07564 12.3258Z" fill="currentColor" />
</svg>
