<svg viewBox="0 0 24 24" fill="none" xmlns="http://www.w3.org/2000/svg">
	<path fill-rule="evenodd" clip-rule="evenodd" d="M7.65465 0.183249C7.97483 0.268631 8.16517 0.597406 8.07979 0.917588L2.07979 23.4176C1.99441 23.7378 1.66564 23.9281 1.34545 23.8427C1.02527 23.7574 0.834928 23.4286 0.92031 23.1084L6.92031 0.608393C7.00569 0.288211 7.33447 0.0978674 7.65465 0.183249Z" fill="currentColor" />
	<path fill-rule="evenodd" clip-rule="evenodd" d="M16.3455 0.183249C16.6656 0.0978674 16.9944 0.288211 17.0798 0.608393L23.0798 23.1084C23.1652 23.4286 22.9748 23.7574 22.6547 23.8427C22.3345 23.9281 22.0057 23.7378 21.9203 23.4176L15.9203 0.917588C15.8349 0.597406 16.0253 0.268631 16.3455 0.183249Z" fill="currentColor" />
	<path fill-rule="evenodd" clip-rule="evenodd" d="M12.0001 16.663C12.3314 16.663 12.6001 16.9316 12.6001 17.263V23.263C12.6001 23.5944 12.3314 23.863 12.0001 23.863C11.6687 23.863 11.4001 23.5944 11.4001 23.263V17.263C11.4001 16.9316 11.6687 16.663 12.0001 16.663Z" fill="currentColor" />
	<path fill-rule="evenodd" clip-rule="evenodd" d="M12.0001 7.66299C12.3314 7.66299 12.6001 7.93162 12.6001 8.26299V12.763C12.6001 13.0944 12.3314 13.363 12.0001 13.363C11.6687 13.363 11.4001 13.0944 11.4001 12.763V8.26299C11.4001 7.93162 11.6687 7.66299 12.0001 7.66299Z" fill="currentColor" />
	<path fill-rule="evenodd" clip-rule="evenodd" d="M12.0001 0.16299C12.3314 0.16299 12.6001 0.431619 12.6001 0.76299V3.76299C12.6001 4.09436 12.3314 4.36299 12.0001 4.36299C11.6687 4.36299 11.4001 4.09436 11.4001 3.76299V0.76299C11.4001 0.431619 11.6687 0.16299 12.0001 0.16299Z" fill="currentColor" />
</svg>
