<svg viewBox="0 0 24 24" fill="none" xmlns="http://www.w3.org/2000/svg">
	<path fill-rule="evenodd" clip-rule="evenodd" d="M10.973 6.59997C10.7343 6.59997 10.5053 6.69479 10.3366 6.86358C10.1678 7.03236 10.073 7.26128 10.073 7.49997V17.247C10.073 17.4744 9.94441 17.6822 9.74098 17.7838C9.53754 17.8854 9.29417 17.8632 9.11241 17.7266L7.41336 16.4493C7.31184 16.3733 7.19571 16.3187 7.07244 16.289C6.94908 16.2592 6.82097 16.2549 6.6959 16.2764C6.57084 16.2978 6.45146 16.3445 6.34503 16.4136C6.23875 16.4826 6.14762 16.5725 6.07719 16.6778C5.97026 16.8384 5.91572 17.0282 5.92106 17.2212C5.9264 17.4141 5.99142 17.6007 6.10717 17.7553L9.77698 22.6471L17.925 22.6498L18.3864 17.5737C18.4392 16.9926 18.2785 16.4123 17.9344 15.9411C17.5903 15.4699 17.0864 15.1402 16.5168 15.0137L12.3427 14.0857C12.0682 14.0246 11.873 13.7812 11.873 13.5V7.49997C11.873 7.26128 11.7781 7.03236 11.6093 6.86358C11.4406 6.69479 11.2116 6.59997 10.973 6.59997ZM9.48803 6.01505C9.88186 5.62122 10.416 5.39997 10.973 5.39997C11.5299 5.39997 12.064 5.62122 12.4579 6.01505C12.8517 6.40887 13.073 6.94302 13.073 7.49997V13.0187L16.7771 13.8423C17.6314 14.0321 18.3874 14.5266 18.9035 15.2334C19.4196 15.9401 19.6607 16.8107 19.5815 17.6823L19.0705 23.3043C19.0424 23.6134 18.7832 23.8501 18.4728 23.85L9.47675 23.847C9.288 23.8469 9.11027 23.758 8.997 23.607L5.147 18.475C4.88254 18.122 4.73373 17.6953 4.72152 17.2544C4.70931 16.8134 4.83405 16.3795 5.07857 16.0124C5.23959 15.7713 5.44846 15.5649 5.69162 15.4071C5.93478 15.2492 6.20755 15.1425 6.4933 15.0936C6.77904 15.0446 7.07176 15.0544 7.3536 15.1224C7.63543 15.1903 7.90047 15.3149 8.13254 15.4887L8.13349 15.4894L8.87295 16.0453V7.49997C8.87295 6.94302 9.0942 6.40887 9.48803 6.01505Z" fill="currentColor" />
	<path fill-rule="evenodd" clip-rule="evenodd" d="M10.977 0.146973C11.3083 0.146973 11.577 0.415602 11.577 0.746973V2.99697C11.577 3.32834 11.3083 3.59697 10.977 3.59697C10.6456 3.59697 10.377 3.32834 10.377 2.99697V0.746973C10.377 0.415602 10.6456 0.146973 10.977 0.146973Z" fill="currentColor" />
	<path fill-rule="evenodd" clip-rule="evenodd" d="M15.9012 1.82271C16.1355 2.05702 16.1355 2.43692 15.9012 2.67124L14.4012 4.17124C14.1669 4.40555 13.787 4.40555 13.5527 4.17124C13.3184 3.93692 13.3184 3.55702 13.5527 3.32271L15.0527 1.82271C15.287 1.58839 15.6669 1.58839 15.9012 1.82271Z" fill="currentColor" />
	<path fill-rule="evenodd" clip-rule="evenodd" d="M6.05269 1.82271C6.287 1.58839 6.6669 1.58839 6.90122 1.82271L8.40122 3.32271C8.63553 3.55702 8.63553 3.93692 8.40122 4.17124C8.1669 4.40555 7.787 4.40555 7.55269 4.17124L6.05269 2.67124C5.81837 2.43692 5.81837 2.05702 6.05269 1.82271Z" fill="currentColor" />
	<path fill-rule="evenodd" clip-rule="evenodd" d="M14.127 5.99697C14.127 5.6656 14.3956 5.39697 14.727 5.39697H16.977C17.3083 5.39697 17.577 5.6656 17.577 5.99697C17.577 6.32834 17.3083 6.59697 16.977 6.59697H14.727C14.3956 6.59697 14.127 6.32834 14.127 5.99697Z" fill="currentColor" />
	<path fill-rule="evenodd" clip-rule="evenodd" d="M4.37695 5.99697C4.37695 5.6656 4.64558 5.39697 4.97695 5.39697H7.22695C7.55832 5.39697 7.82695 5.6656 7.82695 5.99697C7.82695 6.32834 7.55832 6.59697 7.22695 6.59697H4.97695C4.64558 6.59697 4.37695 6.32834 4.37695 5.99697Z" fill="currentColor" />
</svg>
