<svg viewBox="0 0 24 24" fill="none" xmlns="http://www.w3.org/2000/svg">
	<path fill-rule="evenodd" clip-rule="evenodd" d="M18.3256 6.33882C18.56 6.10451 18.9399 6.10451 19.1742 6.33882L20.9999 8.16456L22.8256 6.33882C23.06 6.10451 23.4399 6.10451 23.6742 6.33882C23.9085 6.57314 23.9085 6.95304 23.6742 7.18735L21.4242 9.43735C21.1899 9.67167 20.81 9.67167 20.5756 9.43735L18.3256 7.18735C18.0913 6.95304 18.0913 6.57314 18.3256 6.33882Z" fill="currentColor" />
	<path fill-rule="evenodd" clip-rule="evenodd" d="M15.1499 3.01309C15.1499 2.68172 15.4185 2.41309 15.7499 2.41309H17.9999C19.9881 2.41309 21.5999 4.02486 21.5999 6.01309V9.01309C21.5999 9.34446 21.3313 9.61309 20.9999 9.61309C20.6685 9.61309 20.3999 9.34446 20.3999 9.01309V6.01309C20.3999 4.6876 19.3254 3.61309 17.9999 3.61309H15.7499C15.4185 3.61309 15.1499 3.34446 15.1499 3.01309Z" fill="currentColor" />
	<path fill-rule="evenodd" clip-rule="evenodd" d="M2.57564 14.5888C2.80996 14.3545 3.18985 14.3545 3.42417 14.5888L5.67417 16.8388C5.90848 17.0731 5.90848 17.453 5.67417 17.6874C5.43985 17.9217 5.05995 17.9217 4.82564 17.6874L2.9999 15.8616L1.17417 17.6874C0.939854 17.9217 0.559955 17.9217 0.325641 17.6874C0.0913262 17.453 0.0913262 17.0731 0.325641 16.8388L2.57564 14.5888Z" fill="currentColor" />
	<path fill-rule="evenodd" clip-rule="evenodd" d="M2.9999 14.4131C3.33128 14.4131 3.5999 14.6817 3.5999 15.0131V18.0131C3.5999 19.3386 4.67442 20.4131 5.9999 20.4131H8.2499C8.58127 20.4131 8.8499 20.6817 8.8499 21.0131C8.8499 21.3445 8.58127 21.6131 8.2499 21.6131H5.9999C4.01168 21.6131 2.3999 20.0013 2.3999 18.0131V15.0131C2.3999 14.6817 2.66853 14.4131 2.9999 14.4131Z" fill="currentColor" />
	<path fill-rule="evenodd" clip-rule="evenodd" d="M12.8999 13.0131C12.8999 12.1294 13.6162 11.4131 14.4999 11.4131H22.2499C23.1336 11.4131 23.8499 12.1294 23.8499 13.0131V20.7631C23.8499 21.6467 23.1336 22.3631 22.2499 22.3631H14.4999C13.6162 22.3631 12.8999 21.6467 12.8999 20.7631V13.0131ZM14.4999 12.6131C14.279 12.6131 14.0999 12.7922 14.0999 13.0131V20.7631C14.0999 20.984 14.279 21.1631 14.4999 21.1631H22.2499C22.4708 21.1631 22.6499 20.984 22.6499 20.7631V13.0131C22.6499 12.7922 22.4708 12.6131 22.2499 12.6131H14.4999Z" fill="currentColor" />
	<path fill-rule="evenodd" clip-rule="evenodd" d="M14.9999 21.1631C15.3313 21.1631 15.5999 21.4317 15.5999 21.7631V23.2631C15.5999 23.5945 15.3313 23.8631 14.9999 23.8631C14.6685 23.8631 14.3999 23.5945 14.3999 23.2631V21.7631C14.3999 21.4317 14.6685 21.1631 14.9999 21.1631Z" fill="currentColor" />
	<path fill-rule="evenodd" clip-rule="evenodd" d="M21.7499 21.1631C22.0813 21.1631 22.3499 21.4317 22.3499 21.7631V23.2631C22.3499 23.5945 22.0813 23.8631 21.7499 23.8631C21.4185 23.8631 21.1499 23.5945 21.1499 23.2631V21.7631C21.1499 21.4317 21.4185 21.1631 21.7499 21.1631Z" fill="currentColor" />
	<path fill-rule="evenodd" clip-rule="evenodd" d="M12.8999 16.5131C12.8999 16.1817 13.1685 15.9131 13.4999 15.9131H23.2499C23.5813 15.9131 23.8499 16.1817 23.8499 16.5131C23.8499 16.8445 23.5813 17.1131 23.2499 17.1131H13.4999C13.1685 17.1131 12.8999 16.8445 12.8999 16.5131Z" fill="currentColor" />
	<path fill-rule="evenodd" clip-rule="evenodd" d="M15.5249 18.7631C15.5249 18.4317 15.7935 18.1631 16.1249 18.1631C16.6634 18.1631 17.0999 18.5996 17.0999 19.1381C17.0999 19.4695 16.8313 19.7381 16.4999 19.7381C16.2361 19.7381 16.0121 19.5679 15.9317 19.3313C15.6951 19.2509 15.5249 19.0269 15.5249 18.7631Z" fill="currentColor" />
	<path fill-rule="evenodd" clip-rule="evenodd" d="M16.3181 19.3313C16.5547 19.2509 16.7249 19.0269 16.7249 18.7631C16.7249 18.4317 16.4563 18.1631 16.1249 18.1631C15.5864 18.1631 15.1499 18.5996 15.1499 19.1381C15.1499 19.4695 15.4185 19.7381 15.7499 19.7381C16.0137 19.7381 16.2377 19.5679 16.3181 19.3313Z" fill="currentColor" />
	<path fill-rule="evenodd" clip-rule="evenodd" d="M16.3181 18.9449C16.2377 18.7083 16.0137 18.5381 15.7499 18.5381C15.4185 18.5381 15.1499 18.8067 15.1499 19.1381C15.1499 19.6766 15.5864 20.1131 16.1249 20.1131C16.4563 20.1131 16.7249 19.8445 16.7249 19.5131C16.7249 19.2493 16.5547 19.0253 16.3181 18.9449Z" fill="currentColor" />
	<path fill-rule="evenodd" clip-rule="evenodd" d="M16.4999 18.5381C16.8313 18.5381 17.0999 18.8067 17.0999 19.1381C17.0999 19.6766 16.6634 20.1131 16.1249 20.1131C15.7935 20.1131 15.5249 19.8445 15.5249 19.5131C15.5249 19.2493 15.6951 19.0253 15.9317 18.9449C16.0121 18.7083 16.2361 18.5381 16.4999 18.5381Z" fill="currentColor" />
	<path fill-rule="evenodd" clip-rule="evenodd" d="M20.0249 18.7631C20.0249 18.4317 20.2935 18.1631 20.6249 18.1631C21.1634 18.1631 21.5999 18.5996 21.5999 19.1381C21.5999 19.4695 21.3313 19.7381 20.9999 19.7381C20.7361 19.7381 20.5121 19.5679 20.4317 19.3313C20.1951 19.2509 20.0249 19.0269 20.0249 18.7631Z" fill="currentColor" />
	<path fill-rule="evenodd" clip-rule="evenodd" d="M20.8181 19.3313C21.0547 19.2509 21.2249 19.0269 21.2249 18.7631C21.2249 18.4317 20.9563 18.1631 20.6249 18.1631C20.0864 18.1631 19.6499 18.5996 19.6499 19.1381C19.6499 19.4695 19.9185 19.7381 20.2499 19.7381C20.5137 19.7381 20.7377 19.5679 20.8181 19.3313Z" fill="currentColor" />
	<path fill-rule="evenodd" clip-rule="evenodd" d="M20.8181 18.9449C20.7377 18.7083 20.5137 18.5381 20.2499 18.5381C19.9185 18.5381 19.6499 18.8067 19.6499 19.1381C19.6499 19.6766 20.0864 20.1131 20.6249 20.1131C20.9563 20.1131 21.2249 19.8445 21.2249 19.5131C21.2249 19.2493 21.0547 19.0253 20.8181 18.9449Z" fill="currentColor" />
	<path fill-rule="evenodd" clip-rule="evenodd" d="M20.9999 18.5381C21.3313 18.5381 21.5999 18.8067 21.5999 19.1381C21.5999 19.6766 21.1634 20.1131 20.6249 20.1131C20.2935 20.1131 20.0249 19.8445 20.0249 19.5131C20.0249 19.2493 20.1951 19.0253 20.4317 18.9449C20.5121 18.7083 20.7361 18.5381 20.9999 18.5381Z" fill="currentColor" />
	<path fill-rule="evenodd" clip-rule="evenodd" d="M0.227779 4.96748C0.334281 4.77937 0.533738 4.66309 0.749905 4.66309H14.2499C14.4661 4.66309 14.6655 4.77937 14.772 4.96748C14.8785 5.15559 14.8756 5.38645 14.7644 5.5718L12.4374 9.4498C12.2669 9.73394 11.8983 9.82607 11.6142 9.65557C11.33 9.48507 11.2379 9.11651 11.4084 8.83237L13.1901 5.86309H1.80967L3.59139 8.83237C3.76189 9.11651 3.66976 9.48507 3.38562 9.65557C3.10148 9.82607 2.73292 9.73394 2.56242 9.4498L0.235421 5.5718C0.124197 5.38645 0.121278 5.15559 0.227779 4.96748Z" fill="currentColor" />
	<path fill-rule="evenodd" clip-rule="evenodd" d="M3.91782 2.11756C3.98459 1.85046 4.22458 1.66309 4.4999 1.66309H10.4999C10.7752 1.66309 11.0152 1.85046 11.082 2.11756L11.832 5.11756L11.2499 5.26309V5.86309H3.7499C3.56514 5.86309 3.39069 5.77796 3.27698 5.63233C3.16328 5.4867 3.12301 5.29681 3.16782 5.11756L3.91782 2.11756ZM10.4814 4.66309L10.0314 2.86309H4.96837L4.51837 4.66309H10.4814Z" fill="currentColor" />
	<path fill-rule="evenodd" clip-rule="evenodd" d="M8.9999 0.163086C9.33128 0.163086 9.5999 0.431715 9.5999 0.763086V2.26309C9.5999 2.59446 9.33128 2.86309 8.9999 2.86309C8.66853 2.86309 8.3999 2.59446 8.3999 2.26309V0.763086C8.3999 0.431715 8.66853 0.163086 8.9999 0.163086Z" fill="currentColor" />
	<path fill-rule="evenodd" clip-rule="evenodd" d="M4.1249 7.66309C4.29893 7.66309 4.46438 7.73864 4.57834 7.87015C5.30786 8.71201 6.37398 9.18584 7.48772 9.16321C7.49584 9.16304 7.50397 9.16304 7.51209 9.16321C8.62583 9.18584 9.69195 8.71201 10.4215 7.87015C10.5354 7.73864 10.7009 7.66309 10.8749 7.66309C11.0489 7.66309 11.2144 7.73864 11.3283 7.87015C12.0579 8.71201 13.124 9.18584 14.2377 9.16321C14.569 9.15648 14.843 9.41959 14.8498 9.7509C14.8565 10.0822 14.5934 10.3562 14.2621 10.363C13.0085 10.3884 11.8006 9.93744 10.8749 9.11509C9.95219 9.93478 8.74913 10.3855 7.4999 10.3632C6.25068 10.3855 5.04762 9.93478 4.1249 9.1151C3.19919 9.93744 1.9913 10.3884 0.737717 10.363C0.406414 10.3562 0.143297 10.0822 0.150029 9.7509C0.15676 9.41959 0.43079 9.15648 0.762093 9.16321C1.87583 9.18584 2.94195 8.71201 3.67147 7.87015C3.78543 7.73864 3.95088 7.66309 4.1249 7.66309Z" fill="currentColor" />
</svg>
