<svg viewBox="0 0 24 24" fill="none" xmlns="http://www.w3.org/2000/svg">
	<path fill-rule="evenodd" clip-rule="evenodd" d="M3.97352 4.87746C5.26948 5.07565 6.45063 5.74781 7.28379 6.76985C8.05039 7.71022 8.46748 8.87945 8.47702 10.0802C11.2331 10.3723 13.4228 12.5622 13.7147 15.3184C14.9155 15.3289 16.0844 15.747 17.0241 16.5144C18.0454 17.3483 18.7166 18.53 18.9137 19.8261C22.1652 15.648 21.8709 9.60457 18.0306 5.76428C14.1917 1.92544 8.15141 1.62983 3.97352 4.87746ZM2.12058 4.91575C6.74832 0.288011 14.2514 0.288011 18.8791 4.91575C23.5068 9.54349 23.5068 17.0465 18.8791 21.6743C18.7148 21.8386 18.4704 21.8932 18.2518 21.8146C18.0331 21.736 17.8795 21.5382 17.8575 21.3068L17.7575 20.2558L17.7573 20.2532C17.6576 19.1543 17.1198 18.1418 16.2651 17.4438C15.4105 16.7459 14.3108 16.4214 13.2142 16.5433C13.0445 16.5622 12.8749 16.5079 12.7477 16.3941C12.6205 16.2803 12.5478 16.1177 12.5478 15.947C12.5478 13.3513 10.4436 11.247 7.84784 11.247C7.67707 11.247 7.51438 11.1742 7.40056 11.0469C7.28673 10.9196 7.23254 10.7498 7.25158 10.5801C7.37459 9.48345 7.05097 8.38342 6.35369 7.52807C5.65646 6.67279 4.64433 6.13414 3.54547 6.03355L2.49047 5.93755C2.25863 5.91645 2.05991 5.76315 1.98067 5.54425C1.90143 5.32535 1.95596 5.08037 2.12058 4.91575Z" fill="currentColor" />
	<path fill-rule="evenodd" clip-rule="evenodd" d="M12.0242 11.7759C12.2585 12.0103 12.2584 12.3902 12.024 12.6244L4.03001 20.6134C4.02999 20.6134 4.03002 20.6134 4.03001 20.6134C3.67843 20.9648 3.67828 21.5348 4.02971 21.8864C4.38114 22.238 4.95107 22.2381 5.30268 21.8867C5.53705 21.6524 5.91695 21.6525 6.15121 21.8869C6.38546 22.1212 6.38538 22.5011 6.15101 22.7354C5.33066 23.5553 4.00093 23.555 3.18098 22.7347C2.36102 21.9143 2.36133 20.5846 3.18168 19.7647L11.1757 11.7756C11.4101 11.5414 11.79 11.5415 12.0242 11.7759Z" fill="currentColor" />
	<path fill-rule="evenodd" clip-rule="evenodd" d="M19.9401 3.85475C20.1744 4.08907 20.1744 4.46896 19.9401 4.70328L18.8791 5.76428C18.6448 5.99859 18.2649 5.99859 18.0306 5.76428C17.7963 5.52997 17.7963 5.15007 18.0306 4.91575L19.0916 3.85475C19.3259 3.62044 19.7058 3.62044 19.9401 3.85475Z" fill="currentColor" />
</svg>
