<svg viewBox="0 0 24 24" fill="none" xmlns="http://www.w3.org/2000/svg">
	<path fill-rule="evenodd" clip-rule="evenodd" d="M19.2889 20.695C19.4865 20.6789 19.6793 20.7616 19.804 20.9157C20.655 21.9682 21.9199 22.6008 23.2724 22.6504C23.6036 22.6625 23.8622 22.9408 23.85 23.272C23.8379 23.6031 23.5596 23.8617 23.2284 23.8496C21.7922 23.7969 20.4346 23.221 19.4032 22.2456C18.5473 23.269 17.2667 23.8693 15.9049 23.8499C15.8962 23.8498 15.8874 23.8495 15.8787 23.849C14.4511 23.7662 13.1057 23.1888 12.0668 22.2289C11.2051 23.2431 9.93474 23.8449 8.57866 23.85C8.56361 23.8501 8.54855 23.8495 8.53354 23.8485C7.10868 23.7464 5.76802 23.1657 4.72329 22.2122C3.72665 23.3508 2.24039 23.9693 0.703293 23.8481C0.372946 23.8221 0.126247 23.5332 0.152275 23.2029C0.178303 22.8725 0.467202 22.6258 0.797549 22.6519C2.14205 22.7578 3.43484 22.1112 4.15656 20.9719C4.25805 20.8117 4.4293 20.7089 4.61841 20.6947C4.80753 20.6805 4.99223 20.7565 5.11654 20.8997C6.00104 21.9188 7.25163 22.5475 8.59648 22.6498C9.78297 22.6377 10.878 22.0076 11.4846 20.9866C11.5837 20.8197 11.7575 20.7111 11.9509 20.695C12.1444 20.679 12.3336 20.7576 12.4589 20.9059C13.3305 21.9382 14.5867 22.5684 15.9349 22.6502C17.124 22.6624 18.2269 22.0295 18.8162 20.9958C18.9144 20.8236 19.0913 20.711 19.2889 20.695Z" fill="currentColor" />
	<path fill-rule="evenodd" clip-rule="evenodd" d="M19.2889 15.902C19.4865 15.8859 19.6792 15.9685 19.8039 16.1226C20.6551 17.1748 21.9199 17.807 23.2723 17.8564C23.6035 17.8685 23.8621 18.1467 23.85 18.4779C23.8379 18.809 23.5597 19.0677 23.2285 19.0556C21.7923 19.0032 20.4348 18.4275 19.4032 17.4524C18.5471 18.4755 17.2665 19.0755 15.9048 19.0559C15.8961 19.0558 15.8874 19.0555 15.8787 19.055C14.4513 18.9724 13.1058 18.3952 12.0668 17.4356C11.2049 18.4495 9.93456 19.0511 8.57857 19.056C8.56358 19.0561 8.54859 19.0555 8.53364 19.0545C7.10883 18.9526 5.76814 18.3722 4.72327 17.419C3.72646 18.5573 2.24019 19.1755 0.703207 19.0541C0.372864 19.0281 0.126206 18.7391 0.152282 18.4088C0.178357 18.0784 0.467291 17.8318 0.797635 17.8579C2.14196 17.964 3.43471 17.3178 4.15665 16.1788C4.25815 16.0187 4.42936 15.9159 4.61842 15.9017C4.80748 15.8875 4.99214 15.9634 5.11645 16.1066C6.00111 17.1253 7.25172 17.7537 8.59648 17.8559C9.78284 17.8439 10.8779 17.2141 11.4847 16.1934C11.5838 16.0266 11.7575 15.9181 11.9509 15.902C12.1443 15.886 12.3335 15.9645 12.4587 16.1128C13.3306 17.1447 14.5868 17.7746 15.9349 17.8562C17.1239 17.8686 18.2268 17.2361 18.8163 16.2027C18.9145 16.0305 19.0914 15.918 19.2889 15.902Z" fill="currentColor" />
	<path fill-rule="evenodd" clip-rule="evenodd" d="M11.1976 6.48532C11.4105 6.27082 11.7002 6.15019 12.0024 6.15019C12.3046 6.15019 12.5944 6.27082 12.8073 6.48532C12.8121 6.49018 12.8168 6.49511 12.8215 6.50013L16.8405 10.8361C17.0657 11.0792 17.0513 11.4588 16.8083 11.684C16.5653 11.9093 16.1856 11.8949 15.9604 11.6519L12.0024 7.3817L8.04026 11.6521C7.81488 11.895 7.43525 11.9092 7.19233 11.6838C6.94941 11.4585 6.9352 11.0788 7.16058 10.8359L11.1836 6.49991C11.1882 6.49497 11.1928 6.49011 11.1976 6.48532Z" fill="currentColor" />
	<path fill-rule="evenodd" clip-rule="evenodd" d="M4.24555 11.844L7.84352 17.9577C8.01159 18.2433 7.91632 18.611 7.63074 18.7791C7.34515 18.9472 6.97739 18.8519 6.80932 18.5663L3.04991 12.1783C2.85107 11.8429 2.86837 11.4217 3.0942 11.1036L3.0971 11.0996C3.30762 10.8082 3.64708 10.6383 4.0061 10.644H19.9957C20.3523 10.6393 20.6895 10.8066 20.9013 11.0939L20.9086 11.1037C21.1322 11.4202 21.1502 11.8382 20.955 12.1728C20.9547 12.1733 20.9545 12.1737 20.9542 12.1741L17.2476 18.5718C17.0815 18.8585 16.7144 18.9563 16.4276 18.7902C16.1409 18.624 16.0431 18.2569 16.2093 17.9702L19.7586 11.844H4.24555Z" fill="currentColor" />
	<path fill-rule="evenodd" clip-rule="evenodd" d="M20.3769 0.14968C22.2136 0.0834367 23.7639 1.50837 23.8498 3.34702C23.8506 3.36567 23.8506 3.38434 23.8498 3.40298C23.7638 5.24451 22.2088 6.67102 20.3683 6.6H16.8052C15.5334 6.64653 14.4599 5.6597 14.4011 4.38669C14.4002 4.36824 14.4002 4.34976 14.4011 4.33132C14.4599 3.05761 15.5345 2.0704 16.8073 2.11808C16.9349 2.11917 17.062 2.12999 17.1875 2.1503C17.7441 0.921721 18.9906 0.115871 20.3769 0.14968ZM22.6496 3.375C22.5799 2.20266 21.5827 1.29946 20.4059 1.34946C20.3913 1.35008 20.3766 1.35017 20.362 1.34972C19.3206 1.31769 18.3983 2.01695 18.1478 3.02822C18.1051 3.20061 17.9883 3.34523 17.8287 3.42316C17.6691 3.50108 17.4832 3.50431 17.321 3.43196C17.1542 3.35755 16.9737 3.31873 16.791 3.318C16.7833 3.31797 16.7757 3.31779 16.768 3.31746C16.1599 3.29172 15.644 3.75514 15.6014 4.359C15.644 4.96286 16.1599 5.42628 16.768 5.40054C16.7765 5.40018 16.785 5.4 16.7934 5.4H20.3804C20.3889 5.4 20.3974 5.40018 20.4059 5.40054C21.5827 5.45054 22.5799 4.54734 22.6496 3.375Z" fill="currentColor" />
</svg>
