<svg viewBox="0 0 24 24" fill="none" xmlns="http://www.w3.org/2000/svg">
	<path d="M5.66977 22.63H0.809767V8.7H5.66977V22.63ZM15.7598 13.24C15.1922 13.24 14.6479 13.4655 14.2466 13.8668C13.8452 14.2681 13.6198 14.8124 13.6198 15.38V22.63H8.50977V8.7H13.6198V10.29C14.8175 9.27606 16.3306 8.71039 17.8998 8.69C21.0698 8.69 23.2698 11.04 23.2698 15.5V22.63H17.8998V15.38C17.9011 15.0981 17.8467 14.8188 17.7397 14.558C17.6328 14.2972 17.4754 14.0601 17.2765 13.8603C17.0777 13.6606 16.8413 13.502 16.581 13.3939C16.3207 13.2857 16.0416 13.23 15.7598 13.23V13.24ZM5.75977 3.88C5.75977 4.37446 5.61314 4.85781 5.33844 5.26893C5.06374 5.68005 4.67329 6.00048 4.21648 6.1897C3.75966 6.37892 3.25699 6.42843 2.77204 6.33197C2.28709 6.2355 1.84163 5.9974 1.492 5.64777C1.14237 5.29814 0.904267 4.85268 0.807804 4.36773C0.71134 3.88278 0.760849 3.38011 0.950068 2.9233C1.13929 2.46648 1.45972 2.07603 1.87084 1.80133C2.28196 1.52663 2.76531 1.38 3.25977 1.38C3.91934 1.38528 4.55009 1.651 5.01462 2.11927C5.47914 2.58754 5.73979 3.22041 5.73977 3.88H5.75977Z" fill="currentColor" />
</svg>
