<svg viewBox="0 0 24 24" fill="none" xmlns="http://www.w3.org/2000/svg">
	<path fill-rule="evenodd" clip-rule="evenodd" d="M11.1995 2.09855C13.3992 -0.0131164 16.7391 -0.553017 19.5304 0.740009C19.7102 0.823302 19.8372 0.99 19.8699 1.18544C19.9026 1.38089 19.8367 1.57987 19.6938 1.71714L16.2748 5.0013L16.2747 5.00142C15.642 5.60882 15.642 6.58308 16.2747 7.19048C16.9212 7.81113 17.9791 7.81113 18.6256 7.19048L22.0456 3.90728C22.1832 3.7752 22.3754 3.7164 22.5633 3.74887C22.7513 3.78135 22.9126 3.90123 22.9978 4.07182C24.3513 6.77925 23.7762 10.0093 21.5775 12.1277L21.5757 12.1293C21.3915 12.3054 21.1994 12.4706 21.0003 12.6246C20.9771 12.6453 20.9526 12.664 20.9271 12.6805C18.8609 14.2377 16.0718 14.6161 13.6294 13.6503L5.13665 21.8024L5.1366 21.8024C4.02544 22.8688 2.2339 22.8686 1.12307 21.8018C-0.00153983 20.7219 -0.001266 18.9607 1.12363 17.881C1.12366 17.881 1.12368 17.881 1.1237 17.881L9.59204 9.75137C8.48026 7.13236 9.10395 4.11031 11.1995 2.09855ZM20.6289 11.3715C20.6683 11.3357 20.7073 11.2995 20.7458 11.2626C22.3655 9.70132 22.9157 7.43013 22.2429 5.38139L19.4567 8.05614C19.0324 8.4634 18.509 8.71513 17.9621 8.81133L20.6289 11.3715ZM15.4195 8.03266C15.4269 8.04065 15.4346 8.04848 15.4426 8.05614L19.6495 12.0947C17.8966 13.1372 15.6724 13.2826 13.7512 12.3977C13.5271 12.2945 13.2626 12.339 13.0847 12.5098L4.3057 20.9367C3.65895 21.5573 2.60078 21.5572 1.95424 20.9363C1.3215 20.3287 1.32165 19.3542 1.9546 18.7468L1.95467 18.7467L10.7317 10.3208C10.9216 10.1385 10.9705 9.85368 10.8522 9.61848C9.73209 7.39001 10.1987 4.72278 12.0306 2.96421C13.6513 1.40834 16.0279 0.866677 18.179 1.50829L15.4436 4.13576C15.4436 4.1358 15.4435 4.13584 15.4435 4.13588C14.3271 5.20777 14.3191 6.95112 15.4195 8.03266Z" fill="currentColor" />
</svg>
