<svg viewBox="0 0 24 24" fill="none" xmlns="http://www.w3.org/2000/svg">
	<path fill-rule="evenodd" clip-rule="evenodd" d="M2.3999 14.25C2.3999 8.94809 6.69797 4.65002 11.9999 4.65002C17.3018 4.65002 21.5999 8.94809 21.5999 14.25C21.5999 19.552 17.3018 23.85 11.9999 23.85C6.69797 23.85 2.3999 19.552 2.3999 14.25ZM11.9999 5.85002C7.36071 5.85002 3.5999 9.61083 3.5999 14.25C3.5999 18.8892 7.36071 22.65 11.9999 22.65C16.6391 22.65 20.3999 18.8892 20.3999 14.25C20.3999 9.61083 16.6391 5.85002 11.9999 5.85002Z" fill="currentColor" />
	<path fill-rule="evenodd" clip-rule="evenodd" d="M20.2992 5.20076C20.5335 5.43507 20.5335 5.81497 20.2992 6.04929L18.4242 7.92429C18.1899 8.1586 17.81 8.1586 17.5756 7.92429C17.3413 7.68997 17.3413 7.31007 17.5756 7.07576L19.4506 5.20076C19.685 4.96645 20.0649 4.96645 20.2992 5.20076Z" fill="currentColor" />
	<path fill-rule="evenodd" clip-rule="evenodd" d="M19.0756 4.82576C19.31 4.59145 19.6899 4.59145 19.9242 4.82576L20.6742 5.57576C20.9085 5.81007 20.9085 6.18997 20.6742 6.42429C20.4399 6.6586 20.06 6.6586 19.8256 6.42429L19.0756 5.67429C18.8413 5.43997 18.8413 5.06007 19.0756 4.82576Z" fill="currentColor" />
	<path fill-rule="evenodd" clip-rule="evenodd" d="M11.9999 0.150024C12.3313 0.150024 12.5999 0.418654 12.5999 0.750024V5.25002C12.5999 5.5814 12.3313 5.85002 11.9999 5.85002C11.6685 5.85002 11.3999 5.5814 11.3999 5.25002V0.750024C11.3999 0.418654 11.6685 0.150024 11.9999 0.150024Z" fill="currentColor" />
	<path fill-rule="evenodd" clip-rule="evenodd" d="M9.1499 0.750024C9.1499 0.418654 9.41853 0.150024 9.7499 0.150024H14.2499C14.5813 0.150024 14.8499 0.418654 14.8499 0.750024C14.8499 1.0814 14.5813 1.35002 14.2499 1.35002H9.7499C9.41853 1.35002 9.1499 1.0814 9.1499 0.750024Z" fill="currentColor" />
	<path fill-rule="evenodd" clip-rule="evenodd" d="M7.84769 10.4038C8.09358 10.1817 8.47299 10.2009 8.69513 10.4468L12.4451 14.5978C12.6673 14.8437 12.648 15.2231 12.4021 15.4452C12.1562 15.6674 11.7768 15.6481 11.5547 15.4022L7.80468 11.2512C7.58254 11.0053 7.6018 10.6259 7.84769 10.4038Z" fill="currentColor" />
</svg>
