<svg viewBox="0 0 24 24" fill="none" xmlns="http://www.w3.org/2000/svg">
	<g>
		<path d="M8.25498 15.7587L6.31564 11.9597L8.63608 8.38113L10.5754 12.1801L8.25498 15.7587ZM3.23433 15.9267L1.29498 12.1284L5.55477 12.3488L7.49345 16.1478L3.23433 15.9267ZM3.65991 7.69595L7.91903 7.91638L5.59859 11.495L1.33947 11.2745L3.65991 7.69595ZM8.94879 7.11368L3.21109 6.81691L0.0853011 11.6377L2.69721 16.7553L8.43491 17.0521L11.5607 12.2313L8.94879 7.11368Z" fill="currentColor" />
		<path d="M18.4496 5.0774L15.5934 1.90979L19.7656 1.02078L22.6211 4.1884L18.4496 5.0774ZM21.4845 9.08158L17.313 9.97124L18.6276 5.91396L22.4558 5.09799L22.7991 5.02429L21.4845 9.08158ZM16.4997 9.70766L13.6441 6.54005L14.9587 2.48276L17.8149 5.65038L16.4997 9.70766ZM14.4501 1.28038L12.6781 6.74586L16.5256 11.013L22.1444 9.81456L23.9165 4.34841L20.069 0.0813188L14.4501 1.28038Z" fill="currentColor" />
		<path d="M16.906 17.9716L15.4566 13.9601L19.6553 14.7104L21.1047 18.7219L16.906 17.9716ZM18.206 22.8236L14.0073 22.0734L16.756 18.8128L20.9547 19.5631L18.206 22.8236ZM11.9039 17.5115L14.6526 14.2503L16.102 18.2618L13.3533 21.5223L11.9039 17.5115ZM14.636 12.945L10.9326 17.3376L12.8852 22.7413L18.5413 23.7525L22.244 19.3599L20.2914 13.9562L14.636 12.945Z" fill="currentColor" />
		<path fill-rule="evenodd" clip-rule="evenodd" d="M20.0953 6.10352e-05L24 4.33059L22.2016 9.87799L16.4992 11.0942L12.5946 6.76368L14.3929 1.21695L20.0953 6.10352e-05ZM14.5073 1.34381L12.7616 6.72805L16.5519 10.9317L22.0872 9.75112L23.8329 4.36622L20.0426 0.162577L14.5073 1.34381ZM19.7919 0.939534L22.7619 4.23404L18.4233 5.15865L15.4527 1.86415L19.7919 0.939534ZM15.7342 1.95543L18.476 4.99616L22.4804 4.14276L19.7392 1.10203L15.7342 1.95543ZM14.9278 2.33806L17.8985 5.63256L16.5305 9.85237L13.5606 6.55786L14.9278 2.33806ZM14.9896 2.62746L13.7276 6.52223L16.4688 9.56296L17.7314 5.66819L14.9896 2.62746ZM22.909 4.92503L21.5417 9.14501L17.2031 10.0703L18.5704 5.85052L22.4403 5.02566L22.909 4.92503ZM22.6891 5.12355L22.4713 5.17031L18.6848 5.9774L17.4229 9.87218L21.4273 9.01814L22.6891 5.12355ZM3.17226 6.74083L8.99526 7.04201L11.646 12.2357L8.47374 17.1282L2.65074 16.827L0 11.6333L3.17226 6.74083ZM3.24992 6.89298L0.170602 11.6421L2.74368 16.6836L8.39608 16.976L11.4754 12.2269L8.90232 7.18535L3.24992 6.89298ZM3.62108 7.61987L8.0508 7.84912L5.63742 11.571L1.2077 11.3418L3.62108 7.61987ZM3.69874 7.77203L1.47124 11.2073L5.55976 11.4189L7.78726 7.98363L3.69874 7.77203ZM8.64371 8.23339L10.6607 12.1846L8.24735 15.9065L6.23033 11.9553L8.64371 8.23339ZM6.40094 11.9641L8.26262 15.611L10.4901 12.1757L8.62844 8.52887L6.40094 11.9641ZM1.17083 12.0479L5.60124 12.2771L7.61759 16.2283L3.18786 15.9984L1.17083 12.0479ZM1.41914 12.2089L3.2808 15.8551L7.36931 16.0673L5.50829 12.4205L1.41914 12.2089ZM14.607 12.8647L20.3465 13.8909L22.3281 19.3749L18.5703 23.8328L12.8302 22.8066L10.8485 17.3225L14.607 12.8647ZM14.6651 13.0253L11.0167 17.3526L12.9403 22.676L18.5122 23.6721L22.1599 19.3449L20.2363 14.0215L14.6651 13.0253ZM15.3435 13.8648L19.7104 14.6451L21.2178 18.8172L16.851 18.0369L15.3435 13.8648ZM15.5698 14.0555L16.9611 17.9063L20.9916 18.6265L19.6003 14.7757L15.5698 14.0555ZM14.6787 14.1046L16.1861 18.2768L13.3273 21.668L11.8199 17.4965L14.6787 14.1046ZM11.988 17.5265L13.3793 21.3767L16.0179 18.2467L14.6266 14.3959L11.988 17.5265ZM16.7269 18.7325L21.0938 19.5128L18.235 22.904L13.8681 22.1237L16.7269 18.7325ZM16.785 18.8932L14.1464 22.0231L18.177 22.7433L20.8155 19.6133L16.785 18.8932Z" fill="currentColor" />
	</g>
	<defs>
		<clipPath id="clip0_360_7591">
			<rect fill="white" />
		</clipPath>
	</defs>
</svg>
