<svg viewBox="0 0 24 24" fill="none" xmlns="http://www.w3.org/2000/svg">
	<path fill-rule="evenodd" clip-rule="evenodd" d="M12.0999 22.2501C12.0999 23.1338 11.3836 23.8501 10.4999 23.8501H1.9999C1.11625 23.8501 0.399902 23.1338 0.399902 22.2501V13.7501C0.399902 12.8665 1.11625 12.1501 1.9999 12.1501H10.4999C11.3836 12.1501 12.0999 12.8665 12.0999 13.7501V22.2501ZM10.4999 22.6501C10.7208 22.6501 10.8999 22.471 10.8999 22.2501V13.7501C10.8999 13.5292 10.7208 13.3501 10.4999 13.3501H1.9999C1.77899 13.3501 1.5999 13.5292 1.5999 13.7501V22.2501C1.5999 22.471 1.77899 22.6501 1.9999 22.6501H10.4999Z" fill="currentColor" />
	<path fill-rule="evenodd" clip-rule="evenodd" d="M3.3999 16.1251C3.3999 15.5866 3.83642 15.1501 4.3749 15.1501C4.70627 15.1501 4.9749 15.4188 4.9749 15.7501C4.9749 16.0139 4.80469 16.2379 4.56811 16.3183C4.48769 16.5549 4.26368 16.7251 3.9999 16.7251C3.66853 16.7251 3.3999 16.4565 3.3999 16.1251Z" fill="currentColor" />
	<path fill-rule="evenodd" clip-rule="evenodd" d="M3.7749 15.7501C3.7749 15.4188 4.04353 15.1501 4.3749 15.1501C4.91338 15.1501 5.3499 15.5866 5.3499 16.1251C5.3499 16.4565 5.08127 16.7251 4.7499 16.7251C4.48613 16.7251 4.26211 16.5549 4.18169 16.3183C3.94511 16.2379 3.7749 16.0139 3.7749 15.7501Z" fill="currentColor" />
	<path fill-rule="evenodd" clip-rule="evenodd" d="M4.7499 15.5251C5.08127 15.5251 5.3499 15.7938 5.3499 16.1251C5.3499 16.6636 4.91338 17.1001 4.3749 17.1001C4.04353 17.1001 3.7749 16.8315 3.7749 16.5001C3.7749 16.2364 3.94511 16.0123 4.18169 15.9319C4.26211 15.6953 4.48613 15.5251 4.7499 15.5251Z" fill="currentColor" />
	<path fill-rule="evenodd" clip-rule="evenodd" d="M4.56811 15.9319C4.48769 15.6953 4.26368 15.5251 3.9999 15.5251C3.66853 15.5251 3.3999 15.7938 3.3999 16.1251C3.3999 16.6636 3.83642 17.1001 4.3749 17.1001C4.70627 17.1001 4.9749 16.8315 4.9749 16.5001C4.9749 16.2364 4.80469 16.0123 4.56811 15.9319Z" fill="currentColor" />
	<path fill-rule="evenodd" clip-rule="evenodd" d="M7.1499 16.1251C7.1499 15.5866 7.58642 15.1501 8.1249 15.1501C8.45627 15.1501 8.7249 15.4188 8.7249 15.7501C8.7249 16.0139 8.55469 16.2379 8.31811 16.3183C8.23769 16.5549 8.01368 16.7251 7.7499 16.7251C7.41853 16.7251 7.1499 16.4565 7.1499 16.1251Z" fill="currentColor" />
	<path fill-rule="evenodd" clip-rule="evenodd" d="M7.5249 15.7501C7.5249 15.4188 7.79353 15.1501 8.1249 15.1501C8.66338 15.1501 9.0999 15.5866 9.0999 16.1251C9.0999 16.4565 8.83127 16.7251 8.4999 16.7251C8.23613 16.7251 8.01211 16.5549 7.93169 16.3183C7.69511 16.2379 7.5249 16.0139 7.5249 15.7501Z" fill="currentColor" />
	<path fill-rule="evenodd" clip-rule="evenodd" d="M8.4999 15.5251C8.83127 15.5251 9.0999 15.7938 9.0999 16.1251C9.0999 16.6636 8.66338 17.1001 8.1249 17.1001C7.79353 17.1001 7.5249 16.8315 7.5249 16.5001C7.5249 16.2364 7.69511 16.0123 7.93169 15.9319C8.01211 15.6953 8.23613 15.5251 8.4999 15.5251Z" fill="currentColor" />
	<path fill-rule="evenodd" clip-rule="evenodd" d="M8.31811 15.9319C8.23769 15.6953 8.01368 15.5251 7.7499 15.5251C7.41853 15.5251 7.1499 15.7938 7.1499 16.1251C7.1499 16.6636 7.58642 17.1001 8.1249 17.1001C8.45627 17.1001 8.7249 16.8315 8.7249 16.5001C8.7249 16.2364 8.55469 16.0123 8.31811 15.9319Z" fill="currentColor" />
	<path fill-rule="evenodd" clip-rule="evenodd" d="M7.1499 19.8751C7.1499 19.3366 7.58642 18.9001 8.1249 18.9001C8.45627 18.9001 8.7249 19.1688 8.7249 19.5001C8.7249 19.7639 8.55469 19.9879 8.31811 20.0683C8.23769 20.3049 8.01368 20.4751 7.7499 20.4751C7.41853 20.4751 7.1499 20.2065 7.1499 19.8751Z" fill="currentColor" />
	<path fill-rule="evenodd" clip-rule="evenodd" d="M7.5249 19.5001C7.5249 19.1688 7.79353 18.9001 8.1249 18.9001C8.66338 18.9001 9.0999 19.3366 9.0999 19.8751C9.0999 20.2065 8.83127 20.4751 8.4999 20.4751C8.23613 20.4751 8.01211 20.3049 7.93169 20.0683C7.69511 19.9879 7.5249 19.7639 7.5249 19.5001Z" fill="currentColor" />
	<path fill-rule="evenodd" clip-rule="evenodd" d="M8.4999 19.2751C8.83127 19.2751 9.0999 19.5438 9.0999 19.8751C9.0999 20.4136 8.66338 20.8501 8.1249 20.8501C7.79353 20.8501 7.5249 20.5815 7.5249 20.2501C7.5249 19.9864 7.69511 19.7623 7.93169 19.6819C8.01211 19.4453 8.23613 19.2751 8.4999 19.2751Z" fill="currentColor" />
	<path fill-rule="evenodd" clip-rule="evenodd" d="M8.31811 19.6819C8.23769 19.4453 8.01368 19.2751 7.7499 19.2751C7.41853 19.2751 7.1499 19.5438 7.1499 19.8751C7.1499 20.4136 7.58642 20.8501 8.1249 20.8501C8.45627 20.8501 8.7249 20.5815 8.7249 20.2501C8.7249 19.9864 8.55469 19.7623 8.31811 19.6819Z" fill="currentColor" />
	<path fill-rule="evenodd" clip-rule="evenodd" d="M3.3999 19.8751C3.3999 19.3366 3.83642 18.9001 4.3749 18.9001C4.70627 18.9001 4.9749 19.1688 4.9749 19.5001C4.9749 19.7639 4.80469 19.9879 4.56811 20.0683C4.48769 20.3049 4.26368 20.4751 3.9999 20.4751C3.66853 20.4751 3.3999 20.2065 3.3999 19.8751Z" fill="currentColor" />
	<path fill-rule="evenodd" clip-rule="evenodd" d="M3.7749 19.5001C3.7749 19.1688 4.04353 18.9001 4.3749 18.9001C4.91338 18.9001 5.3499 19.3366 5.3499 19.8751C5.3499 20.2065 5.08127 20.4751 4.7499 20.4751C4.48613 20.4751 4.26211 20.3049 4.18169 20.0683C3.94511 19.9879 3.7749 19.7639 3.7749 19.5001Z" fill="currentColor" />
	<path fill-rule="evenodd" clip-rule="evenodd" d="M4.7499 19.2751C5.08127 19.2751 5.3499 19.5438 5.3499 19.8751C5.3499 20.4136 4.91338 20.8501 4.3749 20.8501C4.04353 20.8501 3.7749 20.5815 3.7749 20.2501C3.7749 19.9864 3.94511 19.7623 4.18169 19.6819C4.26211 19.4453 4.48613 19.2751 4.7499 19.2751Z" fill="currentColor" />
	<path fill-rule="evenodd" clip-rule="evenodd" d="M4.56811 19.6819C4.48769 19.4453 4.26368 19.2751 3.9999 19.2751C3.66853 19.2751 3.3999 19.5438 3.3999 19.8751C3.3999 20.4136 3.83642 20.8501 4.3749 20.8501C4.70627 20.8501 4.9749 20.5815 4.9749 20.2501C4.9749 19.9864 4.80469 19.7623 4.56811 19.6819Z" fill="currentColor" />
	<path fill-rule="evenodd" clip-rule="evenodd" d="M17.1249 1.34355C15.0682 1.34355 13.3007 2.80287 12.9115 4.82239C12.5222 6.84191 13.6206 8.85363 15.5299 9.61811C15.7872 9.72112 15.9404 9.9869 15.9007 10.2612L14.8767 17.3292C14.8292 17.6571 14.5248 17.8844 14.1969 17.8369C13.8689 17.7894 13.6416 17.485 13.6891 17.1571L14.6484 10.5356C12.4761 9.43967 11.2654 7.02186 11.7332 4.59526C12.2313 2.01097 14.493 0.143555 17.1249 0.143555C19.7568 0.143555 22.0185 2.01097 22.5166 4.59526C22.9838 7.01875 21.7768 9.43348 19.6097 10.5314L20.8021 17.7641H21.5789C22.5423 17.7642 23.3822 18.4199 23.616 19.3545C23.6242 19.3873 23.6296 19.4207 23.6322 19.4544L23.7821 21.414C23.8796 22.0156 23.711 22.6307 23.3189 23.0987C22.9198 23.5751 22.3303 23.8502 21.7089 23.8501C21.7089 23.8501 21.7089 23.8501 21.7089 23.8501H15.2499C14.9185 23.8501 14.6499 23.5815 14.6499 23.2501C14.6499 22.9188 14.9185 22.6501 15.2499 22.6501H21.7089C21.9752 22.6502 22.228 22.5322 22.399 22.3281C22.5701 22.1239 22.6419 21.8545 22.5952 21.5923C22.5917 21.5727 22.5892 21.5528 22.5876 21.5329L22.44 19.6029C22.3257 19.2253 21.9769 18.9642 21.5789 18.9641C21.5789 18.9641 21.5789 18.9641 21.5789 18.9641H20.2929C19.9992 18.9641 19.7487 18.7515 19.7009 18.4617L18.3509 10.2727C18.3051 9.99498 18.4586 9.72274 18.7199 9.61811C20.6292 8.85363 21.7276 6.84191 21.3383 4.82239C20.9491 2.80287 19.1816 1.34355 17.1249 1.34355Z" fill="currentColor" />
</svg>
