<svg viewBox="0 0 24 24" fill="none" xmlns="http://www.w3.org/2000/svg">
	<path fill-rule="evenodd" clip-rule="evenodd" d="M5.39996 8.26309C5.39996 6.27486 7.01174 4.66309 8.99996 4.66309H15C16.9882 4.66309 18.6 6.27486 18.6 8.26309V13.5481C18.6 13.8795 18.3313 14.1481 18 14.1481C17.6686 14.1481 17.4 13.8795 17.4 13.5481V8.26309C17.4 6.9376 16.3254 5.86309 15 5.86309H8.99996C7.67448 5.86309 6.59996 6.9376 6.59996 8.26309V13.5481C6.59996 13.8795 6.33134 14.1481 5.99996 14.1481C5.66859 14.1481 5.39996 13.8795 5.39996 13.5481V8.26309Z" fill="currentColor" />
	<path fill-rule="evenodd" clip-rule="evenodd" d="M11.2202 10.813C11.7208 10.6128 12.2792 10.6128 12.7798 10.813L22.7228 14.791C23.0305 14.9141 23.1801 15.2633 23.057 15.571C22.9339 15.8786 22.5848 16.0282 22.2771 15.9052L12.3342 11.9272C12.1196 11.8414 11.8803 11.8414 11.6658 11.9272L1.72284 15.9052C1.41518 16.0282 1.06598 15.8786 0.942894 15.571C0.819804 15.2633 0.96943 14.9141 1.27709 14.791L11.2202 10.813Z" fill="currentColor" />
	<path fill-rule="evenodd" clip-rule="evenodd" d="M3.16787 14.035C3.48217 13.93 3.82207 14.0997 3.92705 14.414L5.51705 19.174C5.62204 19.4883 5.45236 19.8282 5.13806 19.9332C4.82376 20.0382 4.48386 19.8685 4.37887 19.5542L2.78887 14.7942C2.68389 14.4799 2.85357 14.14 3.16787 14.035Z" fill="currentColor" />
	<path fill-rule="evenodd" clip-rule="evenodd" d="M12 10.6631C12.3313 10.6631 12.6 10.9317 12.6 11.2631V18.7631C12.6 19.0945 12.3313 19.3631 12 19.3631C11.6686 19.3631 11.4 19.0945 11.4 18.7631V11.2631C11.4 10.9317 11.6686 10.6631 12 10.6631Z" fill="currentColor" />
	<path fill-rule="evenodd" clip-rule="evenodd" d="M20.8321 14.035C21.1464 14.14 21.3161 14.4799 21.211 14.7942L19.548 19.7712C19.443 20.0855 19.1031 20.2552 18.7888 20.1502C18.4745 20.0451 18.3049 19.7052 18.4099 19.3909L20.0729 14.4139C20.1779 14.0996 20.5178 13.93 20.8321 14.035Z" fill="currentColor" />
	<path fill-rule="evenodd" clip-rule="evenodd" d="M11.7771 13.966C11.9202 13.9088 12.0798 13.9088 12.2228 13.966L19.8698 17.025C20.1775 17.1481 20.3271 17.4973 20.204 17.8049C20.081 18.1126 19.7318 18.2622 19.4241 18.1392L12 15.1693L4.57581 18.1392C4.26814 18.2622 3.91896 18.1126 3.79588 17.8049C3.67281 17.4973 3.82245 17.1481 4.13012 17.025L11.7771 13.966Z" fill="currentColor" />
	<path fill-rule="evenodd" clip-rule="evenodd" d="M5.27089 21.1635C5.43328 21.1691 5.58643 21.2404 5.69531 21.361C6.44369 22.1899 7.50819 22.663 8.62496 22.663C9.74174 22.663 10.8062 22.1899 11.5546 21.361C11.6684 21.235 11.8302 21.1631 12 21.1631C12.1697 21.1631 12.3315 21.235 12.4453 21.361C13.1937 22.1899 14.2582 22.663 15.375 22.663C16.4917 22.663 17.5562 22.1899 18.3046 21.361C18.4135 21.2404 18.5666 21.1691 18.729 21.1635C18.8914 21.1578 19.0492 21.2182 19.1662 21.3309C20.2329 22.3584 21.7064 22.8495 23.1763 22.6676C23.5051 22.6269 23.8047 22.8605 23.8454 23.1894C23.8861 23.5182 23.6525 23.8178 23.3237 23.8585C21.6894 24.0608 20.0515 23.5944 18.7744 22.5807C17.8399 23.4027 16.6329 23.863 15.375 23.863C14.128 23.863 12.931 23.4107 12 22.6021C11.0689 23.4107 9.87194 23.863 8.62496 23.863C7.36707 23.863 6.16003 23.4027 5.22557 22.5807C3.94839 23.5944 2.31054 24.0608 0.676267 23.8585C0.347406 23.8178 0.113806 23.5182 0.154508 23.1894C0.19521 22.8605 0.4948 22.6269 0.823662 22.6676C2.29353 22.8495 3.76699 22.3584 4.83373 21.3309C4.95076 21.2182 5.10851 21.1578 5.27089 21.1635Z" fill="currentColor" />
	<path fill-rule="evenodd" clip-rule="evenodd" d="M8.39996 8.26308C8.39996 7.93171 8.66859 7.66308 8.99996 7.66308H15C15.3313 7.66308 15.6 7.93171 15.6 8.26308C15.6 8.59446 15.3313 8.86308 15 8.86308H8.99996C8.66859 8.86308 8.39996 8.59446 8.39996 8.26308Z" fill="currentColor" />
	<path fill-rule="evenodd" clip-rule="evenodd" d="M9.89996 1.51309C9.89996 0.767501 10.5044 0.163086 11.25 0.163086H12.75C13.4955 0.163086 14.1 0.767501 14.1 1.51309V5.26309C14.1 5.59446 13.8313 5.86309 13.5 5.86309H10.5C10.1686 5.86309 9.89996 5.59446 9.89996 5.26309V1.51309ZM11.25 1.36309C11.1671 1.36309 11.1 1.43024 11.1 1.51309V4.66309H12.9V1.51309C12.9 1.43024 12.8328 1.36309 12.75 1.36309H11.25Z" fill="currentColor" />
</svg>
