<svg viewBox="0 0 24 24" fill="none" xmlns="http://www.w3.org/2000/svg">
	<path fill-rule="evenodd" clip-rule="evenodd" d="M1.6499 11.25C1.6499 10.9186 1.91853 10.65 2.2499 10.65H21.7499C22.0813 10.65 22.3499 10.9186 22.3499 11.25V21.75C22.3499 22.9098 21.4097 23.85 20.2499 23.85H3.7499C2.5901 23.85 1.6499 22.9098 1.6499 21.75V11.25ZM2.8499 11.85V21.75C2.8499 22.2471 3.25285 22.65 3.7499 22.65H20.2499C20.747 22.65 21.1499 22.2471 21.1499 21.75V11.85H2.8499Z" fill="currentColor" />
	<path fill-rule="evenodd" clip-rule="evenodd" d="M0.149902 8.24999C0.149902 7.0902 1.0901 6.14999 2.2499 6.14999H21.7499C22.9097 6.14999 23.8499 7.0902 23.8499 8.24999V10.5C23.8499 11.2456 23.2455 11.85 22.4999 11.85H1.4999C0.754318 11.85 0.149902 11.2456 0.149902 10.5V8.24999ZM2.2499 7.34999C1.75285 7.34999 1.3499 7.75294 1.3499 8.24999V10.5C1.3499 10.5828 1.41706 10.65 1.4999 10.65H22.4999C22.5827 10.65 22.6499 10.5828 22.6499 10.5V8.24999C22.6499 7.75294 22.247 7.34999 21.7499 7.34999H2.2499Z" fill="currentColor" />
	<path fill-rule="evenodd" clip-rule="evenodd" d="M4.4999 0.149994C4.83127 0.149994 5.0999 0.418623 5.0999 0.749994C5.0999 2.19135 5.84817 3.53568 7.02147 4.5362C8.19582 5.53761 9.74784 6.14999 11.2499 6.14999C11.5813 6.14999 11.8499 6.41862 11.8499 6.74999C11.8499 7.08137 11.5813 7.34999 11.2499 7.34999C9.43797 7.34999 7.61499 6.61938 6.24284 5.44929C4.86964 4.27831 3.8999 2.62264 3.8999 0.749994C3.8999 0.418623 4.16853 0.149994 4.4999 0.149994Z" fill="currentColor" />
	<path fill-rule="evenodd" clip-rule="evenodd" d="M3.8999 0.749994C3.8999 0.418623 4.16853 0.149994 4.4999 0.149994C6.31184 0.149994 8.13482 0.880613 9.50697 2.0507C10.8802 3.22168 11.8499 4.87735 11.8499 6.74999C11.8499 7.08137 11.5813 7.34999 11.2499 7.34999C10.9185 7.34999 10.6499 7.08137 10.6499 6.74999C10.6499 5.30864 9.90164 3.96431 8.72834 2.96379C7.55399 1.96238 6.00197 1.34999 4.4999 1.34999C4.16853 1.34999 3.8999 1.08136 3.8999 0.749994Z" fill="currentColor" />
	<path fill-rule="evenodd" clip-rule="evenodd" d="M19.4999 0.149994C19.8313 0.149994 20.0999 0.418623 20.0999 0.749994C20.0999 2.62264 19.1302 4.27831 17.757 5.44929C16.3848 6.61938 14.5618 7.34999 12.7499 7.34999C12.4185 7.34999 12.1499 7.08137 12.1499 6.74999C12.1499 6.41862 12.4185 6.14999 12.7499 6.14999C14.252 6.14999 15.804 5.53761 16.9783 4.5362C18.1516 3.53568 18.8999 2.19135 18.8999 0.749994C18.8999 0.418623 19.1685 0.149994 19.4999 0.149994Z" fill="currentColor" />
	<path fill-rule="evenodd" clip-rule="evenodd" d="M14.4928 2.0507C15.865 0.880613 17.688 0.149994 19.4999 0.149994C19.8313 0.149994 20.0999 0.418623 20.0999 0.749994C20.0999 1.08136 19.8313 1.34999 19.4999 1.34999C17.9978 1.34999 16.4458 1.96238 15.2715 2.96379C14.0982 3.96431 13.3499 5.30864 13.3499 6.74999C13.3499 7.08137 13.0813 7.34999 12.7499 7.34999C12.4185 7.34999 12.1499 7.08137 12.1499 6.74999C12.1499 4.87735 13.1196 3.22168 14.4928 2.0507Z" fill="currentColor" />
	<path fill-rule="evenodd" clip-rule="evenodd" d="M9.1499 6.74999C9.1499 6.41862 9.41853 6.14999 9.7499 6.14999H14.2499C14.5813 6.14999 14.8499 6.41862 14.8499 6.74999V23.25C14.8499 23.5814 14.5813 23.85 14.2499 23.85H9.7499C9.41853 23.85 9.1499 23.5814 9.1499 23.25V6.74999ZM10.3499 7.34999V22.65H13.6499V7.34999H10.3499Z" fill="currentColor" />
</svg>
