<svg width="24" height="24" viewBox="0 0 24 24" fill="none" xmlns="http://www.w3.org/2000/svg">
<path fill-rule="evenodd" clip-rule="evenodd" d="M23.822 0.17796C24.0593 0.415241 24.0593 0.799949 23.822 1.03723L1.03723 23.822C0.799949 24.0593 0.415241 24.0593 0.17796 23.822C-0.0593202 23.5848 -0.0593202 23.2001 0.17796 22.9628L22.9628 0.17796C23.2001 -0.0593202 23.5848 -0.0593202 23.822 0.17796Z" fill="#00358D"/>
<path fill-rule="evenodd" clip-rule="evenodd" d="M0.17796 0.17796C0.415241 -0.0593202 0.799949 -0.0593202 1.03723 0.17796L23.822 22.9628C24.0593 23.2001 24.0593 23.5848 23.822 23.822C23.5848 24.0593 23.2001 24.0593 22.9628 23.822L0.17796 1.03723C-0.0593202 0.799949 -0.0593202 0.415241 0.17796 0.17796Z" fill="#00358D"/>
</svg>
