<svg viewBox="0 0 24 24" fill="none" xmlns="http://www.w3.org/2000/svg">
	<path fill-rule="evenodd" clip-rule="evenodd" d="M16.6494 17.25C16.6494 16.0902 17.5896 15.15 18.7494 15.15C19.9092 15.15 20.8494 16.0902 20.8494 17.25C20.8494 18.4098 19.9092 19.35 18.7494 19.35C17.5896 19.35 16.6494 18.4098 16.6494 17.25ZM18.7494 16.35C18.2524 16.35 17.8494 16.7529 17.8494 17.25C17.8494 17.747 18.2524 18.15 18.7494 18.15C19.2465 18.15 19.6494 17.747 19.6494 17.25C19.6494 16.7529 19.2465 16.35 18.7494 16.35Z" fill="currentColor" />
	<path fill-rule="evenodd" clip-rule="evenodd" d="M4.64941 17.25C4.64941 16.0902 5.58962 15.15 6.74941 15.15C7.90921 15.15 8.84941 16.0902 8.84941 17.25C8.84941 18.4098 7.90921 19.35 6.74941 19.35C5.58962 19.35 4.64941 18.4098 4.64941 17.25ZM6.74941 16.35C6.25236 16.35 5.84941 16.7529 5.84941 17.25C5.84941 17.747 6.25236 18.15 6.74941 18.15C7.24647 18.15 7.64941 17.747 7.64941 17.25C7.64941 16.7529 7.24647 16.35 6.74941 16.35Z" fill="currentColor" />
	<path fill-rule="evenodd" clip-rule="evenodd" d="M14.8224 4.64996C15.6179 4.64979 16.3452 5.09911 16.701 5.81056L19.1203 10.65H20.2494C22.2376 10.65 23.8494 12.2617 23.8494 14.25V15.75C23.8494 16.9098 22.9092 17.85 21.7494 17.85H20.2494C19.918 17.85 19.6494 17.5813 19.6494 17.25C19.6494 16.9186 19.918 16.65 20.2494 16.65H21.7494C22.2465 16.65 22.6494 16.247 22.6494 15.75V14.25C22.6494 12.9245 21.5749 11.85 20.2494 11.85H18.7494C18.5221 11.85 18.3144 11.7215 18.2127 11.5183L15.6278 6.34736C15.6278 6.34733 15.6278 6.3474 15.6278 6.34736C15.4753 6.0425 15.1635 5.84986 14.8226 5.84996H11.2494C10.7524 5.84996 10.3494 6.25291 10.3494 6.74996V11.25C10.3494 11.5813 10.0808 11.85 9.74941 11.85H2.24941C1.75236 11.85 1.34941 12.2529 1.34941 12.75V15.75C1.34941 16.247 1.75236 16.65 2.24941 16.65H5.24941C5.58078 16.65 5.84941 16.9186 5.84941 17.25C5.84941 17.5813 5.58078 17.85 5.24941 17.85H2.24941C1.08962 17.85 0.149414 16.9098 0.149414 15.75V12.75C0.149414 11.5902 1.08962 10.65 2.24941 10.65H9.14941V6.74996C9.14941 5.59017 10.0896 4.64996 11.2494 4.64996H14.8224C14.8225 4.64996 14.8224 4.64996 14.8224 4.64996Z" fill="currentColor" />
	<path fill-rule="evenodd" clip-rule="evenodd" d="M7.64941 17.25C7.64941 16.9186 7.91804 16.65 8.24941 16.65H17.2494C17.5808 16.65 17.8494 16.9186 17.8494 17.25C17.8494 17.5813 17.5808 17.85 17.2494 17.85H8.24941C7.91804 17.85 7.64941 17.5813 7.64941 17.25Z" fill="currentColor" />
	<path fill-rule="evenodd" clip-rule="evenodd" d="M9.14941 11.25C9.14941 10.9186 9.41804 10.65 9.74941 10.65H18.7494C19.0808 10.65 19.3494 10.9186 19.3494 11.25C19.3494 11.5813 19.0808 11.85 18.7494 11.85H9.74941C9.41804 11.85 9.14941 11.5813 9.14941 11.25Z" fill="currentColor" />
</svg>
