<svg width="24" height="25" viewBox="0 0 24 25" fill="none" xmlns="http://www.w3.org/2000/svg">
	<path fill-rule="evenodd" clip-rule="evenodd" d="M16.8693 12.7196C16.8693 12.6801 16.8536 12.6421 16.8256 12.6142L6.1063 1.89387C5.87199 1.65955 5.87201 1.27965 6.10634 1.04534C6.34066 0.811041 6.72056 0.811059 6.95487 1.04538L17.6735 11.7651C17.9269 12.0181 18.0693 12.3615 18.0693 12.7196C18.0693 13.0777 17.9269 13.4212 17.6735 13.6742L6.95486 24.3939C6.72056 24.6282 6.34066 24.6282 6.10634 24.3939C5.87201 24.1596 5.87199 23.7797 6.1063 23.5454L16.8253 12.8254C16.8533 12.7974 16.8693 12.7592 16.8693 12.7196Z" fill="currentColor" />
</svg>
