<svg viewBox="0 0 24 24" fill="none" xmlns="http://www.w3.org/2000/svg">
	<path fill-rule="evenodd" clip-rule="evenodd" d="M18.3252 8.58876C18.5595 8.35445 18.9394 8.35445 19.1737 8.58876L20.9994 10.4145L22.8252 8.58876C23.0595 8.35445 23.4394 8.35445 23.6737 8.58876C23.908 8.82308 23.908 9.20298 23.6737 9.43729L21.4237 11.6873C21.1894 11.9216 20.8095 11.9216 20.5752 11.6873L18.3252 9.43729C18.0908 9.20298 18.0908 8.82308 18.3252 8.58876Z" fill="currentColor" />
	<path fill-rule="evenodd" clip-rule="evenodd" d="M17.3994 5.26303C17.3994 4.93165 17.668 4.66303 17.9994 4.66303C19.9876 4.66303 21.5994 6.2748 21.5994 8.26303V11.263C21.5994 11.5944 21.3308 11.863 20.9994 11.863C20.668 11.863 20.3994 11.5944 20.3994 11.263V8.26303C20.3994 6.93754 19.3249 5.86303 17.9994 5.86303C17.668 5.86303 17.3994 5.5944 17.3994 5.26303Z" fill="currentColor" />
	<path fill-rule="evenodd" clip-rule="evenodd" d="M2.57515 12.3388C2.80947 12.1044 3.18937 12.1044 3.42368 12.3388L5.67368 14.5888C5.908 14.8231 5.908 15.203 5.67368 15.4373C5.43937 15.6716 5.05947 15.6716 4.82515 15.4373L2.99942 13.6116L1.17368 15.4373C0.939366 15.6716 0.559467 15.6716 0.325153 15.4373C0.0908379 15.203 0.0908379 14.8231 0.325153 14.5888L2.57515 12.3388Z" fill="currentColor" />
	<path fill-rule="evenodd" clip-rule="evenodd" d="M2.99942 12.163C3.33079 12.163 3.59942 12.4317 3.59942 12.763V15.763C3.59942 17.0885 4.67393 18.163 5.99942 18.163C6.33079 18.163 6.59942 18.4317 6.59942 18.763C6.59942 19.0944 6.33079 19.363 5.99942 19.363C4.01119 19.363 2.39942 17.7513 2.39942 15.763V12.763C2.39942 12.4317 2.66805 12.163 2.99942 12.163Z" fill="currentColor" />
	<path fill-rule="evenodd" clip-rule="evenodd" d="M0.227291 4.96742C0.333793 4.7793 0.533249 4.66303 0.749417 4.66303H14.2494C14.4656 4.66303 14.665 4.7793 14.7715 4.96742C14.878 5.15553 14.8751 5.38638 14.7639 5.57174L12.4369 9.44974C12.2664 9.73388 11.8978 9.82601 11.6137 9.65551C11.3296 9.48501 11.2374 9.11645 11.4079 8.83231L13.1897 5.86303H1.80918L3.5909 8.83231C3.7614 9.11645 3.66928 9.48501 3.38513 9.65551C3.10099 9.82601 2.73243 9.73388 2.56193 9.44974L0.234933 5.57174C0.123708 5.38638 0.120789 5.15553 0.227291 4.96742Z" fill="currentColor" />
	<path fill-rule="evenodd" clip-rule="evenodd" d="M3.91733 2.1175C3.98411 1.8504 4.2241 1.66303 4.49942 1.66303H10.4994C10.7747 1.66303 11.0147 1.8504 11.0815 2.1175L11.8315 5.1175L11.2494 5.26303V5.86303H3.74942C3.56466 5.86303 3.3902 5.7779 3.27649 5.63227C3.16279 5.48664 3.12252 5.29675 3.16733 5.1175L3.91733 2.1175ZM10.481 4.66303L10.031 2.86303H4.96788L4.51788 4.66303H10.481Z" fill="currentColor" />
	<path fill-rule="evenodd" clip-rule="evenodd" d="M8.99942 0.163025C9.33079 0.163025 9.59942 0.431654 9.59942 0.763025V2.26303C9.59942 2.5944 9.33079 2.86302 8.99942 2.86302C8.66805 2.86302 8.39942 2.5944 8.39942 2.26303V0.763025C8.39942 0.431654 8.66805 0.163025 8.99942 0.163025Z" fill="currentColor" />
	<path fill-rule="evenodd" clip-rule="evenodd" d="M4.12442 7.66303C4.29844 7.66303 4.46389 7.73858 4.57785 7.87009C5.30737 8.71195 6.37349 9.18578 7.48723 9.16315C7.49535 9.16298 7.50348 9.16298 7.5116 9.16315C8.62534 9.18578 9.69146 8.71195 10.421 7.87009C10.5349 7.73858 10.7004 7.66303 10.8744 7.66303C11.0484 7.66303 11.2139 7.73858 11.3279 7.87009C12.0574 8.71195 13.1235 9.18578 14.2372 9.16315C14.5685 9.15642 14.8426 9.41953 14.8493 9.75084C14.856 10.0821 14.5929 10.3562 14.2616 10.3629C13.008 10.3884 11.8001 9.93738 10.8744 9.11503C9.9517 9.93472 8.74864 10.3854 7.49942 10.3631C6.25019 10.3854 5.04713 9.93472 4.12442 9.11504C3.1987 9.93738 1.99081 10.3884 0.737229 10.3629C0.405926 10.3562 0.142809 10.0821 0.14954 9.75084C0.156272 9.41953 0.430302 9.15642 0.761605 9.16315C1.87534 9.18578 2.94146 8.71195 3.67098 7.87009C3.78495 7.73858 3.95039 7.66303 4.12442 7.66303Z" fill="currentColor" />
	<path fill-rule="evenodd" clip-rule="evenodd" d="M9.22729 18.4674C9.33379 18.2793 9.53325 18.163 9.74942 18.163H23.2494C23.4656 18.163 23.665 18.2793 23.7715 18.4674C23.878 18.6555 23.8751 18.8864 23.7639 19.0717L21.4369 22.9497C21.2664 23.2339 20.8978 23.326 20.6137 23.1555C20.3296 22.985 20.2374 22.6165 20.4079 22.3323L22.1897 19.363H10.8092L12.5909 22.3323C12.7614 22.6165 12.6693 22.985 12.3851 23.1555C12.101 23.326 11.7324 23.2339 11.5619 22.9497L9.23493 19.0717C9.12371 18.8864 9.12079 18.6555 9.22729 18.4674Z" fill="currentColor" />
	<path fill-rule="evenodd" clip-rule="evenodd" d="M12.9173 15.6175C12.9841 15.3504 13.2241 15.163 13.4994 15.163H19.4994C19.7747 15.163 20.0147 15.3504 20.0815 15.6175L20.8315 18.6175L20.2494 18.763V19.363H12.7494C12.5647 19.363 12.3902 19.2779 12.2765 19.1323C12.1628 18.9866 12.1225 18.7968 12.1673 18.6175L12.9173 15.6175ZM19.481 18.163L19.031 16.363H13.9679L13.5179 18.163H19.481Z" fill="currentColor" />
	<path fill-rule="evenodd" clip-rule="evenodd" d="M17.9994 13.663C18.3308 13.663 18.5994 13.9317 18.5994 14.263V15.763C18.5994 16.0944 18.3308 16.363 17.9994 16.363C17.668 16.363 17.3994 16.0944 17.3994 15.763V14.263C17.3994 13.9317 17.668 13.663 17.9994 13.663Z" fill="currentColor" />
	<path fill-rule="evenodd" clip-rule="evenodd" d="M13.1244 21.163C13.2984 21.163 13.4639 21.2386 13.5779 21.3701C14.3074 22.2119 15.3735 22.6858 16.4872 22.6632C16.4954 22.663 16.5035 22.663 16.5116 22.6632C17.6253 22.6858 18.6915 22.2119 19.421 21.3701C19.5349 21.2386 19.7004 21.163 19.8744 21.163C20.0484 21.163 20.2139 21.2386 20.3279 21.3701C21.0574 22.2119 22.1235 22.6858 23.2372 22.6632C23.5685 22.6564 23.8426 22.9195 23.8493 23.2508C23.856 23.5821 23.5929 23.8562 23.2616 23.8629C22.008 23.8884 20.8001 23.4374 19.8744 22.615C18.9517 23.4347 17.7486 23.8854 16.4994 23.8631C15.2502 23.8854 14.0471 23.4347 13.1244 22.615C12.1987 23.4374 10.9908 23.8884 9.73723 23.8629C9.40593 23.8562 9.14281 23.5821 9.14954 23.2508C9.15627 22.9195 9.4303 22.6564 9.7616 22.6632C10.8753 22.6858 11.9415 22.2119 12.671 21.3701C12.7849 21.2386 12.9504 21.163 13.1244 21.163Z" fill="currentColor" />
</svg>
