<svg viewBox="0 0 24 24" fill="none" xmlns="http://www.w3.org/2000/svg">
	<path fill-rule="evenodd" clip-rule="evenodd" d="M1.6499 18.003C1.6499 17.6716 1.91853 17.403 2.2499 17.403H21.7499C22.0813 17.403 22.3499 17.6716 22.3499 18.003C22.3499 18.3343 22.0813 18.603 21.7499 18.603H2.2499C1.91853 18.603 1.6499 18.3343 1.6499 18.003Z" fill="currentColor" />
	<path fill-rule="evenodd" clip-rule="evenodd" d="M1.6499 12.003C1.6499 11.6716 1.91853 11.403 2.2499 11.403H21.7499C22.0813 11.403 22.3499 11.6716 22.3499 12.003C22.3499 12.3343 22.0813 12.603 21.7499 12.603H2.2499C1.91853 12.603 1.6499 12.3343 1.6499 12.003Z" fill="currentColor" />
	<path fill-rule="evenodd" clip-rule="evenodd" d="M1.6499 6.00295C1.6499 5.67158 1.91853 5.40295 2.2499 5.40295H21.7499C22.0813 5.40295 22.3499 5.67158 22.3499 6.00295C22.3499 6.33433 22.0813 6.60295 21.7499 6.60295H2.2499C1.91853 6.60295 1.6499 6.33433 1.6499 6.00295Z" fill="currentColor" />
</svg>
