<svg viewBox="0 0 24 24" fill="none" xmlns="http://www.w3.org/2000/svg">
	<path fill-rule="evenodd" clip-rule="evenodd" d="M3.79771 12C3.79771 11.6644 4.06976 11.3924 4.40534 11.3924H12.7603C13.0959 11.3924 13.3679 11.6644 13.3679 12C13.3679 12.3356 13.0959 12.6076 12.7603 12.6076H4.40534C4.06976 12.6076 3.79771 12.3356 3.79771 12Z" fill="currentColor" />
	<path fill-rule="evenodd" clip-rule="evenodd" d="M3.79771 16.557C3.79771 16.2214 4.06976 15.9494 4.40534 15.9494H8.96259C9.29818 15.9494 9.57022 16.2214 9.57022 16.557C9.57022 16.8925 9.29818 17.1646 8.96259 17.1646H4.40534C4.06976 17.1646 3.79771 16.8925 3.79771 16.557Z" fill="currentColor" />
	<path fill-rule="evenodd" clip-rule="evenodd" d="M3.79771 7.44304C3.79771 7.10747 4.06976 6.83544 4.40534 6.83544H18.0771C18.4127 6.83544 18.6847 7.10747 18.6847 7.44304C18.6847 7.7786 18.4127 8.05063 18.0771 8.05063H4.40534C4.06976 8.05063 3.79771 7.7786 3.79771 7.44304Z" fill="currentColor" />
	<path fill-rule="evenodd" clip-rule="evenodd" d="M2.12672 1.21519C1.62334 1.21519 1.21527 1.62323 1.21527 2.12658V21.8734C1.21527 22.3768 1.62334 22.7848 2.12672 22.7848H7.44452C7.78011 22.7848 8.05215 23.0568 8.05215 23.3924C8.05215 23.728 7.78011 24 7.44452 24H2.12672C0.952163 24 0 23.0479 0 21.8734V2.12658C0 0.952103 0.952163 0 2.12672 0H17.3176C17.8715 0.000434284 18.4038 0.216959 18.8005 0.60345L18.8025 0.605367L21.8402 3.52337C22.2508 3.92358 22.4824 4.47265 22.4824 5.04602V8.96405C22.4824 9.29962 22.2104 9.57165 21.8748 9.57165C21.5392 9.57165 21.2672 9.29962 21.2672 8.96405V5.04614C21.2671 4.80104 21.1684 4.56626 20.9932 4.39487L20.9919 4.39358L17.9533 1.47465C17.7832 1.30854 17.555 1.21543 17.3173 1.21519H2.12672Z" fill="currentColor" />
	<path fill-rule="evenodd" clip-rule="evenodd" d="M21.4564 12.9756C21.4056 12.9257 21.327 12.9174 21.2669 12.9557L15.9351 16.3492C15.9271 16.3541 15.9196 16.3598 15.9128 16.3663L13.827 18.4519C13.7985 18.4804 13.7823 18.5192 13.7823 18.5595C13.7823 18.5998 13.7983 18.6384 13.8268 18.6669L17.0494 21.8894C17.0779 21.9179 17.1167 21.934 17.157 21.934C17.1973 21.934 17.236 21.918 17.2645 21.8895L19.3526 19.8066C19.359 19.7998 19.3647 19.7924 19.3696 19.7844L19.3739 19.7774L22.7595 14.4498L22.7608 14.4477C22.799 14.3882 22.7907 14.3102 22.741 14.2601L21.4564 12.9756ZM20.6134 11.9312C21.1528 11.5871 21.8587 11.6628 22.3129 12.1135L22.3146 12.1152L23.6015 13.402C24.0538 13.8558 24.1299 14.5628 23.7847 15.1024L23.7839 15.1037L20.4015 20.4262C20.3497 20.5097 20.2888 20.5873 20.2201 20.6576L20.2147 20.6631L18.1241 22.7485C17.8677 23.0049 17.5197 23.1492 17.157 23.1492C16.7943 23.1492 16.4464 23.0051 16.19 22.7485L12.9678 19.5265C12.7113 19.2701 12.567 18.9222 12.567 18.5595C12.567 18.1968 12.7111 17.849 12.9676 17.5926L15.0618 15.4986C15.1321 15.4299 15.2096 15.3692 15.293 15.3173L20.6134 11.9312Z" fill="currentColor" />
	<path fill-rule="evenodd" clip-rule="evenodd" d="M14.3461 19.186C14.5933 19.413 14.6096 19.7973 14.3825 20.0445L11.865 22.7848H14.2201L15.6534 21.3516C15.8907 21.1144 16.2754 21.1144 16.5127 21.3516C16.75 21.5889 16.75 21.9736 16.5127 22.2109L14.9015 23.822C14.7875 23.936 14.633 24 14.4718 24H10.4817C10.2406 24 10.0223 23.8575 9.92535 23.6368C9.82839 23.416 9.8711 23.1589 10.0342 22.9814L13.4876 19.2224C13.7146 18.9753 14.099 18.959 14.3461 19.186Z" fill="currentColor" />
</svg>
