<svg viewBox="0 0 24 24" fill="none" xmlns="http://www.w3.org/2000/svg">
	<path fill-rule="evenodd" clip-rule="evenodd" d="M0.149796 12C0.149796 5.45539 5.45522 0.149963 11.9998 0.149963C18.5444 0.149963 23.8498 5.45539 23.8498 12C23.8498 18.5445 18.5444 23.85 11.9998 23.85C5.45522 23.85 0.149796 18.5445 0.149796 12ZM11.9998 1.34996C6.11796 1.34996 1.3498 6.11813 1.3498 12C1.3498 17.8818 6.11796 22.65 11.9998 22.65C17.8816 22.65 22.6498 17.8818 22.6498 12C22.6498 6.11813 17.8816 1.34996 11.9998 1.34996Z" fill="currentColor" />
	<path fill-rule="evenodd" clip-rule="evenodd" d="M0.387855 9.63028C0.444753 9.35077 0.690561 9.14996 0.975796 9.14996H6.3288C7.29223 9.15007 8.13207 9.80573 8.36586 10.7404L9.11586 13.7404C9.27276 14.3677 9.13191 15.0324 8.73402 15.5421C8.33611 16.0519 7.72554 16.3499 7.07886 16.35H6.49172L5.58015 20.9096C5.53915 21.1147 5.3943 21.2836 5.19786 21.3555C5.00143 21.4273 4.78176 21.3917 4.61812 21.2614C1.13378 18.4878 -0.500516 13.9943 0.387855 9.63028ZM1.47733 10.35C0.939916 13.786 2.11785 17.2592 4.6067 19.6576L5.41144 15.6323C5.46751 15.3519 5.71377 15.15 5.9998 15.15H7.07873C7.35585 15.1499 7.61757 15.0222 7.78808 14.8037C7.95862 14.5853 8.01898 14.3004 7.95173 14.0316L7.20173 11.0316C7.10151 10.6311 6.74164 10.35 6.3288 10.35H1.47733Z" fill="currentColor" />
	<path fill-rule="evenodd" clip-rule="evenodd" d="M14.8837 6.24036C15.1175 5.30573 15.9573 4.65007 16.9207 4.64996H20.9848C21.1977 4.64996 21.3848 4.76088 21.4912 4.92809C24.2323 8.58354 24.6173 13.4948 22.4759 17.534C22.3719 17.7302 22.1679 17.853 21.9458 17.853H20.021C18.9945 17.8532 18.118 17.1113 17.949 16.0988L17.2414 11.85H16.1708C15.5241 11.8499 14.9135 11.5519 14.5156 11.0421C14.1177 10.5324 13.9768 9.86776 14.1337 9.24044L14.8837 6.24036ZM20.6789 5.84996H16.9209C16.508 5.85004 16.1481 6.13099 16.0479 6.53148L15.2979 9.53148C15.2306 9.80035 15.291 10.0853 15.4615 10.3037C15.632 10.5222 15.8937 10.6499 16.1708 10.65H17.7498C18.0431 10.65 18.2935 10.8621 18.3416 11.1514L19.1326 15.9012C19.2052 16.335 19.5807 16.6531 20.0206 16.653H21.578C23.2809 13.1622 22.9374 9.01409 20.6789 5.84996Z" fill="currentColor" />
</svg>
