<svg viewBox="0 0 24 24" fill="none" xmlns="http://www.w3.org/2000/svg">
	<path fill-rule="evenodd" clip-rule="evenodd" d="M0.149902 0.750024C0.149902 0.418654 0.418532 0.150024 0.749902 0.150024H23.2499C23.5813 0.150024 23.8499 0.418654 23.8499 0.750024C23.8499 1.0814 23.5813 1.35002 23.2499 1.35002H0.749902C0.418532 1.35002 0.149902 1.0814 0.149902 0.750024Z" fill="currentColor" />
	<path fill-rule="evenodd" clip-rule="evenodd" d="M0.149902 7.75002C0.149902 6.86637 0.866247 6.15002 1.7499 6.15002H22.2499C23.1336 6.15002 23.8499 6.86637 23.8499 7.75002V17.75C23.8499 18.6337 23.1336 19.35 22.2499 19.35H1.7499C0.866247 19.35 0.149902 18.6337 0.149902 17.75V7.75002ZM1.7499 7.35002C1.52899 7.35002 1.3499 7.52911 1.3499 7.75002V17.75C1.3499 17.9709 1.52899 18.15 1.7499 18.15H22.2499C22.4708 18.15 22.6499 17.9709 22.6499 17.75V7.75002C22.6499 7.52911 22.4708 7.35002 22.2499 7.35002H1.7499Z" fill="currentColor" />
	<path fill-rule="evenodd" clip-rule="evenodd" d="M10.9242 0.32576C11.1585 0.560075 11.1585 0.939974 10.9242 1.17429L8.34843 3.75002L10.9242 6.32576C11.1585 6.56007 11.1585 6.93997 10.9242 7.17429C10.6899 7.4086 10.31 7.4086 10.0756 7.17429L7.07564 4.17429C6.84132 3.93997 6.84132 3.56008 7.07564 3.32576L10.0756 0.32576C10.31 0.0914458 10.6899 0.0914458 10.9242 0.32576Z" fill="currentColor" />
	<path fill-rule="evenodd" clip-rule="evenodd" d="M13.0756 0.32576C13.31 0.0914458 13.6899 0.0914458 13.9242 0.32576L16.9242 3.32576C17.1585 3.56008 17.1585 3.93997 16.9242 4.17429L13.9242 7.17429C13.6899 7.4086 13.31 7.4086 13.0756 7.17429C12.8413 6.93997 12.8413 6.56007 13.0756 6.32576L15.6514 3.75002L13.0756 1.17429C12.8413 0.939974 12.8413 0.560075 13.0756 0.32576Z" fill="currentColor" />
	<path fill-rule="evenodd" clip-rule="evenodd" d="M1.6499 21C1.6499 19.426 2.92589 18.15 4.4999 18.15C6.07391 18.15 7.3499 19.426 7.3499 21C7.3499 22.574 6.07391 23.85 4.4999 23.85C2.92589 23.85 1.6499 22.574 1.6499 21ZM4.4999 19.35C3.58863 19.35 2.8499 20.0888 2.8499 21C2.8499 21.9113 3.58863 22.65 4.4999 22.65C5.41117 22.65 6.1499 21.9113 6.1499 21C6.1499 20.0888 5.41117 19.35 4.4999 19.35Z" fill="currentColor" />
	<path fill-rule="evenodd" clip-rule="evenodd" d="M16.6499 21C16.6499 19.426 17.9259 18.15 19.4999 18.15C21.0739 18.15 22.3499 19.426 22.3499 21C22.3499 22.574 21.0739 23.85 19.4999 23.85C17.9259 23.85 16.6499 22.574 16.6499 21ZM19.4999 19.35C18.5886 19.35 17.8499 20.0888 17.8499 21C17.8499 21.9113 18.5886 22.65 19.4999 22.65C20.4112 22.65 21.1499 21.9113 21.1499 21C21.1499 20.0888 20.4112 19.35 19.4999 19.35Z" fill="currentColor" />
	<path fill-rule="evenodd" clip-rule="evenodd" d="M6.7499 6.15002C7.08127 6.15002 7.3499 6.41865 7.3499 6.75002V18.75C7.3499 19.0814 7.08127 19.35 6.7499 19.35C6.41853 19.35 6.1499 19.0814 6.1499 18.75V6.75002C6.1499 6.41865 6.41853 6.15002 6.7499 6.15002Z" fill="currentColor" />
	<path fill-rule="evenodd" clip-rule="evenodd" d="M9.1499 9.75002C9.1499 9.41865 9.41853 9.15002 9.7499 9.15002H14.2499C14.5813 9.15002 14.8499 9.41865 14.8499 9.75002V12.75C14.8499 13.0814 14.5813 13.35 14.2499 13.35H9.7499C9.41853 13.35 9.1499 13.0814 9.1499 12.75V9.75002ZM10.3499 10.35V12.15H13.6499V10.35H10.3499Z" fill="currentColor" />
	<path fill-rule="evenodd" clip-rule="evenodd" d="M0.149902 15.75C0.149902 15.4187 0.418532 15.15 0.749902 15.15H6.7499C7.08127 15.15 7.3499 15.4187 7.3499 15.75C7.3499 16.0814 7.08127 16.35 6.7499 16.35H0.749902C0.418532 16.35 0.149902 16.0814 0.149902 15.75Z" fill="currentColor" />
	<path fill-rule="evenodd" clip-rule="evenodd" d="M17.2499 6.15002C17.5813 6.15002 17.8499 6.41865 17.8499 6.75002V18.75C17.8499 19.0814 17.5813 19.35 17.2499 19.35C16.9185 19.35 16.6499 19.0814 16.6499 18.75V6.75002C16.6499 6.41865 16.9185 6.15002 17.2499 6.15002Z" fill="currentColor" />
	<path fill-rule="evenodd" clip-rule="evenodd" d="M16.6499 15.75C16.6499 15.4187 16.9185 15.15 17.2499 15.15H23.2499C23.5813 15.15 23.8499 15.4187 23.8499 15.75C23.8499 16.0814 23.5813 16.35 23.2499 16.35H17.2499C16.9185 16.35 16.6499 16.0814 16.6499 15.75Z" fill="currentColor" />
</svg>
