<svg viewBox="0 0 24 24" fill="none" xmlns="http://www.w3.org/2000/svg">
	<path fill-rule="evenodd" clip-rule="evenodd" d="M17.5698 7.09391C17.804 6.85955 18.1839 6.85946 18.4183 7.09373L20.2421 8.91674L22.066 7.09373C22.3003 6.85946 22.6802 6.85955 22.9145 7.09391C23.1488 7.32828 23.1487 7.70818 22.9143 7.94244L20.6663 10.1894C20.432 10.4236 20.0523 10.4236 19.818 10.1894L17.57 7.94244C17.3356 7.70818 17.3355 7.32828 17.5698 7.09391Z" fill="currentColor" />
	<path fill-rule="evenodd" clip-rule="evenodd" d="M16.6451 3.77108C16.6451 3.43971 16.9138 3.17108 17.2451 3.17108C19.2334 3.17108 20.8451 4.78286 20.8451 6.77108V9.77108C20.8451 10.1025 20.5765 10.3711 20.2451 10.3711C19.9138 10.3711 19.6451 10.1025 19.6451 9.77108V6.77108C19.6451 5.4456 18.5706 4.37108 17.2451 4.37108C16.9138 4.37108 16.6451 4.10245 16.6451 3.77108Z" fill="currentColor" />
	<path fill-rule="evenodd" clip-rule="evenodd" d="M3.33397 13.8367C3.56826 13.6025 3.94802 13.6025 4.18231 13.8367L6.43031 16.0837C6.66468 16.318 6.66476 16.6979 6.4305 16.9323C6.19623 17.1666 5.81634 17.1667 5.58197 16.9324L3.75814 15.1094L1.93431 16.9324C1.69994 17.1667 1.32004 17.1666 1.08578 16.9323C0.851517 16.6979 0.851602 16.318 1.08597 16.0837L3.33397 13.8367Z" fill="currentColor" />
	<path fill-rule="evenodd" clip-rule="evenodd" d="M3.75514 13.6551C4.08651 13.6551 4.35514 13.9237 4.35514 14.2551V17.2551C4.35514 18.5806 5.42966 19.6551 6.75514 19.6551C7.08651 19.6551 7.35514 19.9237 7.35514 20.2551C7.35514 20.5865 7.08651 20.8551 6.75514 20.8551C4.76691 20.8551 3.15514 19.2433 3.15514 17.2551V14.2551C3.15514 13.9237 3.42377 13.6551 3.75514 13.6551Z" fill="currentColor" />
	<path fill-rule="evenodd" clip-rule="evenodd" d="M0.31456 6.57437C0.535865 6.32774 0.915208 6.3072 1.16185 6.5285L2.52485 7.7515C2.77149 7.97281 2.79202 8.35215 2.57072 8.59879C2.34941 8.84543 1.97007 8.86597 1.72343 8.64466L0.36043 7.42166C0.113791 7.20036 0.0932542 6.82101 0.31456 6.57437Z" fill="currentColor" />
	<path fill-rule="evenodd" clip-rule="evenodd" d="M5.43534 0.965793C5.64665 0.8826 5.88682 0.925839 6.05585 1.0775L9.86908 4.49907L11.7961 3.74039C11.8069 3.73559 11.8177 3.7311 11.8287 3.72694C12.9739 3.29346 14.2549 3.86079 14.7034 5.00016C15.152 6.13952 14.6016 7.42785 13.4683 7.89142L13.4612 7.89433L6.0233 10.826L6.02151 10.8268C5.23254 11.1421 4.33294 10.983 3.69994 10.4161L1.72394 8.64712C1.56883 8.50826 1.49679 8.29892 1.53359 8.09402C1.57039 7.88912 1.71077 7.71793 1.90451 7.64173L5.70514 6.14672L2.90921 2.8094C2.78532 2.66152 2.74009 2.46308 2.78767 2.27611C2.83525 2.08915 2.96983 1.93647 3.14934 1.86579L5.43534 0.965793ZM4.36397 2.67725L7.16007 6.01477C7.28398 6.16268 7.3292 6.36115 7.28159 6.54814C7.23397 6.73513 7.09933 6.88781 6.91977 6.95844L3.24944 8.40219L4.50034 9.52205C4.79386 9.78495 5.21121 9.85868 5.57698 9.71213L5.58011 9.71087L13.0172 6.77944C13.5407 6.56333 13.7945 5.96714 13.5869 5.43976C13.3808 4.91631 12.7959 4.65318 12.2686 4.84365C12.2624 4.84633 12.2562 4.8489 12.2499 4.85137L9.96394 5.75137C9.75263 5.83457 9.51246 5.79133 9.34343 5.63966L5.53019 2.2181L4.36397 2.67725Z" fill="currentColor" />
	<path fill-rule="evenodd" clip-rule="evenodd" d="M9.30556 18.6884C9.52687 18.4417 9.90621 18.4212 10.1528 18.6425L11.5158 19.8655C11.7625 20.0868 11.783 20.4662 11.5617 20.7128C11.3404 20.9594 10.9611 20.98 10.7144 20.7587L9.35143 19.5357C9.10479 19.3144 9.08426 18.935 9.30556 18.6884Z" fill="currentColor" />
	<path fill-rule="evenodd" clip-rule="evenodd" d="M14.4263 13.0788C14.6377 12.9956 14.8779 13.0389 15.0469 13.1906L18.8601 16.613L20.7741 15.8595C20.7877 15.8531 20.8016 15.8473 20.8157 15.8419C21.9609 15.4085 23.2419 15.9758 23.6904 17.1152C24.139 18.2545 23.5886 19.5428 22.4553 20.0064L22.4482 20.0093L15.0099 22.9416C14.2195 23.2556 13.3187 23.0944 12.6868 22.5251L10.7143 20.7546C10.5596 20.6156 10.4878 20.4064 10.5246 20.2017C10.5615 19.997 10.7018 19.826 10.8953 19.7498L14.6923 18.2549L11.9002 14.9224C11.7763 14.7745 11.7311 14.5761 11.7787 14.3891C11.8262 14.2022 11.9608 14.0495 12.1403 13.9788L14.4263 13.0788ZM13.355 14.7902L16.1471 18.1228C16.271 18.2706 16.3162 18.4691 16.2686 18.656C16.221 18.843 16.0865 18.9957 15.9069 19.0664L12.2389 20.5105L13.4899 21.6334C13.7827 21.8974 14.2 21.9723 14.5664 21.8266L14.5681 21.8259L22.0041 18.8944C22.5277 18.6783 22.7815 18.0821 22.5739 17.5548C22.369 17.0343 21.7896 16.7712 21.2648 16.9554C21.2569 16.9589 21.249 16.9622 21.2409 16.9654L18.9549 17.8654C18.7436 17.9486 18.5034 17.9053 18.3344 17.7536L14.5211 14.3311L13.355 14.7902Z" fill="currentColor" />
</svg>
