<svg viewBox="0 0 24 24" fill="none" xmlns="http://www.w3.org/2000/svg">
	<path fill-rule="evenodd" clip-rule="evenodd" d="M9.45702 7.24589C12.2113 5.80987 15.4867 5.77975 18.267 7.16488C18.428 7.24513 18.5446 7.39345 18.5845 7.56894C18.6244 7.74444 18.5834 7.92856 18.4728 8.07056C18.1668 8.46359 17.9253 9.07786 17.6712 9.88106C17.6012 10.1024 17.5302 10.3381 17.4568 10.582C17.2769 11.1793 17.0821 11.8266 16.849 12.4357C16.1851 14.171 15.0871 15.9363 12.6546 16.1584C11.3564 16.2801 10.3686 15.5445 9.75676 14.8893C9.44381 14.5542 9.20505 14.2156 9.04483 13.9623C8.96427 13.8349 8.9024 13.7272 8.85989 13.6498C8.84772 13.6277 8.83711 13.6079 8.82808 13.5909C7.85235 12.4411 7.3278 11.244 7.41255 10.1003C7.50093 8.90764 8.23792 7.93373 9.43944 7.25543C9.44525 7.25215 9.45111 7.24897 9.45702 7.24589ZM9.86855 12.9906L9.86931 12.9921L9.87674 13.0067C9.88395 13.0207 9.89564 13.0429 9.91169 13.0721C9.94386 13.1307 9.99324 13.2168 10.059 13.3208C10.1915 13.5302 10.3856 13.8045 10.6338 14.0703C11.1441 14.6167 11.7909 15.0344 12.5432 14.9636L12.5449 14.9634C14.27 14.8062 15.1118 13.6181 15.7283 12.0069C15.945 11.4405 16.1187 10.8631 16.2931 10.2837C16.3697 10.029 16.4465 9.77385 16.5271 9.51913C16.6964 8.98395 16.885 8.44215 17.1289 7.96728C14.8346 7.0389 12.236 7.15367 10.0208 8.30528C9.07439 8.8421 8.66023 9.50129 8.60927 10.189C8.55587 10.9096 8.88762 11.8227 9.78382 12.8621C9.81728 12.9009 9.846 12.9446 9.86855 12.9906Z" fill="currentColor" />
	<path fill-rule="evenodd" clip-rule="evenodd" d="M12.3508 11.3135C12.3508 11.3135 12.3508 11.3135 12.3508 11.3135C12.3497 11.3137 12.3476 11.314 12.3445 11.3146C12.3349 11.3163 12.316 11.3199 12.2884 11.3264C12.2334 11.3394 12.1439 11.3639 12.0266 11.4073C11.7923 11.4939 11.4446 11.6567 11.0346 11.9571C10.2188 12.5548 9.12733 13.7187 8.20267 15.9773C8.07712 16.2839 7.72674 16.4307 7.42008 16.3052C7.11341 16.1796 6.96659 15.8293 7.09214 15.5226C8.09048 13.0841 9.31052 11.7326 10.3254 10.989C10.8309 10.6188 11.2783 10.4045 11.6104 10.2817C11.7762 10.2204 11.9127 10.1821 12.0128 10.1585C12.0629 10.1467 12.1038 10.1385 12.1348 10.1331C12.1502 10.1303 12.1632 10.1282 12.1736 10.1267L12.1872 10.1247L12.1925 10.124L12.1947 10.1237L12.1958 10.1236C12.1963 10.1235 12.1967 10.1235 12.2704 10.7189L12.1958 10.1236C12.5246 10.0829 12.8252 10.3164 12.8659 10.6453C12.9063 10.9719 12.6761 11.2696 12.3508 11.3135Z" fill="currentColor" />
	<path fill-rule="evenodd" clip-rule="evenodd" d="M12.7502 0.149922C17.4635 0.14107 21.6684 3.10973 23.2378 7.55411C24.8072 11.9988 23.3983 16.95 19.7239 19.9026C16.1358 22.7857 11.1517 23.149 7.19242 20.8462L1.00841 23.7916C0.779075 23.9009 0.505803 23.8538 0.32617 23.6742C0.146538 23.4946 0.0994772 23.2213 0.20868 22.992L3.15311 16.808C1.19109 13.4355 1.14382 9.26868 3.04891 5.84499C5.00766 2.32487 8.72191 0.144484 12.7502 0.149922ZM12.7504 0.749923L12.7495 1.34992C9.15693 1.34474 5.84436 3.28915 4.0975 6.42847C2.35065 9.5678 2.44457 13.4077 4.34281 16.4579C4.45087 16.6315 4.46305 16.8482 4.37513 17.0329L2.0191 21.9811L6.9674 19.6242C7.152 19.5363 7.36868 19.5484 7.5423 19.6564C11.1122 21.8769 15.6951 21.6005 18.9722 18.9671C22.2494 16.3338 23.506 11.9179 22.1062 7.95366C20.7065 3.98946 16.9557 1.34164 12.7516 1.34992L12.7504 0.749923Z" fill="currentColor" />
</svg>
