<svg viewBox="0 0 24 24" fill="none" xmlns="http://www.w3.org/2000/svg">
	<g>
		<path d="M23.6302 8.03614C23.6184 8.02457 23.6125 8.01301 23.6007 8.00144C23.5889 7.98988 23.583 7.97831 23.5712 7.97253V7.96675C23.5653 7.96097 23.5594 7.95518 23.5535 7.9494C23.5495 7.94555 23.5456 7.94169 23.5417 7.93784C23.5358 7.93205 23.5239 7.92049 23.518 7.91471L23.5121 7.90892C23.5062 7.90314 23.4944 7.89158 23.4885 7.88579L23.4826 7.88001C23.4767 7.87423 23.4649 7.86266 23.459 7.85688L23.4531 7.8511C23.4177 7.81641 23.3823 7.78749 23.341 7.7528C23.3371 7.74894 23.3331 7.74509 23.3292 7.74123C23.3233 7.73545 23.3174 7.72967 23.3115 7.72967C23.3056 7.72389 23.2997 7.7181 23.2938 7.7181C23.2879 7.71232 23.282 7.71232 23.2761 7.70654C23.2702 7.70076 23.2643 7.69497 23.2584 7.68919C23.2525 7.68341 23.2466 7.68341 23.2466 7.67763C23.2407 7.67184 23.2289 7.66606 23.223 7.66028L21.3581 5.61908L21.3699 6.897C21.0807 6.82761 20.7679 6.76978 20.4315 6.71774C19.3102 6.55005 18.3305 6.55005 18.3187 6.55005V6.71774C18.3305 6.71774 19.2984 6.71774 20.4079 6.88543C20.7325 6.93169 21.0335 6.98952 21.3168 7.05891L20.1955 7.63715L23.1994 7.86266L23.2053 7.86845C23.5003 8.10553 23.6892 8.37152 23.7659 8.67221C23.7659 8.68377 23.7718 8.68955 23.7718 8.70112V8.7069C23.7718 8.71268 23.7777 8.72425 23.7777 8.73003V8.74159C23.7777 8.74738 23.7777 8.75316 23.7836 8.76472V8.78207C23.7836 8.78785 23.7836 8.79364 23.7895 8.79942V9.11167C23.7895 9.12324 23.7895 9.1348 23.7836 9.14637C23.7659 9.32562 23.7305 9.50488 23.6833 9.68991C23.6715 9.73617 23.6597 9.78243 23.642 9.82869C23.6302 9.8576 23.6243 9.8923 23.6125 9.92121C23.5889 9.98482 23.5712 10.0426 23.5417 10.1062C23.5358 10.1236 23.5299 10.1352 23.5239 10.1525C23.2525 10.8001 22.7862 11.4651 22.1194 12.1359C21.3758 12.8876 20.3843 13.6567 19.1686 14.4142C19.1745 14.3795 19.1863 14.3506 19.1981 14.3274C19.2217 14.2927 19.2394 14.2985 19.2453 14.2407C19.2453 14.1655 19.2512 14.206 19.204 14.1482C19.1922 14.1944 19.1804 14.2002 19.1391 14.2349C19.1273 14.2465 18.9915 14.2523 18.9738 14.2465C18.9384 14.2349 18.8794 14.1655 18.9089 14.1308C18.9266 14.1077 18.962 14.125 18.9915 14.1193C19.0151 14.1077 19.0387 14.0788 19.0505 14.0614C19.0151 14.0672 18.9089 14.0614 18.8735 14.0499V14.0383H17.9292C17.9706 14.0557 18.0119 14.0672 18.0532 14.0903C18.1122 14.125 18.1122 14.1424 18.1063 14.206C18.1004 14.2696 18.0768 14.3448 18.0473 14.4084C18.0119 14.472 17.9528 14.5125 17.9233 14.5819C17.8938 14.6512 17.8938 14.6975 17.823 14.7322C17.8053 14.7438 17.7345 14.7495 17.7227 14.7669C17.7109 14.7785 17.7227 14.8016 17.7227 14.8189C17.705 14.8652 17.6696 14.8768 17.6224 14.9057C17.5751 14.9288 17.5397 14.9461 17.4807 14.9519C17.4217 14.9577 17.4099 14.9461 17.3863 14.9924C17.3509 15.0618 17.3981 15.0618 17.3273 15.1023C17.2919 15.1196 17.2506 15.1428 17.221 15.1659C17.1797 15.189 17.0617 15.2179 17.0381 15.2526C17.0086 15.2989 17.044 15.3394 16.9909 15.3798C16.9142 15.4319 16.8256 15.3856 16.743 15.4087C16.7135 15.4203 16.6781 15.4492 16.6486 15.4666C16.6073 15.4955 16.5483 15.5591 16.5011 15.5186C16.4774 15.5013 16.4774 15.4492 16.4715 15.4261C16.4479 15.3451 16.4302 15.2642 16.4066 15.1774C16.383 15.0965 16.3358 15.0213 16.3004 14.9461C16.2827 14.8999 16.2827 14.8478 16.2591 14.8016C16.2355 14.7611 16.206 14.7322 16.1883 14.6859C16.1293 14.7264 16.1175 14.6397 16.1056 14.5992C16.082 14.5876 16.0466 14.5819 16.023 14.5587C15.9817 14.5182 16.0112 14.4778 16.0053 14.4315C15.9994 14.3506 15.9463 14.2927 15.9168 14.2176C15.8873 14.2291 15.8578 14.2291 15.8283 14.2233C15.8283 14.2118 15.8283 14.1829 15.8224 14.1713C15.8106 14.1597 15.7752 14.1597 15.7693 14.1482C15.7516 14.1077 15.8106 14.0846 15.8106 14.0499V14.0383H15.545C15.5568 14.0557 15.5745 14.073 15.5922 14.1019C15.6394 14.1713 15.5627 14.3448 15.6217 14.3795C15.663 14.4026 15.7279 14.3563 15.7693 14.391C15.7988 14.4199 15.8519 14.5587 15.846 14.5934C15.8401 14.6859 15.8637 14.8074 15.9286 14.8768C15.9994 14.9577 15.9699 14.8825 15.9876 15.004C15.9994 15.0791 15.9935 15.1774 16.0761 15.2121C16.1942 15.2642 16.265 15.1774 16.3417 15.322C16.3889 15.4145 16.4597 15.4955 16.4184 15.5649C16.4715 15.5649 16.4361 15.6169 16.4715 15.6632C16.5011 15.7036 16.5306 15.7846 16.5719 15.8366C15.5745 16.3339 14.7542 16.6809 14.3588 16.8428L14.4709 16.4611L13.9811 16.652L13.5444 16.3628L13.5739 16.8775L13.1608 17.1955L13.6683 17.3227L13.8453 17.8085L14.1286 17.3748L14.6539 17.3574L14.3706 17.022C14.7719 16.8601 15.7161 16.4611 16.8552 15.8829C16.8906 15.8829 16.9201 15.8945 16.9496 15.9292C16.9968 15.987 16.9791 16.1026 16.9437 16.1605C16.867 16.2645 16.7843 16.3802 16.684 16.4611C16.6132 16.519 16.4597 16.5884 16.4125 16.6693C16.3476 16.7676 16.3181 16.7618 16.2119 16.8139C16.1293 16.8544 16.1116 17.022 16.0112 17.0163C15.9876 17.0741 15.8696 17.2476 15.7575 17.2707C15.7693 17.3574 15.7988 17.554 15.7279 17.5656C15.7988 17.6061 15.8224 17.8489 15.8047 17.9241C15.787 18.0224 15.7397 18.086 15.6925 18.167C15.6335 18.271 15.5096 18.3231 15.3916 18.3578C15.2971 18.3867 15.0729 18.485 15.0552 18.6122C15.0434 18.6932 15.1555 18.6527 15.1437 18.7336C15.1378 18.7626 15.0316 18.8435 14.9962 18.8609C14.9312 18.8956 14.7719 18.9129 14.7306 18.9707C14.7011 19.0112 14.7424 19.0228 14.7247 19.0748C14.7129 19.1153 14.6893 19.1211 14.6598 19.1442C14.5594 19.2078 14.4237 19.3119 14.3057 19.335C14.1935 19.3581 14.1463 19.416 14.0519 19.4507C13.9811 19.4796 13.9044 19.468 13.8335 19.4854C13.7627 19.5085 13.6801 19.549 13.6093 19.5779C13.4912 19.6241 13.3378 19.6473 13.208 19.6357C13.2139 19.5894 13.2375 19.4854 13.2139 19.4449C13.1785 19.3813 13.0722 19.3639 13.0309 19.3003C12.9483 19.1847 12.9247 19.0517 12.8598 18.9302C12.8067 18.8319 12.7949 18.7915 12.7063 18.7336C12.606 18.6643 12.6414 18.6064 12.6709 18.4966C12.6827 18.4445 12.6827 18.352 12.7122 18.3115C12.7299 18.2884 12.7594 18.2479 12.789 18.2248C12.8598 18.1727 12.9542 18.1438 12.9247 18.0513C12.907 18.0051 12.8539 17.9761 12.848 17.9357C12.848 17.9299 12.8598 17.9068 12.8539 17.8952C12.848 17.8489 12.848 17.8258 12.8303 17.7853L12.3817 17.8027L12.1457 18.2595L11.9686 17.7738L11.4611 17.6465L11.8742 17.3285L11.8447 16.8139L12.2814 17.103L12.4231 17.0452C12.4585 17.0163 12.4703 17.0163 12.4939 16.9758C12.5234 16.9237 12.5588 16.7561 12.5411 16.704C12.4998 16.6057 12.2932 16.6635 12.2106 16.6577C12.1575 16.6577 11.9745 16.6231 11.945 16.5826C11.9155 16.5305 11.9509 16.4843 11.9096 16.438C11.8683 16.3918 11.8093 16.3918 11.7562 16.386C11.6913 16.3802 11.5673 16.3628 11.5083 16.3918C11.4788 16.4091 11.4788 16.4438 11.4493 16.4554C11.4139 16.4727 11.3608 16.4669 11.3254 16.4785C11.284 16.4958 11.2486 16.519 11.2014 16.5248C11.1365 16.5305 11.0775 16.5016 11.0126 16.4958C10.9477 16.4901 10.8768 16.4843 10.8178 16.4554C10.7942 16.5421 10.7116 16.5132 10.6467 16.519C10.5877 16.5305 10.5227 16.571 10.4637 16.571C10.3634 16.571 10.3044 16.4438 10.2041 16.4033C10.1923 16.3802 10.1746 16.3455 10.1568 16.3281C10.1096 16.2992 10.0565 16.3281 10.0093 16.3108C9.9798 16.2992 9.9857 16.2703 9.95619 16.2588C9.92668 16.2414 9.89127 16.2472 9.86177 16.2298C9.80865 16.1894 9.77324 16.1142 9.76734 16.0564C9.75554 15.9639 9.69652 15.9523 9.64931 15.8887C9.6316 15.8598 9.63751 15.8366 9.6021 15.8135C9.55488 15.7788 9.53718 15.7904 9.51947 15.7441C9.51947 15.7441 9.54308 15.7094 9.53128 15.6921C9.50767 15.6516 9.44275 15.6747 9.40734 15.669C9.2421 15.6343 9.30112 15.4839 9.20669 15.3856C9.2303 15.3451 9.28341 15.3509 9.30112 15.3162C9.31292 15.2931 9.30112 15.2411 9.30702 15.2121C9.34243 15.1081 9.38964 15.0676 9.36603 14.9693C9.35423 14.9346 9.35423 14.8941 9.34833 14.8594C9.34243 14.8305 9.31882 14.8074 9.31292 14.7842C9.29521 14.7033 9.33062 14.6339 9.21259 14.6455C9.20669 14.5587 9.2303 14.4836 9.28341 14.4199C9.30702 14.3968 9.32472 14.391 9.34243 14.3621C9.36013 14.3332 9.35423 14.2927 9.38374 14.2638C9.40144 14.2465 9.44275 14.2465 9.45456 14.2291C9.48406 14.1944 9.46046 14.1829 9.47816 14.1482C9.49587 14.1077 9.51947 14.073 9.54308 14.0383H4.69787C4.69197 14.0499 4.68607 14.0557 4.68017 14.0614C4.67427 14.0614 4.66247 14.0557 4.65066 14.0383H4.54443C4.62115 14.3274 4.71558 14.605 4.82181 14.8768C4.81591 14.8421 4.81591 14.8132 4.82771 14.7958L4.84541 14.8536C4.86902 14.8305 4.85132 14.7842 4.89263 14.7669C4.90443 14.7958 4.88082 14.8652 4.91623 14.8825C4.95164 14.9057 4.98705 14.8536 5.01066 14.8594C5.07558 14.871 5.05197 14.9577 5.08148 14.9924C5.10508 15.0213 5.1523 15.0155 5.18181 15.0444C5.20541 15.0676 5.20541 15.1196 5.24082 15.1312C5.27033 15.137 5.30574 15.1023 5.34115 15.1081C5.40607 15.1254 5.34705 15.1543 5.37066 15.2006C5.40016 15.2526 5.42967 15.1832 5.44148 15.1485C5.51229 15.1428 5.47098 15.3104 5.50049 15.3567C5.5182 15.3914 5.55951 15.3914 5.58311 15.4145C5.58902 15.4203 5.58902 15.4377 5.59492 15.4492C5.61852 15.4839 5.62442 15.5013 5.65393 15.536C5.66574 15.5533 5.67754 15.5938 5.70115 15.6053C5.73655 15.6285 5.77787 15.6111 5.81328 15.6343C5.83688 15.6516 5.84278 15.6863 5.86639 15.7036C5.8959 15.7268 5.9136 15.7152 5.94901 15.7268C5.99032 15.7326 5.99032 15.7499 6.02573 15.7846C6.05524 15.8193 6.07885 15.8251 6.12016 15.8424C6.23229 15.8887 6.22639 15.9176 6.2795 16.0159C6.32081 16.0853 6.42114 16.1778 6.36803 16.253C6.33852 16.2935 6.21458 16.4033 6.30311 16.4438C6.36803 16.4727 6.39163 16.3802 6.40343 16.3397C6.42704 16.3686 6.48606 16.3802 6.50376 16.4091C6.52147 16.4438 6.50376 16.5537 6.50376 16.5941C6.51556 16.5479 6.54507 16.5016 6.59229 16.4901C6.58638 16.5421 6.76343 16.5652 6.79884 16.5941C6.83425 16.6231 6.88736 16.6751 6.88736 16.7271C6.92277 16.7329 6.99359 16.6982 7.0231 16.7156C7.05851 16.7387 7.0349 16.7734 7.09392 16.7907C7.16474 16.8139 7.26507 16.8312 7.32998 16.8775C7.389 16.918 7.4067 16.9816 7.47752 17.0163C7.53654 17.051 7.62506 17.0741 7.67818 17.1146C7.7431 17.1608 7.77851 17.236 7.79621 17.3169C7.81392 17.4037 7.83752 17.4268 7.78441 17.502C7.749 17.5482 7.71359 17.6292 7.66637 17.6697C7.65457 17.6755 7.65457 17.687 7.64277 17.6928C7.63687 17.6986 7.62506 17.6812 7.61326 17.687C7.58375 17.7102 7.58375 17.7391 7.58965 17.7853C7.60736 17.8894 7.64277 17.9935 7.68408 18.086C7.70178 18.1265 7.73719 18.2364 7.69588 18.271C7.66637 18.2942 7.51293 18.2306 7.46572 18.2248C7.44802 18.2248 7.43031 18.2248 7.4067 18.2306L7.20605 17.9935L7.35359 17.4962L6.86376 17.687L6.42704 17.3979L6.45655 17.9125L6.04344 18.2306L6.55097 18.3578L6.72802 18.8435L7.0113 18.4098L7.51884 18.3925C8.888 19.4044 10.5877 20 12.429 20C16.2119 20 19.3928 17.4789 20.3194 14.0614H20.2722C20.225 14.0961 20.1718 14.1193 20.1305 14.1424C20.0597 14.1771 19.983 14.206 19.9004 14.2291C19.8827 14.2349 19.8591 14.2349 19.8355 14.2407C20.821 13.5873 21.6413 12.9339 22.2846 12.2804C22.562 12.0029 22.804 11.7195 23.0164 11.4478C23.6007 10.6845 23.9253 9.92699 23.9961 9.19262C24.0256 8.75316 23.9076 8.36574 23.6302 8.03614ZM4.89853 14.3159C4.85722 14.3216 4.7923 14.2407 4.7746 14.3216C4.74509 14.2985 4.69787 14.258 4.70378 14.2233C4.70378 14.206 4.73328 14.1829 4.73919 14.1597C4.70968 14.154 4.69197 14.1135 4.70968 14.0903C4.73328 14.0614 4.75099 14.0788 4.7805 14.0846H4.7864C4.7864 14.0903 4.8041 14.0788 4.7923 14.0903H4.7805L4.76869 14.0961C4.83951 14.0846 4.83361 14.1424 4.85722 14.1829C4.88082 14.2349 4.91033 14.2349 4.97525 14.2349C4.97525 14.258 4.92214 14.3101 4.89853 14.3159ZM5.04607 14.4142L5.05787 14.4084C5.00476 14.4315 4.98115 14.3563 4.98115 14.3159C5.03427 14.3043 5.05197 14.3101 5.09328 14.3216C5.10508 14.3621 5.10508 14.4257 5.04607 14.4142ZM5.34705 14.7958C5.33525 14.738 5.31754 14.6859 5.29984 14.6281C5.28803 14.5992 5.28803 14.5761 5.27033 14.5529C5.24672 14.5125 5.18771 14.4836 5.19361 14.4315C5.21131 14.4315 5.22902 14.4257 5.24672 14.4315L5.22902 14.4257C5.28803 14.391 5.35885 14.6455 5.37656 14.6917C5.42377 14.8132 5.41787 14.9404 5.41787 15.056C5.39426 14.9635 5.35885 14.8883 5.34705 14.7958ZM5.50639 15.0329L5.50049 15.0213C5.47098 14.9982 5.43557 14.9866 5.44738 14.9461C5.45918 14.9172 5.50049 14.8999 5.53 14.9115C5.5182 14.9461 5.50639 14.9924 5.50639 15.0329ZM8.83489 18.3404L8.55161 18.7741L8.37457 18.2884L7.86703 18.1612L8.28014 17.8431L8.25063 17.3285L8.68735 17.6176L9.17718 17.4268L9.02964 17.9241L9.36603 18.3231L8.83489 18.3404ZM10.6408 18.1381L10.3575 18.5717L10.1805 18.086L9.67292 17.9588L10.086 17.6408L10.0565 17.1261L10.4932 17.4152L10.9831 17.2244L10.8355 17.7217L11.1719 18.1207L10.6408 18.1381ZM16.7017 17.953C16.6958 17.9704 16.684 17.9819 16.6722 17.9935H16.684L16.6958 17.9877C16.6958 17.9877 16.6899 17.9935 16.684 17.9935L16.6368 18.0166C16.6486 18.0108 16.6604 18.0051 16.6722 17.9935C16.6604 17.9935 16.6486 17.9819 16.6368 17.9704C16.6073 17.9993 16.6014 18.0629 16.5896 18.0976C16.5778 18.1496 16.5601 18.1843 16.5247 18.2248C16.4479 18.3173 16.3417 18.3809 16.2709 18.4677C16.2355 18.5081 16.2001 18.5544 16.1706 18.5949C16.147 18.6353 16.1352 18.6989 16.0938 18.7221C16.0643 18.7394 16.0053 18.7394 15.9699 18.751C15.9227 18.7683 15.8637 18.7915 15.8047 18.7857C15.7988 18.7163 15.8283 18.5891 15.8755 18.5428C15.9404 18.4792 16.023 18.485 16.0466 18.3867C16.0584 18.3347 16.0348 18.2768 16.0643 18.2306C16.082 18.2017 16.1352 18.1496 16.1706 18.1381C16.2473 18.1091 16.2768 18.1438 16.3299 18.0802C16.3771 18.0282 16.4597 18.0051 16.5011 17.9472C16.5129 17.9299 16.4952 17.8952 16.5247 17.8778C16.5483 17.8605 16.5778 17.8952 16.6073 17.8663C16.6191 17.8547 16.6073 17.8027 16.6309 17.7795C16.6427 17.768 16.6722 17.7622 16.6899 17.7564C16.7194 17.7911 16.7076 17.8605 16.7135 17.9068C16.7076 17.9357 16.7253 17.9068 16.7017 17.953ZM19.5581 15.4087L19.5345 15.3914C19.5286 15.4434 19.4755 15.5533 19.3987 15.5475C19.3987 15.507 19.4282 15.4492 19.4459 15.4087C19.4637 15.3625 19.4696 15.2757 19.4991 15.2411C19.5286 15.2006 19.5227 15.2179 19.5463 15.2584C19.5817 15.3104 19.5758 15.3394 19.5581 15.4087ZM19.7115 14.3563C19.6879 14.4604 19.7115 14.5414 19.6643 14.6397C19.6348 14.7033 19.5522 14.7553 19.5404 14.8305C19.5286 14.8941 19.5463 14.9635 19.5345 15.0271C19.5227 15.1023 19.4578 15.1774 19.4164 15.2468C19.3869 15.3047 19.322 15.4203 19.2866 15.4723C19.2748 15.2526 19.2866 15.0734 19.2512 14.8536C19.2394 14.7958 19.2217 14.7091 19.2099 14.6281C19.3928 14.5125 19.5699 14.4026 19.741 14.287C19.7233 14.3043 19.7174 14.3274 19.7115 14.3563Z" fill="currentColor" />
		<path d="M10.5107 9.62663C10.5225 9.62663 10.5284 9.62663 10.5403 9.62054L10.5107 9.62663Z" fill="currentColor" />
		<path d="M8.74008 5.02928L8.69287 5.01193C8.69877 5.0235 8.71648 5.02928 8.74008 5.02928Z" fill="currentColor" />
		<path d="M12.4703 5.07005L12.4644 5.06396C12.4644 5.06396 12.4644 5.06396 12.4703 5.07005Z" fill="currentColor" />
		<path d="M15.2909 4.86735C15.2673 4.86735 15.2496 4.86157 15.2319 4.86157C15.2496 4.86735 15.285 4.87314 15.2909 4.89048V4.86735Z" fill="currentColor" />
		<path d="M19.1035 7.38852C19.1094 7.40008 19.1094 7.40587 19.1153 7.41743C19.1271 7.43478 19.1448 7.45213 19.1566 7.46947C19.1389 7.44056 19.1212 7.41165 19.1035 7.38852Z" fill="currentColor" />
		<path d="M4.53809 9.88074L4.54399 9.90965C4.5794 9.90387 4.62071 9.91543 4.65612 9.92121H4.83317C4.84497 9.91543 4.85087 9.90965 4.85677 9.90387C4.89218 9.85761 4.89218 9.77665 4.90398 9.72461C4.92169 9.64944 4.92169 9.57427 4.92759 9.48753C4.93349 9.38923 4.98071 9.4008 5.02202 9.32562C5.03972 9.29093 5.03382 9.24467 5.05152 9.20419C5.06923 9.1695 5.09874 9.16372 5.11644 9.12324C5.12824 9.08854 5.10464 9.04807 5.11644 9.01337C5.12824 8.97868 5.16365 8.95555 5.17546 8.92085C5.19316 8.87459 5.17546 8.81099 5.21677 8.78207C5.22857 8.77051 5.24038 8.77051 5.25218 8.77051L5.18136 8.75316C5.22267 8.75316 5.25218 8.77629 5.28759 8.75316C5.3289 8.73003 5.31119 8.66643 5.35841 8.65486C5.36431 8.75894 5.46464 9.08276 5.28169 9.09433C5.27578 9.15793 5.29939 9.20419 5.31119 9.26202C5.3171 9.31406 5.31119 9.3661 5.3289 9.42971C5.3348 9.38923 5.35841 9.37767 5.38201 9.35454C5.40562 9.33141 5.43513 9.33141 5.45283 9.30249C5.46464 9.28515 5.45873 9.26202 5.47054 9.24467C5.51775 9.15215 5.61218 9.08854 5.64758 8.98446C5.64758 9.08854 5.64759 9.19263 5.62988 9.29093C5.61808 9.36032 5.62988 9.4644 5.60627 9.52801C5.59447 9.5627 5.55316 9.5974 5.53545 9.63209C5.58857 9.64944 5.61808 9.62631 5.64168 9.68413C5.65349 9.71305 5.64168 9.76509 5.65349 9.794C5.67709 9.86339 5.73611 9.91543 5.81283 9.91543H10.0856C10.1033 9.89809 10.121 9.88074 10.1446 9.87496C10.062 9.85761 10.0738 9.79978 10.1387 9.77087C10.2036 9.73618 10.2862 9.78244 10.3453 9.74196C10.3098 9.6957 10.298 9.67257 10.3275 9.64366H10.3216C10.3275 9.61475 10.3394 9.61475 10.363 9.61475C10.4102 9.58005 10.3689 9.57427 10.4456 9.5974C10.4574 9.60318 10.4692 9.60896 10.4751 9.60896H10.4987C10.5931 9.60896 10.6403 9.64366 10.6049 9.74196C10.5813 9.81135 10.54 9.82291 10.54 9.89809V9.91543H10.9472V9.8923C10.9118 9.8923 10.8646 9.88074 10.8587 9.84026C10.8587 9.82291 10.8882 9.82291 10.8882 9.80557C10.8882 9.77087 10.9177 9.68992 10.8469 9.6957C10.8351 9.74196 10.7112 9.75931 10.6698 9.74774C10.6993 9.66101 10.7584 9.58005 10.6226 9.57427C10.6816 9.53379 10.6698 9.4644 10.6639 9.4008C10.6285 9.4008 10.599 9.42971 10.5695 9.44127C10.5813 9.41236 10.6285 9.39501 10.6403 9.37188C10.6521 9.33719 10.6285 9.31984 10.6226 9.29093C10.599 9.18685 10.6521 9.25045 10.6934 9.16372C10.723 9.10011 10.658 9.0365 10.7407 8.99603C10.782 8.97868 10.8587 8.99024 10.9177 8.99024C10.9236 8.98446 10.9236 8.97868 10.9295 8.9729C10.9295 8.97868 10.9295 8.98446 10.9354 8.99024H10.9472C10.9413 9.00181 10.9413 9.01337 10.9354 9.02494C10.9295 9.05385 10.9177 9.0712 10.9 9.08854C10.8764 9.12324 10.8528 9.15793 10.8469 9.17528L10.8705 9.11167C10.8469 9.12902 10.8292 9.14637 10.8174 9.1695C10.7643 9.2678 10.9826 9.22732 11.0534 9.2331C11.0357 9.36032 10.9 9.40658 10.8469 9.51066C10.9 9.51066 10.9531 9.51066 11.0003 9.53957C11.083 9.58583 11.0416 9.66679 11.1066 9.70726C11.1597 9.74196 11.1597 9.68992 11.201 9.75352C11.2246 9.794 11.2364 9.84026 11.2423 9.88074C11.2423 9.8923 11.2423 9.90965 11.2482 9.92121H11.9741C11.98 9.90965 11.9918 9.90387 12.0095 9.90387C12.039 9.89808 12.0626 9.90965 12.0921 9.92121H12.1747L12.1806 9.91543C12.2338 9.86339 12.222 9.82291 12.2161 9.75931C12.2161 9.74196 12.2102 9.72461 12.2102 9.70726C12.2102 9.6957 12.2279 9.70148 12.2279 9.68413C12.2279 9.66679 12.222 9.62053 12.2102 9.60318C12.1865 9.57427 12.1452 9.58005 12.1511 9.53379C12.1511 9.51644 12.1747 9.48753 12.1925 9.48175C12.157 9.44705 12.1334 9.38345 12.1393 9.33141C12.1688 9.34875 12.2515 9.42393 12.2751 9.3661C12.2928 9.31406 12.1747 9.25045 12.2043 9.18685C12.2161 9.14637 12.2574 9.1695 12.2987 9.17528C12.3223 9.18106 12.3931 9.17528 12.4049 9.19263C12.4167 9.20419 12.3872 9.27936 12.3872 9.29671V9.3661C12.4049 9.3661 12.4285 9.36032 12.4403 9.3661C12.4757 9.37188 12.458 9.36032 12.4698 9.38923C12.4757 9.40658 12.4816 9.44127 12.4875 9.45862C12.4344 9.47018 12.3872 9.45862 12.3459 9.48753C12.3282 9.4991 12.2987 9.52223 12.2928 9.54536C12.2869 9.56849 12.2928 9.62631 12.3046 9.64944C12.3105 9.66101 12.3459 9.74196 12.3518 9.74774C12.3695 9.76509 12.4049 9.74196 12.4285 9.74774C12.4462 9.75352 12.4403 9.78244 12.458 9.794C12.4875 9.81713 12.4934 9.78822 12.5347 9.78244C12.5879 9.77665 12.6233 9.78822 12.6646 9.74774C12.6705 9.74196 12.6705 9.72461 12.6764 9.71883C12.6941 9.70726 12.7354 9.71305 12.7531 9.71883C12.759 9.74196 12.759 9.77087 12.759 9.79978C12.759 9.86339 12.7649 9.85761 12.8357 9.85183C12.8947 9.84604 12.9242 9.83448 12.9656 9.794C12.9833 9.77087 13.001 9.75931 13.0246 9.74196C13.0718 9.71883 13.1131 9.71305 13.1603 9.68413C13.1898 9.66101 13.2134 9.64366 13.2547 9.64944C13.3019 9.65522 13.2901 9.67257 13.3019 9.71305C13.3197 9.76509 13.361 9.76509 13.4082 9.74774C13.4377 9.73618 13.4731 9.73039 13.4967 9.71305C13.5203 9.68992 13.5144 9.66679 13.5439 9.66101C13.5852 9.64944 13.6088 9.68413 13.6206 9.63788C13.6265 9.61475 13.6206 9.58005 13.6088 9.55692C13.5852 9.4991 13.5675 9.45284 13.5734 9.38345C13.5793 9.33141 13.6088 9.28515 13.6324 9.23889C13.6442 9.20997 13.6442 9.18685 13.6797 9.18106C13.721 9.17528 13.7682 9.20419 13.7859 9.2331C13.8095 9.2678 13.8744 9.39501 13.9098 9.30828C13.9275 9.25623 13.9334 9.12902 13.8921 9.08854C13.8744 9.06541 13.8567 9.07698 13.839 9.06541C13.8154 9.04807 13.8213 9.00759 13.7918 8.99024H13.7977C13.7918 8.96711 13.78 8.90351 13.8036 8.88616C13.8154 8.87459 13.8508 8.89194 13.8685 8.88616C13.8803 8.88038 13.8862 8.87459 13.8921 8.86881C13.9334 8.84568 13.957 8.84568 14.0042 8.85146C14.0455 8.85146 14.0869 8.8399 14.1282 8.8399C14.14 8.85725 14.1459 8.87459 14.1518 8.89772C14.1813 8.89772 14.2462 8.90929 14.2639 8.89194C14.2816 8.88038 14.2698 8.86303 14.2757 8.8399C14.2875 8.77051 14.3347 8.78786 14.3878 8.78786C14.4114 8.78786 14.4764 8.79942 14.4941 8.77051C14.4941 8.76473 14.4823 8.72425 14.4764 8.71847C14.4469 8.69534 14.3701 8.71847 14.3347 8.68956C14.317 8.67799 14.317 8.6433 14.3111 8.62595C14.2993 8.63751 14.2403 8.65486 14.2226 8.66064C14.1695 8.67221 14.1105 8.65486 14.0574 8.66064C14.0101 8.66643 14.0278 8.68956 13.9924 8.71269C13.9688 8.73003 13.9275 8.7069 13.898 8.7069C13.8508 8.7069 13.7977 8.73582 13.78 8.78207C13.7564 8.73582 13.7092 8.72425 13.6737 8.68377C13.6206 8.61438 13.5793 8.6433 13.5026 8.63751C13.5026 8.56812 13.5321 8.5103 13.4967 8.44669C13.4849 8.42356 13.4731 8.39465 13.4613 8.37152C13.4554 8.35417 13.4259 8.33104 13.42 8.31948C13.4141 8.29057 13.4377 8.26166 13.4436 8.23853C13.4436 8.22118 13.4377 8.19805 13.4495 8.1807C13.4731 8.14601 13.538 8.15757 13.5734 8.12288C13.6147 8.08818 13.6383 8.03614 13.6737 7.99566C13.6915 7.96675 13.7092 7.9494 13.721 7.91471C13.7269 7.89158 13.7269 7.88001 13.7446 7.86267C13.78 7.83376 13.8331 7.83376 13.8449 7.78171C13.8567 7.72389 13.8095 7.69498 13.7623 7.68919C13.6974 7.67763 13.6147 7.63715 13.5498 7.66028C13.5262 7.66606 13.5026 7.68919 13.479 7.69498C13.4436 7.70654 13.4436 7.69498 13.4436 7.72967C13.4436 7.84532 13.4849 7.93784 13.3846 8.03036C13.3315 8.07662 13.296 8.13444 13.2429 8.17492C13.2075 8.19805 13.1898 8.19805 13.1662 8.22696C13.1485 8.24431 13.1249 8.26744 13.1131 8.28479C13.0895 8.3137 13.1013 8.38887 13.0954 8.43513C13.0836 8.50452 13.0423 8.62017 13.0659 8.68956C13.0895 8.68956 13.1249 8.68956 13.1426 8.67221C13.1603 8.66064 13.1544 8.62017 13.1898 8.62595C13.2016 8.63173 13.2016 8.63751 13.2075 8.64908C13.2252 8.67799 13.2252 8.68956 13.2488 8.71269C13.2606 8.72425 13.2842 8.73003 13.2901 8.74738C13.3019 8.77629 13.2842 8.81677 13.2547 8.82833C13.2606 8.85146 13.2665 8.88038 13.2547 8.90929C13.237 8.94398 13.2311 8.92664 13.1957 8.93242C13.1485 8.94398 13.1898 8.95555 13.1544 8.98446C13.1367 9.00181 13.1013 8.98446 13.0895 9.00181C13.0777 9.01337 13.0836 9.05963 13.0836 9.07698C13.0777 9.10589 13.06 9.12324 13.0659 9.15215C13.0659 9.17528 13.0895 9.19263 13.0836 9.22154C13.0836 9.25623 13.0541 9.25623 13.0423 9.28515C13.1131 9.31406 13.1662 9.44127 13.0541 9.45862C13.0305 9.4644 13.001 9.45862 12.9774 9.45862C12.9538 9.45862 12.9065 9.42393 12.8947 9.42971C12.8652 9.43549 12.8711 9.52801 12.8534 9.55114C12.8416 9.57427 12.7885 9.62053 12.759 9.62053C12.7472 9.62053 12.7 9.58583 12.6882 9.58005C12.6646 9.5627 12.641 9.53957 12.6469 9.51066C12.6528 9.47018 12.7 9.41814 12.6469 9.38923C12.6174 9.3661 12.5997 9.38923 12.5938 9.34297C12.5879 9.30249 12.5938 9.30249 12.5702 9.27358C12.5583 9.25623 12.5288 9.23889 12.517 9.22154C12.4993 9.19263 12.5052 9.19841 12.5052 9.16372C12.5052 9.12902 12.4934 9.11167 12.4875 9.08276C12.4816 9.02494 12.5642 9.02494 12.5524 8.9729C12.5288 8.96711 12.4521 8.96711 12.4403 8.94398C12.4344 8.9382 12.4403 8.92664 12.4403 8.92085C12.4285 8.89194 12.4403 8.82833 12.4226 8.81099C12.3754 8.76473 12.3813 8.87459 12.3754 8.89772C12.3754 8.92664 12.3754 8.96711 12.34 8.97868C12.3164 8.98446 12.3105 8.96711 12.2869 8.96711C12.2456 8.96711 12.2456 9.01916 12.2161 9.04807C12.2043 9.05963 12.1865 9.05963 12.1806 9.0712C12.1747 9.07698 12.1806 9.09433 12.1747 9.10589C12.157 9.14059 12.1393 9.1348 12.1098 9.15215C12.0685 9.1695 12.0272 9.19263 11.9859 9.15793C11.9682 9.14637 11.9564 9.11746 11.9387 9.10589C11.921 9.10011 11.8856 9.11746 11.862 9.10589C11.8206 9.08854 11.8502 9.05963 11.8206 9.03072C11.8147 9.01915 11.8029 9.01337 11.7911 9.01337C11.7852 9.02494 11.7793 9.03072 11.7675 9.03072C11.7734 9.01915 11.7793 9.01337 11.7911 9.01337C11.797 9.00181 11.8029 8.99024 11.8147 8.99024C11.8384 8.97868 11.8679 9.00181 11.8915 8.98446C11.9092 8.9729 11.9092 8.96711 11.9033 8.94977C11.8974 8.90929 11.8738 8.92664 11.8502 8.94398V8.91507C11.8147 8.91507 11.7734 8.92085 11.7675 8.87459C11.7675 8.83412 11.7852 8.8399 11.8147 8.83412C11.8856 8.82255 11.8325 8.81099 11.862 8.77051C11.8797 8.7416 11.9623 8.75316 11.9387 8.70112C11.921 8.66643 11.8915 8.69534 11.8679 8.7069C11.862 8.71269 11.862 8.72425 11.8502 8.73003C11.8502 8.73003 11.8206 8.71847 11.8147 8.71269C11.7793 8.70112 11.7557 8.7069 11.7616 8.66064C11.7675 8.61438 11.7911 8.62017 11.8266 8.62017C11.8502 8.62017 11.8738 8.62017 11.8974 8.61438C11.9151 8.6086 11.921 8.57969 11.9446 8.58547C11.9505 8.58547 11.9564 8.59704 11.9623 8.60282C11.9918 8.6086 11.9977 8.62595 12.0154 8.59704C12.0213 8.58547 12.0213 8.55078 12.0095 8.53921C11.9564 8.48717 11.9387 8.56812 11.9151 8.58547C11.862 8.53343 11.8856 8.57969 11.8443 8.59125C11.8029 8.60282 11.7616 8.55656 11.7203 8.55656C11.7203 8.5103 11.7675 8.5103 11.7793 8.48139C11.7911 8.45248 11.7557 8.42356 11.7734 8.38887C11.797 8.40043 11.8325 8.40043 11.8561 8.39465C11.8561 8.3773 11.8443 8.34261 11.8679 8.32526C11.8974 8.30792 11.9269 8.37152 11.9505 8.35996C11.9977 8.33104 11.862 8.26744 11.9564 8.24431C11.9623 8.26744 11.9505 8.28479 11.9564 8.30213C11.9859 8.30213 12.1511 8.23853 12.1452 8.20961C12.1393 8.16914 12.0803 8.19805 12.0685 8.16335C12.0626 8.13444 12.1039 8.11709 12.1216 8.11709C12.1216 8.14022 12.1216 8.16335 12.1275 8.18648C12.1806 8.19805 12.1452 8.15757 12.1747 8.14022C12.2043 8.12288 12.222 8.15757 12.2279 8.1807C12.3046 8.20961 12.4698 8.12288 12.458 8.02458C12.4167 8.03614 12.3813 8.04192 12.3577 8.07662C12.34 8.09397 12.3341 8.13444 12.3046 8.13444C12.2456 8.14022 12.2633 8.0824 12.281 8.04771C12.3046 7.99566 12.34 7.96097 12.3813 7.92627C12.3872 7.92049 12.3931 7.90893 12.399 7.90314C12.4049 7.89736 12.4226 7.90893 12.4285 7.90314C12.4639 7.88001 12.4285 7.82219 12.4993 7.82219C12.4934 7.80484 12.4344 7.79906 12.4462 7.77015C12.4521 7.74702 12.4993 7.76437 12.517 7.7528C12.5406 7.73545 12.5643 7.6545 12.517 7.64872C12.5229 7.6198 12.5583 7.62559 12.582 7.62559C12.6587 7.61402 12.5997 7.59668 12.5997 7.55042C12.5997 7.45211 12.7118 7.50994 12.7177 7.41742C12.7177 7.38273 12.6941 7.34225 12.7236 7.31334C12.7413 7.29599 12.7649 7.30177 12.7767 7.29021C12.7885 7.27864 12.7885 7.26708 12.7944 7.26129C12.818 7.23816 12.8357 7.24395 12.8652 7.24973C12.8947 7.24973 12.9538 7.25551 12.9301 7.20925C12.9006 7.21503 12.8416 7.22082 12.8239 7.1919C12.8062 7.16299 12.8357 7.12252 12.8003 7.09939C12.7649 7.15721 12.7708 7.18612 12.7 7.21503C12.6764 7.2266 12.6528 7.23238 12.6351 7.24395C12.5997 7.26129 12.5583 7.30755 12.517 7.30177C12.5406 7.26708 12.5761 7.24973 12.6056 7.21503C12.6292 7.18612 12.641 7.1919 12.6646 7.18612C12.6705 7.18612 12.6705 7.20347 12.6882 7.1919C12.7059 7.18034 12.7059 7.0936 12.7118 7.07626C12.7177 7.04156 12.7354 6.97795 12.7944 6.98952C12.8003 7.02421 12.8003 7.06469 12.818 7.0936C12.8239 7.11095 12.8357 7.1283 12.8534 7.13408C12.8593 7.13408 12.8652 7.12252 12.8711 7.1283C12.8947 7.13986 12.8947 7.17456 12.9242 7.16878C12.9479 7.16878 12.9597 7.1283 12.9656 7.11095C12.9715 7.0936 12.9715 7.08204 12.9656 7.07047C12.9597 7.07047 12.9538 7.06469 12.9538 7.05313H12.9479C12.9301 7.04156 12.8298 7.03 12.877 6.98952C12.9183 6.95482 12.942 7.00108 12.9479 7.03C12.9479 7.04156 12.9538 7.04734 12.9538 7.05313C12.9597 7.05891 12.9656 7.06469 12.9656 7.07047H12.9892C12.9892 7.05313 12.9833 7.03578 12.9774 7.01843C12.9715 7.00687 12.9538 6.95482 12.9833 6.95482C13.0069 6.95482 12.9892 6.96639 12.9951 6.97795C13.0069 6.98952 13.0187 7.00108 13.0423 7.01265C13.0718 7.02421 13.1131 7.03 13.1249 6.98952C13.1367 6.94326 13.0836 6.95482 13.0541 6.94326C13.0246 6.9317 13.0128 6.87387 13.06 6.86231C13.1308 6.83918 13.1367 6.97217 13.178 6.98374C13.1898 6.95482 13.1485 6.9317 13.1367 6.90857C13.1072 6.82183 13.1898 6.87965 13.2016 6.92591C13.237 6.90278 13.3078 6.94904 13.3551 6.94326C13.361 6.90857 13.237 6.89122 13.2665 6.84496C13.2901 6.81026 13.3728 6.90278 13.3964 6.90857C13.3905 6.87965 13.3846 6.85652 13.361 6.83918C13.3492 6.82761 13.3138 6.83339 13.3019 6.82761C13.2901 6.82183 13.2665 6.78135 13.2842 6.764C13.3019 6.74666 13.3846 6.79292 13.4023 6.80448C13.4141 6.81605 13.42 6.83918 13.4318 6.86231C13.4318 6.84496 13.4377 6.82761 13.4318 6.81026C13.4259 6.78713 13.3846 6.764 13.3964 6.73509C13.4613 6.74666 13.4672 6.7987 13.5321 6.764C13.5321 6.68883 13.5734 6.65992 13.6442 6.68305C13.6442 6.71196 13.6383 6.74666 13.6324 6.76979C13.6147 6.81605 13.5734 6.82183 13.6206 6.85074C13.7328 6.9317 13.6678 6.74666 13.6856 6.71775C13.7151 6.72353 13.7328 6.87387 13.7564 6.7987C13.7623 6.78713 13.7505 6.75822 13.7623 6.74087L13.7859 6.71775C13.7977 6.67727 13.7741 6.65414 13.8272 6.65992C13.8449 6.65992 13.8862 6.67727 13.8921 6.69462C13.9039 6.71774 13.8803 6.74666 13.8862 6.76979C13.9039 6.85652 13.9334 6.72931 13.9511 6.71196C13.9806 6.77557 14.0751 6.75244 14.14 6.78135C14.1636 6.79292 14.2108 6.81026 14.1931 6.84496C14.1754 6.88544 14.0692 6.85652 14.0455 6.897C14.0278 6.93169 14.1754 6.95482 14.2049 6.93748C14.2285 6.92013 14.2403 6.88544 14.2698 6.87965C14.3111 6.87965 14.376 6.93748 14.4055 6.95482C14.3819 6.98952 14.2816 6.97795 14.2403 6.97795C14.2875 7.00687 14.376 7.01265 14.4292 7.01265C14.4823 7.01843 14.5413 6.9953 14.5944 7.01265C14.6298 7.02421 14.6593 7.03578 14.6947 7.04734C14.7183 7.05313 14.736 7.05313 14.7596 7.05891C14.7892 7.06469 14.801 7.07626 14.8246 7.0936C14.8659 7.13408 14.9013 7.16299 14.9485 7.18612C14.9839 7.19769 15.0193 7.20925 15.0429 7.24395C15.0842 7.29599 15.1078 7.3249 15.1728 7.34225C15.2377 7.3596 15.2967 7.41164 15.2731 7.48681C15.2554 7.53885 15.2141 7.62559 15.155 7.63715C15.0724 7.6545 14.9898 7.62559 14.9131 7.61402C14.8305 7.60246 14.7596 7.56198 14.6829 7.53885C14.6121 7.5215 14.5118 7.49837 14.4705 7.4232C14.4823 7.46946 14.5531 7.55042 14.5885 7.57933C14.6239 7.60824 14.677 7.59089 14.7183 7.61402C14.7478 7.63715 14.7537 7.68341 14.7419 7.71811C14.736 7.74124 14.7065 7.75858 14.7183 7.7875C14.7301 7.81641 14.7714 7.81641 14.7773 7.84532C14.7891 7.87423 14.7596 7.91471 14.7714 7.93784C14.7891 7.99566 14.9249 7.97253 14.9662 8.01879C15.0016 8.05927 15.0547 8.11131 15.1196 8.07662C15.1314 8.07084 15.1669 8.04192 15.1609 8.02458C15.1609 8.01879 15.1373 8.01879 15.1314 8.01879C15.0783 7.99566 15.0075 7.98988 14.9662 7.9494C14.9249 7.90893 14.9131 7.81063 14.9898 7.80484C15.0606 7.79906 15.1373 7.85688 15.1846 7.89736C15.2082 7.92049 15.2259 7.93784 15.2495 7.95519C15.2731 7.97253 15.2967 7.97832 15.3026 8.00723C15.3321 7.95519 15.338 7.8858 15.2908 7.84532C15.2672 7.82797 15.2259 7.82219 15.2318 7.78171C15.2318 7.7528 15.2613 7.74702 15.279 7.72967C15.3144 7.70654 15.3262 7.69498 15.3439 7.6545C15.3557 7.61981 15.3675 7.58511 15.4029 7.57355C15.4324 7.56198 15.4678 7.57933 15.5032 7.60246L15.4973 7.59668C15.5209 7.60246 15.5741 7.61402 15.5741 7.64293C15.5505 7.63715 15.5268 7.61981 15.5032 7.60246C15.5268 7.62559 15.5564 7.63715 15.5859 7.6545C15.5918 7.61402 15.5859 7.5562 15.58 7.50994C15.58 7.47524 15.5741 7.48103 15.5505 7.4579C15.5328 7.44055 15.4796 7.40007 15.4737 7.38273C15.4619 7.34803 15.5091 7.27864 15.4796 7.24973C15.4678 7.23816 15.4206 7.23816 15.4029 7.2266C15.3793 7.20925 15.3616 7.17456 15.3616 7.14565C15.4029 7.15143 15.4442 7.15721 15.4855 7.16299C15.5209 7.16878 15.5682 7.16299 15.6036 7.17456C15.6449 7.18612 15.6449 7.22082 15.6744 7.24395C15.698 7.26129 15.7275 7.26708 15.7452 7.29599C15.7157 7.31912 15.5741 7.33068 15.5682 7.37694C15.5564 7.45211 15.757 7.44055 15.6685 7.50416C15.7098 7.52729 15.7806 7.5562 15.8278 7.53885C15.8278 7.49837 15.8101 7.39429 15.8337 7.36538C15.8455 7.35381 15.875 7.35381 15.8868 7.34225C15.8987 7.33647 15.9164 7.31912 15.9282 7.30755C15.9636 7.28442 15.9872 7.24395 16.0285 7.22082C16.0462 7.20925 16.0875 7.1919 16.1052 7.20347C16.1229 7.21503 16.1229 7.23816 16.1465 7.24395C16.176 7.20347 16.1583 7.13986 16.2114 7.11673C16.2823 7.0936 16.2882 7.16299 16.2645 7.20347C16.2527 7.22082 16.235 7.2266 16.2468 7.25551C16.2586 7.27864 16.2941 7.28442 16.3177 7.29021C16.4062 7.30177 16.3767 7.24973 16.4239 7.20925C16.4652 7.17456 16.5478 7.18612 16.595 7.16299C16.6482 7.14565 16.6836 7.14565 16.6895 7.20347C16.6954 7.24395 16.6777 7.26129 16.7249 7.26708C16.7603 7.27286 16.7662 7.24973 16.7839 7.22082C16.7957 7.19769 16.7898 7.1919 16.8134 7.17456C16.8252 7.16299 16.8429 7.16878 16.8488 7.15143C16.7957 7.11673 16.7367 7.08782 16.6836 7.04156C16.6659 7.02421 16.6482 7.00687 16.6304 6.98952C16.595 6.96061 16.5478 6.96639 16.5242 6.93748C16.5065 6.92013 16.4947 6.86231 16.4947 6.83918C16.5714 6.83918 16.6009 6.92013 16.66 6.94904C16.6895 6.96639 16.719 6.97795 16.7485 6.98952C16.7721 7.00108 16.8016 7.01265 16.8311 7.01843C16.8547 7.02421 16.8547 7.01843 16.8783 7.01843C16.9432 7.01843 16.9255 7.05891 16.9786 7.08204C17.0081 7.0936 17.1203 7.15143 17.1321 7.13408C17.1734 7.12252 17.1557 7.18034 17.1675 7.19769C17.1793 7.22082 17.2324 7.24395 17.2619 7.25551C17.2973 7.26708 17.3268 7.29021 17.3563 7.30755C17.4036 7.33068 17.4331 7.30755 17.4036 7.25551C17.3918 7.23816 17.374 7.22082 17.3622 7.20347C17.3504 7.18612 17.3386 7.15721 17.3209 7.14565C17.2678 7.10517 17.1616 7.11095 17.138 7.04156C17.1203 6.98952 17.1439 6.94326 17.0849 6.90278C17.0436 6.87387 16.9904 6.85074 16.9786 6.80448C16.9668 6.74087 17.0318 6.67149 17.02 6.60788C17.014 6.5674 16.9727 6.56162 16.9373 6.55005C16.9314 6.49801 16.9491 6.42284 17.0081 6.42862C17.0259 6.42862 17.0318 6.44019 17.0495 6.44019C17.0731 6.44019 17.1085 6.43441 17.1321 6.44019C17.1675 6.45175 17.1675 6.48645 17.1852 6.52114C17.2029 6.55584 17.2324 6.58475 17.2501 6.61944C17.2737 6.6657 17.2501 6.72931 17.2973 6.76979C17.3209 6.79292 17.3445 6.78135 17.3681 6.79292C17.3977 6.80448 17.4095 6.83918 17.4213 6.86231C17.4567 6.93748 17.498 7.01843 17.5393 7.08782C17.5511 7.11095 17.5747 7.13408 17.5924 7.15721C17.6101 7.1919 17.6278 7.2266 17.6455 7.26129C17.6868 7.3249 17.7458 7.37116 17.7517 7.44633C17.7517 7.47524 17.7695 7.57933 17.7458 7.60246C17.734 7.61402 17.6868 7.60824 17.6691 7.60824C17.6396 7.60824 17.5039 7.59089 17.5629 7.64293C17.5806 7.66028 17.6337 7.67763 17.6573 7.68919C17.6927 7.70654 17.7281 7.71232 17.7636 7.71232C17.8226 7.71232 17.8816 7.68919 17.8934 7.62559C17.8993 7.59668 17.8934 7.56198 17.8875 7.53307C17.8816 7.49259 17.8816 7.45211 17.8698 7.41742C17.858 7.36538 17.7222 7.27286 17.7931 7.24395C17.8462 7.2266 17.9406 7.30755 17.976 7.34225C18.0468 7.40585 18.0232 7.49259 18.1295 7.52729C18.1354 7.48681 18.0645 7.42898 18.0468 7.39429C18.0232 7.35381 18.0173 7.33068 17.9819 7.30177C17.9524 7.27864 17.9229 7.26129 17.8993 7.23238C17.8934 7.22082 17.8816 7.20347 17.8757 7.1919C17.8521 7.17456 17.8521 7.16878 17.8108 7.17456C17.7872 7.17456 17.7695 7.18034 17.7517 7.1919C17.7458 7.1919 17.7458 7.20347 17.7399 7.20925C17.6986 7.22082 17.6809 7.16299 17.6455 7.13986C17.5983 7.09939 17.5747 7.05313 17.5452 7.00108C17.5039 6.92591 17.4508 6.85652 17.4036 6.78713C17.3858 6.764 17.374 6.74666 17.374 6.71196C17.374 6.69462 17.3799 6.6657 17.3799 6.65414C17.3681 6.62523 17.315 6.59053 17.2914 6.56162C17.256 6.52692 17.2147 6.49223 17.2383 6.44019C17.2973 6.45754 17.3209 6.50379 17.3563 6.55005C17.3681 6.5674 17.3918 6.57897 17.4036 6.6021C17.4154 6.62523 17.4036 6.65992 17.4154 6.68305C17.4331 6.72931 17.498 6.75244 17.5452 6.77557C17.6042 6.81026 17.675 6.85652 17.7399 6.88544C17.7458 6.84496 17.6927 6.78713 17.6514 6.77557C17.616 6.764 17.5747 6.78135 17.5393 6.764C17.498 6.74666 17.4036 6.67727 17.4095 6.63101C17.4449 6.67727 17.5393 6.68305 17.5924 6.7004C17.4921 6.65414 17.4567 6.58475 17.4626 6.4691C17.5098 6.53271 17.557 6.6021 17.6219 6.64257C17.6573 6.6657 17.6809 6.69462 17.7163 6.72353C17.7517 6.75822 17.7754 6.75244 17.8226 6.75244C17.8757 6.75244 17.8816 6.76979 17.9052 6.82183C17.917 6.85652 17.9288 6.89122 17.9465 6.92013C17.9642 6.97217 17.9819 6.98374 18.0291 7.01265C18.0881 7.04734 18.1354 7.09939 18.1885 7.13408C18.159 7.11095 18.1294 7.08782 18.1117 7.05891C18.0881 7.02421 18.0763 6.98374 18.0586 6.94326C18.0291 6.88544 17.9996 6.82761 17.9642 6.78135C17.9406 6.74666 17.9229 6.72353 17.8816 6.70618C17.8403 6.68883 17.8049 6.67727 17.7695 6.65992C17.7517 6.65414 17.7281 6.64257 17.7104 6.63101C17.6573 6.6021 17.6101 6.54427 17.5511 6.53271C17.5511 6.50379 17.5393 6.48067 17.5452 6.45175C17.5452 6.44597 17.557 6.39971 17.557 6.39971C17.5806 6.36502 17.6809 6.39971 17.7222 6.39971C17.7695 6.40549 17.7636 6.41706 17.7754 6.45175C17.7872 6.47488 17.799 6.50379 17.8285 6.48645C17.8403 6.48067 17.858 6.43441 17.8521 6.41706C17.8462 6.39393 17.7931 6.38815 17.7754 6.37658C17.7577 6.36502 17.7577 6.34767 17.7458 6.3361C17.7281 6.31876 17.7045 6.31297 17.6927 6.29563C17.6632 6.2725 17.6809 6.24359 17.6691 6.22046C17.6573 6.20311 17.6278 6.19154 17.616 6.1742C17.5924 6.11059 17.6632 6.12794 17.6986 6.11059C17.7695 6.07011 17.6573 6.06433 17.6691 6.00651C17.6927 6.00651 17.7222 6.00651 17.7458 6.01229C17.7813 6.02963 17.7872 6.05855 17.8049 6.08168C17.8285 6.11637 17.8639 6.11059 17.8993 6.09902C17.917 6.09324 17.9347 6.08168 17.9524 6.08168C16.5006 4.78641 14.5767 4 12.458 4C9.90853 4 7.62462 5.14492 6.13152 6.94326C6.20824 6.87965 6.29676 6.81605 6.29676 6.86231L6.20233 6.92013C6.35578 6.87387 6.30856 7.01265 6.20233 6.96639C6.24365 7.05313 6.11971 7.03578 6.14332 7.11673C6.16102 7.08782 6.16692 7.10517 6.19643 7.0936C6.22004 7.16299 6.22594 7.20347 6.19053 7.26129C6.20824 7.24973 6.23774 7.23816 6.24955 7.22082C6.25545 7.26708 6.23184 7.31334 6.23774 7.3596C6.27905 7.34803 6.30856 7.34225 6.31446 7.38273C6.32627 7.44633 6.25545 7.44633 6.20824 7.4579C6.22004 7.49259 6.24955 7.51572 6.22594 7.5562C6.19643 7.59668 6.14332 7.57933 6.13152 7.64293C6.11971 7.70654 6.19053 7.77015 6.23774 7.80484C6.27905 7.83376 6.29676 7.79328 6.29676 7.86845C6.29676 7.90893 6.27315 7.96097 6.25545 7.99566C6.20824 8.10553 6.13742 8.20961 6.01939 8.23853C6.01348 8.07084 6.00168 7.99566 5.81873 8.03614C5.81873 8.01879 5.80693 8.00145 5.81283 7.97832C5.80693 8.01301 5.79512 8.04771 5.79512 8.0824C5.91906 8.03036 5.88955 8.25587 5.88955 8.31948C5.88955 8.42935 5.90725 8.53343 5.84234 8.62595C5.79512 8.59125 5.80693 8.54499 5.74201 8.52765C5.68299 8.5103 5.66529 8.53343 5.65939 8.57969C5.65349 8.64908 5.73021 8.7416 5.73611 8.81677C5.63578 8.82833 5.58267 8.67799 5.55316 8.6086C5.51775 8.53343 5.55906 8.35417 5.41152 8.46404C5.41742 8.40622 5.38791 8.38309 5.41152 8.33683C5.43513 8.29057 5.51185 8.26166 5.55906 8.23853C5.61808 8.20383 5.60037 8.2154 5.62988 8.16914C5.65349 8.12866 5.65939 8.09396 5.7007 8.05927C5.77742 7.99566 5.83644 7.90893 5.87185 7.81063C5.90725 7.71232 5.94266 7.56198 5.93086 7.46368C5.87185 7.48103 5.80103 7.56198 5.74791 7.60824C5.7066 7.64293 5.6889 7.66606 5.66529 7.72389C5.60037 7.8858 5.50005 8.01879 5.35251 8.12288C5.35251 8.04192 5.42332 7.9494 5.46464 7.88001C5.48824 7.84532 5.50595 7.81063 5.52955 7.77015C5.39972 7.97832 5.27578 8.18648 5.16365 8.40622C5.18726 8.37152 5.21087 8.34261 5.22857 8.33104L5.24628 8.279C5.31119 8.34839 5.25218 8.5103 5.35841 8.54499C5.35841 8.62595 5.11644 8.67221 5.05152 8.66643V8.63173C4.85087 9.04807 4.69153 9.48753 4.56759 9.94434H4.5794C4.53809 9.90965 4.53809 9.8923 4.53809 9.88074ZM13.6915 8.87459C13.7328 8.86303 13.7387 8.93242 13.7269 8.96133C13.7033 8.96133 13.6856 8.92664 13.656 8.92085C13.656 8.88616 13.6737 8.86881 13.6915 8.87459ZM13.6678 9.00759C13.7446 8.99024 13.78 9.09433 13.6974 9.11167L13.7328 9.11746C13.6678 9.16372 13.5321 9.0365 13.6678 9.00759ZM13.3728 8.62595C13.3964 8.63173 13.42 8.63751 13.4436 8.6433C13.4495 8.67221 13.4613 8.73582 13.42 8.7416L13.4495 8.68377C13.4082 8.7069 13.4436 8.75316 13.3846 8.75316C13.3256 8.76473 13.3433 8.66064 13.3728 8.62595ZM13.2311 9.28515C13.2311 9.26202 13.2488 9.2331 13.2547 9.20997C13.2606 9.18106 13.2547 9.16372 13.2783 9.14059C13.3019 9.11746 13.361 9.08854 13.3964 9.10011L13.4141 9.09433C13.4141 9.09433 13.42 9.09433 13.42 9.08854L13.4141 9.09433C13.3846 9.10589 13.3551 9.15793 13.3433 9.18685C13.3315 9.20997 13.3374 9.22732 13.3315 9.25045C13.3197 9.31406 13.2193 9.38923 13.2311 9.28515ZM12.8947 9.59162C12.942 9.5974 12.9538 9.62631 12.9301 9.66101L12.936 9.65522C12.9006 9.66679 12.8947 9.67257 12.8534 9.66679C12.8475 9.62631 12.8534 9.58583 12.8947 9.59162ZM12.4344 9.58583C12.4344 9.61475 12.4108 9.64944 12.3872 9.65522C12.3223 9.67257 12.3105 9.61475 12.3341 9.57427C12.3518 9.54536 12.399 9.51644 12.4344 9.54536C12.4639 9.56849 12.4521 9.58005 12.4344 9.58583ZM12.4993 9.52223C12.4993 9.48753 12.5761 9.41814 12.5938 9.4644H12.5761C12.5938 9.47018 12.5938 9.4991 12.5938 9.51644C12.5938 9.53572 12.5957 9.55499 12.5997 9.57427C12.6233 9.64944 12.5642 9.65522 12.4993 9.63209C12.5052 9.59162 12.4993 9.55114 12.4993 9.52223ZM12.5702 9.6957C12.5702 9.69184 12.5702 9.69184 12.5702 9.6957C12.582 9.70726 12.5702 9.70148 12.5702 9.70148V9.6957C12.5465 9.71883 12.4993 9.75352 12.4698 9.71883C12.4521 9.6957 12.458 9.68413 12.4816 9.66679C12.517 9.64944 12.5465 9.67257 12.5702 9.6957ZM17.2442 6.31876C17.2442 6.32454 17.2442 6.33032 17.2383 6.3361C17.2324 6.35345 17.1675 6.35923 17.1557 6.35345C17.1439 6.34189 17.1439 6.30719 17.1557 6.29563C17.1793 6.27828 17.2265 6.30719 17.2442 6.31876L17.2029 6.29563C17.2206 6.28984 17.2442 6.30141 17.2442 6.31876ZM17.2029 6.09902C17.2383 6.09902 17.2737 6.11637 17.2973 6.1395L17.2914 6.11637C17.3268 6.17998 17.2029 6.1742 17.2029 6.09902ZM17.3091 5.98338C17.315 5.98916 17.315 5.99494 17.315 6.00072C17.315 6.00651 17.3209 6.01229 17.3268 6.01807C17.3032 6.03542 17.2147 6.07011 17.2206 6.00651C17.2206 5.97759 17.2796 5.96025 17.3091 5.98338C17.3052 5.97952 17.3052 5.97952 17.3091 5.98338ZM17.256 5.68847H17.2619L17.2678 5.68269C17.2973 5.7116 17.2855 5.75208 17.2442 5.75208C17.2029 5.75208 17.2206 5.69425 17.256 5.68847ZM17.2147 5.86194H17.2265C17.2265 5.87351 17.2265 5.89086 17.2206 5.89664V5.89086C17.2206 5.90242 17.2206 5.91399 17.2147 5.91977C17.2029 5.93133 17.1321 5.93133 17.1262 5.91977C17.1085 5.87929 17.1793 5.86773 17.2147 5.86194ZM16.9137 6.24359C16.9314 6.24359 16.9432 6.27828 16.9432 6.29563C16.9668 6.30141 17.0022 6.29563 17.014 6.31876C17.0259 6.3361 17.0259 6.35923 17.0022 6.35923V6.36502C16.9668 6.34189 16.9078 6.34189 16.8606 6.34189C16.8665 6.31876 16.8901 6.24359 16.9137 6.24359ZM15.875 7.09939C15.8691 7.12252 15.8337 7.15721 15.816 7.15143L15.8455 7.17456C15.7924 7.18034 15.7983 7.14565 15.7629 7.1283C15.7452 7.11673 15.698 7.1283 15.6862 7.11095C15.6744 7.0936 15.6921 7.05891 15.6921 7.04156C15.698 7.01265 15.7275 6.92591 15.7688 6.94326C15.7865 6.94904 15.7806 6.98952 15.7924 7.00108C15.8101 7.01843 15.875 7.02421 15.8927 7.02421C15.8632 7.04156 15.8868 7.06469 15.875 7.09939ZM16.2586 5.1507C16.3118 5.14492 16.3236 5.21431 16.2586 5.21431L16.2705 5.23166C16.2232 5.21431 16.1878 5.16227 16.2586 5.1507ZM16.0462 4.93675C16.0934 4.8905 16.1583 5.00036 16.117 5.01193H16.1229C16.0934 5.02349 16.0049 4.97723 16.0462 4.93675ZM15.8042 5.87929C15.8455 5.8446 15.7865 5.82725 15.816 5.78677C15.8396 5.75786 15.8927 5.76943 15.9164 5.72317C15.9282 5.69425 15.9164 5.67112 15.9577 5.68847C15.9813 5.70004 15.9872 5.74051 16.0108 5.75208C16.0167 5.67691 16.0816 5.72317 16.1229 5.68847C16.1583 5.65956 16.1347 5.59595 16.1701 5.57282C16.1996 5.55548 16.2704 5.58439 16.2941 5.60173C16.3177 5.61908 16.3236 5.64799 16.3472 5.66534C16.359 5.67691 16.3826 5.68847 16.3885 5.70582C16.4121 5.76364 16.3413 5.7463 16.3118 5.75786C16.2645 5.76943 16.1878 5.80412 16.1583 5.83303C16.117 5.87929 16.1406 5.95446 16.0639 5.96025C16.0285 5.96025 16.0285 5.95446 16.0108 5.98338C15.999 6.00651 15.999 6.02385 15.999 6.04698C16.0698 6.07011 16.0403 6.13372 16.0049 6.17998C15.9577 6.2378 15.9931 6.21467 16.0049 6.2725C16.0108 6.29563 15.9931 6.31876 15.9931 6.3361C15.9931 6.35923 16.0049 6.37658 16.0108 6.39393C16.0167 6.41706 16.0285 6.43441 16.0403 6.45754C16.0462 6.47488 16.0462 6.49223 16.0521 6.50958C16.0639 6.54427 16.1052 6.57897 16.1288 6.61366C16.1583 6.6657 16.1701 6.65414 16.2232 6.67149C16.2645 6.68305 16.2941 6.7004 16.3177 6.72353C16.3531 6.72931 16.3708 6.82761 16.3413 6.83918C16.3236 6.85074 16.2764 6.82761 16.2527 6.82761C16.2291 6.82761 16.1937 6.85074 16.1701 6.83339C16.1465 6.81605 16.1642 6.76979 16.1406 6.764C16.1347 6.764 16.117 6.78135 16.1052 6.78135C16.0934 6.78135 16.0816 6.76979 16.0698 6.76979C16.0403 6.764 16.0108 6.764 15.999 6.74087C15.9872 6.71775 16.0108 6.68883 15.9813 6.67149C15.9754 6.68883 15.94 6.71774 15.9223 6.69462C15.9105 6.67149 15.9518 6.64257 15.94 6.61366C15.9164 6.5674 15.8809 6.67149 15.8396 6.6657C15.7983 6.65992 15.7275 6.53849 15.7334 6.49223C15.7393 6.45754 15.7629 6.46332 15.7806 6.44597C15.7924 6.43441 15.8042 6.40549 15.8101 6.38815C15.7688 6.38236 15.7334 6.38236 15.7216 6.34189C15.7157 6.31876 15.7216 6.28984 15.7334 6.2725C15.757 6.24359 15.816 6.20311 15.7865 6.15685C15.7629 6.16263 15.7275 6.20311 15.7039 6.19154C15.6803 6.18576 15.6862 6.15107 15.7039 6.1395C15.7393 6.18576 15.7924 6.12794 15.7865 6.08168C15.7275 6.07011 15.7747 5.99494 15.7924 5.97181C15.7688 5.98916 15.6685 5.92555 15.639 5.91399C15.6921 5.90242 15.7629 5.91399 15.8042 5.87929ZM14.8836 4.97723C14.8482 4.97145 14.8128 4.94254 14.8246 4.90206C14.8364 4.84424 14.9013 4.93097 14.8836 4.97723ZM15.2967 5.03506C15.279 5.04084 15.1432 5.02349 15.2023 4.97723C15.2259 4.95988 15.2908 4.9888 15.3026 5.00036L15.2849 4.99458C15.2967 5.00036 15.2967 5.01771 15.2967 5.03506ZM15.096 4.68233C15.1432 4.66498 15.1846 4.70546 15.1255 4.7228L15.1432 4.71124C15.1196 4.72859 15.0193 4.71124 15.096 4.68233ZM15.1314 4.87893C15.1196 4.86158 15.0606 4.76906 15.1255 4.77485C15.1491 4.77485 15.1491 4.80954 15.1609 4.82111C15.1846 4.83845 15.2259 4.83845 15.2495 4.83267C15.2495 4.79798 15.2082 4.78063 15.2141 4.74015C15.279 4.71702 15.3439 4.76328 15.3557 4.83267C15.3616 4.86737 15.3262 4.87315 15.2908 4.86737V4.88471V4.8905C15.2908 4.90206 15.2967 4.90784 15.2908 4.91941C15.279 4.93675 15.22 4.93097 15.1964 4.93097C15.1255 4.93675 15.0665 4.9888 14.9839 4.96567C14.9898 4.94832 15.0075 4.90784 15.0193 4.89628C15.0606 4.87893 15.1019 4.90784 15.1314 4.87893ZM14.8482 4.68233C14.8423 4.63607 14.8777 4.60137 14.9072 4.64185C14.9367 4.67655 14.8954 4.74015 14.9308 4.76906C14.9544 4.79219 14.9957 4.76328 15.0193 4.79798C15.0488 4.80376 15.0488 4.85002 15.0252 4.86737C15.0252 4.86737 14.9898 4.87315 14.9839 4.87315C14.9662 4.87893 14.9603 4.88471 14.9426 4.88471C14.919 4.8905 14.8895 4.88471 14.8777 4.86737C14.9485 4.80954 14.801 4.79798 14.7714 4.7575C14.7891 4.75172 14.8541 4.74593 14.86 4.7228C14.8718 4.69967 14.8541 4.69967 14.8482 4.68233ZM14.7773 4.93097C14.7891 4.93675 14.801 4.95988 14.8069 4.97723C14.7951 5.02349 14.7596 5.00036 14.736 4.98301L14.6652 4.94832C14.6534 4.94254 14.6357 4.94832 14.6416 4.92519C14.6829 4.90784 14.7065 4.93097 14.7419 4.93675C14.7596 4.93675 14.7596 4.91941 14.7773 4.93097ZM14.5531 4.81532C14.559 4.79798 14.5295 4.74593 14.5354 4.71702C14.559 4.71702 14.5708 4.7228 14.5826 4.74015C14.5885 4.75172 14.5826 4.78641 14.5944 4.79219C14.6003 4.79798 14.6416 4.80376 14.6534 4.80954C14.677 4.81532 14.6888 4.82111 14.7065 4.83845L14.6947 4.82689H14.7065C14.7242 4.91362 14.6357 4.85002 14.6003 4.8905C14.5826 4.90784 14.6121 4.93097 14.5826 4.94832C14.5649 4.95988 14.4823 4.95988 14.4646 4.9541C14.4469 4.93675 14.4528 4.90206 14.4469 4.87893C14.441 4.84424 14.4292 4.83267 14.4764 4.82689C14.5 4.82111 14.5413 4.83267 14.5531 4.81532ZM14.3583 4.78063C14.3701 4.77485 14.3642 4.76906 14.3819 4.76328C14.4055 4.7575 14.4351 4.78063 14.4587 4.78641C14.4528 4.80376 14.4469 4.82689 14.4292 4.83845L14.4233 4.82111V4.80954C14.3878 4.86737 14.258 4.86737 14.2344 4.79798C14.2698 4.79798 14.317 4.79798 14.3583 4.78063ZM13.5439 4.86737C13.5498 4.86158 13.5557 4.84424 13.5675 4.83845C13.5911 4.82689 13.6147 4.82689 13.6324 4.83845C13.6324 4.86158 13.6442 4.89628 13.6147 4.89628L13.6088 4.8905C13.6088 4.93675 13.4908 4.90784 13.4908 4.8905C13.4967 4.87893 13.538 4.87315 13.5439 4.86737ZM13.361 5.09288C13.3728 5.08132 13.4613 5.08132 13.479 5.08132C13.4849 5.09866 13.5026 5.12179 13.5026 5.13914C13.4672 5.1507 13.4318 5.1507 13.3964 5.1507H13.4023C13.3787 5.13914 13.3256 5.12179 13.361 5.09288ZM13.3019 5.21431L13.2901 5.20853C13.2547 5.19696 13.2134 5.14492 13.2783 5.13336C13.3197 5.12179 13.3374 5.1854 13.3019 5.21431ZM12.6056 4.8905C12.6292 4.85002 12.6764 4.86158 12.7177 4.8558C12.7236 4.80954 12.6764 4.79219 12.6941 4.74593C12.8121 4.75172 12.7472 4.79798 12.7472 4.8558C12.7708 4.87315 12.9006 4.8905 12.9065 4.86737C12.9124 4.85002 12.8711 4.83845 12.9006 4.80954C12.9479 4.7575 12.9479 4.83267 12.9479 4.86158C12.9479 4.86158 12.936 4.86737 12.942 4.86158C12.9656 4.86158 13.0069 4.87893 13.0246 4.86737C13.0423 4.8558 13.0364 4.82111 13.0541 4.80376C13.0718 4.82111 13.0836 4.86737 13.1072 4.87893C13.1249 4.88471 13.1603 4.87893 13.178 4.87893H13.2488C13.2724 4.87315 13.2901 4.86158 13.3138 4.8558C13.3079 4.8905 13.3019 4.90784 13.2842 4.92519C13.2665 4.94832 13.2311 4.96567 13.2547 4.99458C13.2193 5.02349 13.178 5.04662 13.1308 5.03506C13.1072 5.02927 13.119 5.00036 13.0836 5.02349C13.0777 5.02927 13.0718 5.03506 13.0718 5.04662C13.0836 5.05819 13.1013 5.08132 13.1072 5.09866H13.0246C13.0246 5.08132 13.0246 5.05819 13.0187 5.04084C13.0187 5.04662 13.0128 5.04662 13.0069 5.05819C12.9656 5.05819 12.9006 5.08132 12.8593 5.06397C12.8298 5.0524 12.8003 5.02927 12.7708 5.00614C12.7059 4.97145 12.5643 4.95988 12.6056 4.8905ZM12.1925 5.09866C12.1865 5.0871 12.2043 5.08132 12.1925 5.06975C12.1806 5.05819 12.1511 5.06397 12.1393 5.06397C12.1747 5.05819 12.1452 4.99458 12.1688 4.97145C12.2043 4.94254 12.2987 5.02349 12.3282 5.03506C12.34 5.00036 12.2987 5.00036 12.3223 4.9541C12.3459 4.90784 12.3754 4.94832 12.3695 4.9888C12.4344 4.9888 12.4344 5.03506 12.4698 5.06397C12.4875 5.01771 12.399 4.9541 12.4521 4.90206C12.4934 4.86158 12.5111 4.89628 12.5347 4.93097C12.5524 4.96567 12.5702 4.97145 12.6056 4.9888C12.641 5.00614 12.6705 5.01771 12.6941 5.04662C12.7236 5.08132 12.7236 5.09288 12.7767 5.09866C12.7944 5.09866 12.8298 5.09288 12.8416 5.09866C12.8593 5.11023 12.8475 5.1507 12.8593 5.16805C12.8829 5.19118 12.9656 5.19118 12.9892 5.17383C13.0128 5.19118 13.0246 5.26057 13.06 5.22588C13.0836 5.27792 13.1249 5.2837 13.178 5.30683C13.237 5.32996 13.2075 5.38778 13.1485 5.382C13.1367 5.41091 13.1544 5.46296 13.1249 5.47452C13.1072 5.4803 13.0482 5.45717 13.0364 5.44561C13.0305 5.43404 13.0364 5.39935 13.0364 5.38778C13.001 5.382 13.0128 5.42248 12.9951 5.43404C12.9774 5.44561 12.942 5.43983 12.9183 5.43404C12.9065 5.382 12.9656 5.33574 12.9301 5.2837C12.9183 5.25479 12.8711 5.21431 12.8475 5.19696C12.818 5.17962 12.818 5.17383 12.8003 5.20275C12.7649 5.25479 12.7767 5.33574 12.759 5.39357C12.7413 5.45139 12.7118 5.48609 12.7295 5.55548C12.7177 5.56126 12.6941 5.56704 12.6882 5.57861C12.6764 5.58439 12.6705 5.6133 12.6587 5.61908C12.6174 5.63065 12.5997 5.56704 12.582 5.54391C12.5642 5.52656 12.5347 5.52656 12.517 5.50343C12.5111 5.49187 12.5111 5.47452 12.5052 5.46296C12.4816 5.43983 12.4285 5.43404 12.399 5.41091C12.4285 5.382 12.6115 5.38778 12.5997 5.32996C12.5524 5.30683 12.5229 5.32996 12.4757 5.34153C12.4285 5.35309 12.399 5.34153 12.3577 5.32996C12.3518 5.28948 12.4521 5.31261 12.4757 5.28948C12.4875 5.27792 12.4816 5.26057 12.4934 5.25479C12.4993 5.24901 12.5229 5.24322 12.5406 5.24322C12.5288 5.22588 12.5288 5.19118 12.5111 5.17962C12.458 5.13914 12.4462 5.20275 12.4285 5.23166C12.4226 5.24322 12.4049 5.27214 12.3931 5.27792C12.3872 5.27792 12.3341 5.30105 12.3282 5.29527C12.3046 5.2837 12.2987 5.22588 12.2692 5.20853C12.2515 5.19696 12.222 5.1854 12.2161 5.21431C12.2102 5.23166 12.2338 5.24901 12.2397 5.26057C12.2515 5.29527 12.2397 5.32418 12.1865 5.30683C12.1511 5.28948 12.1216 5.17962 12.1688 5.15649C12.2161 5.13336 12.2338 5.1854 12.2574 5.19696C12.2633 5.14492 12.2043 5.12179 12.1925 5.09866ZM11.1361 8.60282C11.1774 8.61438 11.1715 8.67799 11.1656 8.7069C11.1656 8.77629 11.142 8.75894 11.083 8.75316L11.1007 8.76473H11.0711C11.0711 8.72425 11.077 8.59125 11.1361 8.60282ZM9.76099 8.04192C9.71378 8.07084 9.65477 8.07662 9.61345 8.11131C9.56034 8.15179 9.54264 8.15757 9.46001 8.1807C9.43641 8.18648 9.4128 8.19805 9.38919 8.20383C9.35969 8.20961 9.33018 8.23853 9.29477 8.22696C9.21215 8.19805 9.25346 8.14601 9.14133 8.16335C9.10592 8.16914 8.97608 8.20383 9.02329 8.11131C9.0469 8.07084 9.13543 8.09396 9.12362 8.02458C9.0292 8.01879 8.91707 8.07662 8.94067 7.94362C8.98789 7.95519 9.14723 7.9841 9.17083 7.90314C9.17674 7.89158 9.17674 7.8858 9.17674 7.88001L9.17083 7.8858C9.17083 7.87423 9.16493 7.86845 9.16493 7.86267C9.14723 7.84532 9.11772 7.84532 9.08821 7.83954C8.98789 7.82219 8.96428 7.80484 8.97608 7.79328C9.00559 7.74124 9.07641 7.77015 9.11182 7.72389C9.11772 7.71811 9.11772 7.70654 9.12362 7.68919H9.11182C9.10592 7.67185 9.11182 7.6545 9.11772 7.63715C9.23575 7.62559 9.30067 7.67763 9.27116 7.7875L9.24756 7.81063C9.26526 7.83376 9.28887 7.83954 9.35378 7.81063C9.34198 7.7528 9.34198 7.74124 9.38329 7.70654C9.4305 7.66606 9.4128 7.68919 9.46591 7.68919C9.51903 7.68919 9.56034 7.68341 9.61345 7.68919C9.67247 7.69498 9.69608 7.72967 9.76099 7.68919C9.7964 7.66606 9.73149 7.62559 9.82001 7.63715C9.90853 7.64872 9.86722 7.73545 9.88493 7.79328C9.93214 7.79906 9.97345 7.80484 10.0148 7.80484C10.0089 7.86267 9.81411 8.00723 9.76099 8.04192ZM10.4279 9.29093C10.4279 9.25045 10.5282 9.23889 10.5105 9.27358L10.5164 9.27936C10.4987 9.31406 10.422 9.36032 10.4279 9.29093ZM10.5931 9.15793C10.6167 9.19841 10.5046 9.20997 10.4928 9.18685C10.4869 9.17528 10.4987 9.11167 10.4987 9.09433C10.4987 9.0712 10.4987 9.04228 10.5164 9.02494C10.5341 9.01337 10.599 9.01915 10.6108 9.03072C10.6285 9.05385 10.5813 9.15793 10.5636 9.17528L10.5931 9.15793ZM10.6049 8.43513C10.5931 8.46404 10.5046 8.42356 10.4987 8.38887C10.4928 8.28479 10.6698 8.40043 10.6049 8.43513ZM6.79249 8.14022C6.70397 8.13444 6.75118 8.05927 6.75708 8.01301C6.76299 7.96097 6.73348 7.90314 6.74528 7.8511C6.75118 7.80484 6.78659 7.77593 6.7984 7.72967C6.8279 7.62559 6.84561 7.59668 6.90462 7.51572C6.90462 7.55042 6.89282 7.62559 6.94003 7.63715C7.01085 7.64872 7.02266 7.51572 7.04036 7.47524C7.08167 7.38851 7.15839 7.35381 7.14659 7.25551C7.09347 7.26708 7.08757 7.36538 7.01675 7.36538C6.96364 7.23816 6.95184 7.22082 7.03446 7.12252C7.04626 7.11095 7.06397 7.1283 7.07577 7.11095C7.08757 7.0936 7.06987 7.06469 7.07577 7.04734C7.09347 7.00687 7.14069 6.96639 7.182 6.97795C7.1761 6.92591 7.20561 6.87387 7.22331 6.82761C7.16429 6.82183 7.12888 6.897 7.07577 6.90857C7.05216 6.82183 7.15249 6.72931 7.1938 6.6657C7.23511 6.60788 7.23511 6.59053 7.24101 6.51536C7.24101 6.46332 7.24101 6.41128 7.26462 6.35923C7.28823 6.30719 7.33544 6.27828 7.35905 6.22624C7.32954 6.20311 7.29413 6.17998 7.27052 6.15685C7.1997 6.21467 7.04626 6.20889 6.95774 6.20311C6.98725 6.11637 7.02856 6.05276 7.08757 5.98916C7.13479 5.93712 7.1879 5.87351 7.24692 5.83881C7.41216 5.7463 7.5715 5.69425 7.70724 5.55548C7.78396 5.47452 7.87839 5.41091 7.96691 5.33574C7.99642 5.31261 8.02593 5.27214 8.06134 5.25479C8.12035 5.22009 8.17937 5.23166 8.23838 5.20853C8.35051 5.16227 8.47445 5.01771 8.59838 4.97723L8.57477 4.97145H8.61609C8.62789 4.96567 8.64559 4.96567 8.6574 4.96567V4.97723C8.72822 4.99458 8.78133 5.00614 8.83444 4.91362C8.81674 5.05819 9.09411 4.80376 9.14133 4.79219C9.20624 4.78063 9.19444 4.80954 9.24756 4.76906C9.32428 4.71124 9.33018 4.69389 9.43051 4.67655C9.51903 4.6592 9.58395 4.6245 9.66067 4.59559C9.73739 4.56668 9.81411 4.57246 9.89673 4.56668C9.96755 4.5609 10.1269 4.49151 10.1918 4.53198C10.2272 4.55511 10.2213 4.60137 10.2567 4.61294C10.1446 4.61294 10.0502 4.63607 9.94394 4.67655C9.88493 4.69967 9.7728 4.71702 9.73149 4.76328C9.82001 4.78063 9.90853 4.71702 10.003 4.72859C10.003 4.7575 9.97935 4.78063 9.95575 4.80376C10.0384 4.81532 10.0974 4.76328 10.1682 4.74015C10.121 4.84424 9.95575 4.85002 9.90853 4.95988C10.121 4.9541 10.2449 4.76328 10.4397 4.71702C10.5105 4.69967 10.658 4.71702 10.6816 4.79219C10.5872 4.86158 10.4692 4.83845 10.3807 4.90206C10.3866 4.90784 10.3984 4.91362 10.4043 4.91941C10.3571 5.05819 10.1918 4.8905 10.2449 5.06975C10.2036 5.10445 10.1387 5.11601 10.1092 5.1507C10.0856 5.17962 10.0856 5.23744 10.0679 5.27214C10.0502 5.30683 10.0207 5.37622 9.99706 5.40513C9.98525 5.42826 10.003 5.43404 9.97345 5.45139C9.94984 5.46296 9.90263 5.42248 9.86722 5.43404C9.91444 5.47452 9.89083 5.55548 9.89673 5.60752C9.92034 5.59017 9.95575 5.57282 9.98525 5.56126C10.003 5.60173 10.0207 5.7116 9.96165 5.71738C9.92624 5.72317 9.88493 5.67112 9.84362 5.67691C9.80821 5.68269 9.7669 5.7116 9.73739 5.73473C9.86132 5.76364 9.7846 5.89086 9.80821 5.97759C9.82591 6.0412 9.84362 6.03542 9.7787 6.08168C9.65477 6.16841 9.69017 6.08168 9.60165 6.05276C9.60165 6.11637 9.67837 6.09902 9.68427 6.14528C9.69608 6.21467 9.60755 6.20889 9.56034 6.20889C9.61345 6.26672 9.58985 6.3708 9.51903 6.38815C9.401 6.41706 9.4305 6.26672 9.34788 6.24937C9.30067 6.24359 9.29477 6.27828 9.30067 6.31297C9.30657 6.3708 9.34788 6.3708 9.38919 6.40549C9.43641 6.44597 9.47772 6.52692 9.43641 6.59053C9.33018 6.53849 9.33018 6.42862 9.20624 6.44019C9.20034 6.49801 9.33608 6.55005 9.36559 6.60788C9.3951 6.65992 9.38919 6.77557 9.37739 6.82761C9.34788 6.92591 9.29477 6.90857 9.24165 6.82761C9.16493 6.71196 9.14133 6.70618 8.99969 6.71775C9.00559 6.74087 9.0292 6.764 9.0469 6.78713C9.0233 6.81026 8.98198 6.82761 8.99969 6.86231C9.0351 6.91435 9.12952 6.85074 9.07051 6.94904C9.15313 6.96639 9.22985 6.97217 9.30657 6.9953V7.02421C9.21215 7.05313 9.10002 7.04734 9.0292 7.11095C8.97608 7.15721 8.94067 7.23816 8.87575 7.27286C8.78723 7.3249 8.62789 7.31334 8.53346 7.31334C8.50986 7.31334 8.45084 7.30177 8.42723 7.31912C8.39773 7.34803 8.42723 7.37116 8.42133 7.40585C8.39773 7.49259 8.21478 7.5562 8.14396 7.63137C8.06134 7.72389 7.98462 7.8511 7.84888 7.86267C7.84888 7.83376 7.85478 7.79906 7.84888 7.77015C7.80757 7.81063 7.77216 7.84532 7.74265 7.89736C7.67183 7.90314 7.66003 7.89158 7.61281 7.94362C7.57741 7.98988 7.5656 8.04192 7.5479 8.08818C7.49478 8.19805 7.40036 8.30792 7.32954 8.412C7.28233 8.48139 7.1879 8.53343 7.16429 8.61438C7.12888 8.7069 7.1702 8.89772 7.06987 8.94977C7.04626 8.90351 7.06397 8.78207 6.97544 8.8052C6.96364 8.73003 7.01085 8.67799 6.91053 8.71847C6.85741 8.7416 6.8161 8.81099 6.73938 8.77629C6.69807 8.75894 6.68626 8.71847 6.70987 8.66064C6.72167 8.63173 6.76299 8.62017 6.76889 8.59125C6.77479 8.56234 6.73938 8.55656 6.73348 8.53343C6.70397 8.42356 6.76299 8.279 6.67446 8.1807C6.73348 8.19805 6.78659 8.19805 6.79249 8.14022Z" fill="currentColor" />
		<path d="M17.7049 10.4243C17.2859 10.4243 15.2676 10.4995 15.2676 12.0029C15.2676 13.5063 17.3272 13.5468 17.764 13.5468C18.2007 13.5468 20.2131 13.5757 20.2131 11.9451C20.219 10.3144 17.7049 10.4243 17.7049 10.4243ZM18.7436 11.9682C18.7436 12.6043 18.3777 12.8471 17.7403 12.8471C17.103 12.8471 16.7312 12.5811 16.7312 11.9855C16.7312 11.3899 17.1974 11.1182 17.7167 11.1182C18.2361 11.1182 18.7436 11.3321 18.7436 11.9682Z" fill="currentColor" />
		<path d="M4.93359 13.489H6.31457L6.53292 12.9975H8.05554L8.2857 13.5063H9.68437L8.03783 10.4821H6.57424L4.93359 13.489ZM7.27653 11.5056L7.64833 12.2573H6.92833L7.27653 11.5056Z" fill="currentColor" />
		<path d="M14.1814 11.1355V10.4705H10.7349V13.4947H14.2463V12.8182H12.1335V12.1821H14.0043V11.5229H12.1335V11.1355H14.1814Z" fill="currentColor" />
		<path d="M2.20122 16.0506L1.71139 16.2414L1.28058 15.9523L1.31008 16.4669L0.896973 16.7792L1.40451 16.9122L1.58746 17.3979L1.86483 16.9584L2.39007 16.9411L2.05959 16.5479L2.20122 16.0506Z" fill="currentColor" />
		<path d="M1.4931 15.4608L1.16261 15.0676L1.30425 14.5703L0.81442 14.7611L0.383603 14.472L0.413111 14.9808L0 15.2989L0.507537 15.4319L0.690486 15.9118L0.967861 15.4781L1.4931 15.4608Z" fill="currentColor" />
		<path d="M0.985606 13.7492L1.16265 14.2349L1.44593 13.8012L1.97117 13.7839L1.63478 13.3849L1.78232 12.8876L1.29249 13.0784L0.855771 12.7893L0.891181 13.3039L0.472168 13.622L0.985606 13.7492Z" fill="currentColor" />
		<path d="M3.22797 12.5175L2.89748 12.1185L3.03911 11.627L2.54928 11.8121L2.11257 11.5229L2.14797 12.0376L1.73486 12.3556L2.2424 12.4886L2.41945 12.9686L2.70272 12.5349L3.22797 12.5175Z" fill="currentColor" />
		<path d="M5.55918 17.3343L5.06934 17.5251L4.63263 17.236L4.66213 17.7507L4.24902 18.0687L4.75656 18.1959L4.93951 18.6816L5.22279 18.2479L5.74803 18.2306L5.41164 17.8316L5.55918 17.3343Z" fill="currentColor" />
		<path d="M4.37306 11.095L4.5147 10.5978L4.02487 10.7886L3.58815 10.4995L3.62356 11.0141L3.21045 11.3321L3.71799 11.4593L3.89503 11.9451L4.17831 11.5114L4.70355 11.494L4.37306 11.095Z" fill="currentColor" />
		<path d="M3.80039 16.9006L3.31056 17.0914L2.87384 16.8023L2.90335 17.3112L2.49023 17.6292L2.99777 17.7622L3.18072 18.2421L3.464 17.8085L3.98924 17.7911L3.65285 17.3979L3.80039 16.9006Z" fill="currentColor" />
	</g>
	<defs>
		<clipPath id="clip0_360_7586">
			<rect width="24" height="16" fill="white" transform="translate(0 4)" />
		</clipPath>
	</defs>
</svg>
