<svg viewBox="0 0 24 24" fill="none" xmlns="http://www.w3.org/2000/svg">
	<path fill-rule="evenodd" clip-rule="evenodd" d="M2.25006 16.35C1.75301 16.35 1.35006 16.753 1.35006 17.25V23.25C1.35006 23.5814 1.08143 23.85 0.750063 23.85C0.418692 23.85 0.150063 23.5814 0.150063 23.25V17.25C0.150063 16.0902 1.09027 15.15 2.25006 15.15H21.7501C22.9099 15.15 23.8501 16.0902 23.8501 17.25V23.25C23.8501 23.5814 23.5814 23.85 23.2501 23.85C22.9187 23.85 22.6501 23.5814 22.6501 23.25V17.25C22.6501 16.753 22.2471 16.35 21.7501 16.35H2.25006Z" fill="currentColor" />
	<path fill-rule="evenodd" clip-rule="evenodd" d="M0.191106 17.7819C0.311559 17.4732 0.659459 17.3206 0.968162 17.4411C3.12976 18.2845 5.33183 19.0202 7.56626 19.6456C7.58917 19.6435 7.6164 19.6407 7.64818 19.6371C7.73515 19.6271 7.84697 19.612 7.98196 19.5921C8.25158 19.5521 8.60044 19.4945 9.00273 19.4245C9.80658 19.2847 10.8107 19.0979 11.794 18.9106C12.7768 18.7234 13.7365 18.5362 14.4507 18.3957C14.8077 18.3254 15.1032 18.2669 15.3095 18.226L15.6321 18.1617C15.7098 18.1462 15.7901 18.1461 15.8677 18.1617L23.3677 19.6617C23.6927 19.7267 23.9034 20.0428 23.8384 20.3677C23.7734 20.6926 23.4573 20.9034 23.1324 20.8384L15.7499 19.3619L15.5432 19.403C15.3364 19.4441 15.0401 19.5027 14.6823 19.5731C13.9667 19.7139 13.0045 19.9016 12.0186 20.0894C11.0332 20.2771 10.0217 20.4653 9.20834 20.6068C8.80203 20.6774 8.4419 20.737 8.15782 20.7791C7.89251 20.8184 7.6467 20.85 7.50006 20.85C7.44568 20.85 7.39156 20.8426 7.33917 20.8281C5.0335 20.1863 2.76157 19.4289 0.531965 18.559C0.223261 18.4385 0.0706538 18.0906 0.191106 17.7819Z" fill="currentColor" />
	<path fill-rule="evenodd" clip-rule="evenodd" d="M0.150063 3.75002C0.150063 1.7618 1.76184 0.150024 3.75006 0.150024C5.73829 0.150024 7.35006 1.7618 7.35006 3.75002C7.35006 5.73825 5.73829 7.35002 3.75006 7.35002C1.76184 7.35002 0.150063 5.73825 0.150063 3.75002ZM3.75006 1.35002C2.42458 1.35002 1.35006 2.42454 1.35006 3.75002C1.35006 5.07551 2.42458 6.15002 3.75006 6.15002C5.07555 6.15002 6.15006 5.07551 6.15006 3.75002C6.15006 2.42454 5.07555 1.35002 3.75006 1.35002Z" fill="currentColor" />
	<path fill-rule="evenodd" clip-rule="evenodd" d="M17.2501 0.150024C17.5814 0.150024 17.8501 0.418654 17.8501 0.750024V15.75C17.8501 16.0814 17.5814 16.35 17.2501 16.35C16.9187 16.35 16.6501 16.0814 16.6501 15.75V0.750024C16.6501 0.418654 16.9187 0.150024 17.2501 0.150024Z" fill="currentColor" />
	<path fill-rule="evenodd" clip-rule="evenodd" d="M20.2501 2.40002C20.5814 2.40002 20.8501 2.66865 20.8501 3.00002V5.25002C20.8501 6.40982 19.9099 7.35002 18.7501 7.35002H17.2501C16.9187 7.35002 16.6501 7.0814 16.6501 6.75002C16.6501 6.41865 16.9187 6.15002 17.2501 6.15002H18.7501C19.2471 6.15002 19.6501 5.74708 19.6501 5.25002V3.00002C19.6501 2.66865 19.9187 2.40002 20.2501 2.40002Z" fill="currentColor" />
	<path fill-rule="evenodd" clip-rule="evenodd" d="M14.2501 0.900024C14.5814 0.900024 14.8501 1.16865 14.8501 1.50002V3.75002C14.8501 4.24708 15.253 4.65002 15.7501 4.65002H17.2501C17.5814 4.65002 17.8501 4.91865 17.8501 5.25002C17.8501 5.5814 17.5814 5.85002 17.2501 5.85002H15.7501C14.5903 5.85002 13.6501 4.90982 13.6501 3.75002V1.50002C13.6501 1.16865 13.9187 0.900024 14.2501 0.900024Z" fill="currentColor" />
	<path fill-rule="evenodd" clip-rule="evenodd" d="M12.7501 6.90002C13.0814 6.90002 13.3501 7.16865 13.3501 7.50002V8.25002C13.3501 8.74708 13.753 9.15002 14.2501 9.15002H17.2501C17.5814 9.15002 17.8501 9.41865 17.8501 9.75002C17.8501 10.0814 17.5814 10.35 17.2501 10.35H14.2501C13.0903 10.35 12.1501 9.40982 12.1501 8.25002V7.50002C12.1501 7.16865 12.4187 6.90002 12.7501 6.90002Z" fill="currentColor" />
	<path fill-rule="evenodd" clip-rule="evenodd" d="M21.7501 8.40002C22.0814 8.40002 22.3501 8.66865 22.3501 9.00002V9.75002C22.3501 10.9098 21.4099 11.85 20.2501 11.85H17.2501C16.9187 11.85 16.6501 11.5814 16.6501 11.25C16.6501 10.9187 16.9187 10.65 17.2501 10.65H20.2501C20.7471 10.65 21.1501 10.2471 21.1501 9.75002V9.00002C21.1501 8.66865 21.4187 8.40002 21.7501 8.40002Z" fill="currentColor" />
	<path fill-rule="evenodd" clip-rule="evenodd" d="M8.25006 15.15C8.58144 15.15 8.85006 15.4187 8.85006 15.75V23.25C8.85006 23.5814 8.58144 23.85 8.25006 23.85C7.91869 23.85 7.65006 23.5814 7.65006 23.25V15.75C7.65006 15.4187 7.91869 15.15 8.25006 15.15Z" fill="currentColor" />
	<path fill-rule="evenodd" clip-rule="evenodd" d="M15.7501 15.15C16.0814 15.15 16.3501 15.4187 16.3501 15.75V23.25C16.3501 23.5814 16.0814 23.85 15.7501 23.85C15.4187 23.85 15.1501 23.5814 15.1501 23.25V15.75C15.1501 15.4187 15.4187 15.15 15.7501 15.15Z" fill="currentColor" />
</svg>
