<svg viewBox="0 0 24 24" fill="none" xmlns="http://www.w3.org/2000/svg">
	<path fill-rule="evenodd" clip-rule="evenodd" d="M18.3251 5.58869C18.5595 5.35438 18.9394 5.35438 19.1737 5.58869L20.9994 7.41443L22.8251 5.58869C23.0595 5.35438 23.4394 5.35438 23.6737 5.58869C23.908 5.82301 23.908 6.2029 23.6737 6.43722L21.4237 8.68722C21.1894 8.92153 20.8095 8.92153 20.5751 8.68722L18.3251 6.43722C18.0908 6.2029 18.0908 5.82301 18.3251 5.58869Z" fill="currentColor" />
	<path fill-rule="evenodd" clip-rule="evenodd" d="M17.3994 2.26296C17.3994 1.93158 17.668 1.66296 17.9994 1.66296C19.9876 1.66296 21.5994 3.27473 21.5994 5.26296V8.26295C21.5994 8.59433 21.3308 8.86296 20.9994 8.86296C20.668 8.86296 20.3994 8.59433 20.3994 8.26295V5.26296C20.3994 3.93747 19.3249 2.86296 17.9994 2.86296C17.668 2.86296 17.3994 2.59433 17.3994 2.26296Z" fill="currentColor" />
	<path fill-rule="evenodd" clip-rule="evenodd" d="M2.57515 15.3387C2.80946 15.1044 3.18936 15.1044 3.42368 15.3387L5.67368 17.5887C5.90799 17.823 5.90799 18.2029 5.67368 18.4372C5.43936 18.6715 5.05946 18.6715 4.82515 18.4372L2.99941 16.6115L1.17368 18.4372C0.939364 18.6715 0.559465 18.6715 0.32515 18.4372C0.0908354 18.2029 0.0908354 17.823 0.32515 17.5887L2.57515 15.3387Z" fill="currentColor" />
	<path fill-rule="evenodd" clip-rule="evenodd" d="M2.99941 15.163C3.33078 15.163 3.59941 15.4316 3.59941 15.763V18.763C3.59941 20.0884 4.67393 21.163 5.99941 21.163C6.33078 21.163 6.59941 21.4316 6.59941 21.763C6.59941 22.0943 6.33078 22.363 5.99941 22.363C4.01119 22.363 2.39941 20.7512 2.39941 18.763V15.763C2.39941 15.4316 2.66804 15.163 2.99941 15.163Z" fill="currentColor" />
	<path fill-rule="evenodd" clip-rule="evenodd" d="M10.7317 15.4597C10.8394 15.2759 11.0364 15.163 11.2494 15.163H21.7494C21.9624 15.163 22.1594 15.2759 22.2671 15.4597L23.2925 17.2099C23.6498 17.5969 23.8493 18.1051 23.8494 18.6338V20.263C23.8494 21.4228 22.9092 22.363 21.7494 22.363H11.2494C10.0896 22.363 9.14941 21.4228 9.14941 20.263V18.634C9.14953 18.1052 9.34904 17.5969 9.70631 17.2099L10.7317 15.4597ZM11.5933 16.363L10.7061 17.8773C10.6803 17.9213 10.6489 17.9619 10.6128 17.9981C10.4442 18.1668 10.3495 18.3955 10.3494 18.634C10.3494 18.6339 10.3494 18.634 10.3494 18.634V20.263C10.3494 20.76 10.7524 21.163 11.2494 21.163H21.7494C22.2465 21.163 22.6494 20.76 22.6494 20.263V18.6341C22.6494 18.634 22.6494 18.6341 22.6494 18.6341C22.6493 18.3956 22.5546 18.1668 22.386 17.9981C22.3499 17.9619 22.3185 17.9213 22.2927 17.8773L21.4055 16.363H11.5933Z" fill="currentColor" />
	<path fill-rule="evenodd" clip-rule="evenodd" d="M20.0401 12.2799C19.8583 12.0019 19.5402 11.8409 19.2058 11.8618C19.1933 11.8626 19.1809 11.863 19.1684 11.863H16.4994C16.168 11.863 15.8994 11.5943 15.8994 11.263C15.8994 10.9316 16.168 10.663 16.4994 10.663H19.1513C19.9547 10.6205 20.7142 11.0349 21.1128 11.7351C21.1343 11.7728 21.1516 11.8127 21.1644 11.8541L22.3224 15.5851C22.379 15.7672 22.3456 15.9653 22.2325 16.1188C22.1194 16.2723 21.9401 16.363 21.7494 16.363H11.2494C11.0587 16.363 10.8794 16.2723 10.7663 16.1188C10.6532 15.9652 10.6199 15.7671 10.6764 15.5849L10.9094 14.8349C11.0077 14.5185 11.344 14.3417 11.6604 14.44C11.9676 14.5354 12.1432 14.8549 12.0634 15.163H20.935L20.0401 12.2799Z" fill="currentColor" />
	<path fill-rule="evenodd" clip-rule="evenodd" d="M12.1494 18.763C12.1494 18.4316 12.418 18.163 12.7494 18.163H14.2494C14.5808 18.163 14.8494 18.4316 14.8494 18.763C14.8494 19.0943 14.5808 19.363 14.2494 19.363H12.7494C12.418 19.363 12.1494 19.0943 12.1494 18.763Z" fill="currentColor" />
	<path fill-rule="evenodd" clip-rule="evenodd" d="M18.1494 18.763C18.1494 18.4316 18.418 18.163 18.7494 18.163H20.2494C20.5808 18.163 20.8494 18.4316 20.8494 18.763C20.8494 19.0943 20.5808 19.363 20.2494 19.363H18.7494C18.418 19.363 18.1494 19.0943 18.1494 18.763Z" fill="currentColor" />
	<path fill-rule="evenodd" clip-rule="evenodd" d="M11.2494 21.163C11.5808 21.163 11.8494 21.4316 11.8494 21.763V23.263C11.8494 23.5943 11.5808 23.863 11.2494 23.863C10.918 23.863 10.6494 23.5943 10.6494 23.263V21.763C10.6494 21.4316 10.918 21.163 11.2494 21.163Z" fill="currentColor" />
	<path fill-rule="evenodd" clip-rule="evenodd" d="M21.7494 21.163C22.0808 21.163 22.3494 21.4316 22.3494 21.763V23.263C22.3494 23.5943 22.0808 23.863 21.7494 23.863C21.418 23.863 21.1494 23.5943 21.1494 23.263V21.763C21.1494 21.4316 21.418 21.163 21.7494 21.163Z" fill="currentColor" />
	<path fill-rule="evenodd" clip-rule="evenodd" d="M1.73172 4.95966C1.83939 4.77588 2.03642 4.66296 2.24941 4.66296H12.7494C12.9624 4.66296 13.1594 4.77588 13.2671 4.95966L14.2925 6.7099C14.6498 7.09692 14.8493 7.60508 14.8494 8.13383V9.76295C14.8494 10.9228 13.9092 11.863 12.7494 11.863H2.24941C1.08962 11.863 0.149414 10.9228 0.149414 9.76295V8.13396C0.149527 7.60521 0.34904 7.09693 0.706312 6.7099L1.73172 4.95966ZM2.59328 5.86296L1.70611 7.37725C1.68028 7.42134 1.64893 7.46194 1.61281 7.49808C1.44423 7.66677 1.3495 7.89547 1.34941 8.13396C1.34941 8.13391 1.34941 8.134 1.34941 8.13396V9.76295C1.34941 10.26 1.75236 10.663 2.24941 10.663H12.7494C13.2465 10.663 13.6494 10.26 13.6494 9.76295V8.13408C13.6494 8.13404 13.6494 8.13413 13.6494 8.13408C13.6493 7.8956 13.5546 7.66677 13.386 7.49808C13.3499 7.46194 13.3185 7.42134 13.2927 7.37725L12.4055 5.86296H2.59328Z" fill="currentColor" />
	<path fill-rule="evenodd" clip-rule="evenodd" d="M3.95868 1.77995L3.06387 4.66296H11.935L11.0401 1.77995C10.8583 1.50191 10.5402 1.34092 10.2058 1.36179C10.1933 1.36257 10.1809 1.36296 10.1684 1.36296H4.83041C4.81795 1.36296 4.80549 1.36257 4.79305 1.36179C4.45859 1.34092 4.14049 1.50191 3.95868 1.77995ZM4.84758 0.162955C4.04416 0.120453 3.28465 0.534922 2.88601 1.23508C2.86455 1.27277 2.84724 1.31268 2.83438 1.3541L1.67638 5.0851C1.61986 5.2672 1.65326 5.46532 1.76634 5.61883C1.87943 5.77233 2.05875 5.86296 2.24941 5.86296H12.7494C12.9401 5.86296 13.1194 5.77233 13.2325 5.61883C13.3456 5.46532 13.379 5.2672 13.3224 5.0851L12.1644 1.3541C12.1516 1.31268 12.1343 1.27277 12.1128 1.23508C11.7142 0.534922 10.9547 0.120453 10.1513 0.162955H4.84758Z" fill="currentColor" />
	<path fill-rule="evenodd" clip-rule="evenodd" d="M3.14941 8.26295C3.14941 7.93158 3.41804 7.66295 3.74941 7.66295H5.24941C5.58078 7.66295 5.84941 7.93158 5.84941 8.26295C5.84941 8.59433 5.58078 8.86296 5.24941 8.86296H3.74941C3.41804 8.86296 3.14941 8.59433 3.14941 8.26295Z" fill="currentColor" />
	<path fill-rule="evenodd" clip-rule="evenodd" d="M9.14941 8.26295C9.14941 7.93158 9.41804 7.66295 9.74941 7.66295H11.2494C11.5808 7.66295 11.8494 7.93158 11.8494 8.26295C11.8494 8.59433 11.5808 8.86296 11.2494 8.86296H9.74941C9.41804 8.86296 9.14941 8.59433 9.14941 8.26295Z" fill="currentColor" />
	<path fill-rule="evenodd" clip-rule="evenodd" d="M2.24941 10.663C2.58078 10.663 2.84941 10.9316 2.84941 11.263V12.763C2.84941 13.0943 2.58078 13.363 2.24941 13.363C1.91804 13.363 1.64941 13.0943 1.64941 12.763V11.263C1.64941 10.9316 1.91804 10.663 2.24941 10.663Z" fill="currentColor" />
	<path fill-rule="evenodd" clip-rule="evenodd" d="M12.7494 10.663C13.0808 10.663 13.3494 10.9316 13.3494 11.263V12.763C13.3494 13.0943 13.0808 13.363 12.7494 13.363C12.418 13.363 12.1494 13.0943 12.1494 12.763V11.263C12.1494 10.9316 12.418 10.663 12.7494 10.663Z" fill="currentColor" />
</svg>
