<svg viewBox="0 0 24 24" fill="none" xmlns="http://www.w3.org/2000/svg">
	<path fill-rule="evenodd" clip-rule="evenodd" d="M10.4999 6.33902C10.8313 6.33902 11.0999 6.60765 11.0999 6.93902V10.5C11.0999 10.5829 11.1671 10.65 11.2499 10.65H12.7499C12.8327 10.65 12.8999 10.5829 12.8999 10.5V6.93902C12.8999 6.60765 13.1685 6.33902 13.4999 6.33902C13.8313 6.33902 14.0999 6.60765 14.0999 6.93902V10.5C14.0999 11.2456 13.4955 11.85 12.7499 11.85H11.2499C10.5043 11.85 9.8999 11.2456 9.8999 10.5V6.93902C9.8999 6.60765 10.1685 6.33902 10.4999 6.33902Z" fill="currentColor" />
	<path fill-rule="evenodd" clip-rule="evenodd" d="M0.899902 3.75002C0.899902 3.41865 1.16853 3.15002 1.4999 3.15002H4.4999C4.83127 3.15002 5.0999 3.41865 5.0999 3.75002C5.0999 4.0814 4.83127 4.35002 4.4999 4.35002H1.4999C1.16853 4.35002 0.899902 4.0814 0.899902 3.75002Z" fill="currentColor" />
	<path fill-rule="evenodd" clip-rule="evenodd" d="M18.8999 3.75002C18.8999 3.41865 19.1685 3.15002 19.4999 3.15002H22.4999C22.8313 3.15002 23.0999 3.41865 23.0999 3.75002C23.0999 4.0814 22.8313 4.35002 22.4999 4.35002H19.4999C19.1685 4.35002 18.8999 4.0814 18.8999 3.75002Z" fill="currentColor" />
	<path fill-rule="evenodd" clip-rule="evenodd" d="M3.8999 3.75002C3.8999 2.59023 4.8401 1.65002 5.9999 1.65002H9.3999C9.73127 1.65002 9.9999 1.91865 9.9999 2.25002C9.9999 2.5814 9.73127 2.85002 9.3999 2.85002H5.9999C5.50285 2.85002 5.0999 3.25297 5.0999 3.75002C5.0999 4.24708 5.50285 4.65002 5.9999 4.65002H9.3999C9.73127 4.65002 9.9999 4.91865 9.9999 5.25002C9.9999 5.5814 9.73127 5.85002 9.3999 5.85002H5.9999C4.8401 5.85002 3.8999 4.90982 3.8999 3.75002Z" fill="currentColor" />
	<path fill-rule="evenodd" clip-rule="evenodd" d="M13.9999 2.25002C13.9999 1.91865 14.2685 1.65002 14.5999 1.65002H17.9999C19.1597 1.65002 20.0999 2.59023 20.0999 3.75002C20.0999 4.90982 19.1597 5.85002 17.9999 5.85002H14.5999C14.2685 5.85002 13.9999 5.5814 13.9999 5.25002C13.9999 4.91865 14.2685 4.65002 14.5999 4.65002H17.9999C18.497 4.65002 18.8999 4.24708 18.8999 3.75002C18.8999 3.25297 18.497 2.85002 17.9999 2.85002H14.5999C14.2685 2.85002 13.9999 2.5814 13.9999 2.25002Z" fill="currentColor" />
	<path fill-rule="evenodd" clip-rule="evenodd" d="M8.3999 3.75002C8.3999 1.7618 10.0117 0.150024 11.9999 0.150024C13.9881 0.150024 15.5999 1.7618 15.5999 3.75002C15.5999 5.73825 13.9881 7.35002 11.9999 7.35002C10.0117 7.35002 8.3999 5.73825 8.3999 3.75002ZM11.9999 1.35002C10.6744 1.35002 9.5999 2.42454 9.5999 3.75002C9.5999 5.07551 10.6744 6.15002 11.9999 6.15002C13.3254 6.15002 14.3999 5.07551 14.3999 3.75002C14.3999 2.42454 13.3254 1.35002 11.9999 1.35002Z" fill="currentColor" />
	<path fill-rule="evenodd" clip-rule="evenodd" d="M9.8999 15.75C9.8999 14.5902 10.8401 13.65 11.9999 13.65C13.1597 13.65 14.0999 14.5902 14.0999 15.75V21.75C14.0999 22.9098 13.1597 23.85 11.9999 23.85C10.8401 23.85 9.8999 22.9098 9.8999 21.75V15.75ZM11.9999 14.85C11.5028 14.85 11.0999 15.253 11.0999 15.75V21.75C11.0999 22.2471 11.5028 22.65 11.9999 22.65C12.497 22.65 12.8999 22.2471 12.8999 21.75V15.75C12.8999 15.253 12.497 14.85 11.9999 14.85Z" fill="currentColor" />
	<path fill-rule="evenodd" clip-rule="evenodd" d="M5.3999 12.75C5.3999 9.10495 8.35482 6.15002 11.9999 6.15002C15.645 6.15002 18.5999 9.10495 18.5999 12.75V17.25C18.5999 19.2383 16.9881 20.85 14.9999 20.85H13.4999C13.1685 20.85 12.8999 20.5814 12.8999 20.25C12.8999 19.9187 13.1685 19.65 13.4999 19.65H14.9999C16.3254 19.65 17.3999 18.5755 17.3999 17.25V12.75C17.3999 9.76769 14.9822 7.35002 11.9999 7.35002C9.01756 7.35002 6.5999 9.76769 6.5999 12.75V17.25C6.5999 18.5755 7.67442 19.65 8.9999 19.65H10.4999C10.8313 19.65 11.0999 19.9187 11.0999 20.25C11.0999 20.5814 10.8313 20.85 10.4999 20.85H8.9999C7.01168 20.85 5.3999 19.2383 5.3999 17.25V12.75Z" fill="currentColor" />
</svg>
