<svg viewBox="0 0 24 24" fill="none" xmlns="http://www.w3.org/2000/svg">
	<g>
		<path fill-rule="evenodd" clip-rule="evenodd" d="M20.2499 3.15002C20.5813 3.15002 20.8499 3.41865 20.8499 3.75002V23.25C20.8499 23.5814 20.5813 23.85 20.2499 23.85C19.9185 23.85 19.6499 23.5814 19.6499 23.25V3.75002C19.6499 3.41865 19.9185 3.15002 20.2499 3.15002Z" fill="currentColor" />
		<path fill-rule="evenodd" clip-rule="evenodd" d="M3.1499 3.75002C3.1499 3.41865 3.41853 3.15002 3.7499 3.15002H20.2499C20.5813 3.15002 20.8499 3.41865 20.8499 3.75002C20.8499 4.0814 20.5813 4.35002 20.2499 4.35002H3.7499C3.41853 4.35002 3.1499 4.0814 3.1499 3.75002Z" fill="currentColor" />
		<path fill-rule="evenodd" clip-rule="evenodd" d="M3.7499 3.15002C4.08127 3.15002 4.3499 3.41865 4.3499 3.75002V23.25C4.3499 23.5814 4.08127 23.85 3.7499 23.85C3.41853 23.85 3.1499 23.5814 3.1499 23.25V3.75002C3.1499 3.41865 3.41853 3.15002 3.7499 3.15002Z" fill="currentColor" />
		<path fill-rule="evenodd" clip-rule="evenodd" d="M3.1499 23.25C3.1499 22.9187 3.41853 22.65 3.7499 22.65H20.2499C20.5813 22.65 20.8499 22.9187 20.8499 23.25C20.8499 23.5814 20.5813 23.85 20.2499 23.85H3.7499C3.41853 23.85 3.1499 23.5814 3.1499 23.25Z" fill="currentColor" />
		<path fill-rule="evenodd" clip-rule="evenodd" d="M4.71325 0.481696C4.81488 0.278426 5.02264 0.150024 5.2499 0.150024H18.7499C18.9772 0.150024 19.1849 0.278426 19.2866 0.481696L20.7866 3.4817C20.8796 3.66769 20.8696 3.88857 20.7603 4.06546C20.651 4.24235 20.4578 4.35002 20.2499 4.35002H3.7499C3.54196 4.35002 3.34884 4.24235 3.23951 4.06546C3.13019 3.88857 3.12025 3.66769 3.21325 3.4817L4.71325 0.481696ZM5.62072 1.35002L4.72072 3.15002H19.2791L18.3791 1.35002H5.62072Z" fill="currentColor" />
		<path fill-rule="evenodd" clip-rule="evenodd" d="M0.149902 23.25C0.149902 22.9187 0.418532 22.65 0.749902 22.65H23.2499C23.5813 22.65 23.8499 22.9187 23.8499 23.25C23.8499 23.5814 23.5813 23.85 23.2499 23.85H0.749902C0.418532 23.85 0.149902 23.5814 0.149902 23.25Z" fill="currentColor" />
		<path fill-rule="evenodd" clip-rule="evenodd" d="M9.98465 18.9848C10.5191 18.4503 11.244 18.15 11.9999 18.15C12.7558 18.15 13.4807 18.4503 14.0152 18.9848C14.5496 19.5192 14.8499 20.2442 14.8499 21V23.25C14.8499 23.5814 14.5813 23.85 14.2499 23.85H9.7499C9.41853 23.85 9.1499 23.5814 9.1499 23.25V21C9.1499 20.2442 9.45017 19.5192 9.98465 18.9848ZM11.9999 19.35C11.5623 19.35 11.1426 19.5239 10.8332 19.8333C10.5237 20.1427 10.3499 20.5624 10.3499 21V22.65H13.6499V21C13.6499 20.5624 13.4761 20.1427 13.1666 19.8333C12.8572 19.5239 12.4375 19.35 11.9999 19.35Z" fill="currentColor" />
		<path fill-rule="evenodd" clip-rule="evenodd" d="M7.4999 6.97502C7.55958 6.97502 7.61681 6.95132 7.659 6.90912C7.7012 6.86693 7.7249 6.8097 7.7249 6.75002C7.7249 6.69035 7.7012 6.63312 7.659 6.59093C7.61681 6.54873 7.55958 6.52502 7.4999 6.52502V5.77502C7.24132 5.77502 6.99332 5.87775 6.81047 6.0606C6.62763 6.24344 6.5249 6.49144 6.5249 6.75002C6.5249 7.00861 6.62763 7.25661 6.81047 7.43945C6.99332 7.6223 7.24132 7.72502 7.4999 7.72502V6.97502Z" fill="currentColor" />
		<path fill-rule="evenodd" clip-rule="evenodd" d="M7.4999 5.77502C7.75849 5.77502 8.00648 5.87775 8.18933 6.0606C8.37218 6.24344 8.4749 6.49144 8.4749 6.75002C8.4749 7.00861 8.37218 7.25661 8.18933 7.43945C8.00648 7.6223 7.75849 7.72502 7.4999 7.72502V6.97502C7.44023 6.97502 7.383 6.95132 7.3408 6.90912C7.29861 6.86693 7.2749 6.8097 7.2749 6.75002C7.2749 6.69035 7.29861 6.63312 7.3408 6.59093C7.383 6.54873 7.44023 6.52502 7.4999 6.52502V5.77502Z" fill="currentColor" />
		<path fill-rule="evenodd" clip-rule="evenodd" d="M11.9999 6.97502C12.0596 6.97502 12.1168 6.95132 12.159 6.90912C12.2012 6.86693 12.2249 6.8097 12.2249 6.75002C12.2249 6.69035 12.2012 6.63312 12.159 6.59093C12.1168 6.54873 12.0596 6.52502 11.9999 6.52502V5.77502C11.7413 5.77502 11.4933 5.87775 11.3105 6.0606C11.1276 6.24344 11.0249 6.49144 11.0249 6.75002C11.0249 7.00861 11.1276 7.25661 11.3105 7.43945C11.4933 7.6223 11.7413 7.72502 11.9999 7.72502V6.97502Z" fill="currentColor" />
		<path fill-rule="evenodd" clip-rule="evenodd" d="M11.9999 5.77502C12.2585 5.77502 12.5065 5.87775 12.6893 6.0606C12.8722 6.24344 12.9749 6.49144 12.9749 6.75002C12.9749 7.00861 12.8722 7.25661 12.6893 7.43945C12.5065 7.6223 12.2585 7.72502 11.9999 7.72502V6.97502C11.9402 6.97502 11.883 6.95132 11.8408 6.90912C11.7986 6.86693 11.7749 6.8097 11.7749 6.75002C11.7749 6.69035 11.7986 6.63312 11.8408 6.59093C11.883 6.54873 11.9402 6.52502 11.9999 6.52502V5.77502Z" fill="currentColor" />
		<path fill-rule="evenodd" clip-rule="evenodd" d="M16.4999 6.97502C16.5596 6.97502 16.6168 6.95132 16.659 6.90912C16.7012 6.86693 16.7249 6.8097 16.7249 6.75002C16.7249 6.69035 16.7012 6.63312 16.659 6.59093C16.6168 6.54873 16.5596 6.52502 16.4999 6.52502V5.77502C16.2413 5.77502 15.9933 5.87775 15.8105 6.0606C15.6276 6.24344 15.5249 6.49144 15.5249 6.75002C15.5249 7.00861 15.6276 7.25661 15.8105 7.43945C15.9933 7.6223 16.2413 7.72502 16.4999 7.72502V6.97502Z" fill="currentColor" />
		<path fill-rule="evenodd" clip-rule="evenodd" d="M16.4999 5.77502C16.7585 5.77502 17.0065 5.87775 17.1893 6.0606C17.3722 6.24344 17.4749 6.49144 17.4749 6.75002C17.4749 7.00861 17.3722 7.25661 17.1893 7.43945C17.0065 7.6223 16.7585 7.72502 16.4999 7.72502V6.97502C16.4402 6.97502 16.383 6.95132 16.3408 6.90912C16.2986 6.86693 16.2749 6.8097 16.2749 6.75002C16.2749 6.69035 16.2986 6.63312 16.3408 6.59093C16.383 6.54873 16.4402 6.52502 16.4999 6.52502V5.77502Z" fill="currentColor" />
		<path fill-rule="evenodd" clip-rule="evenodd" d="M7.4999 11.475C7.55958 11.475 7.61681 11.4513 7.659 11.4091C7.7012 11.3669 7.7249 11.3097 7.7249 11.25C7.7249 11.1903 7.7012 11.1331 7.659 11.0909C7.61681 11.0487 7.55958 11.025 7.4999 11.025V10.275C7.24132 10.275 6.99332 10.3777 6.81047 10.5606C6.62763 10.7434 6.5249 10.9914 6.5249 11.25C6.5249 11.5086 6.62763 11.7566 6.81047 11.9395C6.99332 12.1223 7.24132 12.225 7.4999 12.225V11.475Z" fill="currentColor" />
		<path fill-rule="evenodd" clip-rule="evenodd" d="M7.4999 10.275C7.75849 10.275 8.00648 10.3777 8.18933 10.5606C8.37218 10.7434 8.4749 10.9914 8.4749 11.25C8.4749 11.5086 8.37218 11.7566 8.18933 11.9395C8.00648 12.1223 7.75849 12.225 7.4999 12.225V11.475C7.44023 11.475 7.383 11.4513 7.3408 11.4091C7.29861 11.3669 7.2749 11.3097 7.2749 11.25C7.2749 11.1903 7.29861 11.1331 7.3408 11.0909C7.383 11.0487 7.44023 11.025 7.4999 11.025V10.275Z" fill="currentColor" />
		<path fill-rule="evenodd" clip-rule="evenodd" d="M11.9999 11.475C12.0596 11.475 12.1168 11.4513 12.159 11.4091C12.2012 11.3669 12.2249 11.3097 12.2249 11.25C12.2249 11.1904 12.2012 11.1331 12.159 11.0909C12.1168 11.0487 12.0596 11.025 11.9999 11.025V10.275C11.7413 10.275 11.4933 10.3777 11.3105 10.5606C11.1276 10.7434 11.0249 10.9914 11.0249 11.25C11.0249 11.5086 11.1276 11.7566 11.3105 11.9395C11.4933 12.1223 11.7413 12.225 11.9999 12.225V11.475Z" fill="currentColor" />
		<path fill-rule="evenodd" clip-rule="evenodd" d="M11.9999 10.275C12.2585 10.275 12.5065 10.3777 12.6893 10.5606C12.8722 10.7434 12.9749 10.9914 12.9749 11.25C12.9749 11.5086 12.8722 11.7566 12.6893 11.9395C12.5065 12.1223 12.2585 12.225 11.9999 12.225V11.475C11.9402 11.475 11.883 11.4513 11.8408 11.4091C11.7986 11.3669 11.7749 11.3097 11.7749 11.25C11.7749 11.1904 11.7986 11.1331 11.8408 11.0909C11.883 11.0487 11.9402 11.025 11.9999 11.025V10.275Z" fill="currentColor" />
		<path fill-rule="evenodd" clip-rule="evenodd" d="M16.4999 11.475C16.5596 11.475 16.6168 11.4513 16.659 11.4091C16.7012 11.3669 16.7249 11.3097 16.7249 11.25C16.7249 11.1904 16.7012 11.1331 16.659 11.0909C16.6168 11.0487 16.5596 11.025 16.4999 11.025V10.275C16.2413 10.275 15.9933 10.3777 15.8105 10.5606C15.6276 10.7434 15.5249 10.9914 15.5249 11.25C15.5249 11.5086 15.6276 11.7566 15.8105 11.9395C15.9933 12.1223 16.2413 12.225 16.4999 12.225V11.475Z" fill="currentColor" />
		<path fill-rule="evenodd" clip-rule="evenodd" d="M16.4999 10.275C16.7585 10.275 17.0065 10.3777 17.1893 10.5606C17.3722 10.7434 17.4749 10.9914 17.4749 11.25C17.4749 11.5086 17.3722 11.7566 17.1893 11.9395C17.0065 12.1223 16.7585 12.225 16.4999 12.225V11.475C16.4402 11.475 16.383 11.4513 16.3408 11.4091C16.2986 11.3669 16.2749 11.3097 16.2749 11.25C16.2749 11.1904 16.2986 11.1331 16.3408 11.0909C16.383 11.0487 16.4402 11.025 16.4999 11.025V10.275Z" fill="currentColor" />
		<path fill-rule="evenodd" clip-rule="evenodd" d="M7.4999 15.975C7.55958 15.975 7.61681 15.9513 7.659 15.9091C7.7012 15.8669 7.7249 15.8097 7.7249 15.75C7.7249 15.6903 7.7012 15.6331 7.659 15.5909C7.61681 15.5487 7.55958 15.525 7.4999 15.525V14.775C7.24132 14.775 6.99332 14.8777 6.81047 15.0606C6.62763 15.2434 6.5249 15.4914 6.5249 15.75C6.5249 16.0086 6.62763 16.2566 6.81047 16.4395C6.99332 16.6223 7.24132 16.725 7.4999 16.725V15.975Z" fill="currentColor" />
		<path fill-rule="evenodd" clip-rule="evenodd" d="M7.4999 14.775C7.75849 14.775 8.00648 14.8777 8.18933 15.0606C8.37218 15.2434 8.4749 15.4914 8.4749 15.75C8.4749 16.0086 8.37218 16.2566 8.18933 16.4395C8.00648 16.6223 7.75849 16.725 7.4999 16.725V15.975C7.44023 15.975 7.383 15.9513 7.3408 15.9091C7.29861 15.8669 7.2749 15.8097 7.2749 15.75C7.2749 15.6903 7.29861 15.6331 7.3408 15.5909C7.383 15.5487 7.44023 15.525 7.4999 15.525V14.775Z" fill="currentColor" />
		<path fill-rule="evenodd" clip-rule="evenodd" d="M11.9999 15.975C12.0596 15.975 12.1168 15.9513 12.159 15.9091C12.2012 15.8669 12.2249 15.8097 12.2249 15.75C12.2249 15.6904 12.2012 15.6331 12.159 15.5909C12.1168 15.5487 12.0596 15.525 11.9999 15.525V14.775C11.7413 14.775 11.4933 14.8777 11.3105 15.0606C11.1276 15.2434 11.0249 15.4914 11.0249 15.75C11.0249 16.0086 11.1276 16.2566 11.3105 16.4395C11.4933 16.6223 11.7413 16.725 11.9999 16.725V15.975Z" fill="currentColor" />
		<path fill-rule="evenodd" clip-rule="evenodd" d="M11.9999 14.775C12.2585 14.775 12.5065 14.8777 12.6893 15.0606C12.8722 15.2434 12.9749 15.4914 12.9749 15.75C12.9749 16.0086 12.8722 16.2566 12.6893 16.4395C12.5065 16.6223 12.2585 16.725 11.9999 16.725V15.975C11.9402 15.975 11.883 15.9513 11.8408 15.9091C11.7986 15.8669 11.7749 15.8097 11.7749 15.75C11.7749 15.6904 11.7986 15.6331 11.8408 15.5909C11.883 15.5487 11.9402 15.525 11.9999 15.525V14.775Z" fill="currentColor" />
		<path fill-rule="evenodd" clip-rule="evenodd" d="M16.4999 15.975C16.5596 15.975 16.6168 15.9513 16.659 15.9091C16.7012 15.8669 16.7249 15.8097 16.7249 15.75C16.7249 15.6904 16.7012 15.6331 16.659 15.5909C16.6168 15.5487 16.5596 15.525 16.4999 15.525V14.775C16.2413 14.775 15.9933 14.8777 15.8105 15.0606C15.6276 15.2434 15.5249 15.4914 15.5249 15.75C15.5249 16.0086 15.6276 16.2566 15.8105 16.4395C15.9933 16.6223 16.2413 16.725 16.4999 16.725V15.975Z" fill="currentColor" />
		<path fill-rule="evenodd" clip-rule="evenodd" d="M16.4999 14.775C16.7585 14.775 17.0065 14.8777 17.1893 15.0606C17.3722 15.2434 17.4749 15.4914 17.4749 15.75C17.4749 16.0086 17.3722 16.2566 17.1893 16.4395C17.0065 16.6223 16.7585 16.725 16.4999 16.725V15.975C16.4402 15.975 16.383 15.9513 16.3408 15.9091C16.2986 15.8669 16.2749 15.8097 16.2749 15.75C16.2749 15.6904 16.2986 15.6331 16.3408 15.5909C16.383 15.5487 16.4402 15.525 16.4999 15.525V14.775Z" fill="currentColor" />
	</g>
	<defs>
		<clipPath id="clip0_360_7635">
			<rect fill="white" />
		</clipPath>
	</defs>
</svg>
