<svg viewBox="0 0 24 24" fill="none" xmlns="http://www.w3.org/2000/svg">
	<path fill-rule="evenodd" clip-rule="evenodd" d="M0.899414 1.95193C0.899414 1.06827 1.61576 0.351929 2.49941 0.351929H9.49941C10.3831 0.351929 11.0994 1.06827 11.0994 1.95193V8.95193C11.0994 9.83558 10.3831 10.5519 9.49941 10.5519H2.49941C1.61576 10.5519 0.899414 9.83558 0.899414 8.95193V1.95193ZM2.49941 1.55193C2.2785 1.55193 2.09941 1.73101 2.09941 1.95193V8.95193C2.09941 9.17284 2.2785 9.35193 2.49941 9.35193H9.49941C9.72033 9.35193 9.89941 9.17284 9.89941 8.95193V1.95193C9.89941 1.73101 9.72033 1.55193 9.49941 1.55193H2.49941Z" fill="currentColor" />
	<path fill-rule="evenodd" clip-rule="evenodd" d="M0.899414 6.95193C0.899414 6.62056 1.16804 6.35193 1.49941 6.35193H10.4994C10.8308 6.35193 11.0994 6.62056 11.0994 6.95193C11.0994 7.2833 10.8308 7.55193 10.4994 7.55193H1.49941C1.16804 7.55193 0.899414 7.2833 0.899414 6.95193Z" fill="currentColor" />
	<path fill-rule="evenodd" clip-rule="evenodd" d="M3.42368 9.52767C3.65799 9.76198 3.65799 10.1419 3.42368 10.3762L1.17368 12.6262C0.939364 12.8605 0.559465 12.8605 0.32515 12.6262C0.0908354 12.3919 0.0908354 12.012 0.32515 11.7777L2.57515 9.52767C2.80946 9.29335 3.18936 9.29335 3.42368 9.52767Z" fill="currentColor" />
	<path fill-rule="evenodd" clip-rule="evenodd" d="M8.57515 9.52767C8.80947 9.29335 9.18936 9.29335 9.42368 9.52767L11.6737 11.7777C11.908 12.012 11.908 12.3919 11.6737 12.6262C11.4394 12.8605 11.0595 12.8605 10.8251 12.6262L8.57515 10.3762C8.34084 10.1419 8.34084 9.76198 8.57515 9.52767Z" fill="currentColor" />
	<path fill-rule="evenodd" clip-rule="evenodd" d="M16.8251 6.52766C17.0595 6.29335 17.4394 6.29335 17.6737 6.52766L19.4994 8.3534L21.3251 6.52766C21.5595 6.29335 21.9394 6.29335 22.1737 6.52766C22.408 6.76198 22.408 7.14188 22.1737 7.37619L19.9237 9.62619C19.6894 9.86051 19.3095 9.86051 19.0751 9.62619L16.8251 7.37619C16.5908 7.14188 16.5908 6.76198 16.8251 6.52766Z" fill="currentColor" />
	<path fill-rule="evenodd" clip-rule="evenodd" d="M15.8994 3.19993C15.8994 2.86856 16.168 2.59993 16.4994 2.59993C18.4876 2.59993 20.0994 4.2117 20.0994 6.19993V9.19993C20.0994 9.5313 19.8308 9.79993 19.4994 9.79993C19.168 9.79993 18.8994 9.5313 18.8994 9.19993V6.19993C18.8994 4.87445 17.8249 3.79993 16.4994 3.79993C16.168 3.79993 15.8994 3.5313 15.8994 3.19993Z" fill="currentColor" />
	<path fill-rule="evenodd" clip-rule="evenodd" d="M4.07515 14.7777C4.30946 14.5434 4.68936 14.5434 4.92368 14.7777L7.17368 17.0277C7.40799 17.262 7.40799 17.6419 7.17368 17.8762C6.93936 18.1105 6.55946 18.1105 6.32515 17.8762L4.49941 16.0505L2.67368 17.8762C2.43936 18.1105 2.05946 18.1105 1.82515 17.8762C1.59084 17.6419 1.59084 17.262 1.82515 17.0277L4.07515 14.7777Z" fill="currentColor" />
	<path fill-rule="evenodd" clip-rule="evenodd" d="M4.49941 14.5999C4.83078 14.5999 5.09941 14.8686 5.09941 15.1999V18.1999C5.09941 19.5254 6.17393 20.5999 7.49941 20.5999C7.83078 20.5999 8.09941 20.8686 8.09941 21.1999C8.09941 21.5313 7.83078 21.7999 7.49941 21.7999C5.51119 21.7999 3.89941 20.1882 3.89941 18.1999V15.1999C3.89941 14.8686 4.16804 14.5999 4.49941 14.5999Z" fill="currentColor" />
	<path fill-rule="evenodd" clip-rule="evenodd" d="M9.28202 19.195C9.50343 18.9485 9.88278 18.9281 10.1293 19.1495L11.4933 20.3745C11.7399 20.5959 11.7602 20.9753 11.5388 21.2218C11.3174 21.4684 10.938 21.4887 10.6915 21.2673L9.32751 20.0423C9.08097 19.8209 9.0606 19.4416 9.28202 19.195Z" fill="currentColor" />
	<path fill-rule="evenodd" clip-rule="evenodd" d="M14.4068 13.5786C14.6181 13.4955 14.8582 13.5387 15.0272 13.6904L18.8445 17.117L20.7545 16.3656C20.7729 16.3569 20.7916 16.3491 20.8108 16.3422C21.9504 15.9332 23.2087 16.5039 23.6519 17.6307C24.0951 18.7574 23.5627 20.0324 22.4498 20.5094L22.4335 20.5161L14.9866 23.4531C14.9866 23.4531 14.9866 23.4531 14.9866 23.4531C14.1962 23.7649 13.2974 23.6031 12.6654 23.0352L10.6916 21.2634C10.5369 21.1245 10.4651 20.9154 10.5019 20.7107C10.5387 20.5061 10.6788 20.3351 10.8723 20.2588L14.674 18.7592L11.8785 15.4222C11.7546 15.2743 11.7094 15.0758 11.757 14.8889C11.8046 14.7019 11.9392 14.5492 12.1188 14.4786L14.4068 13.5786ZM13.3334 15.2903L16.1283 18.6266C16.2522 18.7745 16.2974 18.9728 16.2499 19.1597C16.2024 19.3466 16.068 19.4993 15.8886 19.5701L12.2156 21.0189L13.4672 22.1424C13.761 22.4064 14.1789 22.4817 14.5462 22.3368L21.9842 19.4033C22.496 19.1795 22.74 18.5906 22.5352 18.0699C22.3333 17.5567 21.7672 17.2919 21.2462 17.4614C21.2399 17.4641 21.2335 17.4668 21.227 17.4693L18.939 18.3693C18.7277 18.4524 18.4876 18.4091 18.3186 18.2574L14.5013 14.8309L13.3334 15.2903Z" fill="currentColor" />
</svg>
