<svg viewBox="0 0 24 24" fill="none" xmlns="http://www.w3.org/2000/svg">
	<path fill-rule="evenodd" clip-rule="evenodd" d="M16.8251 6.9648C17.0595 6.73048 17.4394 6.73048 17.6737 6.9648L19.4994 8.79053L21.3251 6.9648C21.5595 6.73048 21.9394 6.73048 22.1737 6.9648C22.408 7.19911 22.408 7.57901 22.1737 7.81333L19.9237 10.0633C19.6894 10.2976 19.3095 10.2976 19.0751 10.0633L16.8251 7.81333C16.5908 7.57901 16.5908 7.19911 16.8251 6.9648Z" fill="currentColor" />
	<path fill-rule="evenodd" clip-rule="evenodd" d="M15.8994 3.63906C15.8994 3.30769 16.168 3.03906 16.4994 3.03906C18.4876 3.03906 20.0994 4.65084 20.0994 6.63906V9.63906C20.0994 9.97043 19.8308 10.2391 19.4994 10.2391C19.168 10.2391 18.8994 9.97043 18.8994 9.63906V6.63906C18.8994 5.31358 17.8249 4.23906 16.4994 4.23906C16.168 4.23906 15.8994 3.97043 15.8994 3.63906Z" fill="currentColor" />
	<path fill-rule="evenodd" clip-rule="evenodd" d="M4.07515 15.2148C4.30946 14.9805 4.68936 14.9805 4.92368 15.2148L7.17368 17.4648C7.40799 17.6991 7.40799 18.079 7.17368 18.3133C6.93936 18.5476 6.55946 18.5476 6.32515 18.3133L4.49941 16.4876L2.67368 18.3133C2.43936 18.5476 2.05946 18.5476 1.82515 18.3133C1.59084 18.079 1.59084 17.6991 1.82515 17.4648L4.07515 15.2148Z" fill="currentColor" />
	<path fill-rule="evenodd" clip-rule="evenodd" d="M4.49941 15.0391C4.83078 15.0391 5.09941 15.3077 5.09941 15.6391V18.6391C5.09941 19.9645 6.17393 21.0391 7.49941 21.0391C7.83078 21.0391 8.09941 21.3077 8.09941 21.6391C8.09941 21.9704 7.83078 22.2391 7.49941 22.2391C5.51119 22.2391 3.89941 20.6273 3.89941 18.6391V15.6391C3.89941 15.3077 4.16804 15.0391 4.49941 15.0391Z" fill="currentColor" />
	<path fill-rule="evenodd" clip-rule="evenodd" d="M9.28202 19.1952C9.50343 18.9486 9.88278 18.9282 10.1293 19.1497L11.4933 20.3747C11.7399 20.5961 11.7602 20.9754 11.5388 21.222C11.3174 21.4685 10.938 21.4889 10.6915 21.2675L9.32751 20.0425C9.08097 19.821 9.0606 19.4417 9.28202 19.1952Z" fill="currentColor" />
	<path fill-rule="evenodd" clip-rule="evenodd" d="M14.4068 13.5787C14.6181 13.4956 14.8582 13.5389 15.0272 13.6906L18.8445 17.1171L20.7442 16.3698C20.7658 16.359 20.788 16.3495 20.8108 16.3413C21.9504 15.9324 23.2087 16.503 23.6519 17.6298C24.0951 18.7566 23.5627 20.0316 22.4498 20.5085L22.4335 20.5152L14.9866 23.4522C14.9866 23.4522 14.9866 23.4522 14.9866 23.4522C14.1962 23.764 13.2974 23.6022 12.6654 23.0344L10.6916 21.2626C10.5369 21.1237 10.4651 20.9145 10.5019 20.7099C10.5387 20.5052 10.6788 20.3342 10.8723 20.2579L14.6739 18.7584L11.8785 15.4224C11.7546 15.2745 11.7094 15.076 11.757 14.889C11.8046 14.702 11.9392 14.5493 12.1188 14.4787L14.4068 13.5787ZM13.3335 15.2904L16.1283 18.6257C16.2522 18.7735 16.2974 18.9719 16.2499 19.1588C16.2024 19.3457 16.068 19.4984 15.8886 19.5692L12.2156 21.018L13.4672 22.1416C13.761 22.4055 14.1789 22.4809 14.5462 22.3359L21.9842 19.4025C22.496 19.1786 22.74 18.5897 22.5352 18.069C22.3344 17.5585 21.7731 17.2938 21.2544 17.4579C21.2454 17.4619 21.2363 17.4658 21.227 17.4694L18.939 18.3694C18.7277 18.4525 18.4876 18.4092 18.3186 18.2576L14.5013 14.831L13.3335 15.2904Z" fill="currentColor" />
	<path fill-rule="evenodd" clip-rule="evenodd" d="M0.149414 2.38906C0.149414 1.50541 0.865759 0.789062 1.74941 0.789062H9.49941C10.3831 0.789062 11.0994 1.50541 11.0994 2.38906V10.1391C11.0994 11.0227 10.3831 11.7391 9.49941 11.7391H1.74941C0.865758 11.7391 0.149414 11.0227 0.149414 10.1391V2.38906ZM1.74941 1.98906C1.5285 1.98906 1.34941 2.16815 1.34941 2.38906V10.1391C1.34941 10.36 1.5285 10.5391 1.74941 10.5391H9.49941C9.72033 10.5391 9.89941 10.36 9.89941 10.1391V2.38906C9.89941 2.16815 9.72033 1.98906 9.49941 1.98906H1.74941Z" fill="currentColor" />
	<path fill-rule="evenodd" clip-rule="evenodd" d="M2.24941 10.5391C2.58078 10.5391 2.84941 10.8077 2.84941 11.1391V12.6391C2.84941 12.9704 2.58078 13.2391 2.24941 13.2391C1.91804 13.2391 1.64941 12.9704 1.64941 12.6391V11.1391C1.64941 10.8077 1.91804 10.5391 2.24941 10.5391Z" fill="currentColor" />
	<path fill-rule="evenodd" clip-rule="evenodd" d="M8.99941 10.5391C9.33079 10.5391 9.59941 10.8077 9.59941 11.1391V12.6391C9.59941 12.9704 9.33079 13.2391 8.99941 13.2391C8.66804 13.2391 8.39941 12.9704 8.39941 12.6391V11.1391C8.39941 10.8077 8.66804 10.5391 8.99941 10.5391Z" fill="currentColor" />
	<path fill-rule="evenodd" clip-rule="evenodd" d="M0.149414 5.88906C0.149414 5.55769 0.418043 5.28906 0.749414 5.28906H10.4994C10.8308 5.28906 11.0994 5.55769 11.0994 5.88906C11.0994 6.22043 10.8308 6.48906 10.4994 6.48906H0.749414C0.418043 6.48906 0.149414 6.22043 0.149414 5.88906Z" fill="currentColor" />
	<path fill-rule="evenodd" clip-rule="evenodd" d="M2.77441 8.13906C2.77441 7.80769 3.04304 7.53906 3.37441 7.53906C3.91289 7.53906 4.34941 7.97558 4.34941 8.51406C4.34941 8.84543 4.08078 9.11406 3.74941 9.11406C3.48564 9.11406 3.26162 8.94385 3.1812 8.70727C2.94462 8.62685 2.77441 8.40284 2.77441 8.13906Z" fill="currentColor" />
	<path fill-rule="evenodd" clip-rule="evenodd" d="M3.56763 8.70727C3.8042 8.62685 3.97441 8.40284 3.97441 8.13906C3.97441 7.80769 3.70578 7.53906 3.37441 7.53906C2.83594 7.53906 2.39941 7.97558 2.39941 8.51406C2.39941 8.84543 2.66804 9.11406 2.99941 9.11406C3.26319 9.11406 3.48721 8.94385 3.56763 8.70727Z" fill="currentColor" />
	<path fill-rule="evenodd" clip-rule="evenodd" d="M3.56763 8.32085C3.48721 8.08427 3.26319 7.91406 2.99941 7.91406C2.66804 7.91406 2.39941 8.18269 2.39941 8.51406C2.39941 9.05254 2.83594 9.48906 3.37441 9.48906C3.70578 9.48906 3.97441 9.22043 3.97441 8.88906C3.97441 8.62529 3.8042 8.40127 3.56763 8.32085Z" fill="currentColor" />
	<path fill-rule="evenodd" clip-rule="evenodd" d="M3.74941 7.91406C4.08078 7.91406 4.34941 8.18269 4.34941 8.51406C4.34941 9.05254 3.91289 9.48906 3.37441 9.48906C3.04304 9.48906 2.77441 9.22043 2.77441 8.88906C2.77441 8.62529 2.94462 8.40127 3.1812 8.32085C3.26162 8.08427 3.48564 7.91406 3.74941 7.91406Z" fill="currentColor" />
	<path fill-rule="evenodd" clip-rule="evenodd" d="M7.27441 8.13906C7.27441 7.80769 7.54304 7.53906 7.87441 7.53906C8.41289 7.53906 8.84941 7.97558 8.84941 8.51406C8.84941 8.84543 8.58079 9.11406 8.24941 9.11406C7.98564 9.11406 7.76162 8.94385 7.6812 8.70727C7.44462 8.62685 7.27441 8.40284 7.27441 8.13906Z" fill="currentColor" />
	<path fill-rule="evenodd" clip-rule="evenodd" d="M8.06763 8.70727C8.3042 8.62685 8.47441 8.40284 8.47441 8.13906C8.47441 7.80769 8.20578 7.53906 7.87441 7.53906C7.33594 7.53906 6.89941 7.97558 6.89941 8.51406C6.89941 8.84543 7.16804 9.11406 7.49941 9.11406C7.76319 9.11406 7.98721 8.94385 8.06763 8.70727Z" fill="currentColor" />
	<path fill-rule="evenodd" clip-rule="evenodd" d="M8.06763 8.32085C7.98721 8.08427 7.76319 7.91406 7.49941 7.91406C7.16804 7.91406 6.89941 8.18269 6.89941 8.51406C6.89941 9.05254 7.33594 9.48906 7.87441 9.48906C8.20578 9.48906 8.47441 9.22043 8.47441 8.88906C8.47441 8.62529 8.3042 8.40127 8.06763 8.32085Z" fill="currentColor" />
	<path fill-rule="evenodd" clip-rule="evenodd" d="M8.24941 7.91406C8.58079 7.91406 8.84941 8.18269 8.84941 8.51406C8.84941 9.05254 8.41289 9.48906 7.87441 9.48906C7.54304 9.48906 7.27441 9.22043 7.27441 8.88906C7.27441 8.62529 7.44462 8.40127 7.6812 8.32085C7.76162 8.08427 7.98564 7.91406 8.24941 7.91406Z" fill="currentColor" />
</svg>
