<svg viewBox="0 0 24 24" fill="none" xmlns="http://www.w3.org/2000/svg">
	<path fill-rule="evenodd" clip-rule="evenodd" d="M15.9058 21.75C15.9058 20.5902 16.846 19.65 18.0058 19.65C19.1656 19.65 20.1058 20.5902 20.1058 21.75C20.1058 22.9098 19.1656 23.85 18.0058 23.85C16.846 23.85 15.9058 22.9098 15.9058 21.75ZM18.0058 20.85C17.5087 20.85 17.1058 21.253 17.1058 21.75C17.1058 22.2471 17.5087 22.65 18.0058 22.65C18.5028 22.65 18.9058 22.2471 18.9058 21.75C18.9058 21.253 18.5028 20.85 18.0058 20.85Z" fill="currentColor" />
	<path fill-rule="evenodd" clip-rule="evenodd" d="M1.65576 21.75C1.65576 20.5902 2.59596 19.65 3.75576 19.65C4.91556 19.65 5.85576 20.5902 5.85576 21.75C5.85576 22.9098 4.91556 23.85 3.75576 23.85C2.59596 23.85 1.65576 22.9098 1.65576 21.75ZM3.75576 20.85C3.25871 20.85 2.85576 21.253 2.85576 21.75C2.85576 22.2471 3.25871 22.65 3.75576 22.65C4.25282 22.65 4.65576 22.2471 4.65576 21.75C4.65576 21.253 4.25282 20.85 3.75576 20.85Z" fill="currentColor" />
	<path fill-rule="evenodd" clip-rule="evenodd" d="M21.5725 1.35002C21.1203 1.34984 20.7382 1.68523 20.6797 2.13362L18.7707 16.7716C18.6343 17.8174 17.7435 18.5997 16.6889 18.6H0.755762C0.424391 18.6 0.155762 18.3314 0.155762 18C0.155762 17.6687 0.424391 17.4 0.755762 17.4H16.6886C17.1405 17.3998 17.5224 17.0645 17.5808 16.6164L19.4898 1.97842C19.6263 0.93224 20.5177 0.149722 21.5728 0.150025H23.2558C23.5871 0.150025 23.8558 0.418654 23.8558 0.750024C23.8558 1.0814 23.5871 1.35002 23.2558 1.35002L21.5725 1.35002Z" fill="currentColor" />
	<path fill-rule="evenodd" clip-rule="evenodd" d="M2.40576 5.25002C2.40576 4.09023 3.34596 3.15002 4.50576 3.15002H13.5058C14.6656 3.15002 15.6058 4.09023 15.6058 5.25002V13.5C15.6058 14.6598 14.6656 15.6 13.5058 15.6H4.50576C3.34596 15.6 2.40576 14.6598 2.40576 13.5V5.25002ZM4.50576 4.35002C4.00871 4.35002 3.60576 4.75297 3.60576 5.25002V13.5C3.60576 13.9971 4.00871 14.4 4.50576 14.4H13.5058C14.0028 14.4 14.4058 13.9971 14.4058 13.5V5.25002C14.4058 4.75297 14.0028 4.35002 13.5058 4.35002H4.50576Z" fill="currentColor" />
	<path fill-rule="evenodd" clip-rule="evenodd" d="M11.1048 8.25002C11.1048 8.5814 10.8361 8.85003 10.5048 8.85003H7.50476C7.17339 8.85003 6.90476 8.5814 6.90476 8.25002V3.75003C6.90476 3.41865 7.17339 3.15003 7.50476 3.15003H10.5048C10.8361 3.15003 11.1048 3.41865 11.1048 3.75003V8.25002ZM9.90476 7.65003V4.35003H8.10476V7.65003H9.90476Z" fill="currentColor" />
</svg>
