<svg viewBox="0 0 24 24" fill="none" xmlns="http://www.w3.org/2000/svg">
	<g>
		<path fill-rule="evenodd" clip-rule="evenodd" d="M6.89995 12.004C6.89995 11.6727 7.16858 11.404 7.49995 11.404H23.2499C23.5813 11.404 23.8499 11.6727 23.8499 12.004C23.8499 12.3354 23.5813 12.604 23.2499 12.604H7.49995C7.16858 12.604 6.89995 12.3354 6.89995 12.004Z" fill="currentColor" />
		<path fill-rule="evenodd" clip-rule="evenodd" d="M19.0757 7.82976C19.31 7.59545 19.6899 7.59545 19.9242 7.82976L23.6742 11.5798C23.9085 11.8141 23.9085 12.194 23.6742 12.4283L19.9242 16.1783C19.6899 16.4126 19.31 16.4126 19.0757 16.1783C18.8414 15.944 18.8414 15.5641 19.0757 15.3298L22.4014 12.004L19.0757 8.67829C18.8414 8.44397 18.8414 8.06407 19.0757 7.82976Z" fill="currentColor" />
		<path fill-rule="evenodd" clip-rule="evenodd" d="M2.08308 0.900768C2.09302 0.900272 2.10299 0.900024 2.11295 0.900024H14.3859C14.3959 0.900024 14.4059 0.900272 14.4158 0.900768C14.9537 0.927581 15.4591 1.16634 15.8215 1.56481C16.1805 1.95965 16.3701 2.47947 16.3499 3.01237V7.50002C16.3499 7.8314 16.0813 8.10002 15.7499 8.10002C15.4186 8.10002 15.1499 7.8314 15.1499 7.50002V3.00002C15.1499 2.991 15.1502 2.98199 15.1506 2.97298C15.1605 2.7519 15.0825 2.53587 14.9337 2.37213C14.7877 2.2116 14.5852 2.11415 14.369 2.10002H2.1299C1.91387 2.11414 1.71154 2.21156 1.56572 2.37203C1.417 2.5357 1.33919 2.75163 1.34932 2.97254C1.34974 2.9817 1.34995 2.99086 1.34995 3.00002V21C1.34995 21.0091 1.34974 21.0181 1.34934 21.0271C1.33936 21.2481 1.41726 21.464 1.56602 21.6277C1.71184 21.7882 1.91412 21.8857 2.13014 21.9H14.369C14.5852 21.8859 14.7877 21.7885 14.9337 21.6279C15.0825 21.4642 15.1605 21.2482 15.1506 21.0271C15.1502 21.0181 15.1499 21.009 15.1499 21V16.5C15.1499 16.1687 15.4186 15.9 15.7499 15.9C16.0813 15.9 16.3499 16.1687 16.3499 16.5V20.9877C16.3701 21.5206 16.1805 22.0404 15.8215 22.4352C15.4591 22.8337 14.9537 23.0725 14.4158 23.0993C14.4059 23.0998 14.3959 23.1 14.3859 23.1H2.11295C2.10285 23.1 2.09275 23.0998 2.08266 23.0993C1.54499 23.0721 1.03995 22.8332 0.677908 22.4347C0.319166 22.0399 0.129741 21.5203 0.149947 20.9877V3.01258C0.129427 2.47978 0.318762 1.95994 0.677604 1.56503C1.0398 1.16643 1.54517 0.927582 2.08308 0.900768Z" fill="currentColor" />
	</g>
	<defs>
		<clipPath id="clip0_360_7715">
			<rect fill="white" />
		</clipPath>
	</defs>
</svg>
