<svg viewBox="0 0 24 24" fill="none" xmlns="http://www.w3.org/2000/svg">
	<g>
		<path fill-rule="evenodd" clip-rule="evenodd" d="M22.3793 5.23079H1.6C1.50729 5.23079 1.45161 5.24183 1.42352 5.24954C1.39684 5.25687 1.38657 5.26347 1.38507 5.26443C1.38467 5.26466 1.36868 5.27387 1.34487 5.31967C1.31828 5.37079 1.29861 5.43681 1.28758 5.50044C1.28285 5.52773 1.2808 5.54833 1.28 5.5584V22.4616C1.28 22.5507 1.29147 22.6042 1.2995 22.6313C1.30712 22.6569 1.31398 22.6668 1.31499 22.6682C1.31502 22.6683 1.32428 22.6837 1.37243 22.7069C1.4256 22.7324 1.49426 22.7514 1.56043 22.762C1.58881 22.7665 1.61023 22.7685 1.62071 22.7693H22.4C22.4927 22.7693 22.5484 22.7582 22.5765 22.7505C22.6031 22.7432 22.6134 22.7366 22.6149 22.7356C22.615 22.7356 22.6311 22.7267 22.6551 22.6804C22.6817 22.6293 22.7014 22.5632 22.7124 22.4996C22.7171 22.4723 22.7192 22.4517 22.72 22.4416V5.53849C22.72 5.44935 22.7085 5.3958 22.7005 5.36879C22.6929 5.34314 22.686 5.33327 22.685 5.33183C22.685 5.33177 22.6757 5.31632 22.6276 5.29317C22.5744 5.26761 22.5057 5.24869 22.4396 5.23809C22.4112 5.23354 22.3898 5.23156 22.3793 5.23079ZM22.4 4.00002H1.6C0 4.00002 0 5.53849 0 5.53849V22.4616C0 24 1.6 24 1.6 24H22.4C24 24 24 22.4616 24 22.4616V5.53849C24 4.00002 22.4 4.00002 22.4 4.00002Z" fill="currentColor" />
		<path fill-rule="evenodd" clip-rule="evenodd" d="M0.152 9.75002C0.152 9.41865 0.420629 9.15002 0.752 9.15002H23.252C23.5834 9.15002 23.852 9.41865 23.852 9.75002C23.852 10.0814 23.5834 10.35 23.252 10.35H0.752C0.420629 10.35 0.152 10.0814 0.152 9.75002Z" fill="currentColor" />
		<path fill-rule="evenodd" clip-rule="evenodd" d="M6.752 0.150024C7.08337 0.150024 7.352 0.418654 7.352 0.750024V6.00002C7.352 6.3314 7.08337 6.60002 6.752 6.60002C6.42063 6.60002 6.152 6.3314 6.152 6.00002V0.750024C6.152 0.418654 6.42063 0.150024 6.752 0.150024Z" fill="currentColor" />
		<path fill-rule="evenodd" clip-rule="evenodd" d="M17.252 0.150024C17.5834 0.150024 17.852 0.418654 17.852 0.750024V6.00002C17.852 6.3314 17.5834 6.60002 17.252 6.60002C16.9206 6.60002 16.652 6.3314 16.652 6.00002V0.750024C16.652 0.418654 16.9206 0.150024 17.252 0.150024Z" fill="currentColor" />
	</g>
</svg>
