<svg viewBox="0 0 24 24" fill="none" xmlns="http://www.w3.org/2000/svg">
	<path fill-rule="evenodd" clip-rule="evenodd" d="M0.149902 12C0.149902 5.45539 5.45533 0.149963 11.9999 0.149963C18.5445 0.149963 23.8499 5.45539 23.8499 12C23.8499 18.5445 18.5445 23.85 11.9999 23.85C5.45533 23.85 0.149902 18.5445 0.149902 12ZM11.9999 1.34996C6.11807 1.34996 1.3499 6.11813 1.3499 12C1.3499 17.8818 6.11807 22.65 11.9999 22.65C17.8817 22.65 22.6499 17.8818 22.6499 12C22.6499 6.11813 17.8817 1.34996 11.9999 1.34996Z" fill="currentColor" />
	<path fill-rule="evenodd" clip-rule="evenodd" d="M9.62693 0.583246C9.90071 0.769934 9.97131 1.14322 9.78462 1.41699C8.35839 3.50855 7.3499 7.42631 7.3499 12C7.3499 16.5736 8.35839 20.4914 9.78462 22.5829C9.97131 22.8567 9.90071 23.23 9.62693 23.4167C9.35316 23.6034 8.97987 23.5328 8.79318 23.259C7.17542 20.8866 6.1499 16.6923 6.1499 12C6.1499 7.30762 7.17542 3.11337 8.79318 0.740934C8.97987 0.467156 9.35316 0.396557 9.62693 0.583246Z" fill="currentColor" />
	<path fill-rule="evenodd" clip-rule="evenodd" d="M0.149902 12C0.149902 11.6686 0.418532 11.4 0.749902 11.4H23.2499C23.5813 11.4 23.8499 11.6686 23.8499 12C23.8499 12.3313 23.5813 12.6 23.2499 12.6H0.749902C0.418532 12.6 0.149902 12.3313 0.149902 12Z" fill="currentColor" />
	<path fill-rule="evenodd" clip-rule="evenodd" d="M1.8819 18C1.8819 17.6686 2.15053 17.4 2.4819 17.4H21.5179C21.8493 17.4 22.1179 17.6686 22.1179 18C22.1179 18.3313 21.8493 18.6 21.5179 18.6H2.4819C2.15053 18.6 1.8819 18.3313 1.8819 18Z" fill="currentColor" />
	<path fill-rule="evenodd" clip-rule="evenodd" d="M1.8819 5.99996C1.8819 5.66859 2.15053 5.39996 2.4819 5.39996H21.5179C21.8493 5.39996 22.1179 5.66859 22.1179 5.99996C22.1179 6.33133 21.8493 6.59996 21.5179 6.59996H2.4819C2.15053 6.59996 1.8819 6.33133 1.8819 5.99996Z" fill="currentColor" />
	<path fill-rule="evenodd" clip-rule="evenodd" d="M14.3729 0.583246C14.6467 0.396557 15.0199 0.467156 15.2066 0.740934C16.8244 3.11337 17.8499 7.30762 17.8499 12C17.8499 16.6923 16.8244 20.8866 15.2066 23.259C15.0199 23.5328 14.6467 23.6034 14.3729 23.4167C14.0991 23.23 14.0285 22.8567 14.2152 22.5829C15.6414 20.4914 16.6499 16.5736 16.6499 12C16.6499 7.42631 15.6414 3.50855 14.2152 1.41699C14.0285 1.14322 14.0991 0.769934 14.3729 0.583246Z" fill="currentColor" />
</svg>
