<svg viewBox="0 0 24 24" fill="none" xmlns="http://www.w3.org/2000/svg">
	<path d="M8.64111 8.508C8.6414 8.8063 8.6611 9.10426 8.70011 9.4C8.60281 8.65968 8.63019 7.90828 8.78111 7.177" stroke="#00358D" stroke-width="1.2" stroke-linecap="round" stroke-linejoin="round" />
	<path fill-rule="evenodd" clip-rule="evenodd" d="M8.3684 6.37007C9.45765 2.82118 12.9019 0.469278 16.6616 0.815608C20.6566 1.18361 23.7449 4.48181 23.8497 8.4924C23.8499 8.49915 23.8499 8.50589 23.8499 8.51263C23.8242 11.894 21.6086 14.8683 18.376 15.8607C18.0592 15.9579 17.7236 15.7799 17.6263 15.4632C17.5291 15.1464 17.707 14.8108 18.0238 14.7135C20.7526 13.8758 22.6238 11.3671 22.6498 8.5136C22.556 5.11549 19.9377 2.32246 16.5515 2.01055C13.162 1.69832 10.0748 3.97087 9.36574 7.30006C9.32749 7.47966 9.20911 7.63186 9.04444 7.71312C8.87978 7.79439 8.68696 7.79578 8.52114 7.71689C7.98711 7.46283 7.40359 7.32973 6.81221 7.32707L6.80754 7.32703C4.64989 7.30055 2.87892 9.0269 2.8499 11.1841C2.84995 11.4013 2.86871 11.6181 2.906 11.8321C2.96288 12.1585 2.74434 12.4693 2.41789 12.5262C2.09143 12.5831 1.78068 12.3645 1.72381 12.0381C1.67442 11.7546 1.64969 11.4674 1.6499 11.1796L1.64991 11.1725C1.68535 8.35194 3.9996 6.09374 6.81993 6.1271C7.34674 6.1297 7.86871 6.21202 8.3684 6.37007Z" fill="currentColor" />
	<path fill-rule="evenodd" clip-rule="evenodd" d="M0.149902 18.2871C0.149902 17.9557 0.418532 17.6871 0.749902 17.6871H12.7499C13.9097 17.6871 14.8499 18.6273 14.8499 19.7871C14.8499 20.9469 13.9097 21.8871 12.7499 21.8871H11.9999C11.6685 21.8871 11.3999 21.6185 11.3999 21.2871C11.3999 20.9557 11.6685 20.6871 11.9999 20.6871H12.7499C13.247 20.6871 13.6499 20.2841 13.6499 19.7871C13.6499 19.29 13.247 18.8871 12.7499 18.8871H0.749902C0.418532 18.8871 0.149902 18.6185 0.149902 18.2871Z" fill="currentColor" />
	<path fill-rule="evenodd" clip-rule="evenodd" d="M7.6499 12.2871C7.6499 11.9557 7.91853 11.6871 8.2499 11.6871H8.9999C10.1597 11.6871 11.0999 12.6273 11.0999 13.7871C11.0999 14.9469 10.1597 15.8871 8.9999 15.8871H0.749902C0.418532 15.8871 0.149902 15.6184 0.149902 15.2871C0.149902 14.9557 0.418532 14.6871 0.749902 14.6871H8.9999C9.49696 14.6871 9.8999 14.2841 9.8999 13.7871C9.8999 13.29 9.49696 12.8871 8.9999 12.8871H8.2499C7.91853 12.8871 7.6499 12.6184 7.6499 12.2871Z" fill="currentColor" />
</svg>
