<svg viewBox="0 0 24 24" fill="none" xmlns="http://www.w3.org/2000/svg">
	<path fill-rule="evenodd" clip-rule="evenodd" d="M0.149902 7.49996C0.149902 6.34016 1.0901 5.39996 2.2499 5.39996H21.7499C22.9097 5.39996 23.8499 6.34017 23.8499 7.49996V21C23.8499 22.1598 22.9097 23.1 21.7499 23.1H2.2499C1.0901 23.1 0.149902 22.1598 0.149902 21V7.49996ZM2.2499 6.59996C1.75285 6.59996 1.3499 7.00291 1.3499 7.49996V21C1.3499 21.497 1.75285 21.9 2.2499 21.9H21.7499C22.247 21.9 22.6499 21.497 22.6499 21V7.49996C22.6499 7.00291 22.247 6.59996 21.7499 6.59996H2.2499Z" fill="currentColor" />
	<path fill-rule="evenodd" clip-rule="evenodd" d="M4.6499 11.25C4.6499 10.9186 4.91853 10.65 5.2499 10.65H18.7499C19.0813 10.65 19.3499 10.9186 19.3499 11.25C19.3499 11.5813 19.0813 11.85 18.7499 11.85H5.2499C4.91853 11.85 4.6499 11.5813 4.6499 11.25Z" fill="currentColor" />
	<path fill-rule="evenodd" clip-rule="evenodd" d="M4.6499 17.25C4.6499 16.9186 4.91853 16.65 5.2499 16.65H18.7499C19.0813 16.65 19.3499 16.9186 19.3499 17.25C19.3499 17.5813 19.0813 17.85 18.7499 17.85H5.2499C4.91853 17.85 4.6499 17.5813 4.6499 17.25Z" fill="currentColor" />
	<path fill-rule="evenodd" clip-rule="evenodd" d="M10.0809 0.899963C9.17729 0.899879 8.37493 1.47785 8.08878 2.33496L10.0809 0.899963ZM9.22702 2.71496L8.33228 5.39996H15.6675L14.7728 2.71496C14.6501 2.34762 14.3063 2.09991 13.919 2.09996H10.0809C9.69366 2.09991 9.34969 2.34767 9.22702 2.71496ZM10.0809 0.899963H13.9188C14.8224 0.899879 15.6249 1.47785 15.911 2.33496L17.0691 5.81028C17.1301 5.99324 17.0994 6.19436 16.9866 6.35081C16.8739 6.50726 16.6928 6.59996 16.4999 6.59996H7.4999C7.30705 6.59996 7.12594 6.50726 7.01317 6.35081C6.9004 6.19436 6.86971 5.99324 6.93068 5.81028L8.08878 2.33496" fill="currentColor" />
	<path fill-rule="evenodd" clip-rule="evenodd" d="M3.7499 3.89996C4.08127 3.89996 4.3499 4.16859 4.3499 4.49996V5.99996C4.3499 6.33133 4.08127 6.59996 3.7499 6.59996C3.41853 6.59996 3.1499 6.33133 3.1499 5.99996V4.49996C3.1499 4.16859 3.41853 3.89996 3.7499 3.89996Z" fill="currentColor" />
	<path fill-rule="evenodd" clip-rule="evenodd" d="M20.2499 3.89996C20.5813 3.89996 20.8499 4.16859 20.8499 4.49996V5.99996C20.8499 6.33133 20.5813 6.59996 20.2499 6.59996C19.9185 6.59996 19.6499 6.33133 19.6499 5.99996V4.49996C19.6499 4.16859 19.9185 3.89996 20.2499 3.89996Z" fill="currentColor" />
</svg>
