<svg viewBox="0 0 24 24" fill="none" xmlns="http://www.w3.org/2000/svg">
	<path fill-rule="evenodd" clip-rule="evenodd" d="M15.889 2.70001C16.1141 2.70001 16.2967 2.88814 16.2967 3.12021V7.0156H21.696C21.9211 7.0156 22.1036 7.20373 22.1036 7.4358V18.3233H23.2921C23.5173 18.3233 23.6998 18.5114 23.6998 18.7435C23.6998 18.9756 23.5173 19.1637 23.2921 19.1637H16.4122C16.2178 20.3757 15.1962 21.3 13.9652 21.3C13.216 21.3 12.5443 20.9576 12.0895 20.4163C12.0326 20.4475 11.9676 20.4651 11.8986 20.4651H6.7926C6.43595 20.9711 5.85733 21.3 5.20416 21.3C4.551 21.3 3.97238 20.9711 3.61572 20.4651H2.19645C1.14939 20.4651 0.299805 19.5895 0.299805 18.5102V14.876C0.299805 13.7968 1.14939 12.9211 2.19645 12.9211H4.15921V8.43643C4.15921 8.20436 4.34173 8.01623 4.56688 8.01623C4.79204 8.01623 4.97456 8.20436 4.97456 8.43643V12.9273H5.31732C6.27472 12.9273 7.19908 13.3134 7.88327 14.0045L7.88382 14.0051L10.1874 16.312C10.3489 16.4737 10.3526 16.7397 10.1957 16.9061C10.0388 17.0726 9.78074 17.0764 9.61925 16.9147L7.31433 14.6065L7.31302 14.6052C6.78227 14.0689 6.06305 13.7677 5.31732 13.7677H4.19166C4.16786 13.7677 4.14453 13.7656 4.12184 13.7615H2.19645C1.5997 13.7615 1.11516 14.261 1.11516 14.876V18.5102C1.11516 19.1253 1.5997 19.6247 2.19645 19.6247H3.2708C3.25187 19.5119 3.242 19.3959 3.242 19.2776C3.242 18.1606 4.12049 17.2551 5.20416 17.2551C6.28783 17.2551 7.16632 18.1606 7.16632 19.2776C7.16632 19.3959 7.15646 19.5119 7.13753 19.6247H11.6362C11.5383 19.35 11.4849 19.0532 11.4849 18.7435C11.4849 17.6482 12.1532 16.7138 13.0924 16.3498L10.9886 8.79796C10.9882 8.79674 10.9879 8.79553 10.9876 8.79432C10.9873 8.79334 10.987 8.79236 10.9868 8.79139C10.7493 7.88355 9.94689 7.2544 9.03378 7.2544H3.8224C3.59725 7.2544 3.41472 7.06627 3.41472 6.8342C3.41472 6.60213 3.59725 6.414 3.8224 6.414H9.03378C10.3113 6.414 11.4377 7.29341 11.7731 8.56912L13.8957 16.188C13.9188 16.1873 13.942 16.187 13.9652 16.187C14.5362 16.187 15.0621 16.3858 15.4813 16.72V3.12021C15.4813 2.88814 15.6638 2.70001 15.889 2.70001ZM15.6302 18.7435C15.6302 17.7957 14.8848 17.0274 13.9652 17.0274C13.0457 17.0274 12.3003 17.7957 12.3003 18.7435C12.3003 19.6913 13.0457 20.4596 13.9652 20.4596C14.8848 20.4596 15.6302 19.6913 15.6302 18.7435ZM16.4456 18.3233V15.3945H21.2883V18.3233H16.4456ZM21.2883 14.5541V11.6252H16.4456V14.5541H21.2883ZM16.4456 10.7848H21.2883V7.856H16.4456V10.7848ZM5.20416 18.0955C4.5708 18.0955 4.05736 18.6248 4.05736 19.2776C4.05736 19.9304 4.5708 20.4596 5.20416 20.4596C5.83752 20.4596 6.35096 19.9304 6.35096 19.2776C6.35096 18.6248 5.83752 18.0955 5.20416 18.0955Z" fill="currentColor" stroke="currentColor" stroke-width="0.4" stroke-linecap="round" stroke-linejoin="round" />
</svg>
