<svg viewBox="0 0 24 24" fill="none" xmlns="http://www.w3.org/2000/svg">
	<path fill-rule="evenodd" clip-rule="evenodd" d="M10.282 9.81216C10.282 8.26501 11.5813 7.05216 13.132 7.05216C14.6827 7.05216 15.982 8.26501 15.982 9.81216C15.982 11.3593 14.6827 12.5722 13.132 12.5722C11.5813 12.5722 10.282 11.3593 10.282 9.81216ZM13.132 8.25216C12.1974 8.25216 11.482 8.97345 11.482 9.81216C11.482 10.6509 12.1974 11.3722 13.132 11.3722C14.0666 11.3722 14.782 10.6509 14.782 9.81216C14.782 8.97345 14.0666 8.25216 13.132 8.25216Z" fill="currentColor" />
	<path fill-rule="evenodd" clip-rule="evenodd" d="M13.132 11.3722C13.4634 11.3722 13.732 11.6408 13.732 11.9722V22.32C13.732 22.6514 13.4634 22.92 13.132 22.92C12.8006 22.92 12.532 22.6514 12.532 22.32V11.9722C12.532 11.6408 12.8006 11.3722 13.132 11.3722Z" fill="currentColor" />
	<path fill-rule="evenodd" clip-rule="evenodd" d="M6.56999 22.32C6.56999 21.9886 6.83862 21.72 7.16999 21.72H19.093C19.4244 21.72 19.693 21.9886 19.693 22.32C19.693 22.6514 19.4244 22.92 19.093 22.92H7.16999C6.83862 22.92 6.56999 22.6514 6.56999 22.32Z" fill="currentColor" />
	<path fill-rule="evenodd" clip-rule="evenodd" d="M16.556 1.61555C15.3346 1.22256 13.9759 1.40039 12.9023 2.1197C11.6589 2.95284 11.0099 4.36815 11.195 5.79109C11.2377 6.11969 11.006 6.42073 10.6774 6.46347C10.3488 6.50621 10.0477 6.27448 10.005 5.94587C9.75911 4.05545 10.6256 2.2007 12.2344 1.12278C13.8402 0.0468727 15.9293 -0.0857455 17.6663 0.774663C17.812 0.846821 17.9221 0.975005 17.9716 1.12988C18.021 1.28475 18.0055 1.45305 17.9286 1.59626L14.4496 8.07242C14.2927 8.36434 13.929 8.47386 13.637 8.31704C13.3451 8.16022 13.2356 7.79645 13.3924 7.50454L16.556 1.61555Z" fill="currentColor" />
	<path fill-rule="evenodd" clip-rule="evenodd" d="M17.3237 8.66676C17.4642 8.36668 17.8214 8.23737 18.1215 8.37794C19.7998 9.16413 20.9338 10.7515 21.0826 12.563C21.2315 14.3752 20.37 16.1174 18.837 17.149C18.5694 17.329 18.2074 17.2654 18.0173 17.0048L14.1803 11.746C13.985 11.4783 14.0437 11.1029 14.3113 10.9076C14.579 10.7123 14.9544 10.771 15.1497 11.0387L18.6221 15.7979C19.5147 14.9917 19.9834 13.8393 19.8866 12.6612C19.7745 11.296 18.9173 10.0759 17.6125 9.46462C17.3124 9.32405 17.1831 8.96684 17.3237 8.66676Z" fill="currentColor" />
	<path fill-rule="evenodd" clip-rule="evenodd" d="M11.4835 9.54417C11.5239 9.87307 11.29 10.1724 10.9611 10.2128L4.51263 11.0045C4.81086 11.9815 5.50232 12.8227 6.45885 13.3282C7.60642 13.9345 8.98944 13.9792 10.1778 13.4472C10.4803 13.3119 10.8352 13.4473 10.9706 13.7497C11.106 14.0522 10.9706 14.4071 10.6681 14.5425C9.14365 15.2249 7.373 15.1684 5.89822 14.3892C4.42198 13.6091 3.41134 12.193 3.19332 10.5688C3.172 10.4099 3.21514 10.2491 3.31312 10.1222C3.4111 9.99536 3.55577 9.91297 3.71488 9.89343L10.8149 9.02175C11.1438 8.98137 11.4431 9.21527 11.4835 9.54417Z" fill="currentColor" />
</svg>
