<svg viewBox="0 0 24 24" fill="none" xmlns="http://www.w3.org/2000/svg">
	<path fill-rule="evenodd" clip-rule="evenodd" d="M19.6499 9.76101C19.6499 8.60121 20.5901 7.66101 21.7499 7.66101C22.9097 7.66101 23.8499 8.60121 23.8499 9.76101V19.511C23.8499 19.6042 23.8282 19.696 23.7866 19.7793L22.2866 22.7793C22.1849 22.9826 21.9772 23.111 21.7499 23.111C21.5226 23.111 21.3149 22.9826 21.2132 22.7793L19.7132 19.7793C19.6716 19.696 19.6499 19.6042 19.6499 19.511V9.76101ZM21.7499 8.86101C21.2528 8.86101 20.8499 9.26395 20.8499 9.76101V19.3694L21.7499 21.1694L22.6499 19.3694V9.76101C22.6499 9.26395 22.247 8.86101 21.7499 8.86101Z" fill="currentColor" />
	<path fill-rule="evenodd" clip-rule="evenodd" d="M8.9999 2.11101C7.26021 2.11101 5.8499 3.52131 5.8499 5.26101C5.8499 5.59238 5.58127 5.86101 5.2499 5.86101H2.2499C1.75285 5.86101 1.3499 6.26395 1.3499 6.76101V21.011C1.3499 21.5081 1.75285 21.911 2.2499 21.911H15.7499C16.247 21.911 16.6499 21.5081 16.6499 21.011V6.76101C16.6499 6.26395 16.247 5.86101 15.7499 5.86101H12.7499C12.4185 5.86101 12.1499 5.59238 12.1499 5.26101C12.1499 3.52131 10.7396 2.11101 8.9999 2.11101ZM4.69094 4.66101C4.98322 2.54251 6.80103 0.911011 8.9999 0.911011C11.1988 0.911011 13.0166 2.54251 13.3089 4.66101H15.7499C16.9097 4.66101 17.8499 5.60121 17.8499 6.76101V21.011C17.8499 22.1708 16.9097 23.111 15.7499 23.111H2.2499C1.0901 23.111 0.149902 22.1708 0.149902 21.011V6.76101C0.149902 5.60121 1.0901 4.66101 2.2499 4.66101H4.69094Z" fill="currentColor" />
	<path fill-rule="evenodd" clip-rule="evenodd" d="M8.9999 3.91101C8.46142 3.91101 8.0249 4.34753 8.0249 4.88601C8.0249 5.42449 8.46142 5.86101 8.9999 5.86101C9.53838 5.86101 9.9749 5.42449 9.9749 4.88601C9.9749 4.34753 9.53838 3.91101 8.9999 3.91101Z" fill="currentColor" />
</svg>
