<svg viewBox="0 0 24 24" fill="none" xmlns="http://www.w3.org/2000/svg">
	<path fill-rule="evenodd" clip-rule="evenodd" d="M4.83347 2.44607C4.89221 2.24116 5.07919 2.10001 5.29188 2.10001H22.0465C22.1996 2.10001 22.3435 2.1737 22.4331 2.29813L23.9097 4.34679C23.9954 4.4658 24.0219 4.61771 23.9814 4.75882L19.1672 21.5539C19.1085 21.7588 18.9215 21.9 18.7088 21.9H1.95419C1.8011 21.9 1.65731 21.8263 1.56763 21.702L0.09041 19.6533C0.00458489 19.5343 -0.0219084 19.3823 0.0185571 19.2412L4.83347 2.44607ZM5.65107 3.05623L1.1103 18.8951H16.8724L21.4132 3.05623H5.65107ZM22.2341 3.65482L23.0006 4.71826L18.5211 20.3454L17.7541 19.2817L22.2341 3.65482ZM16.9878 19.8513H1.41023L2.19795 20.9438H17.7756L16.9878 19.8513ZM12.7545 5.04346C12.969 4.89023 13.2668 4.94034 13.4197 5.15538L16.9365 10.1028C17.0893 10.3178 17.0393 10.6164 16.8248 10.7696C16.6103 10.9228 16.3125 10.8727 16.1596 10.6577L12.6428 5.71029C12.49 5.49524 12.54 5.19669 12.7545 5.04346ZM7.79113 6.05419C8.00565 5.90094 8.30348 5.95103 8.45636 6.16607L14.7227 14.9803C14.8756 15.1953 14.8256 15.4939 14.6111 15.6471C14.3966 15.8004 14.0988 15.7503 13.9459 15.5352L7.67952 6.72102C7.52664 6.50599 7.57661 6.20743 7.79113 6.05419ZM5.81914 11.026C6.03365 10.8728 6.33148 10.9228 6.48438 11.1379L10.0018 16.0845C10.1547 16.2996 10.1048 16.5981 9.8903 16.7514C9.67579 16.9047 9.37795 16.8546 9.22506 16.6396L5.70759 11.6929C5.5547 11.4779 5.60464 11.1793 5.81914 11.026Z" fill="currentColor" />
</svg>
