<svg viewBox="0 0 24 24" fill="none" xmlns="http://www.w3.org/2000/svg">
	<g>
		<path fill-rule="evenodd" clip-rule="evenodd" d="M23.594 0.257446C23.8655 0.44748 23.9315 0.8216 23.7415 1.09307L8.65042 22.6507C8.39702 23.0147 8.06049 23.3137 7.66911 23.5223C7.27758 23.7309 6.84207 23.8436 6.39846 23.8509C5.95485 23.8583 5.51585 23.7601 5.11763 23.5644C4.71957 23.3689 4.37365 23.0816 4.10836 22.7262L0.26996 17.609C0.071121 17.3439 0.124823 16.9678 0.389908 16.769C0.654992 16.5702 1.03108 16.6239 1.22992 16.8889L5.06982 22.0082C5.22144 22.2114 5.41917 22.3756 5.64672 22.4874C5.87427 22.5992 6.12513 22.6553 6.37862 22.6511C6.63211 22.6469 6.88098 22.5825 7.10471 22.4633C7.32845 22.344 7.52064 22.1733 7.66546 21.9652L22.7584 0.404889C22.9484 0.133424 23.3226 0.067411 23.594 0.257446Z" fill="currentColor" />
	</g>
	<defs>
		<clipPath id="clip0_372_4364">
			<rect fill="white" />
		</clipPath>
	</defs>
</svg>
