<svg viewBox="0 0 24 24" fill="none" xmlns="http://www.w3.org/2000/svg">
	<path fill-rule="evenodd" clip-rule="evenodd" d="M19.9395 16.7655C18.7202 16.5387 17.529 17.2781 17.1912 18.4714C17.1328 18.6778 16.9687 18.8373 16.7608 18.8898C16.5528 18.9423 16.3327 18.8798 16.1833 18.7259C15.6611 18.1877 14.8416 18.0695 14.1884 18.438C13.5353 18.8065 13.2129 19.5691 13.4035 20.2944C13.5941 21.0197 14.2498 21.5252 14.9997 21.525H19.4999C20.7401 21.5253 21.7763 20.5806 21.8903 19.3457C22.0044 18.1108 21.1587 16.9924 19.9395 16.7655ZM16.3572 17.369C17.0945 16.0475 18.6117 15.2979 20.159 15.5858C21.9879 15.926 23.2563 17.6036 23.0853 19.456C22.9142 21.3084 21.3601 22.7253 19.4999 22.725M16.3572 17.369C15.5121 16.9112 14.4698 16.9014 13.5987 17.3929C12.4706 18.0294 11.9136 19.3467 12.2429 20.5994C12.5721 21.8521 13.7047 22.7253 14.9999 22.725H19.4999" fill="currentColor" />
	<path fill-rule="evenodd" clip-rule="evenodd" d="M0.149902 1.87502C0.149902 1.54365 0.418532 1.27502 0.749902 1.27502H3.7499C3.96066 1.27502 4.15596 1.3856 4.2644 1.56633L6.33962 5.02502H20.6249C21.4802 5.02502 22.3005 5.3648 22.9053 5.9696C23.5101 6.57441 23.8499 7.3947 23.8499 8.25002C23.8499 10.0311 22.406 11.475 20.6249 11.475H15.9558L10.5783 15.6576C10.1713 15.9737 9.61948 16.0308 9.15661 15.8043C8.69374 15.5778 8.40016 15.1076 8.3999 14.5923V11.475H5.2499C2.43325 11.475 0.149902 9.19168 0.149902 6.37502V1.87502ZM1.3499 6.37502C1.3499 8.52893 3.09599 10.275 5.2499 10.275H8.9999C9.33127 10.275 9.5999 10.5437 9.5999 10.875V14.5917C9.59993 14.649 9.63255 14.7012 9.68398 14.7264C9.73532 14.7515 9.79645 14.7453 9.84165 14.7103L15.3815 10.4014C15.4869 10.3195 15.6165 10.275 15.7499 10.275H20.6249C21.7433 10.275 22.6499 9.3684 22.6499 8.25002C22.6499 7.71296 22.4366 7.19789 22.0568 6.81813C21.677 6.43837 21.162 6.22502 20.6249 6.22502H5.9999C5.78914 6.22502 5.59384 6.11444 5.48541 5.93372L3.41019 2.47502H1.3499V6.37502Z" fill="currentColor" />
</svg>
