<svg xmlns="http://www.w3.org/2000/svg" viewBox="0 0 25 25" fill="none"><g clip-path="url(#a)"><path stroke="currentColor" stroke-linecap="round" stroke-linejoin="round" stroke-width="2" d="M21.883 1.357H3.026c-.947 0-1.714.768-1.714 1.714v18.857c0 .947.767 1.715 1.714 1.715h18.857c.947 0 1.715-.768 1.715-1.715V3.072c0-.946-.768-1.714-1.715-1.714Z"/><path stroke="currentColor" stroke-linecap="round" stroke-linejoin="round" stroke-width="2" d="M9.883 9.929a2.571 2.571 0 1 1 2.572 2.571v1.714"/><path fill="currentColor" d="M12.455 16.786a1.285 1.285 0 1 0 1.286 1.285 1.303 1.303 0 0 0-1.286-1.285Z"/></g><defs><clipPath id="a"><path fill="#fff" d="M.455.5h24v24h-24z"/></clipPath></defs></svg>