<svg viewBox="0 0 26 26" fill="none" xmlns="http://www.w3.org/2000/svg">
<path fill-rule="evenodd" clip-rule="evenodd" d="M0.73999 7.75C0.73999 3.88401 3.874 0.75 7.73999 0.75H18.24C22.106 0.75 25.24 3.88401 25.24 7.75V18.25C25.24 22.116 22.106 25.25 18.24 25.25H7.73999C3.874 25.25 0.73999 22.116 0.73999 18.25V7.75ZM7.73999 2.75C4.97857 2.75 2.73999 4.98858 2.73999 7.75V18.25C2.73999 21.0114 4.97857 23.25 7.73999 23.25H18.24C21.0014 23.25 23.24 21.0114 23.24 18.25V7.75C23.24 4.98858 21.0014 2.75 18.24 2.75H7.73999Z" fill="currentColor"/>
<path fill-rule="evenodd" clip-rule="evenodd" d="M6.98999 13C6.98999 9.68629 9.67628 7 12.99 7C16.3037 7 18.99 9.68629 18.99 13C18.99 16.3137 16.3037 19 12.99 19C9.67628 19 6.98999 16.3137 6.98999 13ZM12.99 9C10.7809 9 8.98999 10.7909 8.98999 13C8.98999 15.2091 10.7809 17 12.99 17C15.1991 17 16.99 15.2091 16.99 13C16.99 10.7909 15.1991 9 12.99 9Z" fill="currentColor"/>
<path fill-rule="evenodd" clip-rule="evenodd" d="M19.84 5.59136C19.7073 5.4726 19.5321 5.40039 19.34 5.40039C18.9258 5.40039 18.59 5.73618 18.59 6.15039C18.59 6.84075 19.1496 7.40039 19.84 7.40039C20.5303 7.40039 21.09 6.84075 21.09 6.15039C21.09 5.73618 20.7542 5.40039 20.34 5.40039C20.1479 5.40039 19.9727 5.4726 19.84 5.59136Z" fill="currentColor"/>
<path fill-rule="evenodd" clip-rule="evenodd" d="M19.84 6.70942C19.9727 6.82818 20.1479 6.90039 20.34 6.90039C20.7542 6.90039 21.09 6.5646 21.09 6.15039C21.09 5.46003 20.5303 4.90039 19.84 4.90039C19.1496 4.90039 18.59 5.46003 18.59 6.15039C18.59 6.5646 18.9258 6.90039 19.34 6.90039C19.5321 6.90039 19.7073 6.82818 19.84 6.70942Z" fill="currentColor"/>
</svg>
