<svg viewBox="0 0 26 24" fill="none" xmlns="http://www.w3.org/2000/svg">
<path fill-rule="evenodd" clip-rule="evenodd" d="M4.25601 2.37989C3.42942 2.38205 2.76001 3.05279 2.76001 3.87988C2.76001 4.70831 3.43158 5.37988 4.26001 5.37988C5.03609 5.37988 5.67451 4.7905 5.7521 4.03491C5.7441 3.98393 5.74001 3.9321 5.74001 3.87985C5.74004 3.05742 5.0779 2.38861 4.25601 2.37989ZM7.73225 3.64492C7.7504 3.72027 7.76001 3.79896 7.76001 3.87988C7.76001 5.81288 6.19301 7.37988 4.26001 7.37988C2.32701 7.37988 0.76001 5.81288 0.76001 3.87988C0.76001 1.94689 2.32701 0.379883 4.26001 0.379883H4.26801C6.1111 0.394628 7.61208 1.83203 7.73225 3.64492ZM18.9 7.68988C20.7507 7.68988 22.3886 8.38652 23.5446 9.78535C24.6827 11.1625 25.27 13.1167 25.27 15.4999V22.6299C25.27 23.1822 24.8223 23.6299 24.27 23.6299H18.9C18.3477 23.6299 17.9 23.1822 17.9 22.6299V15.3799L17.9 15.3752C17.9014 15.0719 17.782 14.7806 17.568 14.5657C17.3786 14.3753 17.1288 14.2588 16.8635 14.2346C16.8295 14.2381 16.795 14.2399 16.76 14.2399C16.1304 14.2399 15.62 14.7503 15.62 15.3799V22.6299C15.62 23.1822 15.1723 23.6299 14.62 23.6299H9.51001C8.95773 23.6299 8.51001 23.1822 8.51001 22.6299V8.69988C8.51001 8.1476 8.95773 7.69988 9.51001 7.69988H14.62C15.0935 7.69988 15.4902 8.029 15.5937 8.47096C16.6136 7.97489 17.7372 7.70491 18.887 7.68997L18.9 7.68988ZM13.62 9.69988H10.51V21.6299H13.62V15.3799C13.62 13.7031 14.9343 12.3333 16.5889 12.2445C16.6445 12.2349 16.7017 12.2299 16.76 12.2299C17.5953 12.2299 18.3962 12.5627 18.9855 13.1547C19.5743 13.7463 19.9033 14.5478 19.9 15.3823L19.9 15.3846L18.9 15.3799H19.9V15.3823V21.6299H23.27V15.4999C23.27 13.4231 22.7574 11.9723 22.0029 11.0594C21.2677 10.1697 20.2228 9.69146 18.9065 9.68989C18.9087 9.68986 18.9108 9.68983 18.913 9.6898L18.9 8.68988V9.68988C18.9022 9.68988 18.9044 9.68988 18.9065 9.68989C17.5718 9.70873 16.285 10.1906 15.2661 11.0531C14.9689 11.3047 14.5527 11.3609 14.1994 11.1971C13.8461 11.0333 13.62 10.6793 13.62 10.2899V9.69988ZM0.81001 8.69988C0.81001 8.1476 1.25772 7.69988 1.81001 7.69988H6.67001C7.22229 7.69988 7.67001 8.1476 7.67001 8.69988V22.6299C7.67001 23.1822 7.22229 23.6299 6.67001 23.6299H1.81001C1.25772 23.6299 0.81001 23.1822 0.81001 22.6299V8.69988ZM2.81001 9.69988V21.6299H5.67001V9.69988H2.81001Z" fill="currentColor"/>
</svg>
