<svg viewBox="0 0 17 17" fill="none" xmlns="http://www.w3.org/2000/svg">
<path fill-rule="evenodd" clip-rule="evenodd" d="M14.7675 3.27755V3.27755L2.90398 8.188V8.188C2.86339 8.20487 2.83848 8.24632 2.84274 8.29007C2.847 8.33385 2.87937 8.3697 2.92249 8.3784V8.3784L8.38025 9.47379C8.53856 9.50556 8.66225 9.6294 8.69382 9.78775L9.78234 15.2468C9.79097 15.29 9.82679 15.3224 9.87058 15.3267C9.91431 15.3311 9.95572 15.3063 9.97266 15.2658V15.2658L14.8981 3.4083V3.4083C14.9136 3.37095 14.905 3.3279 14.8765 3.29929C14.8479 3.27069 14.8049 3.26213 14.7675 3.27755ZM14.4617 2.53832C14.7981 2.39914 15.1852 2.47636 15.4425 2.73396C15.6998 2.99157 15.7765 3.3788 15.6369 3.71505L10.7115 15.5727C10.5594 15.9383 10.1861 16.1618 9.79202 16.1229C9.39794 16.084 9.07557 15.7921 8.99789 15.4038L7.96141 10.2057L2.76485 9.16272C2.37665 9.08454 2.0849 8.76176 2.04651 8.36763C2.00812 7.9735 2.23185 7.60058 2.59767 7.44896L14.4617 2.53832Z" fill="currentColor"/>
</svg>

