<svg viewBox="0 0 32 32" fill="none" xmlns="http://www.w3.org/2000/svg">
<path fill-rule="evenodd" clip-rule="evenodd" d="M21.1855 3.59998C21.4857 3.59998 21.7291 3.85082 21.7291 4.16024V9.35409H28.9281C29.2283 9.35409 29.4717 9.60493 29.4717 9.91436V24.431H31.0563C31.3565 24.431 31.5999 24.6819 31.5999 24.9913C31.5999 25.3007 31.3565 25.5516 31.0563 25.5516H21.8831C21.6239 27.1676 20.2618 28.4 18.6205 28.4C17.6215 28.4 16.7259 27.9434 16.1195 27.2217C16.0436 27.2632 15.9569 27.2868 15.8649 27.2868H9.05697C8.58143 27.9614 7.80993 28.4 6.93905 28.4C6.06816 28.4 5.29666 27.9614 4.82113 27.2868H2.92876C1.53268 27.2868 0.399902 26.1192 0.399902 24.6803V19.8347C0.399902 18.3957 1.53268 17.2281 2.92876 17.2281H5.54577V11.2485C5.54577 10.9391 5.78914 10.6883 6.08934 10.6883C6.38955 10.6883 6.63292 10.9391 6.63292 11.2485V17.2363H7.08993C8.36645 17.2363 9.59893 17.7512 10.5112 18.6727L10.5119 18.6734L13.5834 21.7492C13.7987 21.9648 13.8037 22.3196 13.5945 22.5415C13.3853 22.7634 13.0412 22.7685 12.8258 22.5529L9.75261 19.4753L9.75085 19.4735C9.04319 18.7585 8.08423 18.3569 7.08993 18.3569H5.58905C5.55731 18.3569 5.5262 18.3541 5.49595 18.3487H2.92876C2.13309 18.3487 1.48705 19.0146 1.48705 19.8347V24.6803C1.48705 25.5004 2.13309 26.1663 2.92876 26.1663H4.36123C4.33599 26.0159 4.32283 25.8612 4.32283 25.7034C4.32283 24.2141 5.49415 23.0068 6.93905 23.0068C8.38394 23.0068 9.55526 24.2141 9.55526 25.7034C9.55526 25.8612 9.54211 26.0159 9.51687 26.1663H15.5151C15.3846 25.8 15.3134 25.4042 15.3134 24.9913C15.3134 23.5309 16.2044 22.285 17.4567 21.7996L14.6516 11.7306C14.6511 11.729 14.6507 11.7273 14.6502 11.7257C14.6499 11.7244 14.6495 11.7231 14.6492 11.7218C14.3325 10.5114 13.2627 9.67249 12.0452 9.67249H5.0967C4.79649 9.67249 4.55313 9.42165 4.55313 9.11222C4.55313 8.80279 4.79649 8.55195 5.0967 8.55195H12.0452C13.7485 8.55195 15.2505 9.7245 15.6976 11.4255L18.5277 21.5839C18.5585 21.5831 18.5895 21.5826 18.6205 21.5826C19.3818 21.5826 20.083 21.8477 20.6419 22.2933V4.16024C20.6419 3.85082 20.8853 3.59998 21.1855 3.59998ZM20.8404 24.9913C20.8404 23.7276 19.8465 22.7032 18.6205 22.7032C17.3944 22.7032 16.4005 23.7276 16.4005 24.9913C16.4005 26.255 17.3944 27.2794 18.6205 27.2794C19.8465 27.2794 20.8404 26.255 20.8404 24.9913ZM21.9276 24.431V20.5259H28.3845V24.431H21.9276ZM28.3845 19.4054V15.5003H21.9276V19.4054H28.3845ZM21.9276 14.3797H28.3845V10.4746H21.9276V14.3797ZM6.93905 24.1274C6.09457 24.1274 5.40998 24.833 5.40998 25.7034C5.40998 26.5738 6.09457 27.2794 6.93905 27.2794C7.78353 27.2794 8.46812 26.5738 8.46812 25.7034C8.46812 24.833 7.78353 24.1274 6.93905 24.1274Z" fill="currentColor" stroke="currentColor" stroke-width="0.4" stroke-linecap="round" stroke-linejoin="round"/>
</svg>
