<svg xmlns="http://www.w3.org/2000/svg" viewBox="0 0 25 24" fill="none">
<mask id="a" fill="#fff">
<path  fill-rule="evenodd" d="M6.134 11.874a1 1 0 0 1 1.303.55l3.638 8.946a1 1 0 0 0 1.299.554 1 1 0 0 0 .553-1.299l-2.361-5.862a1 1 0 1 1 1.855-.748l2.362 5.864a3 3 0 0 1-1.662 3.9l-.374-.927.373.928a3 3 0 0 1-3.9-1.66v-.002l-3.635-8.941a1 1 0 0 1 .55-1.303Z" clip-rule="evenodd"/>
<path fill-rule="evenodd" d="M20.262.815a1 1 0 0 1-.65 1.257L4.305 6.952l-.019.007a1.82 1.82 0 0 0-1.29 1.936 1 1 0 0 1 0 .21 1.82 1.82 0 0 0 1.29 1.937l.019.005 15.309 4.881a1 1 0 1 1-.608 1.906l-15.3-4.878A3.82 3.82 0 0 1 .996 9a3.82 3.82 0 0 1 2.709-3.955l15.3-4.879a1 1 0 0 1 1.257.65Z" clip-rule="evenodd"/>
<path fill-rule="evenodd" d="M18.066 3.79C17.426 5.072 17 6.912 17 9s.425 3.928 1.066 5.21C18.736 15.55 19.478 16 20 16s1.263-.449 1.934-1.79C22.574 12.928 23 11.088 23 9s-.425-3.928-1.066-5.21C21.264 2.45 20.522 2 20 2s-1.263.449-1.934 1.79Zm-1.789-.894C17.054 1.342 18.313 0 20 0c1.688 0 2.946 1.342 3.723 2.896C24.53 4.51 25 6.669 25 9c0 2.33-.47 4.49-1.277 6.104C22.946 16.658 21.688 18 20 18c-1.687 0-2.946-1.342-3.723-2.896C15.47 13.49 15 11.331 15 9c0-2.33.47-4.49 1.277-6.104Z" clip-rule="evenodd"/>
<path d="M21 9a2.99 2.99 0 0 0-2.658-2.966A12.552 12.552 0 0 0 18 9c-.004.999.11 1.995.342 2.966A2.99 2.99 0 0 0 21 9Z"/></mask><path fill="currentColor" d="m7.437 12.424-.926.376.926-.377Zm3.638 8.946.927-.374-.001-.002-.926.376Zm.535.546.392-.92-.392.92Zm.764.008.372.928h.003l-.375-.928Zm.545-.535-.92-.392.92.392Zm-.92-.39a1 1 0 1 0 1.856-.747L12 20.999Zm-1.434-6.236-.927.373.928-.373Zm.554-1.302-.373-.927.373.927Zm1.302.554-.928.374.928-.374Zm2.362 5.864.928-.372v-.001l-.928.373Zm-.024 2.294-.92-.392.92.392ZM13.12 23.78l-.927.373a1 1 0 0 0 1.301.554l-.374-.928Zm-.374-.928.928-.374a1 1 0 0 0-1.856.747l.928-.373Zm.373.928.372.928a1 1 0 0 0 .556-1.3l-.928.372Zm-2.294-.024-.392.92.392-.92ZM9.22 22.119l-.927.375.927-.375Zm0 0 .927-.375-.001-.003-.926.377Zm-3.635-8.942-.927.376.927-.376ZM19.613 2.072l-.304-.953.304.953Zm.649-1.257.953-.303-.953.303ZM4.304 6.953l.294.955.01-.002-.304-.953Zm-.019.006.286.958.009-.003-.295-.955Zm-.995.734.832.555-.832-.555Zm-.295 1.202L2 9l.995-.105Zm0 .21L2 9l.995.105Zm.295 1.202-.832.554.832-.554Zm.995.735.295-.956-.01-.003-.285.959Zm.019.005.304-.953-.01-.002-.294.955Zm15.309 4.881.304-.952-.304.952Zm.649 1.257.953.304-.953-.304Zm-1.257.649-.303.953.303-.953Zm-15.3-4.878.304-.953a.888.888 0 0 0-.016-.005l-.288.958Zm-2.079-1.54.832-.555-.832.555ZM.996 9l.997.078a1 1 0 0 0 0-.156L.996 9Zm.63-2.416.832.555-.832-.555Zm2.079-1.54.288.958a.978.978 0 0 0 .016-.005l-.304-.952Zm15.3-4.878-.303-.952.303.952Zm-.939 3.624-.894-.447.894.447Zm0 10.42.895-.448-.895.448Zm3.868-10.42.894-.447-.894.447Zm-5.657-.894-.894-.447.894.447Zm7.446 0-.895.447.895-.447Zm0 12.208-.895-.447.895.447Zm-7.446 0 .895-.447-.895.447ZM21 9l1 .002v-.004L21 9Zm-.763-1.99-.745.667.745-.667Zm-1.895-.976.111-.994-.879-.098-.205.86.973.232ZM18 9l1 .004v-.008L18 9Zm.342 2.966-.973.232.205.86.88-.098-.112-.994Zm-9.978.08a2 2 0 0 0-2.606-1.099L6.51 12.8l1.853-.753Zm3.638 8.95-1.855.748a2 2 0 0 0 1.07 1.092l.785-1.84Zm0 0-.784 1.84a2 2 0 0 0 1.528.017l-.744-1.857Zm-.003.001.75 1.854a2 2 0 0 0 1.09-1.07l-1.84-.784Zm0 0 1.84.784a2 2 0 0 0 .017-1.528l-1.857.744Zm-2.361-5.86L12 20.998l1.855-.747-2.362-5.863-1.855.747Zm1.108-2.603a2 2 0 0 0-1.108 2.602l1.855-.747-.747-1.855Zm2.602 1.108a2 2 0 0 0-2.602-1.108l.747 1.855 1.855-.747Zm2.33 8.923a4 4 0 0 0 .033-3.058l-1.856.745a2 2 0 0 1-.016 1.53l1.84.783Zm-2.183 2.142a4 4 0 0 0 2.184-2.142l-1.84-.784a2 2 0 0 1-1.092 1.071l.748 1.855Zm-1.675-1.48.374.927 1.854-.748-.373-.928-1.855.748Zm2.228.18-.373-.927-1.856.745.373.928 1.856-.745Zm-3.614 1.269a4 4 0 0 0 3.058.032l-.745-1.856a2 2 0 0 1-1.53-.016l-.783 1.84Zm-2.141-2.182a4 4 0 0 0 2.14 2.182l.785-1.84a2 2 0 0 1-1.07-1.091l-1.855.749Zm0-.002v.002l1.855-.749-.001-.001-1.855.748Zm-3.635-8.939 3.635 8.942 1.853-.754-3.635-8.94-1.853.752Zm1.1-2.606a2 2 0 0 0-1.1 2.606l1.853-.753-.753-1.853ZM12 20.994l-3.637-8.947-1.853.753 3.637 8.947 1.853-.753Zm3.71-1.488-2.363-5.864-1.855.747 2.362 5.864 1.856-.747Zm4.206-16.481A2 2 0 0 0 21.215.512l-1.906.607.608 1.906Zm-15.31 4.88 15.31-4.88-.608-1.906L4 6l.608 1.906Zm-.027.01.018-.007-.589-1.91-.018.005.589 1.911Zm-.458.333a.82.82 0 0 1 .449-.331L4 6A2.82 2.82 0 0 0 2.457 7.14l1.664 1.11Zm-.133.541a.82.82 0 0 1 .133-.54l-1.664-1.11A2.82 2.82 0 0 0 2 9l1.989-.21Zm0 .422a2 2 0 0 0 0-.422L2 9l1.989.21Zm.133.541a.82.82 0 0 1-.133-.541L2 9a2.82 2.82 0 0 0 .458 1.86l1.664-1.109Zm.449.331a.82.82 0 0 1-.449-.33L2.458 10.86c.365.548.91.951 1.542 1.14l.57-1.918Zm.027.009-.018-.006-.59 1.911.02.006.588-1.911Zm15.319 4.884-15.31-4.881L4 12l15.31 4.881.607-1.905Zm1.298 2.513a2 2 0 0 0-1.298-2.513l-.608 1.905 1.906.608ZM18.7 18.787a2 2 0 0 0 2.514-1.298l-1.906-.608-.608 1.906Zm-15.3-4.879 15.3 4.879.608-1.906-15.3-4.878-.608 1.905ZM.794 11.971a4.82 4.82 0 0 0 2.623 1.942l.576-1.915a2.82 2.82 0 0 1-1.535-1.137l-1.664 1.11Zm-.795-3.049a4.82 4.82 0 0 0 .795 3.049l1.664-1.11a2.82 2.82 0 0 1-.465-1.783l-1.994-.156ZM.794 6.03a4.82 4.82 0 0 0-.795 3.049l1.994-.156a2.82 2.82 0 0 1 .465-1.783L.794 6.029Zm2.623-1.942A4.82 4.82 0 0 0 .794 6.029l1.664 1.11a2.82 2.82 0 0 1 1.535-1.137l-.576-1.915ZM18.701-.786l-15.3 4.878.608 1.905 15.3-4.878-.608-1.905ZM21.215.512A2 2 0 0 0 18.7-.786l.608 1.905 1.906-.607ZM18 9c0-1.966.403-3.647.96-4.762l-1.788-.895C16.448 4.791 16 6.791 16 9h2Zm.96 4.762C18.404 12.647 18 10.966 18 9h-2c0 2.21.448 4.21 1.172 5.657l1.788-.895ZM20 15c.055 0-.427-.011-1.04-1.238l-1.788.895C17.9 16.114 18.902 17 20 17v-2Zm1.04-1.238C20.427 14.99 19.945 15 20 15v2c1.098 0 2.1-.886 2.828-2.343l-1.788-.895ZM22 9c0 1.966-.403 3.647-.96 4.762l1.788.895C23.552 13.209 24 11.209 24 9h-2Zm-.96-4.762C21.597 5.353 22 7.034 22 9h2c0-2.21-.448-4.21-1.172-5.657l-1.788.895ZM20 3c-.055 0 .427.012 1.04 1.238l1.788-.895C22.1 1.886 21.098 1 20 1v2Zm-1.04 1.238C19.573 3.012 20.055 3 20 3V1c-1.098 0-2.1.886-2.828 2.343l1.788.895ZM20-1C17.727-1 16.21.793 15.383 2.45l1.789.894C17.898 1.891 18.899 1 20 1v-2Zm4.617 3.449C23.79.793 22.274-1 20-1v2c1.101 0 2.102.89 2.828 2.343l1.79-.894ZM26 9c0-2.452-.493-4.771-1.383-6.551l-1.789.894C23.552 4.791 24 6.791 24 9h2Zm-1.383 6.551c.89-1.78 1.383-4.099 1.383-6.55h-2c0 2.208-.448 4.208-1.172 5.656l1.79.894ZM20 19.001c2.274 0 3.79-1.794 4.617-3.45l-1.789-.894C22.102 16.11 21.101 17 20 17v2Zm-4.617-3.45c.828 1.656 2.344 3.45 4.617 3.45v-2c-1.101 0-2.102-.892-2.828-2.344l-1.79.894ZM14 9.001c0 2.451.493 4.77 1.383 6.55l1.789-.894C16.448 13.209 16 11.209 16 9h-2Zm1.383-6.552C14.493 4.229 14 6.548 14 9h2c0-2.21.448-4.21 1.172-5.657l-1.79-.894ZM22 8.999a3.99 3.99 0 0 0-1.018-2.656l-1.49 1.334c.326.365.507.836.508 1.325l2-.004Zm-1.018-2.656a3.99 3.99 0 0 0-2.529-1.303l-.222 1.988a1.99 1.99 0 0 1 1.261.65l1.49-1.335Zm-3.613-.54A13.557 13.557 0 0 0 17 9.003l2-.008c-.004-.92.102-1.836.315-2.73l-1.946-.464ZM17 8.995c-.005 1.078.12 2.153.37 3.202l1.945-.464A11.553 11.553 0 0 1 19 9.004l-2-.008Zm1.453 3.964a3.99 3.99 0 0 0 2.529-1.303l-1.49-1.334a1.99 1.99 0 0 1-1.261.65l.222 1.987Zm2.529-1.303A3.99 3.99 0 0 0 22 9.002l-2-.004c0 .49-.182.96-.508 1.325l1.49 1.334Z" mask="url(#a)"/></svg>