<svg viewBox="0 0 32 32" fill="none" xmlns="http://www.w3.org/2000/svg">
<g >
<path d="M15.9125 10.4051C10.5784 10.4051 6.40002 8.12005 6.40002 5.20198C6.40002 2.28391 10.5784 0 15.9125 0C21.2466 0 25.4249 2.28506 25.4249 5.20198C25.4249 8.1189 21.2466 10.404 15.9125 10.404V10.4051ZM15.9125 1.57277C13.7032 1.57277 11.6376 2.00244 10.097 2.78136C8.74712 3.46492 7.9728 4.34724 7.9728 5.20313C7.9728 6.05902 8.74712 6.94134 10.097 7.6249C11.6376 8.40497 13.7021 8.83349 15.9125 8.83349C18.1229 8.83349 20.1873 8.40382 21.7279 7.6249C23.0778 6.94134 23.8522 6.05902 23.8522 5.20313C23.8522 4.34724 23.0778 3.46492 21.7279 2.78136C20.1873 2.00129 18.1229 1.57277 15.9125 1.57277Z" fill="currentColor"/>
<path d="M15.9113 31.9998C10.5772 31.9998 6.40002 29.7148 6.40002 26.7979V5.20183C6.40002 4.76756 6.75157 4.41602 7.18584 4.41602C7.6201 4.41602 7.97165 4.76756 7.97165 5.20183V26.7967C7.97165 27.6526 8.74597 28.5349 10.0959 29.2185C11.6365 29.9985 13.7009 30.4271 15.9113 30.4271C18.1217 30.4271 20.1862 29.9974 21.7268 29.2185C23.0767 28.5349 23.851 27.6526 23.851 26.7967V8.99187C23.851 8.55761 24.2026 8.20606 24.6368 8.20606C25.0711 8.20606 25.4226 8.55761 25.4226 8.99187V26.7967C25.4226 29.7136 21.2443 31.9987 15.9102 31.9987L15.9113 31.9998Z" fill="currentColor"/>
<path d="M15.9113 24.7114C10.5784 24.7114 6.40002 22.4264 6.40002 19.5094C6.40002 19.0752 6.75157 18.7236 7.18584 18.7236C7.6201 18.7236 7.97165 19.0752 7.97165 19.5094C7.97165 20.3653 8.74597 21.2477 10.0959 21.9312C11.6365 22.7113 13.7009 23.1398 15.9113 23.1398C18.1217 23.1398 20.1862 22.7101 21.7268 21.9312C23.0767 21.2477 23.851 20.3653 23.851 19.5094C23.851 19.0752 24.2026 18.7236 24.6368 18.7236C25.0711 18.7236 25.4226 19.0752 25.4226 19.5094C25.4226 22.4264 21.2443 24.7114 15.9102 24.7114H15.9113Z" fill="currentColor"/>
<path d="M15.9113 17.9097C10.5784 17.9097 6.40002 15.6246 6.40002 12.7077C6.40002 12.2734 6.75157 11.9219 7.18584 11.9219C7.6201 11.9219 7.97165 12.2734 7.97165 12.7077C7.97165 13.5636 8.74597 14.4459 10.0959 15.1295C11.6365 15.9095 13.7009 16.338 15.9113 16.338C18.1217 16.338 20.1862 15.9084 21.7268 15.1295C23.0767 14.4459 23.851 13.5636 23.851 12.7077C23.851 12.2734 24.2026 11.9219 24.6368 11.9219C25.0711 11.9219 25.4226 12.2734 25.4226 12.7077C25.4226 15.6246 21.2443 17.9097 15.9102 17.9097H15.9113Z" fill="currentColor"/>
<path d="M11.6009 5.99317C10.5543 5.99317 9.79492 5.44861 9.79492 4.69727C9.79492 3.94592 10.5543 3.40137 11.6009 3.40137C12.6475 3.40137 13.4069 3.94592 13.4069 4.69727C13.4069 5.44861 12.6475 5.99317 11.6009 5.99317Z" fill="currentColor"/>
</g>
</svg>
