<svg viewBox="0 0 16 16" fill="none" xmlns="http://www.w3.org/2000/svg">
<path d="M15.0215 11.3359L13.3869 9.70057C13.0353 9.34839 12.5581 9.15047 12.0605 9.15047C11.5629 9.15047 11.0857 9.34839 10.7342 9.70057L10.4009 10.0339C8.75801 8.65741 7.24051 7.1379 5.86618 5.49324L6.19952 5.15991C6.93033 4.42695 6.93033 3.24086 6.19952 2.50791L4.56152 0.874573C3.81866 0.164897 2.64904 0.164897 1.90618 0.874573L1.01285 1.77191C0.128067 2.66306 -0.0110304 4.05236 0.679518 5.10124C3.34291 9.11446 6.78216 12.5544 10.7949 15.2186C11.8468 15.9024 13.2325 15.7639 14.1282 14.8852L15.0249 13.9879C15.377 13.6366 15.5748 13.1596 15.5748 12.6622C15.5748 12.1648 15.377 11.6879 15.0249 11.3366L15.0215 11.3359Z" fill="currentColor"/>
</svg>
