<svg viewBox="0 0 32 32" fill="none" xmlns="http://www.w3.org/2000/svg">
<path fill-rule="evenodd" clip-rule="evenodd" d="M8.9556 13.6089C9.3925 13.5431 9.80001 13.844 9.86578 14.2809C10.3011 17.1721 12.8956 19.3598 16.004 19.3598C19.1125 19.3598 21.707 17.1721 22.1423 14.2809C22.2081 13.844 22.6156 13.5431 23.0525 13.6089C23.4894 13.6747 23.7902 14.0822 23.7244 14.5191C23.1642 18.2405 19.8553 20.9598 16.004 20.9598C12.1528 20.9598 8.84388 18.2405 8.28361 14.5191C8.21784 14.0822 8.5187 13.6747 8.9556 13.6089Z" fill="currentColor"/>
<path fill-rule="evenodd" clip-rule="evenodd" d="M15.9875 24.3762C11.4123 24.3043 7.13533 26.5016 4.66332 30.1676C4.4163 30.5339 3.91909 30.6306 3.55277 30.3836C3.18644 30.1366 3.08972 29.6394 3.33674 29.273C6.11923 25.1466 10.9076 22.7003 16 22.7762C21.0925 22.7003 25.8808 25.1466 28.6633 29.273C28.9103 29.6394 28.8136 30.1366 28.4473 30.3836C28.081 30.6306 27.5838 30.5339 27.3367 30.1676C24.8647 26.5016 20.5877 24.3043 16.0126 24.3762H15.9875Z" fill="currentColor"/>
<path fill-rule="evenodd" clip-rule="evenodd" d="M16 22.7762C16.4419 22.7762 16.8 23.1345 16.8 23.5763V29.76C16.8 30.2018 16.4419 30.56 16 30.56C15.5582 30.56 15.2 30.2018 15.2 29.76V23.5763C15.2 23.1345 15.5582 22.7762 16 22.7762Z" fill="currentColor"/>
<path fill-rule="evenodd" clip-rule="evenodd" d="M15.6538 0.238755C15.8727 0.133713 16.1274 0.133713 16.3462 0.238755L18.658 1.34839C18.658 1.34843 18.6579 1.34835 18.658 1.34839C20.8713 2.40975 23.41 2.67793 25.8136 2.10199C26.069 2.04079 26.3382 2.10887 26.5339 2.28413C26.7295 2.4594 26.8266 2.71953 26.7937 2.98012C26.5236 5.12116 25.8062 7.1863 24.6859 9.05183C24.5413 9.29265 24.2809 9.43997 24 9.43997H8.00003C7.71897 9.43997 7.45852 9.29248 7.31396 9.05144C6.19498 7.18566 5.47773 5.12104 5.20638 2.98058C5.17334 2.71993 5.27039 2.45967 5.46602 2.28429C5.66166 2.10891 5.93094 2.04077 6.18644 2.10199C8.59009 2.67793 11.1285 2.40987 13.3418 1.34851C13.3419 1.34847 13.3418 1.34856 13.3418 1.34851L15.6538 0.238755ZM16 1.84736L14.0342 2.79095C11.8434 3.84158 9.38014 4.21544 6.97819 3.87858C7.26746 5.25958 7.76663 6.59443 8.46132 7.83997H23.539C24.2344 6.59466 24.7337 5.2597 25.0225 3.8785C22.6203 4.2155 20.1571 3.84178 17.9661 2.79107L16 1.84736Z" fill="currentColor"/>
<path fill-rule="evenodd" clip-rule="evenodd" d="M7.46607 8.11766C7.61804 7.94135 7.83926 7.83997 8.07203 7.83997H23.928C24.1608 7.83997 24.382 7.94135 24.534 8.11766C24.686 8.29397 24.7536 8.52773 24.7193 8.75795C24.4197 10.7673 23.0355 11.9133 21.385 12.53C19.7657 13.1351 17.7867 13.28 16 13.28C14.2133 13.28 12.2343 13.1351 10.615 12.53C8.9646 11.9133 7.58037 10.7673 7.28078 8.75795C7.24645 8.52773 7.3141 8.29397 7.46607 8.11766ZM9.1532 9.43997C9.53091 10.1688 10.2222 10.6752 11.175 11.0312C12.5164 11.5324 14.2587 11.68 16 11.68C17.7413 11.68 19.4837 11.5324 20.825 11.0312C21.7778 10.6752 22.4692 10.1688 22.8469 9.43997H9.1532Z" fill="currentColor"/>
<path fill-rule="evenodd" clip-rule="evenodd" d="M14.7 5.27997C14.7 4.54258 15.3132 3.99997 16 3.99997C16.6869 3.99997 17.3 4.54258 17.3 5.27997C17.3 6.01736 16.6869 6.55997 16 6.55997C15.3132 6.55997 14.7 6.01736 14.7 5.27997Z" fill="currentColor"/>
<path fill-rule="evenodd" clip-rule="evenodd" d="M20.2 29.76C20.2 29.3181 20.5582 28.96 21 28.96H23C23.4419 28.96 23.8 29.3181 23.8 29.76C23.8 30.2018 23.4419 30.56 23 30.56H21C20.5582 30.56 20.2 30.2018 20.2 29.76Z" fill="currentColor"/>
</svg>
