<svg xmlns="http://www.w3.org/2000/svg" viewBox="0 0 40 40" fill="none"><g fill="currentColor" clip-path="url(#a)"><path fill-rule="evenodd" d="M7.183 11.25a1.25 1.25 0 0 0-1.24 1.088l-3.097 23.75a1.25 1.25 0 0 0 1.24 1.412h9.479l-3.283-25.162a1.25 1.25 0 0 0-1.238-1.088h-1.86Zm0-2.5a3.75 3.75 0 0 0-3.719 3.265L.367 35.765A3.75 3.75 0 0 0 4.085 40h10.904a1.25 1.25 0 0 0 1.24-1.412L12.76 12.015A3.75 3.75 0 0 0 9.044 8.75h-1.86Z" clip-rule="evenodd"/><path fill-rule="evenodd" d="M22.489 10c0-.69.56-1.25 1.25-1.25h9.055a3.75 3.75 0 0 1 3.717 3.265l3.099 23.75A3.75 3.75 0 0 1 35.89 40H14.989a1.25 1.25 0 0 1 0-2.5H35.89a1.252 1.252 0 0 0 1.24-1.412l-3.099-23.75a1.25 1.25 0 0 0-1.238-1.088h-9.055c-.69 0-1.25-.56-1.25-1.25ZM7.794 10c0-.69.56-1.25 1.25-1.25h10.945a1.25 1.25 0 1 1 0 2.5H9.044c-.69 0-1.25-.56-1.25-1.25Z" clip-rule="evenodd"/><path fill-rule="evenodd" d="M22.597.476a6.25 6.25 0 0 1 8.642 5.774V17.5a1.25 1.25 0 0 1-2.5 0V6.25a3.751 3.751 0 0 0-7.5 0V17.5a1.25 1.25 0 0 1-2.5 0V6.25A6.25 6.25 0 0 1 22.597.476Z" clip-rule="evenodd"/><path d="M16.917 0a6.25 6.25 0 0 1 1.563.199A7.739 7.739 0 0 0 16.53 2.52a3.75 3.75 0 0 0-3.362 3.73V9h-2.5V6.25A6.25 6.25 0 0 1 16.917 0Z"/></g><defs><clipPath id="a"><path fill="#fff" d="M0 0h40v40H0z"/></clipPath></defs></svg>