<svg viewBox="0 0 32 32" fill="none" xmlns="http://www.w3.org/2000/svg">
<path fill-rule="evenodd" clip-rule="evenodd" d="M16 2.66667C8.6362 2.66667 2.66667 8.6362 2.66667 16C2.66667 23.3638 8.6362 29.3333 16 29.3333C23.3638 29.3333 29.3333 23.3638 29.3333 16C29.3333 8.6362 23.3638 2.66667 16 2.66667ZM0 16C0 7.16344 7.16344 0 16 0C24.8366 0 32 7.16344 32 16C32 24.8366 24.8366 32 16 32C7.16344 32 0 24.8366 0 16Z" fill="currentColor"/>
<path fill-rule="evenodd" clip-rule="evenodd" d="M8.00001 16C8.73638 16 9.33334 16.597 9.33334 17.3333C9.33334 19.1014 10.0357 20.7971 11.286 22.0474C12.5362 23.2976 14.2319 24 16 24C17.7681 24 19.4638 23.2976 20.7141 22.0474C21.9643 20.7971 22.6667 19.1014 22.6667 17.3333C22.6667 16.597 23.2636 16 24 16C24.7364 16 25.3333 16.597 25.3333 17.3333C25.3333 19.8087 24.35 22.1827 22.5997 23.933C20.8493 25.6833 18.4754 26.6667 16 26.6667C13.5247 26.6667 11.1507 25.6833 9.40034 23.933C7.65 22.1827 6.66667 19.8087 6.66667 17.3333C6.66667 16.597 7.26363 16 8.00001 16Z" fill="currentColor"/>
<path fill-rule="evenodd" clip-rule="evenodd" d="M18.5049 9.17157C19.255 8.42143 20.2725 8 21.3333 8C22.3942 8 23.4116 8.42143 24.1618 9.17157C24.9119 9.92172 25.3333 10.9391 25.3333 12C25.3333 12.7364 24.7364 13.3333 24 13.3333C23.2636 13.3333 22.6667 12.7364 22.6667 12C22.6667 11.6464 22.5262 11.3072 22.2761 11.0572C22.0261 10.8071 21.687 10.6667 21.3333 10.6667C20.9797 10.6667 20.6406 10.8071 20.3905 11.0572C20.1405 11.3072 20 11.6464 20 12C20 12.7364 19.403 13.3333 18.6667 13.3333C17.9303 13.3333 17.3333 12.7364 17.3333 12C17.3333 10.9391 17.7548 9.92172 18.5049 9.17157Z" fill="currentColor"/>
<path fill-rule="evenodd" clip-rule="evenodd" d="M7.83824 9.17157C8.58839 8.42143 9.60581 8 10.6667 8C11.7275 8 12.745 8.42143 13.4951 9.17157C14.2452 9.92172 14.6667 10.9391 14.6667 12C14.6667 12.7364 14.0697 13.3333 13.3333 13.3333C12.597 13.3333 12 12.7364 12 12C12 11.6464 11.8595 11.3072 11.6095 11.0572C11.3594 10.8071 11.0203 10.6667 10.6667 10.6667C10.313 10.6667 9.97391 10.8071 9.72386 11.0572C9.47381 11.3072 9.33334 11.6464 9.33334 12C9.33334 12.7364 8.73638 13.3333 8.00001 13.3333C7.26363 13.3333 6.66667 12.7364 6.66667 12C6.66667 10.9391 7.0881 9.92172 7.83824 9.17157Z" fill="currentColor"/>
</svg>
