<svg xmlns="http://www.w3.org/2000/svg" viewBox="0 0 24 24" fill="none"><path fill="currentColor" fill-rule="evenodd" d="M22.78 1.375a1 1 0 0 1-.155 1.406L8 14.48v3.767l1.833-2.19a1 1 0 1 1 1.534 1.284l-3.6 4.3A1 1 0 0 1 6 21v-7a1 1 0 0 1 .375-.78l15-12a1 1 0 0 1 1.406.155Z" clip-rule="evenodd"/><path fill="currentColor" fill-rule="evenodd" d="M22.64 1.231a1 1 0 0 1 .34.965l-4 20a1 1 0 0 1-1.58.604l-16-12a1 1 0 0 1 .229-1.728l20-8a1 1 0 0 1 1.01.16ZM4.024 10.268l13.307 9.98 3.326-16.634-16.633 6.654Z" clip-rule="evenodd"/></svg>