<svg viewBox="0 0 32 32" fill="none" xmlns="http://www.w3.org/2000/svg">
<path fill-rule="evenodd" clip-rule="evenodd" d="M1.33333 15.9998C1.33333 15.2635 1.93028 14.6665 2.66666 14.6665H29.3333C30.0697 14.6665 30.6667 15.2635 30.6667 15.9998V30.6665C30.6667 31.4029 30.0697 31.9998 29.3333 31.9998H2.66666C1.93028 31.9998 1.33333 31.4029 1.33333 30.6665V15.9998ZM3.99999 17.3332V29.3332H28V17.3332H3.99999Z" fill="currentColor"/>
<path fill-rule="evenodd" clip-rule="evenodd" d="M15.0572 1.72378C15.5779 1.20308 16.4221 1.20308 16.9428 1.72378L24.9428 9.72378C25.4635 10.2445 25.4635 11.0887 24.9428 11.6094C24.4221 12.1301 23.5779 12.1301 23.0572 11.6094L16 4.5522L8.9428 11.6094C8.4221 12.1301 7.57788 12.1301 7.05718 11.6094C6.53648 11.0887 6.53648 10.2445 7.05718 9.72378L15.0572 1.72378Z" fill="currentColor"/>
<path fill-rule="evenodd" clip-rule="evenodd" d="M7.99999 18.6665C8.73637 18.6665 9.33332 19.2635 9.33332 19.9998V26.6665C9.33332 27.4029 8.73637 27.9998 7.99999 27.9998C7.26361 27.9998 6.66666 27.4029 6.66666 26.6665V19.9998C6.66666 19.2635 7.26361 18.6665 7.99999 18.6665Z" fill="currentColor"/>
<path fill-rule="evenodd" clip-rule="evenodd" d="M13.3333 18.6665C14.0697 18.6665 14.6667 19.2635 14.6667 19.9998V26.6665C14.6667 27.4029 14.0697 27.9998 13.3333 27.9998C12.597 27.9998 12 27.4029 12 26.6665V19.9998C12 19.2635 12.597 18.6665 13.3333 18.6665Z" fill="currentColor"/>
<path fill-rule="evenodd" clip-rule="evenodd" d="M18.6667 18.6665C19.403 18.6665 20 19.2635 20 19.9998V26.6665C20 27.4029 19.403 27.9998 18.6667 27.9998C17.9303 27.9998 17.3333 27.4029 17.3333 26.6665V19.9998C17.3333 19.2635 17.9303 18.6665 18.6667 18.6665Z" fill="currentColor"/>
<path fill-rule="evenodd" clip-rule="evenodd" d="M24 18.6665C24.7364 18.6665 25.3333 19.2635 25.3333 19.9998V26.6665C25.3333 27.4029 24.7364 27.9998 24 27.9998C23.2636 27.9998 22.6667 27.4029 22.6667 26.6665V19.9998C22.6667 19.2635 23.2636 18.6665 24 18.6665Z" fill="currentColor"/>
<path fill-rule="evenodd" clip-rule="evenodd" d="M2.66666 12C3.40304 12 3.99999 12.597 3.99999 13.3333V16C3.99999 16.7364 3.40304 17.3333 2.66666 17.3333C1.93028 17.3333 1.33333 16.7364 1.33333 16V13.3333C1.33333 12.597 1.93028 12 2.66666 12Z" fill="currentColor"/>
<path fill-rule="evenodd" clip-rule="evenodd" d="M29.3333 12C30.0697 12 30.6667 12.597 30.6667 13.3333V16C30.6667 16.7364 30.0697 17.3333 29.3333 17.3333C28.597 17.3333 28 16.7364 28 16V13.3333C28 12.597 28.597 12 29.3333 12Z" fill="currentColor"/>
</svg>
