<svg xmlns="http://www.w3.org/2000/svg" viewBox="0 0 40 40" fill="none"><path fill="currentColor" fill-rule="evenodd" d="M0 25c0-.92.746-1.667 1.667-1.667h36.666a1.667 1.667 0 1 1 0 3.334H1.667C.747 26.667 0 25.92 0 25Z" clip-rule="evenodd"/><path fill="currentColor" fill-rule="evenodd" d="M12.101 4.806a1.667 1.667 0 0 1 2.348-.213l14.488 12.074h2.73A8.333 8.333 0 0 1 40 25v3.338a5.01 5.01 0 0 1-4.995 4.995H4.995A5.01 5.01 0 0 1 0 28.338V13.051a3.333 3.333 0 0 1 4.977-2.895c1.542.9 3.277 1.418 5.06 1.51a6.24 6.24 0 0 0 2.59-.587 1.667 1.667 0 1 1 1.412 3.019 9.576 9.576 0 0 1-4.12.9 14.525 14.525 0 0 1-6.586-1.942V28.33A1.677 1.677 0 0 0 5.003 30h29.994a1.677 1.677 0 0 0 1.67-1.67V25a5 5 0 0 0-5-5h-3.334c-.39 0-.767-.137-1.067-.386L12.315 7.154a1.667 1.667 0 0 1-.214-2.348Z" clip-rule="evenodd"/></svg>