<svg xmlns="http://www.w3.org/2000/svg" viewBox="0 0 24 24" fill="none"><g fill="currentColor" fill-rule="evenodd" clip-path="url(#a)" clip-rule="evenodd"><path d="M4 12a1 1 0 0 1 1 1v8h14v-8a1 1 0 1 1 2 0v9a1 1 0 0 1-1 1H4a1 1 0 0 1-1-1v-9a1 1 0 0 1 1-1ZM3.143 1.486A1 1 0 0 1 4 1h16a1 1 0 0 1 .858.486l3 5a1 1 0 0 1 .142.512 3.992 3.992 0 0 1-6.665 2.974A3.976 3.976 0 0 1 12 9.974 3.983 3.983 0 0 1 9.334 11a3.977 3.977 0 0 1-2.67-1.028 3.99 3.99 0 0 1-5.807-.494A3.992 3.992 0 0 1 0 6.998a1 1 0 0 1 .143-.513l3-5ZM4.566 3l-2.55 4.252a1.992 1.992 0 0 0 3.757.647 1 1 0 0 1 1.79.003 1.977 1.977 0 0 0 3.541 0 1 1 0 0 1 1.792 0 1.977 1.977 0 0 0 3.541 0 1 1 0 0 1 1.79-.003 1.992 1.992 0 0 0 3.758-.647L19.434 3H4.566Z"/><path d="M9 16a1 1 0 0 1 1-1h4a1 1 0 0 1 1 1v6a1 1 0 1 1-2 0v-5h-2v5a1 1 0 1 1-2 0v-6Z"/></g><defs><clipPath id="a"><path fill="#fff" d="M0 0h24v24H0z"/></clipPath></defs></svg>