<svg xmlns="http://www.w3.org/2000/svg" viewBox="0 0 40 40" fill="none"><g fill="currentColor" fill-rule="evenodd" clip-path="url(#a)" clip-rule="evenodd"><path d="M8.889 3.37A20 20 0 1 1 31.11 36.63 20 20 0 0 1 8.89 3.37ZM20 2.5a17.5 17.5 0 1 0 0 35 17.5 17.5 0 0 0 0-35Z"/><path d="M19.265 11.002a1.25 1.25 0 0 1 1.47 0l8.358 6.077c.438.318.621.881.455 1.396l-3.184 9.833a1.25 1.25 0 0 1-1.189.865h-10.35a1.25 1.25 0 0 1-1.19-.865l-3.183-9.833a1.25 1.25 0 0 1 .455-1.396l8.358-6.077Zm-6.155 7.566 2.624 8.105h8.532l2.624-8.105-6.89-5.01-6.89 5.01ZM11.795 1.97a1.25 1.25 0 0 1 1.735-.338L20 5.992l6.47-4.36a1.25 1.25 0 0 1 1.397 2.073l-7.168 4.832a1.25 1.25 0 0 1-1.398 0l-7.168-4.832a1.25 1.25 0 0 1-.338-1.735ZM37.272 29.53a1.25 1.25 0 0 1-1.046 1.425l-7.494 1.151-3.278 6.69a1.25 1.25 0 0 1-2.245-1.1l3.565-7.276a1.25 1.25 0 0 1 .933-.686l8.14-1.25a1.25 1.25 0 0 1 1.425 1.046ZM34.391 6.526a1.25 1.25 0 0 1 1.048 1.423l-1.13 7.439 5.263 5.241a1.25 1.25 0 1 1-1.764 1.772l-5.712-5.689a1.25 1.25 0 0 1-.353-1.073l1.225-8.065a1.25 1.25 0 0 1 1.423-1.048Z"/><path d="M20 6.25c.69 0 1.25.56 1.25 1.25v4.513a1.25 1.25 0 1 1-2.5 0V7.5c0-.69.56-1.25 1.25-1.25ZM34.1 15.277a1.25 1.25 0 0 1-.572 1.672l-4.62 2.263a1.25 1.25 0 1 1-1.1-2.245l4.62-2.263a1.25 1.25 0 0 1 1.673.573ZM5.609 6.526a1.25 1.25 0 0 1 1.423 1.048l1.226 8.065a1.25 1.25 0 0 1-.354 1.073l-5.712 5.689a1.25 1.25 0 0 1-1.764-1.772l5.263-5.241-1.13-7.439a1.25 1.25 0 0 1 1.048-1.423Z"/><path d="M5.9 15.277a1.25 1.25 0 0 1 1.672-.573l4.62 2.263a1.25 1.25 0 0 1-1.1 2.245l-4.62-2.263a1.25 1.25 0 0 1-.573-1.672ZM24.342 26.991a1.25 1.25 0 0 1 1.765.1l2.722 3.046a1.25 1.25 0 0 1-1.864 1.666l-2.722-3.047a1.25 1.25 0 0 1 .1-1.765ZM2.728 29.53a1.25 1.25 0 0 1 1.425-1.046l8.14 1.25c.405.063.753.319.933.686l3.565 7.277a1.25 1.25 0 0 1-2.245 1.1l-3.278-6.69-7.494-1.151a1.25 1.25 0 0 1-1.046-1.426Z"/><path d="M15.658 26.991c.515.46.56 1.25.1 1.765l-2.722 3.047a1.25 1.25 0 1 1-1.865-1.666l2.722-3.047a1.25 1.25 0 0 1 1.765-.099Z"/></g><defs><clipPath id="a"><path fill="#fff" d="M0 0h40v40H0z"/></clipPath></defs></svg>