<svg  viewBox="0 0 21 21" fill="none" xmlns="http://www.w3.org/2000/svg">

<path fill-rule="evenodd" clip-rule="evenodd" d="M2.1569 5.99659V9.12159H0.906901V5.99659H2.1569Z" fill="currentColor"/>
<path fill-rule="evenodd" clip-rule="evenodd" d="M20.9069 5.99659V9.12159H19.6569V5.99659H20.9069Z" fill="currentColor"/>
<path fill-rule="evenodd" clip-rule="evenodd" d="M17.1635 20.646L14.7204 15.646L15.8435 15.0972L18.2866 20.0972L17.1635 20.646Z" fill="currentColor"/>
<path fill-rule="evenodd" clip-rule="evenodd" d="M7.09345 15.646L4.65032 20.646L3.52723 20.0972L5.97035 15.0972L7.09345 15.646Z" fill="currentColor"/>
<path fill-rule="evenodd" clip-rule="evenodd" d="M16.5038 18.4966H5.31003V17.2466H16.5038V18.4966Z" fill="currentColor"/>
<path fill-rule="evenodd" clip-rule="evenodd" d="M5.9069 2.24659C5.21645 2.24659 4.6569 2.80615 4.6569 3.49659V14.7466H17.1569V3.49659C17.1569 2.80615 16.5973 2.24659 15.9069 2.24659H5.9069ZM3.4069 3.49659C3.4069 2.11579 4.5261 0.996592 5.9069 0.996592H15.9069C17.2877 0.996592 18.4069 2.11579 18.4069 3.49659V15.9966H3.4069V3.49659Z" fill="currentColor"/>
<path fill-rule="evenodd" clip-rule="evenodd" d="M5.9069 3.49659H15.9069V10.3716H5.9069V3.49659ZM7.1569 4.74659V9.12159H14.6569V4.74659H7.1569Z" fill="currentColor"/>
<path d="M6.8444 13.4966C7.36217 13.4966 7.7819 13.0769 7.7819 12.5591C7.7819 12.0413 7.36217 11.6216 6.8444 11.6216C6.32663 11.6216 5.9069 12.0413 5.9069 12.5591C5.9069 13.0769 6.32663 13.4966 6.8444 13.4966Z" fill="currentColor"/>
<path d="M14.9694 13.4966C15.4872 13.4966 15.9069 13.0769 15.9069 12.5591C15.9069 12.0413 15.4872 11.6216 14.9694 11.6216C14.4516 11.6216 14.0319 12.0413 14.0319 12.5591C14.0319 13.0769 14.4516 13.4966 14.9694 13.4966Z" fill="currentColor"/>
<path fill-rule="evenodd" clip-rule="evenodd" d="M2.32357 5.82993V9.28826H0.740234V5.82993H2.32357ZM21.0736 5.82993V9.28826H19.4902V5.82993H21.0736ZM3.4069 15.9966V3.49659C3.4069 2.11579 4.5261 0.996592 5.9069 0.996592H15.9069C17.2877 0.996592 18.4069 2.11579 18.4069 3.49659V15.9966H16.2829L18.2866 20.0972L17.1635 20.646L16.1132 18.4966H5.70057L4.65032 20.646L3.52723 20.0972L5.53089 15.9966H3.4069ZM5.26395 16.1633H3.24023V3.49659C3.24023 2.02374 4.43405 0.829926 5.9069 0.829926H15.9069C17.3798 0.829926 18.5736 2.02374 18.5736 3.49659V16.1633H16.5498L18.5095 20.1738L17.0869 20.8689L16.0092 18.6633H5.80463L4.7269 20.8689L3.30431 20.1738L5.26395 16.1633ZM14.8917 15.9966H6.92213L6.31135 17.2466H15.5025L14.8917 15.9966ZM15.2355 17.0799L14.7876 16.1633H7.02619L6.57829 17.0799H15.2355ZM5.74023 3.32993H16.0736V10.5383H5.74023V3.32993ZM2.1569 9.12159H0.906901V5.99659H2.1569V9.12159ZM20.9069 9.12159H19.6569V5.99659H20.9069V9.12159ZM5.9069 2.41326C5.3085 2.41326 4.82357 2.89819 4.82357 3.49659V14.5799H16.9902V3.49659C16.9902 2.89819 16.5053 2.41326 15.9069 2.41326H5.9069ZM7.32357 4.91326V8.95493H14.4902V4.91326H7.32357ZM5.9069 3.49659H15.9069V10.3716H5.9069V3.49659ZM7.94857 12.5591C7.94857 13.1689 7.45422 13.6633 6.8444 13.6633C6.23459 13.6633 5.74023 13.1689 5.74023 12.5591C5.74023 11.9493 6.23459 11.4549 6.8444 11.4549C7.45422 11.4549 7.94857 11.9493 7.94857 12.5591ZM16.0736 12.5591C16.0736 13.1689 15.5792 13.6633 14.9694 13.6633C14.3596 13.6633 13.8652 13.1689 13.8652 12.5591C13.8652 11.9493 14.3596 11.4549 14.9694 11.4549C15.5792 11.4549 16.0736 11.9493 16.0736 12.5591ZM5.9069 2.24659C5.21645 2.24659 4.6569 2.80615 4.6569 3.49659V14.7466H17.1569V3.49659C17.1569 2.80615 16.5973 2.24659 15.9069 2.24659H5.9069ZM7.1569 4.74659H14.6569V9.12159H7.1569V4.74659ZM6.8444 13.4966C7.36217 13.4966 7.7819 13.0769 7.7819 12.5591C7.7819 12.0413 7.36217 11.6216 6.8444 11.6216C6.32663 11.6216 5.9069 12.0413 5.9069 12.5591C5.9069 13.0769 6.32663 13.4966 6.8444 13.4966ZM15.9069 12.5591C15.9069 13.0769 15.4872 13.4966 14.9694 13.4966C14.4516 13.4966 14.0319 13.0769 14.0319 12.5591C14.0319 12.0413 14.4516 11.6216 14.9694 11.6216C15.4872 11.6216 15.9069 12.0413 15.9069 12.5591Z" fill="currentColor"/>


</svg>
