<svg xmlns="http://www.w3.org/2000/svg" viewBox="0 0 24 24" fill="none"><g clip-path="url(#a)"><path fill="currentColor" d="M20.4 3.45C18.15 1.2 15.3 0 12 0 5.55 0 .15 5.4.15 11.85c0 2.1.6 4.2 1.65 6L0 24l6.3-1.65c1.8.9 3.75 1.5 5.7 1.5 6.6 0 11.85-5.4 11.85-11.85.15-3.3-1.2-6.3-3.45-8.55ZM17.85 16.2c-.3.75-1.5 1.35-1.95 1.35-.45.15-1.95 0-3.6-.75-3-1.35-4.95-4.35-5.1-4.5-.15-.15-1.2-1.65-1.2-3s.75-2.25 1.05-2.55c.6-.6 1.8-.45 2.1.15.15.6.75 2.1.9 2.25.15.15.15.75-.3 1.05-.15 0-.9.6-.6 1.05.15.3.75 1.2 1.65 2.1 1.2 1.05 2.1 1.35 2.4 1.5.3.15.45.15.6-.15.15-.15.75-.9.9-1.2.15-.3.45-.3.6-.15.15.15 1.8.75 2.1.9.3.3.6.3.6.45.15.15.15.75-.15 1.5Z"/></g><defs><clipPath id="a"><path fill="#fff" d="M0 0h24v24H0z"/></clipPath></defs></svg>