<svg fill="none" xmlns="http://www.w3.org/2000/svg"><path d="M81.16 33.636h-1.467c-.07 0-.07.07-.07.07v.209c0 1.116-.558 1.744-1.605 1.744s-1.606-.628-1.606-1.744v-3.489h4.329c.07 0 .07-.07.07-.07v-1.395c0-.07-.07-.07-.07-.07h-4.329v-2.72c0-.07-.07-.07-.07-.07h-1.606c-.07 0-.07.07-.07.07v7.813c0 2.093 1.188 3.35 3.282 3.35 2.094 0 3.281-1.187 3.281-3.35v-.209c.07-.07 0-.14-.07-.14ZM114.991 28.612c-2.583 0-4.398 1.814-4.398 4.326 0 2.512 1.885 4.326 4.398 4.326 1.885 0 3.351-.907 4.05-2.512v-.07l-.07-.07h-1.676s-.07 0-.07.07c-.419.698-1.117.977-2.164.977-1.396 0-2.374-.767-2.583-2.023h6.912c.069 0 .069-.07.069-.07v-.558c-.069-2.582-1.954-4.396-4.468-4.396Zm-2.513 3.419c.349-1.116 1.257-1.814 2.513-1.814 1.257 0 2.234.698 2.514 1.814h-5.027ZM130.56 28.612c-1.257 0-2.234.559-2.862 1.466-.559-.977-1.606-1.466-2.863-1.466-2.164 0-3.421 1.396-3.421 3.698v4.674c0 .07.07.07.07.07h1.536c.07 0 .07-.07.07-.07V32.31c0-1.326.628-2.093 1.815-2.093 1.117 0 1.815.768 1.815 2.093v4.674c0 .07.07.07.07.07h1.676c.069 0 .069-.07.069-.07V32.31c0-1.326.699-2.093 1.816-2.093 1.186 0 1.815.768 1.815 2.093v4.674c0 .07.07.07.07.07h1.536c.069 0 .069-.07.069-.07V32.31c.07-2.302-1.186-3.698-3.281-3.698ZM159.93 33.636h-1.536c-.07 0-.07.07-.07.07v.209c0 1.116-.558 1.744-1.605 1.744-1.048 0-1.606-.628-1.606-1.744v-3.489h4.328c.07 0 .07-.07.07-.07v-1.395c0-.07-.07-.07-.07-.07h-4.328v-2.72c0-.07-.07-.07-.07-.07h-1.536c-.07 0-.07.07-.07.07v7.813c0 2.093 1.187 3.35 3.282 3.35 2.094 0 3.281-1.187 3.281-3.35v-.209c0-.07-.07-.14-.07-.14ZM87.763 28.612h-.907c-.559 0-1.117.14-1.606.35-.489.209-.908.488-1.327.906a4.47 4.47 0 0 0-.907 1.326 4.137 4.137 0 0 0-.35 1.604v4.117c0 .07.07.07.07.07h1.606c.07 0 .07-.07.07-.07v-4.117c0-.348.07-.628.21-.907.14-.279.279-.558.488-.767.21-.21.489-.419.768-.488.28-.14.559-.21.908-.21h.907c.07 0 .07-.07.07-.07v-1.534c.07-.14 0-.21 0-.21ZM151.536 28.612h-.907c-.559 0-1.117.14-1.606.35-.489.209-.908.488-1.327.906a4.46 4.46 0 0 0-.907 1.326 4.126 4.126 0 0 0-.349 1.604v4.117c0 .07.07.07.07.07h1.605c.07 0 .07-.07.07-.07v-4.117c0-.348.07-.628.21-.907.139-.279.279-.558.488-.767.21-.21.489-.419.768-.488.279-.14.559-.21.908-.21h.907c.07 0 .07-.07.07-.07v-1.534c.07-.14.07-.21 0-.21ZM93.279 28.612c-2.584 0-4.399 1.814-4.399 4.396 0 2.79 2.095 4.256 4.19 4.256 1.326 0 2.443-.628 3.001-1.675v1.326c0 .07.07.07.07.07h1.396c.07 0 .07-.07.07-.07v-3.977c0-2.512-1.815-4.326-4.328-4.326Zm2.653 4.326c0 1.605-1.118 2.72-2.653 2.72-1.536 0-2.653-1.115-2.653-2.72 0-1.605 1.117-2.72 2.653-2.72 1.535 0 2.653 1.115 2.653 2.72ZM140.171 28.612c-2.583 0-4.398 1.814-4.398 4.396 0 2.79 2.094 4.256 4.189 4.256 1.326 0 2.443-.628 3.002-1.675v1.326c0 .07.07.07.07.07h1.396c.07 0 .07-.07.07-.07v-3.977c.07-2.512-1.745-4.326-4.329-4.326Zm2.653 4.326c0 1.605-1.117 2.72-2.653 2.72s-2.653-1.115-2.653-2.72c0-1.605 1.117-2.72 2.653-2.72s2.653 1.115 2.653 2.72ZM108.498 25.333h-1.536c-.069 0-.069.07-.069.07v4.605c-.629-.907-1.676-1.396-2.933-1.396-2.094 0-4.189 1.466-4.189 4.256 0 2.582 1.816 4.396 4.399 4.396s4.398-1.745 4.398-4.396v-7.465c0-.07-.07-.07-.07-.07Zm-1.675 7.605c0 1.605-1.117 2.72-2.653 2.72-1.606 0-2.653-1.115-2.653-2.72 0-1.605 1.117-2.72 2.653-2.72s2.653 1.115 2.653 2.72ZM38.667 32A6.648 6.648 0 0 1 32 38.667 6.648 6.648 0 0 1 25.333 32 6.648 6.648 0 0 1 32 25.333c3.696 0 6.667 3.037 6.667 6.667ZM62.667 32A6.648 6.648 0 0 1 56 38.667 6.648 6.648 0 0 1 49.333 32 6.648 6.648 0 0 1 56 25.333c3.696 0 6.667 3.037 6.667 6.667ZM38.667 8A6.648 6.648 0 0 1 32 14.667 6.648 6.648 0 0 1 25.333 8 6.648 6.648 0 0 1 32 1.333c3.696 0 6.667 3.037 6.667 6.667ZM26.667 20A6.648 6.648 0 0 1 20 26.667 6.648 6.648 0 0 1 13.333 20 6.648 6.648 0 0 1 20 13.333c3.696 0 6.667 3.037 6.667 6.667ZM26.667 44A6.648 6.648 0 0 1 20 50.667 6.648 6.648 0 0 1 13.333 44 6.648 6.648 0 0 1 20 37.333c3.696 0 6.667 3.037 6.667 6.667ZM50.667 20A6.648 6.648 0 0 1 44 26.667 6.648 6.648 0 0 1 37.333 20 6.648 6.648 0 0 1 44 13.333c3.696 0 6.667 3.037 6.667 6.667ZM50.667 44A6.648 6.648 0 0 1 44 50.667 6.648 6.648 0 0 1 37.333 44 6.648 6.648 0 0 1 44 37.333c3.696 0 6.667 3.037 6.667 6.667ZM38.667 56A6.648 6.648 0 0 1 32 62.667 6.648 6.648 0 0 1 25.333 56 6.648 6.648 0 0 1 32 49.333c3.696 0 6.667 3.037 6.667 6.667ZM14.667 32A6.648 6.648 0 0 1 8 38.667 6.648 6.648 0 0 1 1.333 32 6.648 6.648 0 0 1 8 25.333c3.696 0 6.667 3.037 6.667 6.667ZM172.117 25.813v4.336c-.608-.832-1.552-1.344-2.8-1.344-2.176 0-3.984 1.824-3.984 4.208 0 2.368 1.808 4.208 3.984 4.208 1.248 0 2.192-.512 2.8-1.36v1.152h1.728v-11.2h-1.728Zm-2.528 9.76c-1.44 0-2.528-1.072-2.528-2.56s1.088-2.56 2.528-2.56 2.528 1.072 2.528 2.56-1.088 2.56-2.528 2.56ZM176.724 27.813c.608 0 1.104-.512 1.104-1.104 0-.608-.496-1.104-1.104-1.104-.608 0-1.104.496-1.104 1.104 0 .592.496 1.104 1.104 1.104Zm-.865 9.2h1.729v-8h-1.729v8ZM185.962 29.013v1.184c-.608-.864-1.552-1.392-2.784-1.392-2.256 0-4.032 1.84-4.032 4.128 0 2.288 1.776 4.128 4.032 4.128 1.232 0 2.176-.528 2.784-1.392v.976c0 1.392-.896 2.208-2.384 2.208-1.392 0-1.984-.544-2.336-1.232l-1.488.864c.672 1.28 2.032 1.936 3.792 1.936 2.096 0 4.112-1.2 4.112-3.776v-7.632h-1.696Zm-2.544 6.432c-1.456 0-2.544-1.072-2.544-2.512s1.088-2.512 2.544-2.512 2.544 1.072 2.544 2.512-1.088 2.512-2.544 2.512ZM190.536 27.813c.608 0 1.104-.512 1.104-1.104 0-.608-.496-1.104-1.104-1.104-.608 0-1.104.496-1.104 1.104 0 .592.496 1.104 1.104 1.104Zm-.864 9.2h1.728v-8h-1.728v8ZM197.87 30.677v-1.664h-1.984v-2.24l-1.728.512v1.728h-1.472v1.664h1.472v3.84c0 2.08 1.056 2.816 3.712 2.496v-1.552c-1.312.064-1.984.08-1.984-.944v-3.84h1.984ZM205.446 29.013v1.136c-.608-.832-1.552-1.344-2.8-1.344-2.176 0-3.984 1.824-3.984 4.208 0 2.368 1.808 4.208 3.984 4.208 1.248 0 2.192-.512 2.8-1.36v1.152h1.728v-8h-1.728Zm-2.528 6.56c-1.44 0-2.528-1.072-2.528-2.56s1.088-2.56 2.528-2.56 2.528 1.072 2.528 2.56-1.088 2.56-2.528 2.56ZM209.188 37.013h1.728v-11.68h-1.728v11.68Z" fill="currentColor"/></svg>